<?xml version="1.0" standalone="no"?>
 <!DOCTYPE svg PUBLIC "-//W3C//DTD SVG 1.1//EN" 
 "http://www.w3.org/Graphics/SVG/1.1/DTD/svg11.dtd"> 
<svg xmlns="http://www.w3.org/2000/svg" version="1.1" 
    width="14.7117cm" height="17.3126cm" viewBox="0 0 57920 68160 ">
<title>SVG Picture created as ms20verb-F_SilkS.svg date 2021/08/11 16:09:02 </title>
  <desc>Picture generated by PCBNEW </desc>
<g style="fill:#000000; fill-opacity:1;stroke:#000000; stroke-opacity:1;
stroke-linecap:round; stroke-linejoin:round; "
 transform="translate(0 0) scale(1 1)">
</g>
<g style="fill:#000000; fill-opacity:0.0; 
stroke:#000000; stroke-width:-0.000393701; stroke-opacity:1; 
stroke-linecap:round; stroke-linejoin:round;">
</g>
<g style="fill:#C2C2C2; fill-opacity:0.0; 
stroke:#C2C2C2; stroke-width:-0.000393701; stroke-opacity:1; 
stroke-linecap:round; stroke-linejoin:round;">
</g>
<g style="fill:#C2C2C2; fill-opacity:0.0; 
stroke:#C2C2C2; stroke-width:50; stroke-opacity:1; 
stroke-linecap:round; stroke-linejoin:round;">
<circle cx="34056.5" cy="21676.6" r="393.701" /> 
<path d="M31694 13408
L31694 12227
" />
<path d="M30513 13408
L31694 13408
" />
<path d="M30513 12227
L30513 13408
" />
<path d="M33662.8 20101.8 A393.701 393.701 0.0 0 0 34450.2 20101.8 " />
<path d="M29135.2 22267.1 A196.85 196.85 0.0 0 0 29528.9 22267.1 " />
<path d="M29528 20101
L29528 22267
" />
<path d="M29135 20101
L29135 22267
" />
<path d="M33269.1 21676.6 A801.181 801.181 0.0 0 0 34871.5 21676.6 " />
<path d="M34871 20101
L34871 21676
" />
<path d="M33269 20101
L33269 21676
" />
<path d="M33269 19708
L34871 19708
" />
<path d="M29725 19708
L28965 19708
" />
<path d="M33269 19708
L33269 12227
" />
<path d="M29135 20101
L28965 20101
" />
<path d="M29528 20101
L29135 20101
" />
<path d="M29725 20101
L29528 20101
" />
<path d="M29725 19708
L29725 20101
" />
<path d="M33269 19708
L29725 19708
" />
<path d="M33269 20101
L33269 19708
" />
<path d="M33662 20101
L33269 20101
" />
<path d="M34450 20101
L33662 20101
" />
<path d="M34871 20101
L34450 20101
" />
<path d="M34871 19708
L34871 20101
" />
<path d="M34871 12227
L34871 19708
" />
<path d="M34084 12227
L34871 12227
" />
<path d="M31694 12227
L33269 12227
" />
<path d="M30513 12227
L31694 12227
" />
<path d="M28965 12227
L29753 12227
" />
<path d="M28965 19708
L28965 12227
" />
<path d="M28965 20101
L28965 19708
" />
<path d="M33670 11440
L30513 11834
" />
<path d="M30166 9471
L33670 9078
" />
<path d="M30166 9865
L33670 9471
" />
<path d="M30166 10259
L33670 9865
" />
<path d="M30166 10652
L33670 10259
" />
<path d="M30166 11046
L33670 10652
" />
<path d="M30166 11440
L33670 11046
" />
<path d="M30513 11834
L33670 11834
" />
<path d="M30166 11834
L30513 11834
" />
<path d="M30513 12227
L29753 12227
" />
<path d="M34084 12227
L33269 12227
" />
<path d="M34084 11834
L34084 12227
" />
<path d="M33670 11834
L34084 11834
" />
<path d="M33670 11440
L33670 11834
" />
<path d="M33670 11046
L33670 11440
" />
<path d="M33670 10652
L33670 11046
" />
<path d="M33670 10259
L33670 10652
" />
<path d="M33670 9865
L33670 10259
" />
<path d="M33670 9471
L33670 9865
" />
<path d="M33670 9078
L33670 9471
" />
<path d="M30166 9078
L33670 9078
" />
<path d="M30166 9471
L30166 9078
" />
<path d="M30166 9865
L30166 9471
" />
<path d="M30166 10259
L30166 9865
" />
<path d="M30166 10652
L30166 10259
" />
<path d="M30166 11046
L30166 10652
" />
<path d="M30166 11440
L30166 11046
" />
<path d="M30166 11834
L30166 11440
" />
<path d="M29753 11834
L30166 11834
" />
<path d="M29753 12227
L29753 11834
" />
<path d="M36906 12275
L36906 11881
" />
<path d="M36906 11881
L37320 11881
" />
<path d="M37320 11881
L37320 11487
" />
<path d="M37320 11487
L37320 11093
" />
<path d="M37320 11093
L37320 10700
" />
<path d="M37320 10700
L37320 10306
" />
<path d="M37320 10306
L37320 9912
" />
<path d="M37320 9912
L37320 9519
" />
<path d="M37320 9519
L37320 9125
" />
<path d="M37320 9125
L40824 9125
" />
<path d="M40824 9125
L40824 9519
" />
<path d="M40824 9519
L40824 9912
" />
<path d="M40824 9912
L40824 10306
" />
<path d="M40824 10306
L40824 10700
" />
<path d="M40824 10700
L40824 11093
" />
<path d="M40824 11093
L40824 11487
" />
<path d="M40824 11487
L40824 11881
" />
<path d="M40824 11881
L41237 11881
" />
<path d="M41237 11881
L41237 12275
" />
<path d="M41237 12275
L40422 12275
" />
<path d="M37666 12275
L36906 12275
" />
<path d="M37320 11881
L37666 11881
" />
<path d="M37666 11881
L40824 11881
" />
<path d="M37320 11487
L40824 11093
" />
<path d="M37320 11093
L40824 10700
" />
<path d="M37320 10700
L40824 10306
" />
<path d="M37320 10306
L40824 9912
" />
<path d="M37320 9912
L40824 9519
" />
<path d="M37320 9519
L40824 9125
" />
<path d="M40824 11487
L37666 11881
" />
<path d="M36119 20149
L36119 19755
" />
<path d="M36119 19755
L36119 12275
" />
<path d="M36119 12275
L36906 12275
" />
<path d="M37666 12275
L38847 12275
" />
<path d="M38847 12275
L40422 12275
" />
<path d="M41237 12275
L42025 12275
" />
<path d="M42025 12275
L42025 19755
" />
<path d="M42025 19755
L42025 20149
" />
<path d="M42025 20149
L41603 20149
" />
<path d="M41603 20149
L40816 20149
" />
<path d="M40816 20149
L40422 20149
" />
<path d="M40422 20149
L40422 19755
" />
<path d="M40422 19755
L36879 19755
" />
<path d="M36879 19755
L36879 20149
" />
<path d="M36879 20149
L36682 20149
" />
<path d="M36682 20149
L36288 20149
" />
<path d="M36288 20149
L36119 20149
" />
<path d="M40422 19755
L40422 12275
" />
<path d="M36879 19755
L36119 19755
" />
<path d="M40422 19755
L42025 19755
" />
<path d="M40422 20149
L40422 21723
" />
<path d="M42025 20149
L42025 21723
" />
<path d="M40422.6 21723.8 A801.181 801.181 0.0 0 0 42025 21723.8 " />
<path d="M36288 20149
L36288 22314
" />
<path d="M36682 20149
L36682 22314
" />
<path d="M36288.8 22314.4 A196.85 196.85 0.0 0 0 36682.5 22314.4 " />
<path d="M40816.3 20149 A393.701 393.701 0.0 0 0 41603.7 20149 " />
<path d="M37666 12275
L37666 13456
" />
<path d="M37666 13456
L38847 13456
" />
<path d="M38847 13456
L38847 12275
" />
<circle cx="41210" cy="21723.8" r="393.701" /> 
<circle cx="20997.4" cy="21731.7" r="393.701" /> 
<path d="M18635 13463
L18635 12282
" />
<path d="M17454 13463
L18635 13463
" />
<path d="M17454 12282
L17454 13463
" />
<path d="M20603.7 20156.9 A393.701 393.701 0.0 0 0 21391.1 20156.9 " />
<path d="M16076.2 22322.2 A196.85 196.85 0.0 0 0 16469.9 22322.2 " />
<path d="M16469 20156
L16469 22322
" />
<path d="M16076 20156
L16076 22322
" />
<path d="M20210 21731.7 A801.181 801.181 0.0 0 0 21812.4 21731.7 " />
<path d="M21812 20156
L21812 21731
" />
<path d="M20210 20156
L20210 21731
" />
<path d="M20210 19763
L21812 19763
" />
<path d="M16666 19763
L15906 19763
" />
<path d="M20210 19763
L20210 12282
" />
<path d="M16076 20156
L15906 20156
" />
<path d="M16469 20156
L16076 20156
" />
<path d="M16666 20156
L16469 20156
" />
<path d="M16666 19763
L16666 20156
" />
<path d="M20210 19763
L16666 19763
" />
<path d="M20210 20156
L20210 19763
" />
<path d="M20603 20156
L20210 20156
" />
<path d="M21391 20156
L20603 20156
" />
<path d="M21812 20156
L21391 20156
" />
<path d="M21812 19763
L21812 20156
" />
<path d="M21812 12282
L21812 19763
" />
<path d="M21025 12282
L21812 12282
" />
<path d="M18635 12282
L20210 12282
" />
<path d="M17454 12282
L18635 12282
" />
<path d="M15906 12282
L16694 12282
" />
<path d="M15906 19763
L15906 12282
" />
<path d="M15906 20156
L15906 19763
" />
<path d="M20611 11495
L17454 11889
" />
<path d="M17107 9526
L20611 9133
" />
<path d="M17107 9920
L20611 9526
" />
<path d="M17107 10314
L20611 9920
" />
<path d="M17107 10708
L20611 10314
" />
<path d="M17107 11101
L20611 10708
" />
<path d="M17107 11495
L20611 11101
" />
<path d="M17454 11889
L20611 11889
" />
<path d="M17107 11889
L17454 11889
" />
<path d="M17454 12282
L16694 12282
" />
<path d="M21025 12282
L20210 12282
" />
<path d="M21025 11889
L21025 12282
" />
<path d="M20611 11889
L21025 11889
" />
<path d="M20611 11495
L20611 11889
" />
<path d="M20611 11101
L20611 11495
" />
<path d="M20611 10708
L20611 11101
" />
<path d="M20611 10314
L20611 10708
" />
<path d="M20611 9920
L20611 10314
" />
<path d="M20611 9526
L20611 9920
" />
<path d="M20611 9133
L20611 9526
" />
<path d="M17107 9133
L20611 9133
" />
<path d="M17107 9526
L17107 9133
" />
<path d="M17107 9920
L17107 9526
" />
<path d="M17107 10314
L17107 9920
" />
<path d="M17107 10708
L17107 10314
" />
<path d="M17107 11101
L17107 10708
" />
<path d="M17107 11495
L17107 11101
" />
<path d="M17107 11889
L17107 11495
" />
<path d="M16694 11889
L17107 11889
" />
<path d="M16694 12282
L16694 11889
" />
<path d="M36464 36795
L37664 36795
" />
<path d="M38464 36795
L39664 36795
" />
<path d="M40464 36795
L41664 36795
" />
<path d="M36464 36795
L36464 37995
" />
<path d="M36464 37995
L37664 37995
" />
<path d="M37664 37995
L37664 36795
" />
<path d="M38464 36795
L38464 37995
" />
<path d="M38464 37995
L39664 37995
" />
<path d="M39664 37995
L39664 36795
" />
<path d="M40464 36795
L40464 37995
" />
<path d="M40464 37995
L41664 37995
" />
<path d="M41664 37995
L41664 36795
" />
<path d="M16259 36795
L17459 36795
" />
<path d="M18259 36795
L19459 36795
" />
<path d="M20259 36795
L21459 36795
" />
<path d="M16259 36795
L16259 37995
" />
<path d="M16259 37995
L17459 37995
" />
<path d="M17459 37995
L17459 36795
" />
<path d="M18259 36795
L18259 37995
" />
<path d="M18259 37995
L19459 37995
" />
<path d="M19459 37995
L19459 36795
" />
<path d="M20259 36795
L20259 37995
" />
<path d="M20259 37995
L21459 37995
" />
<path d="M21459 37995
L21459 36795
" />
<path d="M41664 26806
L41664 25606
" />
<path d="M40464 26806
L41664 26806
" />
<path d="M40464 25606
L40464 26806
" />
<path d="M39664 26806
L39664 25606
" />
<path d="M38464 26806
L39664 26806
" />
<path d="M38464 25606
L38464 26806
" />
<path d="M37664 26806
L37664 25606
" />
<path d="M36464 26806
L37664 26806
" />
<path d="M36464 25606
L36464 26806
" />
<path d="M40464 25606
L41664 25606
" />
<path d="M38464 25606
L39664 25606
" />
<path d="M36464 25606
L37664 25606
" />
<path d="M26362 25606
L27562 25606
" />
<path d="M28362 25606
L29562 25606
" />
<path d="M30362 25606
L31562 25606
" />
<path d="M26362 25606
L26362 26806
" />
<path d="M26362 26806
L27562 26806
" />
<path d="M27562 26806
L27562 25606
" />
<path d="M28362 25606
L28362 26806
" />
<path d="M28362 26806
L29562 26806
" />
<path d="M29562 26806
L29562 25606
" />
<path d="M30362 25606
L30362 26806
" />
<path d="M30362 26806
L31562 26806
" />
<path d="M31562 26806
L31562 25606
" />
<path d="M21459 26806
L21459 25606
" />
<path d="M20259 26806
L21459 26806
" />
<path d="M20259 25606
L20259 26806
" />
<path d="M19459 26806
L19459 25606
" />
<path d="M18259 26806
L19459 26806
" />
<path d="M18259 25606
L18259 26806
" />
<path d="M17459 26806
L17459 25606
" />
<path d="M16259 26806
L17459 26806
" />
<path d="M16259 25606
L16259 26806
" />
<path d="M20259 25606
L21459 25606
" />
<path d="M18259 25606
L19459 25606
" />
<path d="M16259 25606
L17459 25606
" />
</g>
<g style="fill:#C2C2C2; fill-opacity:0.0; 
stroke:#C2C2C2; stroke-width:59.0551; stroke-opacity:1; 
stroke-linecap:round; stroke-linejoin:round;">
<text x="39064.4" y="51797.4"
textLength="2449.43" font-size="800" lengthAdjust="spacingAndGlyphs"
text-anchor="middle" opacity="0">Ref**</text>
<path d="M38364 51768
L38164 51483
" />
<path d="M38021 51768
L38021 51168
L38250 51168
L38307 51197
L38335 51226
L38364 51283
L38364 51368
L38335 51426
L38307 51454
L38250 51483
L38021 51483
" />
<path d="M38850 51740
L38792 51768
L38678 51768
L38621 51740
L38592 51683
L38592 51454
L38621 51397
L38678 51368
L38792 51368
L38850 51397
L38878 51454
L38878 51511
L38592 51568
" />
<path d="M39050 51368
L39278 51368
" />
<path d="M39135 51768
L39135 51254
L39164 51197
L39221 51168
L39278 51168
" />
<path d="M39564 51168
L39564 51311
" />
<path d="M39421 51254
L39564 51311
L39707 51254
" />
<path d="M39478 51426
L39564 51311
L39650 51426
" />
<path d="M40021 51168
L40021 51311
" />
<path d="M39878 51254
L40021 51311
L40164 51254
" />
<path d="M39935 51426
L40021 51311
L40107 51426
" />
<text x="39064.4" y="51797.4"
textLength="2362.49" font-size="800" lengthAdjust="spacingAndGlyphs"
text-anchor="middle" opacity="0">Val**</text>
<path d="M37978 51168
L38178 51768
L38378 51168
" />
<path d="M38835 51768
L38835 51454
L38807 51397
L38750 51368
L38635 51368
L38578 51397
" />
<path d="M38835 51740
L38778 51768
L38635 51768
L38578 51740
L38550 51683
L38550 51626
L38578 51568
L38635 51540
L38778 51540
L38835 51511
" />
<path d="M39207 51768
L39150 51740
L39121 51683
L39121 51168
" />
<path d="M39521 51168
L39521 51311
" />
<path d="M39378 51254
L39521 51311
L39664 51254
" />
<path d="M39435 51426
L39521 51311
L39607 51426
" />
<path d="M39978 51168
L39978 51311
" />
<path d="M39835 51254
L39978 51311
L40121 51254
" />
<path d="M39892 51426
L39978 51311
L40064 51426
" />
<text x="31918.7" y="12151.8"
textLength="76.7717" font-size="800" lengthAdjust="spacingAndGlyphs"
text-anchor="middle" opacity="0"></text>
<text x="31918.7" y="12151.8"
textLength="59.0551" font-size="800" lengthAdjust="spacingAndGlyphs"
text-anchor="middle" opacity="0"></text>
<text x="39072.2" y="12199"
textLength="59.0551" font-size="800" lengthAdjust="spacingAndGlyphs"
text-anchor="middle" opacity="0"></text>
<text x="39072.2" y="12199"
textLength="59.0551" font-size="800" lengthAdjust="spacingAndGlyphs"
text-anchor="middle" opacity="0"></text>
<text x="18859.6" y="12206.9"
textLength="59.0551" font-size="800" lengthAdjust="spacingAndGlyphs"
text-anchor="middle" opacity="0"></text>
<text x="18859.6" y="12206.9"
textLength="59.0551" font-size="800" lengthAdjust="spacingAndGlyphs"
text-anchor="middle" opacity="0"></text>
<text x="39064.4" y="36341.9"
textLength="958.943" font-size="524.934" lengthAdjust="spacingAndGlyphs"
text-anchor="middle" opacity="0">Val</text>
<path d="M38651 35929
L38783 36323
L38914 35929
" />
<path d="M39214 36323
L39214 36116
L39195 36079
L39158 36060
L39083 36060
L39045 36079
" />
<path d="M39214 36304
L39176 36323
L39083 36323
L39045 36304
L39026 36266
L39026 36229
L39045 36191
L39083 36173
L39176 36173
L39214 36154
" />
<path d="M39458 36323
L39420 36304
L39401 36266
L39401 35929
" />
</g>
<g style="fill:#C2C2C2; fill-opacity:0.0; 
stroke:#C2C2C2; stroke-width:38.4; stroke-opacity:1; 
stroke-linecap:round; stroke-linejoin:round;">
<text x="41564.4" y="36547.1"
textLength="366.295" font-size="405.333" lengthAdjust="spacingAndGlyphs"
text-anchor="middle" opacity="0">1</text>
<path d="M41651 36532
L41477 36532
" />
<path d="M41564 36532
L41564 36228
L41535 36272
L41506 36300
L41477 36315
" />
</g>
<g style="fill:#C2C2C2; fill-opacity:0.0; 
stroke:#C2C2C2; stroke-width:59.0551; stroke-opacity:1; 
stroke-linecap:round; stroke-linejoin:round;">
<text x="18859.6" y="36341.9"
textLength="949.807" font-size="524.934" lengthAdjust="spacingAndGlyphs"
text-anchor="middle" opacity="0">Val</text>
<path d="M18447 35929
L18578 36323
L18709 35929
" />
<path d="M19009 36323
L19009 36116
L18990 36079
L18953 36060
L18878 36060
L18840 36079
" />
<path d="M19009 36304
L18972 36323
L18878 36323
L18840 36304
L18822 36266
L18822 36229
L18840 36191
L18878 36173
L18972 36173
L19009 36154
" />
<path d="M19253 36323
L19215 36304
L19197 36266
L19197 35929
" />
</g>
<g style="fill:#C2C2C2; fill-opacity:0.0; 
stroke:#C2C2C2; stroke-width:38.4; stroke-opacity:1; 
stroke-linecap:round; stroke-linejoin:round;">
<text x="21359.6" y="36547.1"
textLength="366.295" font-size="405.333" lengthAdjust="spacingAndGlyphs"
text-anchor="middle" opacity="0">1</text>
<path d="M21446 36532
L21272 36532
" />
<path d="M21359 36532
L21359 36228
L21330 36272
L21301 36300
L21272 36315
" />
</g>
<g style="fill:#C2C2C2; fill-opacity:0.0; 
stroke:#C2C2C2; stroke-width:59.0551; stroke-opacity:1; 
stroke-linecap:round; stroke-linejoin:round;">
<text x="39064.4" y="25153"
textLength="949.807" font-size="524.934" lengthAdjust="spacingAndGlyphs"
text-anchor="middle" opacity="0">Val</text>
<path d="M38651 24740
L38783 25134
L38914 24740
" />
<path d="M39214 25134
L39214 24927
L39195 24890
L39158 24871
L39083 24871
L39045 24890
" />
<path d="M39214 25115
L39176 25134
L39083 25134
L39045 25115
L39026 25077
L39026 25040
L39045 25002
L39083 24984
L39176 24984
L39214 24965
" />
<path d="M39458 25134
L39420 25115
L39401 25077
L39401 24740
" />
</g>
<g style="fill:#C2C2C2; fill-opacity:0.0; 
stroke:#C2C2C2; stroke-width:38.4; stroke-opacity:1; 
stroke-linecap:round; stroke-linejoin:round;">
<text x="41564.4" y="25358.1"
textLength="366.295" font-size="405.333" lengthAdjust="spacingAndGlyphs"
text-anchor="middle" opacity="0">1</text>
<path d="M41651 25343
L41477 25343
" />
<path d="M41564 25343
L41564 25039
L41535 25083
L41506 25112
L41477 25126
" />
</g>
<g style="fill:#C2C2C2; fill-opacity:0.0; 
stroke:#C2C2C2; stroke-width:59.0551; stroke-opacity:1; 
stroke-linecap:round; stroke-linejoin:round;">
<text x="28962" y="25153"
textLength="949.807" font-size="524.934" lengthAdjust="spacingAndGlyphs"
text-anchor="middle" opacity="0">Val</text>
<path d="M28549 24740
L28680 25134
L28812 24740
" />
<path d="M29111 25134
L29111 24927
L29093 24890
L29055 24871
L28980 24871
L28943 24890
" />
<path d="M29111 25115
L29074 25134
L28980 25134
L28943 25115
L28924 25077
L28924 25040
L28943 25002
L28980 24984
L29074 24984
L29111 24965
" />
<path d="M29355 25134
L29318 25115
L29299 25077
L29299 24740
" />
</g>
<g style="fill:#C2C2C2; fill-opacity:0.0; 
stroke:#C2C2C2; stroke-width:38.4; stroke-opacity:1; 
stroke-linecap:round; stroke-linejoin:round;">
<text x="31462" y="25358.1"
textLength="366.295" font-size="405.333" lengthAdjust="spacingAndGlyphs"
text-anchor="middle" opacity="0">1</text>
<path d="M31548 25343
L31375 25343
" />
<path d="M31462 25343
L31462 25039
L31433 25083
L31404 25112
L31375 25126
" />
</g>
<g style="fill:#C2C2C2; fill-opacity:0.0; 
stroke:#C2C2C2; stroke-width:59.0551; stroke-opacity:1; 
stroke-linecap:round; stroke-linejoin:round;">
<text x="18859.6" y="25153"
textLength="949.807" font-size="524.934" lengthAdjust="spacingAndGlyphs"
text-anchor="middle" opacity="0">Val</text>
<path d="M18447 24740
L18578 25134
L18709 24740
" />
<path d="M19009 25134
L19009 24927
L18990 24890
L18953 24871
L18878 24871
L18840 24890
" />
<path d="M19009 25115
L18972 25134
L18878 25134
L18840 25115
L18822 25077
L18822 25040
L18840 25002
L18878 24984
L18972 24984
L19009 24965
" />
<path d="M19253 25134
L19215 25115
L19197 25077
L19197 24740
" />
</g>
<g style="fill:#C2C2C2; fill-opacity:0.0; 
stroke:#C2C2C2; stroke-width:38.4; stroke-opacity:1; 
stroke-linecap:round; stroke-linejoin:round;">
<text x="21359.6" y="25358.1"
textLength="366.295" font-size="405.333" lengthAdjust="spacingAndGlyphs"
text-anchor="middle" opacity="0">1</text>
<path d="M21446 25343
L21272 25343
" />
<path d="M21359 25343
L21359 25039
L21330 25083
L21301 25112
L21272 25126
" />
</g>
<g style="fill:#C2C2C2; fill-opacity:0.0; 
stroke:#C2C2C2; stroke-width:59.0551; stroke-opacity:1; 
stroke-linecap:round; stroke-linejoin:round;">
<text x="28962" y="34380.1"
textLength="49.9201" font-size="800" lengthAdjust="spacingAndGlyphs"
text-anchor="middle" opacity="0"></text>
<text x="28962" y="34380.1"
textLength="59.0551" font-size="800" lengthAdjust="spacingAndGlyphs"
text-anchor="middle" opacity="0"></text>
<g >
</g>
</g>
<g style="fill:#000000; fill-opacity:0.0; 
stroke:#000000; stroke-width:59.0551; stroke-opacity:1; 
stroke-linecap:round; stroke-linejoin:round;">
<g >
</g>
<g >
</g>
<g >
</g>
<g >
</g>
<g >
</g>
<g >
</g>
<g >
</g>
<g >
</g>
<g >
</g>
<g >
</g>
<g >
</g>
<g >
</g>
</g> 
</svg>
