<?xml version="1.0" standalone="no"?>
 <!DOCTYPE svg PUBLIC "-//W3C//DTD SVG 1.1//EN" 
 "http://www.w3.org/Graphics/SVG/1.1/DTD/svg11.dtd"> 
<svg xmlns="http://www.w3.org/2000/svg" version="1.1" 
    width="14.7117cm" height="17.3126cm" viewBox="0 0 57920 68160 ">
<title>SVG Picture created as ms20verb-B_SilkS.svg date 2021/08/11 16:09:02 </title>
  <desc>Picture generated by PCBNEW </desc>
<g style="fill:#000000; fill-opacity:1;stroke:#000000; stroke-opacity:1;
stroke-linecap:round; stroke-linejoin:round; "
 transform="translate(0 0) scale(1 1)">
</g>
<g style="fill:#000000; fill-opacity:0.0; 
stroke:#000000; stroke-width:-0.000393701; stroke-opacity:1; 
stroke-linecap:round; stroke-linejoin:round;">
</g>
<g style="fill:#840084; fill-opacity:0.0; 
stroke:#840084; stroke-width:-0.000393701; stroke-opacity:1; 
stroke-linecap:round; stroke-linejoin:round;">
</g>
<g style="fill:#840084; fill-opacity:0.0; 
stroke:#840084; stroke-width:50; stroke-opacity:1; 
stroke-linecap:round; stroke-linejoin:round;">
<circle cx="39064.4" cy="30899" r="353.543" /> 
<path d="M39064.4 27395.1 A3499.96 3499.96 0.0 0 0 35564.4 30895.1 " />
<path d="M42564.4 30895.1 A3499.96 3499.96 0.0 0 0 39064.4 27395.1 " />
<path d="M39064.4 34399 A3500 3500 0.0 0 0 42564.4 30899 " />
<path d="M35564.4 30895.1 A3500 3500 0.0 0 0 39064.4 34395.1 " />
<path d="M36064 32645
L36064 36645
" />
<path d="M42064 36645
L42064 32645
" />
<path d="M39064 34399
L39064 27399
" />
<path d="M35564 30895
L42564 30899
" />
<path d="M36064 36645
L42064 36645
" />
<path d="M36464 36795
L37664 36795
" />
<path d="M38464 36795
L39664 36795
" />
<path d="M40464 36795
L41664 36795
" />
<path d="M36464 36795
L36464 37995
" />
<path d="M36464 37995
L37664 37995
" />
<path d="M37664 37995
L37664 36795
" />
<path d="M38464 36795
L38464 37995
" />
<path d="M38464 37995
L39664 37995
" />
<path d="M39664 37995
L39664 36795
" />
<path d="M40464 36795
L40464 37995
" />
<path d="M40464 37995
L41664 37995
" />
<path d="M41664 37995
L41664 36795
" />
<circle cx="18859.6" cy="30899" r="353.543" /> 
<path d="M18859.6 27395.1 A3499.96 3499.96 0.0 0 0 15359.6 30895.1 " />
<path d="M22359.6 30895.1 A3499.96 3499.96 0.0 0 0 18859.6 27395.1 " />
<path d="M18859.6 34399 A3500 3500 0.0 0 0 22359.6 30899 " />
<path d="M15359.6 30895.1 A3500 3500 0.0 0 0 18859.6 34395.1 " />
<path d="M15859 32645
L15859 36645
" />
<path d="M21859 36645
L21859 32645
" />
<path d="M18859 34399
L18859 27399
" />
<path d="M15359 30895
L22359 30899
" />
<path d="M15859 36645
L21859 36645
" />
<path d="M16259 36795
L17459 36795
" />
<path d="M18259 36795
L19459 36795
" />
<path d="M20259 36795
L21459 36795
" />
<path d="M16259 36795
L16259 37995
" />
<path d="M16259 37995
L17459 37995
" />
<path d="M17459 37995
L17459 36795
" />
<path d="M18259 36795
L18259 37995
" />
<path d="M18259 37995
L19459 37995
" />
<path d="M19459 37995
L19459 36795
" />
<path d="M20259 36795
L20259 37995
" />
<path d="M20259 37995
L21459 37995
" />
<path d="M21459 37995
L21459 36795
" />
<path d="M41664 26806
L41664 25606
" />
<path d="M40464 26806
L41664 26806
" />
<path d="M40464 25606
L40464 26806
" />
<path d="M39664 26806
L39664 25606
" />
<path d="M38464 26806
L39664 26806
" />
<path d="M38464 25606
L38464 26806
" />
<path d="M37664 26806
L37664 25606
" />
<path d="M36464 26806
L37664 26806
" />
<path d="M36464 25606
L36464 26806
" />
<path d="M40464 25606
L41664 25606
" />
<path d="M38464 25606
L39664 25606
" />
<path d="M36464 25606
L37664 25606
" />
<path d="M36064 25456
L42064 25456
" />
<path d="M35564 19706
L42564 19710
" />
<path d="M39064 23210
L39064 16210
" />
<path d="M42064 25456
L42064 21456
" />
<path d="M36064 21456
L36064 25456
" />
<path d="M35564.4 19706.1 A3500 3500 0.0 0 0 39064.4 23206.1 " />
<path d="M39064.4 23210 A3500 3500 0.0 0 0 42564.4 19710 " />
<path d="M42564.4 19706.1 A3499.96 3499.96 0.0 0 0 39064.4 16206.1 " />
<path d="M39064.4 16206.1 A3499.96 3499.96 0.0 0 0 35564.4 19706.1 " />
<circle cx="39064.4" cy="19710" r="353.543" /> 
<circle cx="28962" cy="19710" r="353.543" /> 
<path d="M28962 16206.1 A3499.96 3499.96 0.0 0 0 25462 19706.1 " />
<path d="M32462 19706.1 A3499.96 3499.96 0.0 0 0 28962 16206.1 " />
<path d="M28962 23210 A3500 3500 0.0 0 0 32462 19710 " />
<path d="M25462 19706.1 A3500 3500 0.0 0 0 28962 23206.1 " />
<path d="M25962 21456
L25962 25456
" />
<path d="M31962 25456
L31962 21456
" />
<path d="M28962 23210
L28962 16210
" />
<path d="M25462 19706
L32462 19710
" />
<path d="M25962 25456
L31962 25456
" />
<path d="M26362 25606
L27562 25606
" />
<path d="M28362 25606
L29562 25606
" />
<path d="M30362 25606
L31562 25606
" />
<path d="M26362 25606
L26362 26806
" />
<path d="M26362 26806
L27562 26806
" />
<path d="M27562 26806
L27562 25606
" />
<path d="M28362 25606
L28362 26806
" />
<path d="M28362 26806
L29562 26806
" />
<path d="M29562 26806
L29562 25606
" />
<path d="M30362 25606
L30362 26806
" />
<path d="M30362 26806
L31562 26806
" />
<path d="M31562 26806
L31562 25606
" />
<path d="M21459 26806
L21459 25606
" />
<path d="M20259 26806
L21459 26806
" />
<path d="M20259 25606
L20259 26806
" />
<path d="M19459 26806
L19459 25606
" />
<path d="M18259 26806
L19459 26806
" />
<path d="M18259 25606
L18259 26806
" />
<path d="M17459 26806
L17459 25606
" />
<path d="M16259 26806
L17459 26806
" />
<path d="M16259 25606
L16259 26806
" />
<path d="M20259 25606
L21459 25606
" />
<path d="M18259 25606
L19459 25606
" />
<path d="M16259 25606
L17459 25606
" />
<path d="M15859 25456
L21859 25456
" />
<path d="M15359 19706
L22359 19710
" />
<path d="M18859 23210
L18859 16210
" />
<path d="M21859 25456
L21859 21456
" />
<path d="M15859 21456
L15859 25456
" />
<path d="M15359.6 19706.1 A3500 3500 0.0 0 0 18859.6 23206.1 " />
<path d="M18859.6 23210 A3500 3500 0.0 0 0 22359.6 19710 " />
<path d="M22359.6 19706.1 A3499.96 3499.96 0.0 0 0 18859.6 16206.1 " />
<path d="M18859.6 16206.1 A3499.96 3499.96 0.0 0 0 15359.6 19706.1 " />
<circle cx="18859.6" cy="19710" r="353.543" /> 
</g>
<g style="fill:#840084; fill-opacity:0.0; 
stroke:#840084; stroke-width:60; stroke-opacity:1; 
stroke-linecap:round; stroke-linejoin:round;">
<text x="39064.4" y="36382.6"
textLength="-1153.57" font-size="-633.333" lengthAdjust="spacingAndGlyphs"
text-anchor="middle" opacity="0">Ref</text>
<path d="M39256 36359
L39414 36133
" />
<path d="M39528 36359
L39528 35884
L39347 35884
L39301 35907
L39279 35930
L39256 35975
L39256 36043
L39279 36088
L39301 36111
L39347 36133
L39528 36133
" />
<path d="M38872 36337
L38917 36359
L39007 36359
L39053 36337
L39075 36292
L39075 36111
L39053 36065
L39007 36043
L38917 36043
L38872 36065
L38849 36111
L38849 36156
L39075 36201
" />
<path d="M38713 36043
L38532 36043
" />
<path d="M38645 36359
L38645 35952
L38623 35907
L38578 35884
L38532 35884
" />
<text x="18859.6" y="36382.6"
textLength="-1075.57" font-size="-633.333" lengthAdjust="spacingAndGlyphs"
text-anchor="middle" opacity="0">Ref</text>
<path d="M19051 36359
L19210 36133
" />
<path d="M19323 36359
L19323 35884
L19142 35884
L19097 35907
L19074 35930
L19051 35975
L19051 36043
L19074 36088
L19097 36111
L19142 36133
L19323 36133
" />
<path d="M18667 36337
L18712 36359
L18803 36359
L18848 36337
L18870 36292
L18870 36111
L18848 36065
L18803 36043
L18712 36043
L18667 36065
L18644 36111
L18644 36156
L18870 36201
" />
<path d="M18509 36043
L18328 36043
" />
<path d="M18441 36359
L18441 35952
L18418 35907
L18373 35884
L18328 35884
" />
<text x="39064.4" y="25193.6"
textLength="-1075.57" font-size="-633.333" lengthAdjust="spacingAndGlyphs"
text-anchor="middle" opacity="0">Ref</text>
<path d="M39256 25170
L39414 24944
" />
<path d="M39528 25170
L39528 24695
L39347 24695
L39301 24718
L39279 24741
L39256 24786
L39256 24854
L39279 24899
L39301 24922
L39347 24944
L39528 24944
" />
<path d="M38872 25148
L38917 25170
L39007 25170
L39053 25148
L39075 25103
L39075 24922
L39053 24876
L39007 24854
L38917 24854
L38872 24876
L38849 24922
L38849 24967
L39075 25012
" />
<path d="M38713 24854
L38532 24854
" />
<path d="M38645 25170
L38645 24763
L38623 24718
L38578 24695
L38532 24695
" />
<text x="28962" y="25193.6"
textLength="-1075.57" font-size="-633.333" lengthAdjust="spacingAndGlyphs"
text-anchor="middle" opacity="0">Ref</text>
<path d="M29154 25170
L29312 24944
" />
<path d="M29425 25170
L29425 24695
L29244 24695
L29199 24718
L29176 24741
L29154 24786
L29154 24854
L29176 24899
L29199 24922
L29244 24944
L29425 24944
" />
<path d="M28769 25148
L28814 25170
L28905 25170
L28950 25148
L28973 25103
L28973 24922
L28950 24876
L28905 24854
L28814 24854
L28769 24876
L28747 24922
L28747 24967
L28973 25012
" />
<path d="M28611 24854
L28430 24854
" />
<path d="M28543 25170
L28543 24763
L28520 24718
L28475 24695
L28430 24695
" />
<text x="18859.6" y="25193.6"
textLength="-1075.57" font-size="-633.333" lengthAdjust="spacingAndGlyphs"
text-anchor="middle" opacity="0">Ref</text>
<path d="M19051 25170
L19210 24944
" />
<path d="M19323 25170
L19323 24695
L19142 24695
L19097 24718
L19074 24741
L19051 24786
L19051 24854
L19074 24899
L19097 24922
L19142 24944
L19323 24944
" />
<path d="M18667 25148
L18712 25170
L18803 25170
L18848 25148
L18870 25103
L18870 24922
L18848 24876
L18803 24854
L18712 24854
L18667 24876
L18644 24922
L18644 24967
L18870 25012
" />
<path d="M18509 24854
L18328 24854
" />
<path d="M18441 25170
L18441 24763
L18418 24718
L18373 24695
L18328 24695
" />
<g >
</g>
</g>
<g style="fill:#000000; fill-opacity:0.0; 
stroke:#000000; stroke-width:60; stroke-opacity:1; 
stroke-linecap:round; stroke-linejoin:round;">
<g >
</g>
<g >
</g>
<g >
</g>
<g >
</g>
<g >
</g>
<g >
</g>
<g >
</g>
<g >
</g>
<g >
</g>
<g >
</g>
<g >
</g>
<g >
</g>
</g> 
</svg>
