<?xml version="1.0" standalone="no"?>
 <!DOCTYPE svg PUBLIC "-//W3C//DTD SVG 1.1//EN" 
 "http://www.w3.org/Graphics/SVG/1.1/DTD/svg11.dtd"> 
<svg xmlns="http://www.w3.org/2000/svg" version="1.1" 
    width="14.7117cm" height="17.3126cm" viewBox="0 0 57920 68160 ">
<title>SVG Picture created as ms20verb-Dwgs_User.svg date 2021/08/11 16:09:02 </title>
  <desc>Picture generated by PCBNEW </desc>
<g style="fill:#000000; fill-opacity:1;stroke:#000000; stroke-opacity:1;
stroke-linecap:round; stroke-linejoin:round; "
 transform="translate(0 0) scale(1 1)">
</g>
<g style="fill:#000000; fill-opacity:0.0; 
stroke:#000000; stroke-width:-0.000393701; stroke-opacity:1; 
stroke-linecap:round; stroke-linejoin:round;">
</g>
<g style="fill:#C2C2C2; fill-opacity:0.0; 
stroke:#C2C2C2; stroke-width:-0.000393701; stroke-opacity:1; 
stroke-linecap:round; stroke-linejoin:round;">
</g>
<g style="fill:#C2C2C2; fill-opacity:0.0; 
stroke:#C2C2C2; stroke-width:50; stroke-opacity:1; 
stroke-linecap:round; stroke-linejoin:round;">
<path d="M38564 51497
L39564 51497
" />
<path d="M39064 51997
L39064 50997
" />
<circle cx="39064.4" cy="51497.4" r="559.017" /> 
<path d="M31347 50710
L33513 50710
" />
<path d="M31347 52284
L33513 52284
" />
<path d="M33513 50710
L33513 50316
" />
<path d="M33513 52284
L33513 50710
" />
<path d="M33513 52678
L33513 52284
" />
<path d="M31347 52678
L33513 52678
" />
<path d="M31347 52284
L31347 52678
" />
<path d="M31347 50316
L31347 50710
" />
<path d="M33513 50316
L31347 50316
" />
<circle cx="39064.4" cy="51497.4" r="2283.46" /> 
<path d="M43355.7 51497.4 A2462.6 2462.6 0.0 0 0 40993.5 48938.4 " />
<path d="M40993.5 54056.5 A2462.6 2462.6 0.0 0 0 43355.7 51497.4 " />
<path d="M33513 54056
L40993 54056
" />
<path d="M33513 50316
L33513 48938
" />
<path d="M33513 54056
L33513 52678
" />
<path d="M33513 48938
L40993 48938
" />
<path d="M23936 11643
L26948 11643
" />
</g>
<g style="fill:#C2C2C2; fill-opacity:1.0; 
stroke:#C2C2C2; stroke-width:0; stroke-opacity:1; 
stroke-linecap:round; stroke-linejoin:round;">
<path style="fill:#C2C2C2; fill-opacity:1.0; 
stroke:#C2C2C2; stroke-width:0; stroke-opacity:1; 
stroke-linecap:round; stroke-linejoin:round;fill-rule:evenodd;"
d="M 23316.3,12607.7
27568.3,12607.7
27568.3,11879.3
23316.3,11879.3
" /> 
</g>
<g style="fill:#C2C2C2; fill-opacity:1.0; 
stroke:#C2C2C2; stroke-width:50; stroke-opacity:1; 
stroke-linecap:round; stroke-linejoin:round;">
</g>
<g style="fill:#C2C2C2; fill-opacity:0.0; 
stroke:#C2C2C2; stroke-width:50; stroke-opacity:1; 
stroke-linecap:round; stroke-linejoin:round;">
<path d="M23936 13808
L26948 13808
" />
<path d="M23936 13414
L26948 13414
" />
<path d="M23936 13021
L26948 13021
" />
<path d="M23936 12627
L26948 12627
" />
<path d="M23936 12233
L26948 12233
" />
<path d="M26820 15776
L26623 15776
" />
<path d="M26820 14202
L26820 15776
" />
<path d="M26623 14202
L26623 15776
" />
<path d="M24261 16426
L24064 16426
" />
<path d="M24261 14202
L24261 16426
" />
<path d="M24064 14202
L24064 16426
" />
<path d="M23670 9615
L23670 9753
" />
<path d="M27213 9615
L23670 9615
" />
<path d="M23670 9753
L27213 9753
" />
<path d="M23473 9753
L23670 9753
" />
<path d="M23473 11052
L23473 9753
" />
<path d="M23936 11643
L23936 11052
" />
<path d="M23936 12233
L23936 11643
" />
<path d="M23936 12627
L23936 12233
" />
<path d="M23936 13021
L23936 12627
" />
<path d="M23936 13414
L23936 13021
" />
<path d="M23936 13808
L23936 13414
" />
<path d="M23936 14202
L23936 13808
" />
<path d="M24064 14202
L23936 14202
" />
<path d="M24261 14202
L24064 14202
" />
<path d="M26623 14202
L24261 14202
" />
<path d="M26820 14202
L26623 14202
" />
<path d="M26948 14202
L26820 14202
" />
<path d="M23936 11052
L26948 11052
" />
<path d="M23473 11052
L23936 11052
" />
<path d="M26948 11643
L26948 11052
" />
<path d="M26948 12233
L26948 11643
" />
<path d="M26948 12627
L26948 12233
" />
<path d="M26948 13021
L26948 12627
" />
<path d="M26948 13414
L26948 13021
" />
<path d="M26948 13808
L26948 13414
" />
<path d="M26948 14202
L26948 13808
" />
<path d="M27410 11052
L26948 11052
" />
<path d="M27410 9753
L27410 11052
" />
<path d="M27213 9615
L27213 9753
" />
<path d="M27410 9753
L27213 9753
" />
<path d="M23936 11643
L26948 11643
" />
</g>
<g style="fill:#C2C2C2; fill-opacity:1.0; 
stroke:#C2C2C2; stroke-width:0; stroke-opacity:1; 
stroke-linecap:round; stroke-linejoin:round;">
<path style="fill:#C2C2C2; fill-opacity:1.0; 
stroke:#C2C2C2; stroke-width:0; stroke-opacity:1; 
stroke-linecap:round; stroke-linejoin:round;fill-rule:evenodd;"
d="M 23316.3,12607.7
27568.3,12607.7
27568.3,11879.3
23316.3,11879.3
" /> 
</g>
<g style="fill:#C2C2C2; fill-opacity:1.0; 
stroke:#C2C2C2; stroke-width:50; stroke-opacity:1; 
stroke-linecap:round; stroke-linejoin:round;">
</g>
<g style="fill:#C2C2C2; fill-opacity:0.0; 
stroke:#C2C2C2; stroke-width:50; stroke-opacity:1; 
stroke-linecap:round; stroke-linejoin:round;">
<path d="M23936 13808
L26948 13808
" />
<path d="M23936 13414
L26948 13414
" />
<path d="M23936 13021
L26948 13021
" />
<path d="M23936 12627
L26948 12627
" />
<path d="M23936 12233
L26948 12233
" />
<path d="M26820 15776
L26623 15776
" />
<path d="M26820 14202
L26820 15776
" />
<path d="M26623 14202
L26623 15776
" />
<path d="M24261 16426
L24064 16426
" />
<path d="M24261 14202
L24261 16426
" />
<path d="M24064 14202
L24064 16426
" />
<path d="M23670 9615
L23670 9753
" />
<path d="M27213 9615
L23670 9615
" />
<path d="M23670 9753
L27213 9753
" />
<path d="M23473 9753
L23670 9753
" />
<path d="M23473 11052
L23473 9753
" />
<path d="M23936 11643
L23936 11052
" />
<path d="M23936 12233
L23936 11643
" />
<path d="M23936 12627
L23936 12233
" />
<path d="M23936 13021
L23936 12627
" />
<path d="M23936 13414
L23936 13021
" />
<path d="M23936 13808
L23936 13414
" />
<path d="M23936 14202
L23936 13808
" />
<path d="M24064 14202
L23936 14202
" />
<path d="M24261 14202
L24064 14202
" />
<path d="M26623 14202
L24261 14202
" />
<path d="M26820 14202
L26623 14202
" />
<path d="M26948 14202
L26820 14202
" />
<path d="M23936 11052
L26948 11052
" />
<path d="M23473 11052
L23936 11052
" />
<path d="M26948 11643
L26948 11052
" />
<path d="M26948 12233
L26948 11643
" />
<path d="M26948 12627
L26948 12233
" />
<path d="M26948 13021
L26948 12627
" />
<path d="M26948 13414
L26948 13021
" />
<path d="M26948 13808
L26948 13414
" />
<path d="M26948 14202
L26948 13808
" />
<path d="M27410 11052
L26948 11052
" />
<path d="M27410 9753
L27410 11052
" />
<path d="M27213 9615
L27213 9753
" />
<path d="M27410 9753
L27213 9753
" />
<circle cx="28962" cy="34080.1" r="500" /> 
<circle cx="28962" cy="34080.1" r="500" /> 
<path d="M25 54749
L25 34080
" />
<path d="M25 54749
L11048 54749
" />
<path d="M13410 68135
L28962 68135
" />
<path d="M13410 57111
L13410 68135
" />
<path d="M11048.6 55143.1 A1968.5 1968.5 0.0 0 0 13017.1 57111.6 " />
<path d="M28962 34473
L28962 55930
" />
<path d="M28568 34080
L12229 34080
" />
<path d="M14099.8 55930.5 A1821.53 1821.53 0.0 0 0 12229.7 54158.9 " />
<path d="M12229 54158
L12229 34080
" />
<path d="M28962 55930
L14099 55930
" />
<path d="M28962 34473
L28962 55930
" />
<path d="M28568 34080
L12229 34080
" />
<path d="M11048 54749
L11048 55143
" />
<circle cx="12623.4" cy="55536.8" r="787.402" /> 
<path d="M11048 34080
L11048 54749
" />
<path d="M12997 57111
L13017 57111
" />
<path d="M13017 57111
L12997 57111
" />
<path d="M13410 57111
L13017 57111
" />
<path d="M28962 57111
L13410 57111
" />
<path d="M28962 56324
L12623 56324
" />
<path d="M11836 34080
L11836 55536
" />
<path d="M57899 54749
L57899 34080
" />
<path d="M57899 54749
L46875 54749
" />
<path d="M44513 68135
L28962 68135
" />
<path d="M44513 57111
L44513 68135
" />
<path d="M44906.9 57111.6 A1968.5 1968.5 0.0 0 0 46875.4 55143.1 " />
<path d="M28962 34473
L28962 55930
" />
<path d="M29355 34080
L45694 34080
" />
<path d="M45694.3 54158.9 A1821.53 1821.53 0.0 0 0 43824.2 55930.5 " />
<path d="M45694 54158
L45694 34080
" />
<path d="M28962 55930
L43824 55930
" />
<path d="M28962 34473
L28962 55930
" />
<path d="M29355 34080
L45694 34080
" />
<path d="M46875 54749
L46875 55143
" />
<circle cx="45300.6" cy="55536.8" r="787.402" /> 
<path d="M46875 34080
L46875 54749
" />
<path d="M44926 57111
L44906 57111
" />
<path d="M44906 57111
L44926 57111
" />
<path d="M44513 57111
L44906 57111
" />
<path d="M28962 57111
L44513 57111
" />
<path d="M28962 56324
L45300 56324
" />
<path d="M46087 34080
L46087 55536
" />
<path d="M57899 13410
L57899 34080
" />
<path d="M57899 13410
L46875 13410
" />
<path d="M44513 25
L28962 25
" />
<path d="M44513 11048
L44513 25
" />
<path d="M46875.4 13017.1 A1968.5 1968.5 0.0 0 0 44906.9 11048.6 " />
<path d="M28962 33686
L28962 12229
" />
<path d="M29355 34080
L45694 34080
" />
<path d="M43824.2 12229.7 A1821.53 1821.53 0.0 0 0 45694.3 14001.4 " />
<path d="M45694 14001
L45694 34080
" />
<path d="M28962 12229
L43824 12229
" />
<path d="M28962 33686
L28962 12229
" />
<path d="M29355 34080
L45694 34080
" />
<path d="M46875 13410
L46875 13017
" />
<circle cx="45300.6" cy="12623.4" r="787.402" /> 
<path d="M46875 34080
L46875 13410
" />
<path d="M44926 11048
L44906 11048
" />
<path d="M44906 11048
L44926 11048
" />
<path d="M44513 11048
L44906 11048
" />
<path d="M28962 11048
L44513 11048
" />
<path d="M28962 11836
L45300 11836
" />
<path d="M46087 34080
L46087 12623
" />
<path d="M25 13410
L25 34080
" />
<path d="M25 13410
L11048 13410
" />
<path d="M13410 25
L28962 25
" />
<path d="M13410 11048
L13410 25
" />
<path d="M13017.1 11048.6 A1968.5 1968.5 0.0 0 0 11048.6 13017.1 " />
<path d="M28962 33686
L28962 12229
" />
<path d="M28568 34080
L12229 34080
" />
<path d="M12229.7 14001.4 A1821.53 1821.53 0.0 0 0 14099.8 12229.7 " />
<path d="M12229 14001
L12229 34080
" />
<path d="M28962 12229
L14099 12229
" />
<path d="M28962 33686
L28962 12229
" />
<path d="M28568 34080
L12229 34080
" />
<path d="M11048 13410
L11048 13017
" />
<circle cx="12623.4" cy="12623.4" r="787.402" /> 
<path d="M11048 34080
L11048 13410
" />
<path d="M12997 11048
L13017 11048
" />
<path d="M13017 11048
L12997 11048
" />
<path d="M13410 11048
L13017 11048
" />
<path d="M28962 11048
L13410 11048
" />
<path d="M28962 11836
L12623 11836
" />
<path d="M11836 34080
L11836 12623
" />
<path d="M57899 54749
L57899 34080
" />
<path d="M57899 54749
L46875 54749
" />
<path d="M44513 68135
L28962 68135
" />
<path d="M44513 57111
L44513 68135
" />
<path d="M44906.9 57111.6 A1968.5 1968.5 0.0 0 0 46875.4 55143.1 " />
<path d="M28962 34473
L28962 55930
" />
<path d="M29355 34080
L45694 34080
" />
<path d="M45694.3 54158.9 A1821.53 1821.53 0.0 0 0 43824.2 55930.5 " />
<path d="M45694 54158
L45694 34080
" />
<path d="M28962 55930
L43824 55930
" />
<path d="M28962 34473
L28962 55930
" />
<path d="M29355 34080
L45694 34080
" />
<path d="M46875 54749
L46875 55143
" />
<circle cx="45300.6" cy="55536.8" r="787.402" /> 
<path d="M46875 34080
L46875 54749
" />
<path d="M44926 57111
L44906 57111
" />
<path d="M44906 57111
L44926 57111
" />
<path d="M44513 57111
L44906 57111
" />
<path d="M28962 57111
L44513 57111
" />
<path d="M28962 56324
L45300 56324
" />
<path d="M46087 34080
L46087 55536
" />
<path d="M25 54749
L25 34080
" />
<path d="M25 54749
L11048 54749
" />
<path d="M13410 68135
L28962 68135
" />
<path d="M13410 57111
L13410 68135
" />
<path d="M11048.6 55143.1 A1968.5 1968.5 0.0 0 0 13017.1 57111.6 " />
<path d="M28962 34473
L28962 55930
" />
<path d="M28568 34080
L12229 34080
" />
<path d="M14099.8 55930.5 A1821.53 1821.53 0.0 0 0 12229.7 54158.9 " />
<path d="M12229 54158
L12229 34080
" />
<path d="M28962 55930
L14099 55930
" />
<path d="M28962 34473
L28962 55930
" />
<path d="M28568 34080
L12229 34080
" />
<path d="M11048 54749
L11048 55143
" />
<circle cx="12623.4" cy="55536.8" r="787.402" /> 
<path d="M11048 34080
L11048 54749
" />
<path d="M12997 57111
L13017 57111
" />
<path d="M13017 57111
L12997 57111
" />
<path d="M13410 57111
L13017 57111
" />
<path d="M28962 57111
L13410 57111
" />
<path d="M28962 56324
L12623 56324
" />
<path d="M11836 34080
L11836 55536
" />
<path d="M25 13410
L25 34080
" />
<path d="M25 13410
L11048 13410
" />
<path d="M13410 25
L28962 25
" />
<path d="M13410 11048
L13410 25
" />
<path d="M13017.1 11048.6 A1968.5 1968.5 0.0 0 0 11048.6 13017.1 " />
<path d="M28962 33686
L28962 12229
" />
<path d="M28568 34080
L12229 34080
" />
<path d="M12229.7 14001.4 A1821.53 1821.53 0.0 0 0 14099.8 12229.7 " />
<path d="M12229 14001
L12229 34080
" />
<path d="M28962 12229
L14099 12229
" />
<path d="M28962 33686
L28962 12229
" />
<path d="M28568 34080
L12229 34080
" />
<path d="M11048 13410
L11048 13017
" />
<circle cx="12623.4" cy="12623.4" r="787.402" /> 
<path d="M11048 34080
L11048 13410
" />
<path d="M12997 11048
L13017 11048
" />
<path d="M13017 11048
L12997 11048
" />
<path d="M13410 11048
L13017 11048
" />
<path d="M28962 11048
L13410 11048
" />
<path d="M28962 11836
L12623 11836
" />
<path d="M11836 34080
L11836 12623
" />
<path d="M57899 13410
L57899 34080
" />
<path d="M57899 13410
L46875 13410
" />
<path d="M44513 25
L28962 25
" />
<path d="M44513 11048
L44513 25
" />
<path d="M46875.4 13017.1 A1968.5 1968.5 0.0 0 0 44906.9 11048.6 " />
<path d="M28962 33686
L28962 12229
" />
<path d="M29355 34080
L45694 34080
" />
<path d="M43824.2 12229.7 A1821.53 1821.53 0.0 0 0 45694.3 14001.4 " />
<path d="M45694 14001
L45694 34080
" />
<path d="M28962 12229
L43824 12229
" />
<path d="M28962 33686
L28962 12229
" />
<path d="M29355 34080
L45694 34080
" />
<path d="M46875 13410
L46875 13017
" />
<circle cx="45300.6" cy="12623.4" r="787.402" /> 
<path d="M46875 34080
L46875 13410
" />
<path d="M44926 11048
L44906 11048
" />
<path d="M44906 11048
L44926 11048
" />
<path d="M44513 11048
L44906 11048
" />
<path d="M28962 11048
L44513 11048
" />
<path d="M28962 11836
L45300 11836
" />
<path d="M46087 34080
L46087 12623
" />
<g >
</g>
<g >
</g>
<g >
</g>
<g >
</g>
<g >
</g>
<g >
</g>
<g >
</g>
<g >
</g>
<g >
</g>
<g >
</g>
<g >
</g>
</g>
<g style="fill:#C2C2C2; fill-opacity:0.0; 
stroke:#C2C2C2; stroke-width:50; stroke-opacity:1; 
stroke-linecap:round; stroke-linejoin:round;">
</g>
<g style="fill:#C2C2C2; fill-opacity:0.0; 
stroke:#C2C2C2; stroke-width:40; stroke-opacity:1; 
stroke-linecap:round; stroke-linejoin:round;">
<text x="28962" y="56955.4"
textLength="2818.58" font-size="633.333" lengthAdjust="spacingAndGlyphs"
text-anchor="middle" opacity="0">1590BB</text>
<path d="M27944 56932
L27672 56932
" />
<path d="M27808 56932
L27808 56457
L27763 56525
L27717 56570
L27672 56593
" />
<path d="M28373 56457
L28147 56457
L28125 56683
L28147 56661
L28192 56638
L28306 56638
L28351 56661
L28373 56683
L28396 56729
L28396 56842
L28373 56887
L28351 56910
L28306 56932
L28192 56932
L28147 56910
L28125 56887
" />
<path d="M28622 56932
L28713 56932
L28758 56910
L28781 56887
L28826 56819
L28848 56729
L28848 56548
L28826 56503
L28803 56480
L28758 56457
L28667 56457
L28622 56480
L28600 56503
L28577 56548
L28577 56661
L28600 56706
L28622 56729
L28667 56751
L28758 56751
L28803 56729
L28826 56706
L28848 56661
" />
<path d="M29142 56457
L29188 56457
L29233 56480
L29256 56503
L29278 56548
L29301 56638
L29301 56751
L29278 56842
L29256 56887
L29233 56910
L29188 56932
L29142 56932
L29097 56910
L29075 56887
L29052 56842
L29029 56751
L29029 56638
L29052 56548
L29075 56503
L29097 56480
L29142 56457
" />
<path d="M29663 56683
L29731 56706
L29753 56729
L29776 56774
L29776 56842
L29753 56887
L29731 56910
L29685 56932
L29504 56932
L29504 56457
L29663 56457
L29708 56480
L29731 56503
L29753 56548
L29753 56593
L29731 56638
L29708 56661
L29663 56683
L29504 56683
" />
<path d="M30138 56683
L30206 56706
L30228 56729
L30251 56774
L30251 56842
L30228 56887
L30206 56910
L30160 56932
L29979 56932
L29979 56457
L30138 56457
L30183 56480
L30206 56503
L30228 56548
L30228 56593
L30206 56638
L30183 56661
L30138 56683
L29979 56683
" />
<g >
</g>
</g>
<g style="fill:#000000; fill-opacity:0.0; 
stroke:#000000; stroke-width:40; stroke-opacity:1; 
stroke-linecap:round; stroke-linejoin:round;">
<g >
</g>
<g >
</g>
<g >
</g>
<g >
</g>
<g >
</g>
<g >
</g>
<g >
</g>
<g >
</g>
<g >
</g>
<g >
</g>
<g >
</g>
<g >
</g>
</g> 
</svg>
