G04 #@! TF.GenerationSoftware,KiCad,Pcbnew,(5.1.5-0-10_14)*
G04 #@! TF.CreationDate,2021-09-10T16:38:47+02:00*
G04 #@! TF.ProjectId,ms20verb,6d733230-7665-4726-922e-6b696361645f,rev?*
G04 #@! TF.SameCoordinates,Original*
G04 #@! TF.FileFunction,Soldermask,Top*
G04 #@! TF.FilePolarity,Negative*
%FSLAX46Y46*%
G04 Gerber Fmt 4.6, Leading zero omitted, Abs format (unit mm)*
G04 Created by KiCad (PCBNEW (5.1.5-0-10_14)) date 2021-09-10 16:38:47*
%MOMM*%
%LPD*%
G04 APERTURE LIST*
%ADD10C,0.100000*%
G04 APERTURE END LIST*
D10*
G36*
X65176626Y-130562037D02*
G01*
X65346465Y-130613557D01*
X65346467Y-130613558D01*
X65502989Y-130697221D01*
X65640186Y-130809814D01*
X65723448Y-130911271D01*
X65752778Y-130947009D01*
X65836443Y-131103534D01*
X65887963Y-131273373D01*
X65901000Y-131405742D01*
X65901000Y-131794257D01*
X65887963Y-131926626D01*
X65836443Y-132096466D01*
X65752778Y-132252991D01*
X65723448Y-132288729D01*
X65640186Y-132390186D01*
X65545250Y-132468097D01*
X65502991Y-132502778D01*
X65346466Y-132586443D01*
X65176627Y-132637963D01*
X65000000Y-132655359D01*
X64823374Y-132637963D01*
X64653535Y-132586443D01*
X64497010Y-132502778D01*
X64359815Y-132390185D01*
X64247222Y-132252991D01*
X64163557Y-132096466D01*
X64112037Y-131926627D01*
X64099000Y-131794258D01*
X64099000Y-131405743D01*
X64112037Y-131273374D01*
X64163557Y-131103535D01*
X64247222Y-130947010D01*
X64247223Y-130947009D01*
X64359814Y-130809814D01*
X64461271Y-130726552D01*
X64497009Y-130697222D01*
X64653534Y-130613557D01*
X64823373Y-130562037D01*
X65000000Y-130544641D01*
X65176626Y-130562037D01*
G37*
G36*
X137726626Y-130562037D02*
G01*
X137896465Y-130613557D01*
X137896467Y-130613558D01*
X138052989Y-130697221D01*
X138190186Y-130809814D01*
X138273448Y-130911271D01*
X138302778Y-130947009D01*
X138386443Y-131103534D01*
X138437963Y-131273373D01*
X138451000Y-131405742D01*
X138451000Y-131794257D01*
X138437963Y-131926626D01*
X138386443Y-132096466D01*
X138302778Y-132252991D01*
X138273448Y-132288729D01*
X138190186Y-132390186D01*
X138095250Y-132468097D01*
X138052991Y-132502778D01*
X137896466Y-132586443D01*
X137726627Y-132637963D01*
X137550000Y-132655359D01*
X137373374Y-132637963D01*
X137203535Y-132586443D01*
X137047010Y-132502778D01*
X136909815Y-132390185D01*
X136797222Y-132252991D01*
X136713557Y-132096466D01*
X136662037Y-131926627D01*
X136649000Y-131794258D01*
X136649000Y-131405743D01*
X136662037Y-131273374D01*
X136713557Y-131103535D01*
X136797222Y-130947010D01*
X136797223Y-130947009D01*
X136909814Y-130809814D01*
X137011271Y-130726552D01*
X137047009Y-130697222D01*
X137203534Y-130613557D01*
X137373373Y-130562037D01*
X137550000Y-130544641D01*
X137726626Y-130562037D01*
G37*
G36*
X135808600Y-130552989D02*
G01*
X135841652Y-130563015D01*
X135872103Y-130579292D01*
X135898799Y-130601201D01*
X135920708Y-130627897D01*
X135936985Y-130658348D01*
X135947011Y-130691400D01*
X135951000Y-130731903D01*
X135951000Y-132468097D01*
X135947011Y-132508600D01*
X135936985Y-132541652D01*
X135920708Y-132572103D01*
X135898799Y-132598799D01*
X135872103Y-132620708D01*
X135841652Y-132636985D01*
X135808600Y-132647011D01*
X135768097Y-132651000D01*
X134331903Y-132651000D01*
X134291400Y-132647011D01*
X134258348Y-132636985D01*
X134227897Y-132620708D01*
X134201201Y-132598799D01*
X134179292Y-132572103D01*
X134163015Y-132541652D01*
X134152989Y-132508600D01*
X134149000Y-132468097D01*
X134149000Y-130731903D01*
X134152989Y-130691400D01*
X134163015Y-130658348D01*
X134179292Y-130627897D01*
X134201201Y-130601201D01*
X134227897Y-130579292D01*
X134258348Y-130563015D01*
X134291400Y-130552989D01*
X134331903Y-130549000D01*
X135768097Y-130549000D01*
X135808600Y-130552989D01*
G37*
G36*
X63258600Y-130552989D02*
G01*
X63291652Y-130563015D01*
X63322103Y-130579292D01*
X63348799Y-130601201D01*
X63370708Y-130627897D01*
X63386985Y-130658348D01*
X63397011Y-130691400D01*
X63401000Y-130731903D01*
X63401000Y-132468097D01*
X63397011Y-132508600D01*
X63386985Y-132541652D01*
X63370708Y-132572103D01*
X63348799Y-132598799D01*
X63322103Y-132620708D01*
X63291652Y-132636985D01*
X63258600Y-132647011D01*
X63218097Y-132651000D01*
X61781903Y-132651000D01*
X61741400Y-132647011D01*
X61708348Y-132636985D01*
X61677897Y-132620708D01*
X61651201Y-132598799D01*
X61629292Y-132572103D01*
X61613015Y-132541652D01*
X61602989Y-132508600D01*
X61599000Y-132468097D01*
X61599000Y-130731903D01*
X61602989Y-130691400D01*
X61613015Y-130658348D01*
X61629292Y-130627897D01*
X61651201Y-130601201D01*
X61677897Y-130579292D01*
X61708348Y-130563015D01*
X61741400Y-130552989D01*
X61781903Y-130549000D01*
X63218097Y-130549000D01*
X63258600Y-130552989D01*
G37*
G36*
X127951000Y-130151000D02*
G01*
X126049000Y-130151000D01*
X126049000Y-128249000D01*
X127951000Y-128249000D01*
X127951000Y-130151000D01*
G37*
G36*
X124737395Y-128285546D02*
G01*
X124910466Y-128357234D01*
X124916566Y-128361310D01*
X125066227Y-128461310D01*
X125198690Y-128593773D01*
X125198691Y-128593775D01*
X125302766Y-128749534D01*
X125374454Y-128922605D01*
X125411000Y-129106333D01*
X125411000Y-129293667D01*
X125374454Y-129477395D01*
X125302766Y-129650466D01*
X125302765Y-129650467D01*
X125198690Y-129806227D01*
X125066227Y-129938690D01*
X124987818Y-129991081D01*
X124910466Y-130042766D01*
X124737395Y-130114454D01*
X124553667Y-130151000D01*
X124366333Y-130151000D01*
X124182605Y-130114454D01*
X124009534Y-130042766D01*
X123932182Y-129991081D01*
X123853773Y-129938690D01*
X123721310Y-129806227D01*
X123617235Y-129650467D01*
X123617234Y-129650466D01*
X123545546Y-129477395D01*
X123509000Y-129293667D01*
X123509000Y-129106333D01*
X123545546Y-128922605D01*
X123617234Y-128749534D01*
X123721309Y-128593775D01*
X123721310Y-128593773D01*
X123853773Y-128461310D01*
X124003434Y-128361310D01*
X124009534Y-128357234D01*
X124182605Y-128285546D01*
X124366333Y-128249000D01*
X124553667Y-128249000D01*
X124737395Y-128285546D01*
G37*
G36*
X75817395Y-128185546D02*
G01*
X75990466Y-128257234D01*
X75990467Y-128257235D01*
X76146227Y-128361310D01*
X76278690Y-128493773D01*
X76278691Y-128493775D01*
X76382766Y-128649534D01*
X76454454Y-128822605D01*
X76491000Y-129006333D01*
X76491000Y-129193667D01*
X76454454Y-129377395D01*
X76382766Y-129550466D01*
X76382765Y-129550467D01*
X76278690Y-129706227D01*
X76146227Y-129838690D01*
X76067818Y-129891081D01*
X75990466Y-129942766D01*
X75817395Y-130014454D01*
X75633667Y-130051000D01*
X75446333Y-130051000D01*
X75262605Y-130014454D01*
X75089534Y-129942766D01*
X75012182Y-129891081D01*
X74933773Y-129838690D01*
X74801310Y-129706227D01*
X74697235Y-129550467D01*
X74697234Y-129550466D01*
X74625546Y-129377395D01*
X74589000Y-129193667D01*
X74589000Y-129006333D01*
X74625546Y-128822605D01*
X74697234Y-128649534D01*
X74801309Y-128493775D01*
X74801310Y-128493773D01*
X74933773Y-128361310D01*
X75089533Y-128257235D01*
X75089534Y-128257234D01*
X75262605Y-128185546D01*
X75446333Y-128149000D01*
X75633667Y-128149000D01*
X75817395Y-128185546D01*
G37*
G36*
X73951000Y-130051000D02*
G01*
X72049000Y-130051000D01*
X72049000Y-128149000D01*
X73951000Y-128149000D01*
X73951000Y-130051000D01*
G37*
G36*
X139033642Y-126329781D02*
G01*
X139179414Y-126390162D01*
X139179416Y-126390163D01*
X139310608Y-126477822D01*
X139422178Y-126589392D01*
X139509837Y-126720584D01*
X139509838Y-126720586D01*
X139570219Y-126866358D01*
X139601000Y-127021107D01*
X139601000Y-127178893D01*
X139570219Y-127333642D01*
X139509838Y-127479414D01*
X139509837Y-127479416D01*
X139422178Y-127610608D01*
X139310608Y-127722178D01*
X139179416Y-127809837D01*
X139179415Y-127809838D01*
X139179414Y-127809838D01*
X139033642Y-127870219D01*
X138878893Y-127901000D01*
X138721107Y-127901000D01*
X138566358Y-127870219D01*
X138420586Y-127809838D01*
X138420585Y-127809838D01*
X138420584Y-127809837D01*
X138289392Y-127722178D01*
X138177822Y-127610608D01*
X138090163Y-127479416D01*
X138090162Y-127479414D01*
X138029781Y-127333642D01*
X137999000Y-127178893D01*
X137999000Y-127021107D01*
X138029781Y-126866358D01*
X138090162Y-126720586D01*
X138090163Y-126720584D01*
X138177822Y-126589392D01*
X138289392Y-126477822D01*
X138420584Y-126390163D01*
X138420586Y-126390162D01*
X138566358Y-126329781D01*
X138721107Y-126299000D01*
X138878893Y-126299000D01*
X139033642Y-126329781D01*
G37*
G36*
X61633642Y-126329781D02*
G01*
X61779414Y-126390162D01*
X61779416Y-126390163D01*
X61910608Y-126477822D01*
X62022178Y-126589392D01*
X62109837Y-126720584D01*
X62109838Y-126720586D01*
X62170219Y-126866358D01*
X62201000Y-127021107D01*
X62201000Y-127178893D01*
X62170219Y-127333642D01*
X62109838Y-127479414D01*
X62109837Y-127479416D01*
X62022178Y-127610608D01*
X61910608Y-127722178D01*
X61779416Y-127809837D01*
X61779415Y-127809838D01*
X61779414Y-127809838D01*
X61633642Y-127870219D01*
X61478893Y-127901000D01*
X61321107Y-127901000D01*
X61166358Y-127870219D01*
X61020586Y-127809838D01*
X61020585Y-127809838D01*
X61020584Y-127809837D01*
X60889392Y-127722178D01*
X60777822Y-127610608D01*
X60690163Y-127479416D01*
X60690162Y-127479414D01*
X60629781Y-127333642D01*
X60599000Y-127178893D01*
X60599000Y-127021107D01*
X60629781Y-126866358D01*
X60690162Y-126720586D01*
X60690163Y-126720584D01*
X60777822Y-126589392D01*
X60889392Y-126477822D01*
X61020584Y-126390163D01*
X61020586Y-126390162D01*
X61166358Y-126329781D01*
X61321107Y-126299000D01*
X61478893Y-126299000D01*
X61633642Y-126329781D01*
G37*
G36*
X128714187Y-122796123D02*
G01*
X128885255Y-122866982D01*
X128885257Y-122866983D01*
X128910449Y-122883816D01*
X129039214Y-122969854D01*
X129170146Y-123100786D01*
X129273018Y-123254745D01*
X129343877Y-123425813D01*
X129380000Y-123607417D01*
X129380000Y-123792583D01*
X129343877Y-123974187D01*
X129273018Y-124145255D01*
X129273017Y-124145257D01*
X129170145Y-124299215D01*
X129039215Y-124430145D01*
X128885257Y-124533017D01*
X128885256Y-124533018D01*
X128885255Y-124533018D01*
X128714187Y-124603877D01*
X128532583Y-124640000D01*
X128347417Y-124640000D01*
X128165813Y-124603877D01*
X127994745Y-124533018D01*
X127994744Y-124533018D01*
X127994743Y-124533017D01*
X127840785Y-124430145D01*
X127709855Y-124299215D01*
X127606983Y-124145257D01*
X127606982Y-124145255D01*
X127536123Y-123974187D01*
X127500000Y-123792583D01*
X127500000Y-123607417D01*
X127536123Y-123425813D01*
X127606982Y-123254745D01*
X127709854Y-123100786D01*
X127840786Y-122969854D01*
X127969551Y-122883816D01*
X127994743Y-122866983D01*
X127994745Y-122866982D01*
X128165813Y-122796123D01*
X128347417Y-122760000D01*
X128532583Y-122760000D01*
X128714187Y-122796123D01*
G37*
G36*
X69294187Y-122796123D02*
G01*
X69465255Y-122866982D01*
X69465257Y-122866983D01*
X69490449Y-122883816D01*
X69619214Y-122969854D01*
X69750146Y-123100786D01*
X69853018Y-123254745D01*
X69923877Y-123425813D01*
X69960000Y-123607417D01*
X69960000Y-123792583D01*
X69923877Y-123974187D01*
X69853018Y-124145255D01*
X69853017Y-124145257D01*
X69750145Y-124299215D01*
X69619215Y-124430145D01*
X69465257Y-124533017D01*
X69465256Y-124533018D01*
X69465255Y-124533018D01*
X69294187Y-124603877D01*
X69112583Y-124640000D01*
X68927417Y-124640000D01*
X68745813Y-124603877D01*
X68574745Y-124533018D01*
X68574744Y-124533018D01*
X68574743Y-124533017D01*
X68420785Y-124430145D01*
X68289855Y-124299215D01*
X68186983Y-124145257D01*
X68186982Y-124145255D01*
X68116123Y-123974187D01*
X68080000Y-123792583D01*
X68080000Y-123607417D01*
X68116123Y-123425813D01*
X68186982Y-123254745D01*
X68289854Y-123100786D01*
X68420786Y-122969854D01*
X68549551Y-122883816D01*
X68574743Y-122866983D01*
X68574745Y-122866982D01*
X68745813Y-122796123D01*
X68927417Y-122760000D01*
X69112583Y-122760000D01*
X69294187Y-122796123D01*
G37*
G36*
X62340000Y-124640000D02*
G01*
X60460000Y-124640000D01*
X60460000Y-122760000D01*
X62340000Y-122760000D01*
X62340000Y-124640000D01*
G37*
G36*
X138874187Y-122796123D02*
G01*
X139045255Y-122866982D01*
X139045257Y-122866983D01*
X139070449Y-122883816D01*
X139199214Y-122969854D01*
X139330146Y-123100786D01*
X139433018Y-123254745D01*
X139503877Y-123425813D01*
X139540000Y-123607417D01*
X139540000Y-123792583D01*
X139503877Y-123974187D01*
X139433018Y-124145255D01*
X139433017Y-124145257D01*
X139330145Y-124299215D01*
X139199215Y-124430145D01*
X139045257Y-124533017D01*
X139045256Y-124533018D01*
X139045255Y-124533018D01*
X138874187Y-124603877D01*
X138692583Y-124640000D01*
X138507417Y-124640000D01*
X138325813Y-124603877D01*
X138154745Y-124533018D01*
X138154744Y-124533018D01*
X138154743Y-124533017D01*
X138000785Y-124430145D01*
X137869855Y-124299215D01*
X137766983Y-124145257D01*
X137766982Y-124145255D01*
X137696123Y-123974187D01*
X137660000Y-123792583D01*
X137660000Y-123607417D01*
X137696123Y-123425813D01*
X137766982Y-123254745D01*
X137869854Y-123100786D01*
X138000786Y-122969854D01*
X138129551Y-122883816D01*
X138154743Y-122866983D01*
X138154745Y-122866982D01*
X138325813Y-122796123D01*
X138507417Y-122760000D01*
X138692583Y-122760000D01*
X138874187Y-122796123D01*
G37*
G36*
X133794187Y-122796123D02*
G01*
X133965255Y-122866982D01*
X133965257Y-122866983D01*
X133990449Y-122883816D01*
X134119214Y-122969854D01*
X134250146Y-123100786D01*
X134353018Y-123254745D01*
X134423877Y-123425813D01*
X134460000Y-123607417D01*
X134460000Y-123792583D01*
X134423877Y-123974187D01*
X134353018Y-124145255D01*
X134353017Y-124145257D01*
X134250145Y-124299215D01*
X134119215Y-124430145D01*
X133965257Y-124533017D01*
X133965256Y-124533018D01*
X133965255Y-124533018D01*
X133794187Y-124603877D01*
X133612583Y-124640000D01*
X133427417Y-124640000D01*
X133245813Y-124603877D01*
X133074745Y-124533018D01*
X133074744Y-124533018D01*
X133074743Y-124533017D01*
X132920785Y-124430145D01*
X132789855Y-124299215D01*
X132686983Y-124145257D01*
X132686982Y-124145255D01*
X132616123Y-123974187D01*
X132580000Y-123792583D01*
X132580000Y-123607417D01*
X132616123Y-123425813D01*
X132686982Y-123254745D01*
X132789854Y-123100786D01*
X132920786Y-122969854D01*
X133049551Y-122883816D01*
X133074743Y-122866983D01*
X133074745Y-122866982D01*
X133245813Y-122796123D01*
X133427417Y-122760000D01*
X133612583Y-122760000D01*
X133794187Y-122796123D01*
G37*
G36*
X66754187Y-122796123D02*
G01*
X66925255Y-122866982D01*
X66925257Y-122866983D01*
X66950449Y-122883816D01*
X67079214Y-122969854D01*
X67210146Y-123100786D01*
X67313018Y-123254745D01*
X67383877Y-123425813D01*
X67420000Y-123607417D01*
X67420000Y-123792583D01*
X67383877Y-123974187D01*
X67313018Y-124145255D01*
X67313017Y-124145257D01*
X67210145Y-124299215D01*
X67079215Y-124430145D01*
X66925257Y-124533017D01*
X66925256Y-124533018D01*
X66925255Y-124533018D01*
X66754187Y-124603877D01*
X66572583Y-124640000D01*
X66387417Y-124640000D01*
X66205813Y-124603877D01*
X66034745Y-124533018D01*
X66034744Y-124533018D01*
X66034743Y-124533017D01*
X65880785Y-124430145D01*
X65749855Y-124299215D01*
X65646983Y-124145257D01*
X65646982Y-124145255D01*
X65576123Y-123974187D01*
X65540000Y-123792583D01*
X65540000Y-123607417D01*
X65576123Y-123425813D01*
X65646982Y-123254745D01*
X65749854Y-123100786D01*
X65880786Y-122969854D01*
X66009551Y-122883816D01*
X66034743Y-122866983D01*
X66034745Y-122866982D01*
X66205813Y-122796123D01*
X66387417Y-122760000D01*
X66572583Y-122760000D01*
X66754187Y-122796123D01*
G37*
G36*
X71834187Y-122796123D02*
G01*
X72005255Y-122866982D01*
X72005257Y-122866983D01*
X72030449Y-122883816D01*
X72159214Y-122969854D01*
X72290146Y-123100786D01*
X72393018Y-123254745D01*
X72463877Y-123425813D01*
X72500000Y-123607417D01*
X72500000Y-123792583D01*
X72463877Y-123974187D01*
X72393018Y-124145255D01*
X72393017Y-124145257D01*
X72290145Y-124299215D01*
X72159215Y-124430145D01*
X72005257Y-124533017D01*
X72005256Y-124533018D01*
X72005255Y-124533018D01*
X71834187Y-124603877D01*
X71652583Y-124640000D01*
X71467417Y-124640000D01*
X71285813Y-124603877D01*
X71114745Y-124533018D01*
X71114744Y-124533018D01*
X71114743Y-124533017D01*
X70960785Y-124430145D01*
X70829855Y-124299215D01*
X70726983Y-124145257D01*
X70726982Y-124145255D01*
X70656123Y-123974187D01*
X70620000Y-123792583D01*
X70620000Y-123607417D01*
X70656123Y-123425813D01*
X70726982Y-123254745D01*
X70829854Y-123100786D01*
X70960786Y-122969854D01*
X71089551Y-122883816D01*
X71114743Y-122866983D01*
X71114745Y-122866982D01*
X71285813Y-122796123D01*
X71467417Y-122760000D01*
X71652583Y-122760000D01*
X71834187Y-122796123D01*
G37*
G36*
X131254187Y-122796123D02*
G01*
X131425255Y-122866982D01*
X131425257Y-122866983D01*
X131450449Y-122883816D01*
X131579214Y-122969854D01*
X131710146Y-123100786D01*
X131813018Y-123254745D01*
X131883877Y-123425813D01*
X131920000Y-123607417D01*
X131920000Y-123792583D01*
X131883877Y-123974187D01*
X131813018Y-124145255D01*
X131813017Y-124145257D01*
X131710145Y-124299215D01*
X131579215Y-124430145D01*
X131425257Y-124533017D01*
X131425256Y-124533018D01*
X131425255Y-124533018D01*
X131254187Y-124603877D01*
X131072583Y-124640000D01*
X130887417Y-124640000D01*
X130705813Y-124603877D01*
X130534745Y-124533018D01*
X130534744Y-124533018D01*
X130534743Y-124533017D01*
X130380785Y-124430145D01*
X130249855Y-124299215D01*
X130146983Y-124145257D01*
X130146982Y-124145255D01*
X130076123Y-123974187D01*
X130040000Y-123792583D01*
X130040000Y-123607417D01*
X130076123Y-123425813D01*
X130146982Y-123254745D01*
X130249854Y-123100786D01*
X130380786Y-122969854D01*
X130509551Y-122883816D01*
X130534743Y-122866983D01*
X130534745Y-122866982D01*
X130705813Y-122796123D01*
X130887417Y-122760000D01*
X131072583Y-122760000D01*
X131254187Y-122796123D01*
G37*
G36*
X115328228Y-122101703D02*
G01*
X115483100Y-122165853D01*
X115622481Y-122258985D01*
X115741015Y-122377519D01*
X115834147Y-122516900D01*
X115898297Y-122671772D01*
X115931000Y-122836184D01*
X115931000Y-123003816D01*
X115898297Y-123168228D01*
X115834147Y-123323100D01*
X115741015Y-123462481D01*
X115622481Y-123581015D01*
X115483100Y-123674147D01*
X115328228Y-123738297D01*
X115163816Y-123771000D01*
X114996184Y-123771000D01*
X114831772Y-123738297D01*
X114676900Y-123674147D01*
X114537519Y-123581015D01*
X114418985Y-123462481D01*
X114325853Y-123323100D01*
X114261703Y-123168228D01*
X114229000Y-123003816D01*
X114229000Y-122836184D01*
X114261703Y-122671772D01*
X114325853Y-122516900D01*
X114418985Y-122377519D01*
X114537519Y-122258985D01*
X114676900Y-122165853D01*
X114831772Y-122101703D01*
X114996184Y-122069000D01*
X115163816Y-122069000D01*
X115328228Y-122101703D01*
G37*
G36*
X120408228Y-122101703D02*
G01*
X120563100Y-122165853D01*
X120702481Y-122258985D01*
X120821015Y-122377519D01*
X120914147Y-122516900D01*
X120978297Y-122671772D01*
X121011000Y-122836184D01*
X121011000Y-123003816D01*
X120978297Y-123168228D01*
X120914147Y-123323100D01*
X120821015Y-123462481D01*
X120702481Y-123581015D01*
X120563100Y-123674147D01*
X120408228Y-123738297D01*
X120243816Y-123771000D01*
X120076184Y-123771000D01*
X119911772Y-123738297D01*
X119756900Y-123674147D01*
X119617519Y-123581015D01*
X119498985Y-123462481D01*
X119405853Y-123323100D01*
X119341703Y-123168228D01*
X119309000Y-123003816D01*
X119309000Y-122836184D01*
X119341703Y-122671772D01*
X119405853Y-122516900D01*
X119498985Y-122377519D01*
X119617519Y-122258985D01*
X119756900Y-122165853D01*
X119911772Y-122101703D01*
X120076184Y-122069000D01*
X120243816Y-122069000D01*
X120408228Y-122101703D01*
G37*
G36*
X117868228Y-122101703D02*
G01*
X118023100Y-122165853D01*
X118162481Y-122258985D01*
X118281015Y-122377519D01*
X118374147Y-122516900D01*
X118438297Y-122671772D01*
X118471000Y-122836184D01*
X118471000Y-123003816D01*
X118438297Y-123168228D01*
X118374147Y-123323100D01*
X118281015Y-123462481D01*
X118162481Y-123581015D01*
X118023100Y-123674147D01*
X117868228Y-123738297D01*
X117703816Y-123771000D01*
X117536184Y-123771000D01*
X117371772Y-123738297D01*
X117216900Y-123674147D01*
X117077519Y-123581015D01*
X116958985Y-123462481D01*
X116865853Y-123323100D01*
X116801703Y-123168228D01*
X116769000Y-123003816D01*
X116769000Y-122836184D01*
X116801703Y-122671772D01*
X116865853Y-122516900D01*
X116958985Y-122377519D01*
X117077519Y-122258985D01*
X117216900Y-122165853D01*
X117371772Y-122101703D01*
X117536184Y-122069000D01*
X117703816Y-122069000D01*
X117868228Y-122101703D01*
G37*
G36*
X122948228Y-122101703D02*
G01*
X123103100Y-122165853D01*
X123242481Y-122258985D01*
X123361015Y-122377519D01*
X123454147Y-122516900D01*
X123518297Y-122671772D01*
X123551000Y-122836184D01*
X123551000Y-123003816D01*
X123518297Y-123168228D01*
X123454147Y-123323100D01*
X123361015Y-123462481D01*
X123242481Y-123581015D01*
X123103100Y-123674147D01*
X122948228Y-123738297D01*
X122783816Y-123771000D01*
X122616184Y-123771000D01*
X122451772Y-123738297D01*
X122296900Y-123674147D01*
X122157519Y-123581015D01*
X122038985Y-123462481D01*
X121945853Y-123323100D01*
X121881703Y-123168228D01*
X121849000Y-123003816D01*
X121849000Y-122836184D01*
X121881703Y-122671772D01*
X121945853Y-122516900D01*
X122038985Y-122377519D01*
X122157519Y-122258985D01*
X122296900Y-122165853D01*
X122451772Y-122101703D01*
X122616184Y-122069000D01*
X122783816Y-122069000D01*
X122948228Y-122101703D01*
G37*
G36*
X93924187Y-121921123D02*
G01*
X94070439Y-121981703D01*
X94095257Y-121991983D01*
X94172758Y-122043768D01*
X94210521Y-122069000D01*
X94249215Y-122094855D01*
X94380145Y-122225785D01*
X94481532Y-122377520D01*
X94483018Y-122379745D01*
X94553877Y-122550813D01*
X94590000Y-122732417D01*
X94590000Y-122917583D01*
X94553877Y-123099187D01*
X94489443Y-123254743D01*
X94483017Y-123270257D01*
X94380145Y-123424215D01*
X94249215Y-123555145D01*
X94095257Y-123658017D01*
X94095256Y-123658018D01*
X94095255Y-123658018D01*
X93924187Y-123728877D01*
X93742583Y-123765000D01*
X93557417Y-123765000D01*
X93375813Y-123728877D01*
X93204745Y-123658018D01*
X93204744Y-123658018D01*
X93204743Y-123658017D01*
X93050785Y-123555145D01*
X92919855Y-123424215D01*
X92816983Y-123270257D01*
X92810557Y-123254743D01*
X92746123Y-123099187D01*
X92710000Y-122917583D01*
X92710000Y-122732417D01*
X92746123Y-122550813D01*
X92816982Y-122379745D01*
X92818469Y-122377520D01*
X92919855Y-122225785D01*
X93050785Y-122094855D01*
X93089480Y-122069000D01*
X93127242Y-122043768D01*
X93204743Y-121991983D01*
X93229561Y-121981703D01*
X93375813Y-121921123D01*
X93557417Y-121885000D01*
X93742583Y-121885000D01*
X93924187Y-121921123D01*
G37*
G36*
X96464187Y-121921123D02*
G01*
X96610439Y-121981703D01*
X96635257Y-121991983D01*
X96712758Y-122043768D01*
X96750521Y-122069000D01*
X96789215Y-122094855D01*
X96920145Y-122225785D01*
X97021532Y-122377520D01*
X97023018Y-122379745D01*
X97093877Y-122550813D01*
X97130000Y-122732417D01*
X97130000Y-122917583D01*
X97093877Y-123099187D01*
X97029443Y-123254743D01*
X97023017Y-123270257D01*
X96920145Y-123424215D01*
X96789215Y-123555145D01*
X96635257Y-123658017D01*
X96635256Y-123658018D01*
X96635255Y-123658018D01*
X96464187Y-123728877D01*
X96282583Y-123765000D01*
X96097417Y-123765000D01*
X95915813Y-123728877D01*
X95744745Y-123658018D01*
X95744744Y-123658018D01*
X95744743Y-123658017D01*
X95590785Y-123555145D01*
X95459855Y-123424215D01*
X95356983Y-123270257D01*
X95350557Y-123254743D01*
X95286123Y-123099187D01*
X95250000Y-122917583D01*
X95250000Y-122732417D01*
X95286123Y-122550813D01*
X95356982Y-122379745D01*
X95358469Y-122377520D01*
X95459855Y-122225785D01*
X95590785Y-122094855D01*
X95629480Y-122069000D01*
X95667242Y-122043768D01*
X95744743Y-121991983D01*
X95769561Y-121981703D01*
X95915813Y-121921123D01*
X96097417Y-121885000D01*
X96282583Y-121885000D01*
X96464187Y-121921123D01*
G37*
G36*
X91384187Y-121921123D02*
G01*
X91530439Y-121981703D01*
X91555257Y-121991983D01*
X91632758Y-122043768D01*
X91670521Y-122069000D01*
X91709215Y-122094855D01*
X91840145Y-122225785D01*
X91941532Y-122377520D01*
X91943018Y-122379745D01*
X92013877Y-122550813D01*
X92050000Y-122732417D01*
X92050000Y-122917583D01*
X92013877Y-123099187D01*
X91949443Y-123254743D01*
X91943017Y-123270257D01*
X91840145Y-123424215D01*
X91709215Y-123555145D01*
X91555257Y-123658017D01*
X91555256Y-123658018D01*
X91555255Y-123658018D01*
X91384187Y-123728877D01*
X91202583Y-123765000D01*
X91017417Y-123765000D01*
X90835813Y-123728877D01*
X90664745Y-123658018D01*
X90664744Y-123658018D01*
X90664743Y-123658017D01*
X90510785Y-123555145D01*
X90379855Y-123424215D01*
X90276983Y-123270257D01*
X90270557Y-123254743D01*
X90206123Y-123099187D01*
X90170000Y-122917583D01*
X90170000Y-122732417D01*
X90206123Y-122550813D01*
X90276982Y-122379745D01*
X90278469Y-122377520D01*
X90379855Y-122225785D01*
X90510785Y-122094855D01*
X90549480Y-122069000D01*
X90587242Y-122043768D01*
X90664743Y-121991983D01*
X90689561Y-121981703D01*
X90835813Y-121921123D01*
X91017417Y-121885000D01*
X91202583Y-121885000D01*
X91384187Y-121921123D01*
G37*
G36*
X99004187Y-121921123D02*
G01*
X99150439Y-121981703D01*
X99175257Y-121991983D01*
X99252758Y-122043768D01*
X99290521Y-122069000D01*
X99329215Y-122094855D01*
X99460145Y-122225785D01*
X99561532Y-122377520D01*
X99563018Y-122379745D01*
X99633877Y-122550813D01*
X99670000Y-122732417D01*
X99670000Y-122917583D01*
X99633877Y-123099187D01*
X99569443Y-123254743D01*
X99563017Y-123270257D01*
X99460145Y-123424215D01*
X99329215Y-123555145D01*
X99175257Y-123658017D01*
X99175256Y-123658018D01*
X99175255Y-123658018D01*
X99004187Y-123728877D01*
X98822583Y-123765000D01*
X98637417Y-123765000D01*
X98455813Y-123728877D01*
X98284745Y-123658018D01*
X98284744Y-123658018D01*
X98284743Y-123658017D01*
X98130785Y-123555145D01*
X97999855Y-123424215D01*
X97896983Y-123270257D01*
X97890557Y-123254743D01*
X97826123Y-123099187D01*
X97790000Y-122917583D01*
X97790000Y-122732417D01*
X97826123Y-122550813D01*
X97896982Y-122379745D01*
X97898469Y-122377520D01*
X97999855Y-122225785D01*
X98130785Y-122094855D01*
X98169480Y-122069000D01*
X98207242Y-122043768D01*
X98284743Y-121991983D01*
X98309561Y-121981703D01*
X98455813Y-121921123D01*
X98637417Y-121885000D01*
X98822583Y-121885000D01*
X99004187Y-121921123D01*
G37*
G36*
X111704187Y-121921123D02*
G01*
X111850439Y-121981703D01*
X111875257Y-121991983D01*
X111952758Y-122043768D01*
X111990521Y-122069000D01*
X112029215Y-122094855D01*
X112160145Y-122225785D01*
X112261532Y-122377520D01*
X112263018Y-122379745D01*
X112333877Y-122550813D01*
X112370000Y-122732417D01*
X112370000Y-122917583D01*
X112333877Y-123099187D01*
X112269443Y-123254743D01*
X112263017Y-123270257D01*
X112160145Y-123424215D01*
X112029215Y-123555145D01*
X111875257Y-123658017D01*
X111875256Y-123658018D01*
X111875255Y-123658018D01*
X111704187Y-123728877D01*
X111522583Y-123765000D01*
X111337417Y-123765000D01*
X111155813Y-123728877D01*
X110984745Y-123658018D01*
X110984744Y-123658018D01*
X110984743Y-123658017D01*
X110830785Y-123555145D01*
X110699855Y-123424215D01*
X110596983Y-123270257D01*
X110590557Y-123254743D01*
X110526123Y-123099187D01*
X110490000Y-122917583D01*
X110490000Y-122732417D01*
X110526123Y-122550813D01*
X110596982Y-122379745D01*
X110598469Y-122377520D01*
X110699855Y-122225785D01*
X110830785Y-122094855D01*
X110869480Y-122069000D01*
X110907242Y-122043768D01*
X110984743Y-121991983D01*
X111009561Y-121981703D01*
X111155813Y-121921123D01*
X111337417Y-121885000D01*
X111522583Y-121885000D01*
X111704187Y-121921123D01*
G37*
G36*
X101544187Y-121921123D02*
G01*
X101690439Y-121981703D01*
X101715257Y-121991983D01*
X101792758Y-122043768D01*
X101830521Y-122069000D01*
X101869215Y-122094855D01*
X102000145Y-122225785D01*
X102101532Y-122377520D01*
X102103018Y-122379745D01*
X102173877Y-122550813D01*
X102210000Y-122732417D01*
X102210000Y-122917583D01*
X102173877Y-123099187D01*
X102109443Y-123254743D01*
X102103017Y-123270257D01*
X102000145Y-123424215D01*
X101869215Y-123555145D01*
X101715257Y-123658017D01*
X101715256Y-123658018D01*
X101715255Y-123658018D01*
X101544187Y-123728877D01*
X101362583Y-123765000D01*
X101177417Y-123765000D01*
X100995813Y-123728877D01*
X100824745Y-123658018D01*
X100824744Y-123658018D01*
X100824743Y-123658017D01*
X100670785Y-123555145D01*
X100539855Y-123424215D01*
X100436983Y-123270257D01*
X100430557Y-123254743D01*
X100366123Y-123099187D01*
X100330000Y-122917583D01*
X100330000Y-122732417D01*
X100366123Y-122550813D01*
X100436982Y-122379745D01*
X100438469Y-122377520D01*
X100539855Y-122225785D01*
X100670785Y-122094855D01*
X100709480Y-122069000D01*
X100747242Y-122043768D01*
X100824743Y-121991983D01*
X100849561Y-121981703D01*
X100995813Y-121921123D01*
X101177417Y-121885000D01*
X101362583Y-121885000D01*
X101544187Y-121921123D01*
G37*
G36*
X104084187Y-121921123D02*
G01*
X104230439Y-121981703D01*
X104255257Y-121991983D01*
X104332758Y-122043768D01*
X104370521Y-122069000D01*
X104409215Y-122094855D01*
X104540145Y-122225785D01*
X104641532Y-122377520D01*
X104643018Y-122379745D01*
X104713877Y-122550813D01*
X104750000Y-122732417D01*
X104750000Y-122917583D01*
X104713877Y-123099187D01*
X104649443Y-123254743D01*
X104643017Y-123270257D01*
X104540145Y-123424215D01*
X104409215Y-123555145D01*
X104255257Y-123658017D01*
X104255256Y-123658018D01*
X104255255Y-123658018D01*
X104084187Y-123728877D01*
X103902583Y-123765000D01*
X103717417Y-123765000D01*
X103535813Y-123728877D01*
X103364745Y-123658018D01*
X103364744Y-123658018D01*
X103364743Y-123658017D01*
X103210785Y-123555145D01*
X103079855Y-123424215D01*
X102976983Y-123270257D01*
X102970557Y-123254743D01*
X102906123Y-123099187D01*
X102870000Y-122917583D01*
X102870000Y-122732417D01*
X102906123Y-122550813D01*
X102976982Y-122379745D01*
X102978469Y-122377520D01*
X103079855Y-122225785D01*
X103210785Y-122094855D01*
X103249480Y-122069000D01*
X103287242Y-122043768D01*
X103364743Y-121991983D01*
X103389561Y-121981703D01*
X103535813Y-121921123D01*
X103717417Y-121885000D01*
X103902583Y-121885000D01*
X104084187Y-121921123D01*
G37*
G36*
X109164187Y-121921123D02*
G01*
X109310439Y-121981703D01*
X109335257Y-121991983D01*
X109412758Y-122043768D01*
X109450521Y-122069000D01*
X109489215Y-122094855D01*
X109620145Y-122225785D01*
X109721532Y-122377520D01*
X109723018Y-122379745D01*
X109793877Y-122550813D01*
X109830000Y-122732417D01*
X109830000Y-122917583D01*
X109793877Y-123099187D01*
X109729443Y-123254743D01*
X109723017Y-123270257D01*
X109620145Y-123424215D01*
X109489215Y-123555145D01*
X109335257Y-123658017D01*
X109335256Y-123658018D01*
X109335255Y-123658018D01*
X109164187Y-123728877D01*
X108982583Y-123765000D01*
X108797417Y-123765000D01*
X108615813Y-123728877D01*
X108444745Y-123658018D01*
X108444744Y-123658018D01*
X108444743Y-123658017D01*
X108290785Y-123555145D01*
X108159855Y-123424215D01*
X108056983Y-123270257D01*
X108050557Y-123254743D01*
X107986123Y-123099187D01*
X107950000Y-122917583D01*
X107950000Y-122732417D01*
X107986123Y-122550813D01*
X108056982Y-122379745D01*
X108058469Y-122377520D01*
X108159855Y-122225785D01*
X108290785Y-122094855D01*
X108329480Y-122069000D01*
X108367242Y-122043768D01*
X108444743Y-121991983D01*
X108469561Y-121981703D01*
X108615813Y-121921123D01*
X108797417Y-121885000D01*
X108982583Y-121885000D01*
X109164187Y-121921123D01*
G37*
G36*
X89510000Y-123765000D02*
G01*
X87630000Y-123765000D01*
X87630000Y-121885000D01*
X89510000Y-121885000D01*
X89510000Y-123765000D01*
G37*
G36*
X106624187Y-121921123D02*
G01*
X106770439Y-121981703D01*
X106795257Y-121991983D01*
X106872758Y-122043768D01*
X106910521Y-122069000D01*
X106949215Y-122094855D01*
X107080145Y-122225785D01*
X107181532Y-122377520D01*
X107183018Y-122379745D01*
X107253877Y-122550813D01*
X107290000Y-122732417D01*
X107290000Y-122917583D01*
X107253877Y-123099187D01*
X107189443Y-123254743D01*
X107183017Y-123270257D01*
X107080145Y-123424215D01*
X106949215Y-123555145D01*
X106795257Y-123658017D01*
X106795256Y-123658018D01*
X106795255Y-123658018D01*
X106624187Y-123728877D01*
X106442583Y-123765000D01*
X106257417Y-123765000D01*
X106075813Y-123728877D01*
X105904745Y-123658018D01*
X105904744Y-123658018D01*
X105904743Y-123658017D01*
X105750785Y-123555145D01*
X105619855Y-123424215D01*
X105516983Y-123270257D01*
X105510557Y-123254743D01*
X105446123Y-123099187D01*
X105410000Y-122917583D01*
X105410000Y-122732417D01*
X105446123Y-122550813D01*
X105516982Y-122379745D01*
X105518469Y-122377520D01*
X105619855Y-122225785D01*
X105750785Y-122094855D01*
X105789480Y-122069000D01*
X105827242Y-122043768D01*
X105904743Y-121991983D01*
X105929561Y-121981703D01*
X106075813Y-121921123D01*
X106257417Y-121885000D01*
X106442583Y-121885000D01*
X106624187Y-121921123D01*
G37*
G36*
X84968228Y-121981703D02*
G01*
X85123100Y-122045853D01*
X85262481Y-122138985D01*
X85381015Y-122257519D01*
X85474147Y-122396900D01*
X85538297Y-122551772D01*
X85571000Y-122716184D01*
X85571000Y-122883816D01*
X85538297Y-123048228D01*
X85474147Y-123203100D01*
X85381015Y-123342481D01*
X85262481Y-123461015D01*
X85123100Y-123554147D01*
X84968228Y-123618297D01*
X84803816Y-123651000D01*
X84636184Y-123651000D01*
X84471772Y-123618297D01*
X84316900Y-123554147D01*
X84177519Y-123461015D01*
X84058985Y-123342481D01*
X83965853Y-123203100D01*
X83901703Y-123048228D01*
X83869000Y-122883816D01*
X83869000Y-122716184D01*
X83901703Y-122551772D01*
X83965853Y-122396900D01*
X84058985Y-122257519D01*
X84177519Y-122138985D01*
X84316900Y-122045853D01*
X84471772Y-121981703D01*
X84636184Y-121949000D01*
X84803816Y-121949000D01*
X84968228Y-121981703D01*
G37*
G36*
X82428228Y-121981703D02*
G01*
X82583100Y-122045853D01*
X82722481Y-122138985D01*
X82841015Y-122257519D01*
X82934147Y-122396900D01*
X82998297Y-122551772D01*
X83031000Y-122716184D01*
X83031000Y-122883816D01*
X82998297Y-123048228D01*
X82934147Y-123203100D01*
X82841015Y-123342481D01*
X82722481Y-123461015D01*
X82583100Y-123554147D01*
X82428228Y-123618297D01*
X82263816Y-123651000D01*
X82096184Y-123651000D01*
X81931772Y-123618297D01*
X81776900Y-123554147D01*
X81637519Y-123461015D01*
X81518985Y-123342481D01*
X81425853Y-123203100D01*
X81361703Y-123048228D01*
X81329000Y-122883816D01*
X81329000Y-122716184D01*
X81361703Y-122551772D01*
X81425853Y-122396900D01*
X81518985Y-122257519D01*
X81637519Y-122138985D01*
X81776900Y-122045853D01*
X81931772Y-121981703D01*
X82096184Y-121949000D01*
X82263816Y-121949000D01*
X82428228Y-121981703D01*
G37*
G36*
X79888228Y-121981703D02*
G01*
X80043100Y-122045853D01*
X80182481Y-122138985D01*
X80301015Y-122257519D01*
X80394147Y-122396900D01*
X80458297Y-122551772D01*
X80491000Y-122716184D01*
X80491000Y-122883816D01*
X80458297Y-123048228D01*
X80394147Y-123203100D01*
X80301015Y-123342481D01*
X80182481Y-123461015D01*
X80043100Y-123554147D01*
X79888228Y-123618297D01*
X79723816Y-123651000D01*
X79556184Y-123651000D01*
X79391772Y-123618297D01*
X79236900Y-123554147D01*
X79097519Y-123461015D01*
X78978985Y-123342481D01*
X78885853Y-123203100D01*
X78821703Y-123048228D01*
X78789000Y-122883816D01*
X78789000Y-122716184D01*
X78821703Y-122551772D01*
X78885853Y-122396900D01*
X78978985Y-122257519D01*
X79097519Y-122138985D01*
X79236900Y-122045853D01*
X79391772Y-121981703D01*
X79556184Y-121949000D01*
X79723816Y-121949000D01*
X79888228Y-121981703D01*
G37*
G36*
X77951000Y-123651000D02*
G01*
X76249000Y-123651000D01*
X76249000Y-121949000D01*
X77951000Y-121949000D01*
X77951000Y-123651000D01*
G37*
G36*
X88848228Y-119081703D02*
G01*
X89003100Y-119145853D01*
X89142481Y-119238985D01*
X89261015Y-119357519D01*
X89354147Y-119496900D01*
X89418297Y-119651772D01*
X89451000Y-119816184D01*
X89451000Y-119983816D01*
X89418297Y-120148228D01*
X89354147Y-120303100D01*
X89261015Y-120442481D01*
X89142481Y-120561015D01*
X89003100Y-120654147D01*
X88848228Y-120718297D01*
X88683816Y-120751000D01*
X88516184Y-120751000D01*
X88351772Y-120718297D01*
X88196900Y-120654147D01*
X88057519Y-120561015D01*
X87938985Y-120442481D01*
X87845853Y-120303100D01*
X87781703Y-120148228D01*
X87749000Y-119983816D01*
X87749000Y-119816184D01*
X87781703Y-119651772D01*
X87845853Y-119496900D01*
X87938985Y-119357519D01*
X88057519Y-119238985D01*
X88196900Y-119145853D01*
X88351772Y-119081703D01*
X88516184Y-119049000D01*
X88683816Y-119049000D01*
X88848228Y-119081703D01*
G37*
G36*
X93848228Y-119081703D02*
G01*
X94003100Y-119145853D01*
X94142481Y-119238985D01*
X94261015Y-119357519D01*
X94354147Y-119496900D01*
X94418297Y-119651772D01*
X94451000Y-119816184D01*
X94451000Y-119983816D01*
X94418297Y-120148228D01*
X94354147Y-120303100D01*
X94261015Y-120442481D01*
X94142481Y-120561015D01*
X94003100Y-120654147D01*
X93848228Y-120718297D01*
X93683816Y-120751000D01*
X93516184Y-120751000D01*
X93351772Y-120718297D01*
X93196900Y-120654147D01*
X93057519Y-120561015D01*
X92938985Y-120442481D01*
X92845853Y-120303100D01*
X92781703Y-120148228D01*
X92749000Y-119983816D01*
X92749000Y-119816184D01*
X92781703Y-119651772D01*
X92845853Y-119496900D01*
X92938985Y-119357519D01*
X93057519Y-119238985D01*
X93196900Y-119145853D01*
X93351772Y-119081703D01*
X93516184Y-119049000D01*
X93683816Y-119049000D01*
X93848228Y-119081703D01*
G37*
G36*
X101448228Y-118081703D02*
G01*
X101603100Y-118145853D01*
X101742481Y-118238985D01*
X101861015Y-118357519D01*
X101954147Y-118496900D01*
X102018297Y-118651772D01*
X102051000Y-118816184D01*
X102051000Y-118983816D01*
X102018297Y-119148228D01*
X101954147Y-119303100D01*
X101861015Y-119442481D01*
X101742481Y-119561015D01*
X101603100Y-119654147D01*
X101448228Y-119718297D01*
X101283816Y-119751000D01*
X101116184Y-119751000D01*
X100951772Y-119718297D01*
X100796900Y-119654147D01*
X100657519Y-119561015D01*
X100538985Y-119442481D01*
X100445853Y-119303100D01*
X100381703Y-119148228D01*
X100349000Y-118983816D01*
X100349000Y-118816184D01*
X100381703Y-118651772D01*
X100445853Y-118496900D01*
X100538985Y-118357519D01*
X100657519Y-118238985D01*
X100796900Y-118145853D01*
X100951772Y-118081703D01*
X101116184Y-118049000D01*
X101283816Y-118049000D01*
X101448228Y-118081703D01*
G37*
G36*
X111448228Y-118081703D02*
G01*
X111603100Y-118145853D01*
X111742481Y-118238985D01*
X111861015Y-118357519D01*
X111954147Y-118496900D01*
X112018297Y-118651772D01*
X112051000Y-118816184D01*
X112051000Y-118983816D01*
X112018297Y-119148228D01*
X111954147Y-119303100D01*
X111861015Y-119442481D01*
X111742481Y-119561015D01*
X111603100Y-119654147D01*
X111448228Y-119718297D01*
X111283816Y-119751000D01*
X111116184Y-119751000D01*
X110951772Y-119718297D01*
X110796900Y-119654147D01*
X110657519Y-119561015D01*
X110538985Y-119442481D01*
X110445853Y-119303100D01*
X110381703Y-119148228D01*
X110349000Y-118983816D01*
X110349000Y-118816184D01*
X110381703Y-118651772D01*
X110445853Y-118496900D01*
X110538985Y-118357519D01*
X110657519Y-118238985D01*
X110796900Y-118145853D01*
X110951772Y-118081703D01*
X111116184Y-118049000D01*
X111283816Y-118049000D01*
X111448228Y-118081703D01*
G37*
G36*
X106448228Y-118081703D02*
G01*
X106603100Y-118145853D01*
X106742481Y-118238985D01*
X106861015Y-118357519D01*
X106954147Y-118496900D01*
X107018297Y-118651772D01*
X107051000Y-118816184D01*
X107051000Y-118983816D01*
X107018297Y-119148228D01*
X106954147Y-119303100D01*
X106861015Y-119442481D01*
X106742481Y-119561015D01*
X106603100Y-119654147D01*
X106448228Y-119718297D01*
X106283816Y-119751000D01*
X106116184Y-119751000D01*
X105951772Y-119718297D01*
X105796900Y-119654147D01*
X105657519Y-119561015D01*
X105538985Y-119442481D01*
X105445853Y-119303100D01*
X105381703Y-119148228D01*
X105349000Y-118983816D01*
X105349000Y-118816184D01*
X105381703Y-118651772D01*
X105445853Y-118496900D01*
X105538985Y-118357519D01*
X105657519Y-118238985D01*
X105796900Y-118145853D01*
X105951772Y-118081703D01*
X106116184Y-118049000D01*
X106283816Y-118049000D01*
X106448228Y-118081703D01*
G37*
G36*
X96448228Y-118081703D02*
G01*
X96603100Y-118145853D01*
X96742481Y-118238985D01*
X96861015Y-118357519D01*
X96954147Y-118496900D01*
X97018297Y-118651772D01*
X97051000Y-118816184D01*
X97051000Y-118983816D01*
X97018297Y-119148228D01*
X96954147Y-119303100D01*
X96861015Y-119442481D01*
X96742481Y-119561015D01*
X96603100Y-119654147D01*
X96448228Y-119718297D01*
X96283816Y-119751000D01*
X96116184Y-119751000D01*
X95951772Y-119718297D01*
X95796900Y-119654147D01*
X95657519Y-119561015D01*
X95538985Y-119442481D01*
X95445853Y-119303100D01*
X95381703Y-119148228D01*
X95349000Y-118983816D01*
X95349000Y-118816184D01*
X95381703Y-118651772D01*
X95445853Y-118496900D01*
X95538985Y-118357519D01*
X95657519Y-118238985D01*
X95796900Y-118145853D01*
X95951772Y-118081703D01*
X96116184Y-118049000D01*
X96283816Y-118049000D01*
X96448228Y-118081703D01*
G37*
G36*
X66754187Y-117716123D02*
G01*
X66925255Y-117786982D01*
X66925257Y-117786983D01*
X67079215Y-117889855D01*
X67210145Y-118020785D01*
X67293713Y-118145852D01*
X67313018Y-118174745D01*
X67383877Y-118345813D01*
X67420000Y-118527417D01*
X67420000Y-118712583D01*
X67383877Y-118894187D01*
X67346751Y-118983816D01*
X67313017Y-119065257D01*
X67261232Y-119142758D01*
X67210146Y-119219214D01*
X67079214Y-119350146D01*
X67068178Y-119357520D01*
X66925257Y-119453017D01*
X66925256Y-119453018D01*
X66925255Y-119453018D01*
X66754187Y-119523877D01*
X66572583Y-119560000D01*
X66387417Y-119560000D01*
X66205813Y-119523877D01*
X66034745Y-119453018D01*
X66034744Y-119453018D01*
X66034743Y-119453017D01*
X65891822Y-119357520D01*
X65880786Y-119350146D01*
X65749854Y-119219214D01*
X65698768Y-119142758D01*
X65646983Y-119065257D01*
X65613249Y-118983816D01*
X65576123Y-118894187D01*
X65540000Y-118712583D01*
X65540000Y-118527417D01*
X65576123Y-118345813D01*
X65646982Y-118174745D01*
X65666288Y-118145852D01*
X65749855Y-118020785D01*
X65880785Y-117889855D01*
X66034743Y-117786983D01*
X66034745Y-117786982D01*
X66205813Y-117716123D01*
X66387417Y-117680000D01*
X66572583Y-117680000D01*
X66754187Y-117716123D01*
G37*
G36*
X139540000Y-119560000D02*
G01*
X137660000Y-119560000D01*
X137660000Y-117680000D01*
X139540000Y-117680000D01*
X139540000Y-119560000D01*
G37*
G36*
X133794187Y-117716123D02*
G01*
X133965255Y-117786982D01*
X133965257Y-117786983D01*
X134119215Y-117889855D01*
X134250145Y-118020785D01*
X134333713Y-118145852D01*
X134353018Y-118174745D01*
X134423877Y-118345813D01*
X134460000Y-118527417D01*
X134460000Y-118712583D01*
X134423877Y-118894187D01*
X134386751Y-118983816D01*
X134353017Y-119065257D01*
X134301232Y-119142758D01*
X134250146Y-119219214D01*
X134119214Y-119350146D01*
X134108178Y-119357520D01*
X133965257Y-119453017D01*
X133965256Y-119453018D01*
X133965255Y-119453018D01*
X133794187Y-119523877D01*
X133612583Y-119560000D01*
X133427417Y-119560000D01*
X133245813Y-119523877D01*
X133074745Y-119453018D01*
X133074744Y-119453018D01*
X133074743Y-119453017D01*
X132931822Y-119357520D01*
X132920786Y-119350146D01*
X132789854Y-119219214D01*
X132738768Y-119142758D01*
X132686983Y-119065257D01*
X132653249Y-118983816D01*
X132616123Y-118894187D01*
X132580000Y-118712583D01*
X132580000Y-118527417D01*
X132616123Y-118345813D01*
X132686982Y-118174745D01*
X132706288Y-118145852D01*
X132789855Y-118020785D01*
X132920785Y-117889855D01*
X133074743Y-117786983D01*
X133074745Y-117786982D01*
X133245813Y-117716123D01*
X133427417Y-117680000D01*
X133612583Y-117680000D01*
X133794187Y-117716123D01*
G37*
G36*
X131254187Y-117716123D02*
G01*
X131425255Y-117786982D01*
X131425257Y-117786983D01*
X131579215Y-117889855D01*
X131710145Y-118020785D01*
X131793713Y-118145852D01*
X131813018Y-118174745D01*
X131883877Y-118345813D01*
X131920000Y-118527417D01*
X131920000Y-118712583D01*
X131883877Y-118894187D01*
X131846751Y-118983816D01*
X131813017Y-119065257D01*
X131761232Y-119142758D01*
X131710146Y-119219214D01*
X131579214Y-119350146D01*
X131568178Y-119357520D01*
X131425257Y-119453017D01*
X131425256Y-119453018D01*
X131425255Y-119453018D01*
X131254187Y-119523877D01*
X131072583Y-119560000D01*
X130887417Y-119560000D01*
X130705813Y-119523877D01*
X130534745Y-119453018D01*
X130534744Y-119453018D01*
X130534743Y-119453017D01*
X130391822Y-119357520D01*
X130380786Y-119350146D01*
X130249854Y-119219214D01*
X130198768Y-119142758D01*
X130146983Y-119065257D01*
X130113249Y-118983816D01*
X130076123Y-118894187D01*
X130040000Y-118712583D01*
X130040000Y-118527417D01*
X130076123Y-118345813D01*
X130146982Y-118174745D01*
X130166288Y-118145852D01*
X130249855Y-118020785D01*
X130380785Y-117889855D01*
X130534743Y-117786983D01*
X130534745Y-117786982D01*
X130705813Y-117716123D01*
X130887417Y-117680000D01*
X131072583Y-117680000D01*
X131254187Y-117716123D01*
G37*
G36*
X128714187Y-117716123D02*
G01*
X128885255Y-117786982D01*
X128885257Y-117786983D01*
X129039215Y-117889855D01*
X129170145Y-118020785D01*
X129253713Y-118145852D01*
X129273018Y-118174745D01*
X129343877Y-118345813D01*
X129380000Y-118527417D01*
X129380000Y-118712583D01*
X129343877Y-118894187D01*
X129306751Y-118983816D01*
X129273017Y-119065257D01*
X129221232Y-119142758D01*
X129170146Y-119219214D01*
X129039214Y-119350146D01*
X129028178Y-119357520D01*
X128885257Y-119453017D01*
X128885256Y-119453018D01*
X128885255Y-119453018D01*
X128714187Y-119523877D01*
X128532583Y-119560000D01*
X128347417Y-119560000D01*
X128165813Y-119523877D01*
X127994745Y-119453018D01*
X127994744Y-119453018D01*
X127994743Y-119453017D01*
X127851822Y-119357520D01*
X127840786Y-119350146D01*
X127709854Y-119219214D01*
X127658768Y-119142758D01*
X127606983Y-119065257D01*
X127573249Y-118983816D01*
X127536123Y-118894187D01*
X127500000Y-118712583D01*
X127500000Y-118527417D01*
X127536123Y-118345813D01*
X127606982Y-118174745D01*
X127626288Y-118145852D01*
X127709855Y-118020785D01*
X127840785Y-117889855D01*
X127994743Y-117786983D01*
X127994745Y-117786982D01*
X128165813Y-117716123D01*
X128347417Y-117680000D01*
X128532583Y-117680000D01*
X128714187Y-117716123D01*
G37*
G36*
X71834187Y-117716123D02*
G01*
X72005255Y-117786982D01*
X72005257Y-117786983D01*
X72159215Y-117889855D01*
X72290145Y-118020785D01*
X72373713Y-118145852D01*
X72393018Y-118174745D01*
X72463877Y-118345813D01*
X72500000Y-118527417D01*
X72500000Y-118712583D01*
X72463877Y-118894187D01*
X72426751Y-118983816D01*
X72393017Y-119065257D01*
X72341232Y-119142758D01*
X72290146Y-119219214D01*
X72159214Y-119350146D01*
X72148178Y-119357520D01*
X72005257Y-119453017D01*
X72005256Y-119453018D01*
X72005255Y-119453018D01*
X71834187Y-119523877D01*
X71652583Y-119560000D01*
X71467417Y-119560000D01*
X71285813Y-119523877D01*
X71114745Y-119453018D01*
X71114744Y-119453018D01*
X71114743Y-119453017D01*
X70971822Y-119357520D01*
X70960786Y-119350146D01*
X70829854Y-119219214D01*
X70778768Y-119142758D01*
X70726983Y-119065257D01*
X70693249Y-118983816D01*
X70656123Y-118894187D01*
X70620000Y-118712583D01*
X70620000Y-118527417D01*
X70656123Y-118345813D01*
X70726982Y-118174745D01*
X70746288Y-118145852D01*
X70829855Y-118020785D01*
X70960785Y-117889855D01*
X71114743Y-117786983D01*
X71114745Y-117786982D01*
X71285813Y-117716123D01*
X71467417Y-117680000D01*
X71652583Y-117680000D01*
X71834187Y-117716123D01*
G37*
G36*
X61674187Y-117716123D02*
G01*
X61845255Y-117786982D01*
X61845257Y-117786983D01*
X61999215Y-117889855D01*
X62130145Y-118020785D01*
X62213713Y-118145852D01*
X62233018Y-118174745D01*
X62303877Y-118345813D01*
X62340000Y-118527417D01*
X62340000Y-118712583D01*
X62303877Y-118894187D01*
X62266751Y-118983816D01*
X62233017Y-119065257D01*
X62181232Y-119142758D01*
X62130146Y-119219214D01*
X61999214Y-119350146D01*
X61988178Y-119357520D01*
X61845257Y-119453017D01*
X61845256Y-119453018D01*
X61845255Y-119453018D01*
X61674187Y-119523877D01*
X61492583Y-119560000D01*
X61307417Y-119560000D01*
X61125813Y-119523877D01*
X60954745Y-119453018D01*
X60954744Y-119453018D01*
X60954743Y-119453017D01*
X60811822Y-119357520D01*
X60800786Y-119350146D01*
X60669854Y-119219214D01*
X60618768Y-119142758D01*
X60566983Y-119065257D01*
X60533249Y-118983816D01*
X60496123Y-118894187D01*
X60460000Y-118712583D01*
X60460000Y-118527417D01*
X60496123Y-118345813D01*
X60566982Y-118174745D01*
X60586288Y-118145852D01*
X60669855Y-118020785D01*
X60800785Y-117889855D01*
X60954743Y-117786983D01*
X60954745Y-117786982D01*
X61125813Y-117716123D01*
X61307417Y-117680000D01*
X61492583Y-117680000D01*
X61674187Y-117716123D01*
G37*
G36*
X69294187Y-117716123D02*
G01*
X69465255Y-117786982D01*
X69465257Y-117786983D01*
X69619215Y-117889855D01*
X69750145Y-118020785D01*
X69833713Y-118145852D01*
X69853018Y-118174745D01*
X69923877Y-118345813D01*
X69960000Y-118527417D01*
X69960000Y-118712583D01*
X69923877Y-118894187D01*
X69886751Y-118983816D01*
X69853017Y-119065257D01*
X69801232Y-119142758D01*
X69750146Y-119219214D01*
X69619214Y-119350146D01*
X69608178Y-119357520D01*
X69465257Y-119453017D01*
X69465256Y-119453018D01*
X69465255Y-119453018D01*
X69294187Y-119523877D01*
X69112583Y-119560000D01*
X68927417Y-119560000D01*
X68745813Y-119523877D01*
X68574745Y-119453018D01*
X68574744Y-119453018D01*
X68574743Y-119453017D01*
X68431822Y-119357520D01*
X68420786Y-119350146D01*
X68289854Y-119219214D01*
X68238768Y-119142758D01*
X68186983Y-119065257D01*
X68153249Y-118983816D01*
X68116123Y-118894187D01*
X68080000Y-118712583D01*
X68080000Y-118527417D01*
X68116123Y-118345813D01*
X68186982Y-118174745D01*
X68206288Y-118145852D01*
X68289855Y-118020785D01*
X68420785Y-117889855D01*
X68574743Y-117786983D01*
X68574745Y-117786982D01*
X68745813Y-117716123D01*
X68927417Y-117680000D01*
X69112583Y-117680000D01*
X69294187Y-117716123D01*
G37*
G36*
X62351000Y-116651000D02*
G01*
X60049000Y-116651000D01*
X60049000Y-114349000D01*
X62351000Y-114349000D01*
X62351000Y-116651000D01*
G37*
G36*
X71537227Y-114361703D02*
G01*
X71695734Y-114393232D01*
X71905203Y-114479997D01*
X72093720Y-114605960D01*
X72254040Y-114766280D01*
X72380003Y-114954797D01*
X72466768Y-115164266D01*
X72477095Y-115216184D01*
X72511000Y-115386635D01*
X72511000Y-115613365D01*
X72493151Y-115703097D01*
X72466768Y-115835734D01*
X72414875Y-115961015D01*
X72384760Y-116033720D01*
X72380003Y-116045203D01*
X72254040Y-116233720D01*
X72093720Y-116394040D01*
X71905203Y-116520003D01*
X71695734Y-116606768D01*
X71584549Y-116628884D01*
X71473365Y-116651000D01*
X71246635Y-116651000D01*
X71135451Y-116628884D01*
X71024266Y-116606768D01*
X70814797Y-116520003D01*
X70626280Y-116394040D01*
X70465960Y-116233720D01*
X70339997Y-116045203D01*
X70335241Y-116033720D01*
X70305125Y-115961015D01*
X70253232Y-115835734D01*
X70226849Y-115703097D01*
X70209000Y-115613365D01*
X70209000Y-115386635D01*
X70242905Y-115216184D01*
X70253232Y-115164266D01*
X70339997Y-114954797D01*
X70465960Y-114766280D01*
X70626280Y-114605960D01*
X70814797Y-114479997D01*
X71024266Y-114393232D01*
X71182773Y-114361703D01*
X71246635Y-114349000D01*
X71473365Y-114349000D01*
X71537227Y-114361703D01*
G37*
G36*
X139851000Y-116451000D02*
G01*
X137549000Y-116451000D01*
X137549000Y-114149000D01*
X139851000Y-114149000D01*
X139851000Y-116451000D01*
G37*
G36*
X128764549Y-114171116D02*
G01*
X128875734Y-114193232D01*
X129085203Y-114279997D01*
X129273720Y-114405960D01*
X129434040Y-114566280D01*
X129560003Y-114754797D01*
X129560004Y-114754799D01*
X129564760Y-114766281D01*
X129642847Y-114954799D01*
X129646768Y-114964267D01*
X129691000Y-115186635D01*
X129691000Y-115413365D01*
X129688043Y-115428229D01*
X129646768Y-115635734D01*
X129610836Y-115722481D01*
X129561131Y-115842481D01*
X129560003Y-115845203D01*
X129434040Y-116033720D01*
X129273720Y-116194040D01*
X129085203Y-116320003D01*
X128875734Y-116406768D01*
X128764549Y-116428884D01*
X128653365Y-116451000D01*
X128426635Y-116451000D01*
X128315451Y-116428884D01*
X128204266Y-116406768D01*
X127994797Y-116320003D01*
X127806280Y-116194040D01*
X127645960Y-116033720D01*
X127519997Y-115845203D01*
X127518870Y-115842481D01*
X127469164Y-115722481D01*
X127433232Y-115635734D01*
X127391957Y-115428229D01*
X127389000Y-115413365D01*
X127389000Y-115186635D01*
X127433232Y-114964267D01*
X127437154Y-114954799D01*
X127515240Y-114766281D01*
X127519996Y-114754799D01*
X127519997Y-114754797D01*
X127645960Y-114566280D01*
X127806280Y-114405960D01*
X127994797Y-114279997D01*
X128204266Y-114193232D01*
X128315451Y-114171116D01*
X128426635Y-114149000D01*
X128653365Y-114149000D01*
X128764549Y-114171116D01*
G37*
G36*
X120408228Y-114481703D02*
G01*
X120563100Y-114545853D01*
X120702481Y-114638985D01*
X120821015Y-114757519D01*
X120914147Y-114896900D01*
X120978297Y-115051772D01*
X121011000Y-115216184D01*
X121011000Y-115383816D01*
X120978297Y-115548228D01*
X120914147Y-115703100D01*
X120821015Y-115842481D01*
X120702481Y-115961015D01*
X120563100Y-116054147D01*
X120408228Y-116118297D01*
X120243816Y-116151000D01*
X120076184Y-116151000D01*
X119911772Y-116118297D01*
X119756900Y-116054147D01*
X119617519Y-115961015D01*
X119498985Y-115842481D01*
X119405853Y-115703100D01*
X119341703Y-115548228D01*
X119309000Y-115383816D01*
X119309000Y-115216184D01*
X119341703Y-115051772D01*
X119405853Y-114896900D01*
X119498985Y-114757519D01*
X119617519Y-114638985D01*
X119756900Y-114545853D01*
X119911772Y-114481703D01*
X120076184Y-114449000D01*
X120243816Y-114449000D01*
X120408228Y-114481703D01*
G37*
G36*
X123551000Y-116151000D02*
G01*
X121849000Y-116151000D01*
X121849000Y-114449000D01*
X123551000Y-114449000D01*
X123551000Y-116151000D01*
G37*
G36*
X115328228Y-114481703D02*
G01*
X115483100Y-114545853D01*
X115622481Y-114638985D01*
X115741015Y-114757519D01*
X115834147Y-114896900D01*
X115898297Y-115051772D01*
X115931000Y-115216184D01*
X115931000Y-115383816D01*
X115898297Y-115548228D01*
X115834147Y-115703100D01*
X115741015Y-115842481D01*
X115622481Y-115961015D01*
X115483100Y-116054147D01*
X115328228Y-116118297D01*
X115163816Y-116151000D01*
X114996184Y-116151000D01*
X114831772Y-116118297D01*
X114676900Y-116054147D01*
X114537519Y-115961015D01*
X114418985Y-115842481D01*
X114325853Y-115703100D01*
X114261703Y-115548228D01*
X114229000Y-115383816D01*
X114229000Y-115216184D01*
X114261703Y-115051772D01*
X114325853Y-114896900D01*
X114418985Y-114757519D01*
X114537519Y-114638985D01*
X114676900Y-114545853D01*
X114831772Y-114481703D01*
X114996184Y-114449000D01*
X115163816Y-114449000D01*
X115328228Y-114481703D01*
G37*
G36*
X117868228Y-114481703D02*
G01*
X118023100Y-114545853D01*
X118162481Y-114638985D01*
X118281015Y-114757519D01*
X118374147Y-114896900D01*
X118438297Y-115051772D01*
X118471000Y-115216184D01*
X118471000Y-115383816D01*
X118438297Y-115548228D01*
X118374147Y-115703100D01*
X118281015Y-115842481D01*
X118162481Y-115961015D01*
X118023100Y-116054147D01*
X117868228Y-116118297D01*
X117703816Y-116151000D01*
X117536184Y-116151000D01*
X117371772Y-116118297D01*
X117216900Y-116054147D01*
X117077519Y-115961015D01*
X116958985Y-115842481D01*
X116865853Y-115703100D01*
X116801703Y-115548228D01*
X116769000Y-115383816D01*
X116769000Y-115216184D01*
X116801703Y-115051772D01*
X116865853Y-114896900D01*
X116958985Y-114757519D01*
X117077519Y-114638985D01*
X117216900Y-114545853D01*
X117371772Y-114481703D01*
X117536184Y-114449000D01*
X117703816Y-114449000D01*
X117868228Y-114481703D01*
G37*
G36*
X84968228Y-114361703D02*
G01*
X85123100Y-114425853D01*
X85262481Y-114518985D01*
X85381015Y-114637519D01*
X85474147Y-114776900D01*
X85538297Y-114931772D01*
X85571000Y-115096184D01*
X85571000Y-115263816D01*
X85538297Y-115428228D01*
X85474147Y-115583100D01*
X85381015Y-115722481D01*
X85262481Y-115841015D01*
X85123100Y-115934147D01*
X84968228Y-115998297D01*
X84803816Y-116031000D01*
X84636184Y-116031000D01*
X84471772Y-115998297D01*
X84316900Y-115934147D01*
X84177519Y-115841015D01*
X84058985Y-115722481D01*
X83965853Y-115583100D01*
X83901703Y-115428228D01*
X83869000Y-115263816D01*
X83869000Y-115096184D01*
X83901703Y-114931772D01*
X83965853Y-114776900D01*
X84058985Y-114637519D01*
X84177519Y-114518985D01*
X84316900Y-114425853D01*
X84471772Y-114361703D01*
X84636184Y-114329000D01*
X84803816Y-114329000D01*
X84968228Y-114361703D01*
G37*
G36*
X77348228Y-114361703D02*
G01*
X77503100Y-114425853D01*
X77642481Y-114518985D01*
X77761015Y-114637519D01*
X77854147Y-114776900D01*
X77918297Y-114931772D01*
X77951000Y-115096184D01*
X77951000Y-115263816D01*
X77918297Y-115428228D01*
X77854147Y-115583100D01*
X77761015Y-115722481D01*
X77642481Y-115841015D01*
X77503100Y-115934147D01*
X77348228Y-115998297D01*
X77183816Y-116031000D01*
X77016184Y-116031000D01*
X76851772Y-115998297D01*
X76696900Y-115934147D01*
X76557519Y-115841015D01*
X76438985Y-115722481D01*
X76345853Y-115583100D01*
X76281703Y-115428228D01*
X76249000Y-115263816D01*
X76249000Y-115096184D01*
X76281703Y-114931772D01*
X76345853Y-114776900D01*
X76438985Y-114637519D01*
X76557519Y-114518985D01*
X76696900Y-114425853D01*
X76851772Y-114361703D01*
X77016184Y-114329000D01*
X77183816Y-114329000D01*
X77348228Y-114361703D01*
G37*
G36*
X79888228Y-114361703D02*
G01*
X80043100Y-114425853D01*
X80182481Y-114518985D01*
X80301015Y-114637519D01*
X80394147Y-114776900D01*
X80458297Y-114931772D01*
X80491000Y-115096184D01*
X80491000Y-115263816D01*
X80458297Y-115428228D01*
X80394147Y-115583100D01*
X80301015Y-115722481D01*
X80182481Y-115841015D01*
X80043100Y-115934147D01*
X79888228Y-115998297D01*
X79723816Y-116031000D01*
X79556184Y-116031000D01*
X79391772Y-115998297D01*
X79236900Y-115934147D01*
X79097519Y-115841015D01*
X78978985Y-115722481D01*
X78885853Y-115583100D01*
X78821703Y-115428228D01*
X78789000Y-115263816D01*
X78789000Y-115096184D01*
X78821703Y-114931772D01*
X78885853Y-114776900D01*
X78978985Y-114637519D01*
X79097519Y-114518985D01*
X79236900Y-114425853D01*
X79391772Y-114361703D01*
X79556184Y-114329000D01*
X79723816Y-114329000D01*
X79888228Y-114361703D01*
G37*
G36*
X82428228Y-114361703D02*
G01*
X82583100Y-114425853D01*
X82722481Y-114518985D01*
X82841015Y-114637519D01*
X82934147Y-114776900D01*
X82998297Y-114931772D01*
X83031000Y-115096184D01*
X83031000Y-115263816D01*
X82998297Y-115428228D01*
X82934147Y-115583100D01*
X82841015Y-115722481D01*
X82722481Y-115841015D01*
X82583100Y-115934147D01*
X82428228Y-115998297D01*
X82263816Y-116031000D01*
X82096184Y-116031000D01*
X81931772Y-115998297D01*
X81776900Y-115934147D01*
X81637519Y-115841015D01*
X81518985Y-115722481D01*
X81425853Y-115583100D01*
X81361703Y-115428228D01*
X81329000Y-115263816D01*
X81329000Y-115096184D01*
X81361703Y-114931772D01*
X81425853Y-114776900D01*
X81518985Y-114637519D01*
X81637519Y-114518985D01*
X81776900Y-114425853D01*
X81931772Y-114361703D01*
X82096184Y-114329000D01*
X82263816Y-114329000D01*
X82428228Y-114361703D01*
G37*
G36*
X104828228Y-112181703D02*
G01*
X104983100Y-112245853D01*
X105122481Y-112338985D01*
X105241015Y-112457519D01*
X105334147Y-112596900D01*
X105398297Y-112751772D01*
X105431000Y-112916184D01*
X105431000Y-113083816D01*
X105398297Y-113248228D01*
X105334147Y-113403100D01*
X105241015Y-113542481D01*
X105122481Y-113661015D01*
X104983100Y-113754147D01*
X104828228Y-113818297D01*
X104663816Y-113851000D01*
X104496184Y-113851000D01*
X104331772Y-113818297D01*
X104176900Y-113754147D01*
X104037519Y-113661015D01*
X103918985Y-113542481D01*
X103825853Y-113403100D01*
X103761703Y-113248228D01*
X103729000Y-113083816D01*
X103729000Y-112916184D01*
X103761703Y-112751772D01*
X103825853Y-112596900D01*
X103918985Y-112457519D01*
X104037519Y-112338985D01*
X104176900Y-112245853D01*
X104331772Y-112181703D01*
X104496184Y-112149000D01*
X104663816Y-112149000D01*
X104828228Y-112181703D01*
G37*
G36*
X117528228Y-112181703D02*
G01*
X117683100Y-112245853D01*
X117822481Y-112338985D01*
X117941015Y-112457519D01*
X118034147Y-112596900D01*
X118098297Y-112751772D01*
X118131000Y-112916184D01*
X118131000Y-113083816D01*
X118098297Y-113248228D01*
X118034147Y-113403100D01*
X117941015Y-113542481D01*
X117822481Y-113661015D01*
X117683100Y-113754147D01*
X117528228Y-113818297D01*
X117363816Y-113851000D01*
X117196184Y-113851000D01*
X117031772Y-113818297D01*
X116876900Y-113754147D01*
X116737519Y-113661015D01*
X116618985Y-113542481D01*
X116525853Y-113403100D01*
X116461703Y-113248228D01*
X116429000Y-113083816D01*
X116429000Y-112916184D01*
X116461703Y-112751772D01*
X116525853Y-112596900D01*
X116618985Y-112457519D01*
X116737519Y-112338985D01*
X116876900Y-112245853D01*
X117031772Y-112181703D01*
X117196184Y-112149000D01*
X117363816Y-112149000D01*
X117528228Y-112181703D01*
G37*
G36*
X112448228Y-112181703D02*
G01*
X112603100Y-112245853D01*
X112742481Y-112338985D01*
X112861015Y-112457519D01*
X112954147Y-112596900D01*
X113018297Y-112751772D01*
X113051000Y-112916184D01*
X113051000Y-113083816D01*
X113018297Y-113248228D01*
X112954147Y-113403100D01*
X112861015Y-113542481D01*
X112742481Y-113661015D01*
X112603100Y-113754147D01*
X112448228Y-113818297D01*
X112283816Y-113851000D01*
X112116184Y-113851000D01*
X111951772Y-113818297D01*
X111796900Y-113754147D01*
X111657519Y-113661015D01*
X111538985Y-113542481D01*
X111445853Y-113403100D01*
X111381703Y-113248228D01*
X111349000Y-113083816D01*
X111349000Y-112916184D01*
X111381703Y-112751772D01*
X111445853Y-112596900D01*
X111538985Y-112457519D01*
X111657519Y-112338985D01*
X111796900Y-112245853D01*
X111951772Y-112181703D01*
X112116184Y-112149000D01*
X112283816Y-112149000D01*
X112448228Y-112181703D01*
G37*
G36*
X109908228Y-112181703D02*
G01*
X110063100Y-112245853D01*
X110202481Y-112338985D01*
X110321015Y-112457519D01*
X110414147Y-112596900D01*
X110478297Y-112751772D01*
X110511000Y-112916184D01*
X110511000Y-113083816D01*
X110478297Y-113248228D01*
X110414147Y-113403100D01*
X110321015Y-113542481D01*
X110202481Y-113661015D01*
X110063100Y-113754147D01*
X109908228Y-113818297D01*
X109743816Y-113851000D01*
X109576184Y-113851000D01*
X109411772Y-113818297D01*
X109256900Y-113754147D01*
X109117519Y-113661015D01*
X108998985Y-113542481D01*
X108905853Y-113403100D01*
X108841703Y-113248228D01*
X108809000Y-113083816D01*
X108809000Y-112916184D01*
X108841703Y-112751772D01*
X108905853Y-112596900D01*
X108998985Y-112457519D01*
X109117519Y-112338985D01*
X109256900Y-112245853D01*
X109411772Y-112181703D01*
X109576184Y-112149000D01*
X109743816Y-112149000D01*
X109908228Y-112181703D01*
G37*
G36*
X107368228Y-112181703D02*
G01*
X107523100Y-112245853D01*
X107662481Y-112338985D01*
X107781015Y-112457519D01*
X107874147Y-112596900D01*
X107938297Y-112751772D01*
X107971000Y-112916184D01*
X107971000Y-113083816D01*
X107938297Y-113248228D01*
X107874147Y-113403100D01*
X107781015Y-113542481D01*
X107662481Y-113661015D01*
X107523100Y-113754147D01*
X107368228Y-113818297D01*
X107203816Y-113851000D01*
X107036184Y-113851000D01*
X106871772Y-113818297D01*
X106716900Y-113754147D01*
X106577519Y-113661015D01*
X106458985Y-113542481D01*
X106365853Y-113403100D01*
X106301703Y-113248228D01*
X106269000Y-113083816D01*
X106269000Y-112916184D01*
X106301703Y-112751772D01*
X106365853Y-112596900D01*
X106458985Y-112457519D01*
X106577519Y-112338985D01*
X106716900Y-112245853D01*
X106871772Y-112181703D01*
X107036184Y-112149000D01*
X107203816Y-112149000D01*
X107368228Y-112181703D01*
G37*
G36*
X102288228Y-112181703D02*
G01*
X102443100Y-112245853D01*
X102582481Y-112338985D01*
X102701015Y-112457519D01*
X102794147Y-112596900D01*
X102858297Y-112751772D01*
X102891000Y-112916184D01*
X102891000Y-113083816D01*
X102858297Y-113248228D01*
X102794147Y-113403100D01*
X102701015Y-113542481D01*
X102582481Y-113661015D01*
X102443100Y-113754147D01*
X102288228Y-113818297D01*
X102123816Y-113851000D01*
X101956184Y-113851000D01*
X101791772Y-113818297D01*
X101636900Y-113754147D01*
X101497519Y-113661015D01*
X101378985Y-113542481D01*
X101285853Y-113403100D01*
X101221703Y-113248228D01*
X101189000Y-113083816D01*
X101189000Y-112916184D01*
X101221703Y-112751772D01*
X101285853Y-112596900D01*
X101378985Y-112457519D01*
X101497519Y-112338985D01*
X101636900Y-112245853D01*
X101791772Y-112181703D01*
X101956184Y-112149000D01*
X102123816Y-112149000D01*
X102288228Y-112181703D01*
G37*
G36*
X100351000Y-113851000D02*
G01*
X98649000Y-113851000D01*
X98649000Y-112149000D01*
X100351000Y-112149000D01*
X100351000Y-113851000D01*
G37*
G36*
X114988228Y-112181703D02*
G01*
X115143100Y-112245853D01*
X115282481Y-112338985D01*
X115401015Y-112457519D01*
X115494147Y-112596900D01*
X115558297Y-112751772D01*
X115591000Y-112916184D01*
X115591000Y-113083816D01*
X115558297Y-113248228D01*
X115494147Y-113403100D01*
X115401015Y-113542481D01*
X115282481Y-113661015D01*
X115143100Y-113754147D01*
X114988228Y-113818297D01*
X114823816Y-113851000D01*
X114656184Y-113851000D01*
X114491772Y-113818297D01*
X114336900Y-113754147D01*
X114197519Y-113661015D01*
X114078985Y-113542481D01*
X113985853Y-113403100D01*
X113921703Y-113248228D01*
X113889000Y-113083816D01*
X113889000Y-112916184D01*
X113921703Y-112751772D01*
X113985853Y-112596900D01*
X114078985Y-112457519D01*
X114197519Y-112338985D01*
X114336900Y-112245853D01*
X114491772Y-112181703D01*
X114656184Y-112149000D01*
X114823816Y-112149000D01*
X114988228Y-112181703D01*
G37*
G36*
X120448228Y-111881703D02*
G01*
X120603100Y-111945853D01*
X120742481Y-112038985D01*
X120861015Y-112157519D01*
X120954147Y-112296900D01*
X121018297Y-112451772D01*
X121051000Y-112616184D01*
X121051000Y-112783816D01*
X121018297Y-112948228D01*
X120954147Y-113103100D01*
X120861015Y-113242481D01*
X120742481Y-113361015D01*
X120603100Y-113454147D01*
X120448228Y-113518297D01*
X120283816Y-113551000D01*
X120116184Y-113551000D01*
X119951772Y-113518297D01*
X119796900Y-113454147D01*
X119657519Y-113361015D01*
X119538985Y-113242481D01*
X119445853Y-113103100D01*
X119381703Y-112948228D01*
X119349000Y-112783816D01*
X119349000Y-112616184D01*
X119381703Y-112451772D01*
X119445853Y-112296900D01*
X119538985Y-112157519D01*
X119657519Y-112038985D01*
X119796900Y-111945853D01*
X119951772Y-111881703D01*
X120116184Y-111849000D01*
X120283816Y-111849000D01*
X120448228Y-111881703D01*
G37*
G36*
X125448228Y-111881703D02*
G01*
X125603100Y-111945853D01*
X125742481Y-112038985D01*
X125861015Y-112157519D01*
X125954147Y-112296900D01*
X126018297Y-112451772D01*
X126051000Y-112616184D01*
X126051000Y-112783816D01*
X126018297Y-112948228D01*
X125954147Y-113103100D01*
X125861015Y-113242481D01*
X125742481Y-113361015D01*
X125603100Y-113454147D01*
X125448228Y-113518297D01*
X125283816Y-113551000D01*
X125116184Y-113551000D01*
X124951772Y-113518297D01*
X124796900Y-113454147D01*
X124657519Y-113361015D01*
X124538985Y-113242481D01*
X124445853Y-113103100D01*
X124381703Y-112948228D01*
X124349000Y-112783816D01*
X124349000Y-112616184D01*
X124381703Y-112451772D01*
X124445853Y-112296900D01*
X124538985Y-112157519D01*
X124657519Y-112038985D01*
X124796900Y-111945853D01*
X124951772Y-111881703D01*
X125116184Y-111849000D01*
X125283816Y-111849000D01*
X125448228Y-111881703D01*
G37*
G36*
X95148228Y-111781703D02*
G01*
X95303100Y-111845853D01*
X95442481Y-111938985D01*
X95561015Y-112057519D01*
X95654147Y-112196900D01*
X95718297Y-112351772D01*
X95751000Y-112516184D01*
X95751000Y-112683816D01*
X95718297Y-112848228D01*
X95654147Y-113003100D01*
X95561015Y-113142481D01*
X95442481Y-113261015D01*
X95303100Y-113354147D01*
X95148228Y-113418297D01*
X94983816Y-113451000D01*
X94816184Y-113451000D01*
X94651772Y-113418297D01*
X94496900Y-113354147D01*
X94357519Y-113261015D01*
X94238985Y-113142481D01*
X94145853Y-113003100D01*
X94081703Y-112848228D01*
X94049000Y-112683816D01*
X94049000Y-112516184D01*
X94081703Y-112351772D01*
X94145853Y-112196900D01*
X94238985Y-112057519D01*
X94357519Y-111938985D01*
X94496900Y-111845853D01*
X94651772Y-111781703D01*
X94816184Y-111749000D01*
X94983816Y-111749000D01*
X95148228Y-111781703D01*
G37*
G36*
X90148228Y-111781703D02*
G01*
X90303100Y-111845853D01*
X90442481Y-111938985D01*
X90561015Y-112057519D01*
X90654147Y-112196900D01*
X90718297Y-112351772D01*
X90751000Y-112516184D01*
X90751000Y-112683816D01*
X90718297Y-112848228D01*
X90654147Y-113003100D01*
X90561015Y-113142481D01*
X90442481Y-113261015D01*
X90303100Y-113354147D01*
X90148228Y-113418297D01*
X89983816Y-113451000D01*
X89816184Y-113451000D01*
X89651772Y-113418297D01*
X89496900Y-113354147D01*
X89357519Y-113261015D01*
X89238985Y-113142481D01*
X89145853Y-113003100D01*
X89081703Y-112848228D01*
X89049000Y-112683816D01*
X89049000Y-112516184D01*
X89081703Y-112351772D01*
X89145853Y-112196900D01*
X89238985Y-112057519D01*
X89357519Y-111938985D01*
X89496900Y-111845853D01*
X89651772Y-111781703D01*
X89816184Y-111749000D01*
X89983816Y-111749000D01*
X90148228Y-111781703D01*
G37*
G36*
X71584549Y-111071116D02*
G01*
X71695734Y-111093232D01*
X71905203Y-111179997D01*
X72093720Y-111305960D01*
X72254040Y-111466280D01*
X72380003Y-111654797D01*
X72466768Y-111864266D01*
X72481630Y-111938985D01*
X72511000Y-112086635D01*
X72511000Y-112313365D01*
X72503360Y-112351772D01*
X72466768Y-112535734D01*
X72441432Y-112596900D01*
X72384760Y-112733720D01*
X72380003Y-112745203D01*
X72254040Y-112933720D01*
X72093720Y-113094040D01*
X71905203Y-113220003D01*
X71695734Y-113306768D01*
X71584549Y-113328884D01*
X71473365Y-113351000D01*
X71246635Y-113351000D01*
X71135451Y-113328884D01*
X71024266Y-113306768D01*
X70814797Y-113220003D01*
X70626280Y-113094040D01*
X70465960Y-112933720D01*
X70339997Y-112745203D01*
X70335241Y-112733720D01*
X70278568Y-112596900D01*
X70253232Y-112535734D01*
X70216640Y-112351772D01*
X70209000Y-112313365D01*
X70209000Y-112086635D01*
X70238370Y-111938985D01*
X70253232Y-111864266D01*
X70339997Y-111654797D01*
X70465960Y-111466280D01*
X70626280Y-111305960D01*
X70814797Y-111179997D01*
X71024266Y-111093232D01*
X71135451Y-111071116D01*
X71246635Y-111049000D01*
X71473365Y-111049000D01*
X71584549Y-111071116D01*
G37*
G36*
X62351000Y-113351000D02*
G01*
X60049000Y-113351000D01*
X60049000Y-111049000D01*
X62351000Y-111049000D01*
X62351000Y-113351000D01*
G37*
G36*
X128764549Y-110871116D02*
G01*
X128875734Y-110893232D01*
X129085203Y-110979997D01*
X129273720Y-111105960D01*
X129434040Y-111266280D01*
X129516301Y-111389393D01*
X129560004Y-111454799D01*
X129564760Y-111466281D01*
X129642847Y-111654799D01*
X129646768Y-111664267D01*
X129691000Y-111886635D01*
X129691000Y-112113365D01*
X129686966Y-112133643D01*
X129646768Y-112335734D01*
X129560003Y-112545203D01*
X129434040Y-112733720D01*
X129273720Y-112894040D01*
X129085203Y-113020003D01*
X128875734Y-113106768D01*
X128764549Y-113128884D01*
X128653365Y-113151000D01*
X128426635Y-113151000D01*
X128315451Y-113128884D01*
X128204266Y-113106768D01*
X127994797Y-113020003D01*
X127806280Y-112894040D01*
X127645960Y-112733720D01*
X127519997Y-112545203D01*
X127433232Y-112335734D01*
X127393034Y-112133643D01*
X127389000Y-112113365D01*
X127389000Y-111886635D01*
X127433232Y-111664267D01*
X127437154Y-111654799D01*
X127515240Y-111466281D01*
X127519996Y-111454799D01*
X127563699Y-111389393D01*
X127645960Y-111266280D01*
X127806280Y-111105960D01*
X127994797Y-110979997D01*
X128204266Y-110893232D01*
X128315451Y-110871116D01*
X128426635Y-110849000D01*
X128653365Y-110849000D01*
X128764549Y-110871116D01*
G37*
G36*
X139851000Y-113151000D02*
G01*
X137549000Y-113151000D01*
X137549000Y-110849000D01*
X139851000Y-110849000D01*
X139851000Y-113151000D01*
G37*
G36*
X85033642Y-111129781D02*
G01*
X85179414Y-111190162D01*
X85179416Y-111190163D01*
X85310608Y-111277822D01*
X85422178Y-111389392D01*
X85473553Y-111466281D01*
X85509838Y-111520586D01*
X85570219Y-111666358D01*
X85601000Y-111821107D01*
X85601000Y-111978893D01*
X85570219Y-112133642D01*
X85544015Y-112196903D01*
X85509837Y-112279416D01*
X85422178Y-112410608D01*
X85310608Y-112522178D01*
X85179416Y-112609837D01*
X85179415Y-112609838D01*
X85179414Y-112609838D01*
X85033642Y-112670219D01*
X84878893Y-112701000D01*
X84721107Y-112701000D01*
X84566358Y-112670219D01*
X84420586Y-112609838D01*
X84420585Y-112609838D01*
X84420584Y-112609837D01*
X84289392Y-112522178D01*
X84177822Y-112410608D01*
X84090163Y-112279416D01*
X84055985Y-112196903D01*
X84029781Y-112133642D01*
X83999000Y-111978893D01*
X83999000Y-111821107D01*
X84029781Y-111666358D01*
X84090162Y-111520586D01*
X84126447Y-111466281D01*
X84177822Y-111389392D01*
X84289392Y-111277822D01*
X84420584Y-111190163D01*
X84420586Y-111190162D01*
X84566358Y-111129781D01*
X84721107Y-111099000D01*
X84878893Y-111099000D01*
X85033642Y-111129781D01*
G37*
G36*
X132061000Y-109741000D02*
G01*
X129419000Y-109741000D01*
X129419000Y-107099000D01*
X132061000Y-107099000D01*
X132061000Y-109741000D01*
G37*
G36*
X125917714Y-107124382D02*
G01*
X126045322Y-107149765D01*
X126186148Y-107208097D01*
X126285727Y-107249344D01*
X126285728Y-107249345D01*
X126502089Y-107393912D01*
X126686088Y-107577911D01*
X126701515Y-107601000D01*
X126830656Y-107794273D01*
X126871903Y-107893852D01*
X126930235Y-108034678D01*
X126981000Y-108289893D01*
X126981000Y-108550107D01*
X126930235Y-108805322D01*
X126871903Y-108946148D01*
X126830656Y-109045727D01*
X126830655Y-109045728D01*
X126686088Y-109262089D01*
X126502089Y-109446088D01*
X126357521Y-109542685D01*
X126285727Y-109590656D01*
X126186148Y-109631903D01*
X126045322Y-109690235D01*
X125917715Y-109715617D01*
X125790109Y-109741000D01*
X125529891Y-109741000D01*
X125402285Y-109715617D01*
X125274678Y-109690235D01*
X125133852Y-109631903D01*
X125034273Y-109590656D01*
X124962479Y-109542685D01*
X124817911Y-109446088D01*
X124633912Y-109262089D01*
X124489345Y-109045728D01*
X124489344Y-109045727D01*
X124448097Y-108946148D01*
X124389765Y-108805322D01*
X124339000Y-108550107D01*
X124339000Y-108289893D01*
X124389765Y-108034678D01*
X124448097Y-107893852D01*
X124489344Y-107794273D01*
X124618485Y-107601000D01*
X124633912Y-107577911D01*
X124817911Y-107393912D01*
X125034272Y-107249345D01*
X125034273Y-107249344D01*
X125133852Y-107208097D01*
X125274678Y-107149765D01*
X125402286Y-107124382D01*
X125529891Y-107099000D01*
X125790109Y-107099000D01*
X125917714Y-107124382D01*
G37*
G36*
X120837714Y-107124382D02*
G01*
X120965322Y-107149765D01*
X121106148Y-107208097D01*
X121205727Y-107249344D01*
X121205728Y-107249345D01*
X121422089Y-107393912D01*
X121606088Y-107577911D01*
X121621515Y-107601000D01*
X121750656Y-107794273D01*
X121791903Y-107893852D01*
X121850235Y-108034678D01*
X121901000Y-108289893D01*
X121901000Y-108550107D01*
X121850235Y-108805322D01*
X121791903Y-108946148D01*
X121750656Y-109045727D01*
X121750655Y-109045728D01*
X121606088Y-109262089D01*
X121422089Y-109446088D01*
X121277521Y-109542685D01*
X121205727Y-109590656D01*
X121106148Y-109631903D01*
X120965322Y-109690235D01*
X120837715Y-109715617D01*
X120710109Y-109741000D01*
X120449891Y-109741000D01*
X120322285Y-109715617D01*
X120194678Y-109690235D01*
X120053852Y-109631903D01*
X119954273Y-109590656D01*
X119882479Y-109542685D01*
X119737911Y-109446088D01*
X119553912Y-109262089D01*
X119409345Y-109045728D01*
X119409344Y-109045727D01*
X119368097Y-108946148D01*
X119309765Y-108805322D01*
X119259000Y-108550107D01*
X119259000Y-108289893D01*
X119309765Y-108034678D01*
X119368097Y-107893852D01*
X119409344Y-107794273D01*
X119538485Y-107601000D01*
X119553912Y-107577911D01*
X119737911Y-107393912D01*
X119954272Y-107249345D01*
X119954273Y-107249344D01*
X120053852Y-107208097D01*
X120194678Y-107149765D01*
X120322286Y-107124382D01*
X120449891Y-107099000D01*
X120710109Y-107099000D01*
X120837714Y-107124382D01*
G37*
G36*
X80741000Y-109741000D02*
G01*
X78099000Y-109741000D01*
X78099000Y-107099000D01*
X80741000Y-107099000D01*
X80741000Y-109741000D01*
G37*
G36*
X69517714Y-107124382D02*
G01*
X69645322Y-107149765D01*
X69786148Y-107208097D01*
X69885727Y-107249344D01*
X69885728Y-107249345D01*
X70102089Y-107393912D01*
X70286088Y-107577911D01*
X70301515Y-107601000D01*
X70430656Y-107794273D01*
X70471903Y-107893852D01*
X70530235Y-108034678D01*
X70581000Y-108289893D01*
X70581000Y-108550107D01*
X70530235Y-108805322D01*
X70471903Y-108946148D01*
X70430656Y-109045727D01*
X70430655Y-109045728D01*
X70286088Y-109262089D01*
X70102089Y-109446088D01*
X69957521Y-109542685D01*
X69885727Y-109590656D01*
X69786148Y-109631903D01*
X69645322Y-109690235D01*
X69517715Y-109715617D01*
X69390109Y-109741000D01*
X69129891Y-109741000D01*
X69002285Y-109715617D01*
X68874678Y-109690235D01*
X68733852Y-109631903D01*
X68634273Y-109590656D01*
X68562479Y-109542685D01*
X68417911Y-109446088D01*
X68233912Y-109262089D01*
X68089345Y-109045728D01*
X68089344Y-109045727D01*
X68048097Y-108946148D01*
X67989765Y-108805322D01*
X67939000Y-108550107D01*
X67939000Y-108289893D01*
X67989765Y-108034678D01*
X68048097Y-107893852D01*
X68089344Y-107794273D01*
X68218485Y-107601000D01*
X68233912Y-107577911D01*
X68417911Y-107393912D01*
X68634272Y-107249345D01*
X68634273Y-107249344D01*
X68733852Y-107208097D01*
X68874678Y-107149765D01*
X69002286Y-107124382D01*
X69129891Y-107099000D01*
X69390109Y-107099000D01*
X69517714Y-107124382D01*
G37*
G36*
X74597714Y-107124382D02*
G01*
X74725322Y-107149765D01*
X74866148Y-107208097D01*
X74965727Y-107249344D01*
X74965728Y-107249345D01*
X75182089Y-107393912D01*
X75366088Y-107577911D01*
X75381515Y-107601000D01*
X75510656Y-107794273D01*
X75551903Y-107893852D01*
X75610235Y-108034678D01*
X75661000Y-108289893D01*
X75661000Y-108550107D01*
X75610235Y-108805322D01*
X75551903Y-108946148D01*
X75510656Y-109045727D01*
X75510655Y-109045728D01*
X75366088Y-109262089D01*
X75182089Y-109446088D01*
X75037521Y-109542685D01*
X74965727Y-109590656D01*
X74866148Y-109631903D01*
X74725322Y-109690235D01*
X74597715Y-109715617D01*
X74470109Y-109741000D01*
X74209891Y-109741000D01*
X74082285Y-109715617D01*
X73954678Y-109690235D01*
X73813852Y-109631903D01*
X73714273Y-109590656D01*
X73642479Y-109542685D01*
X73497911Y-109446088D01*
X73313912Y-109262089D01*
X73169345Y-109045728D01*
X73169344Y-109045727D01*
X73128097Y-108946148D01*
X73069765Y-108805322D01*
X73019000Y-108550107D01*
X73019000Y-108289893D01*
X73069765Y-108034678D01*
X73128097Y-107893852D01*
X73169344Y-107794273D01*
X73298485Y-107601000D01*
X73313912Y-107577911D01*
X73497911Y-107393912D01*
X73714272Y-107249345D01*
X73714273Y-107249344D01*
X73813852Y-107208097D01*
X73954678Y-107149765D01*
X74082286Y-107124382D01*
X74209891Y-107099000D01*
X74470109Y-107099000D01*
X74597714Y-107124382D01*
G37*
G36*
X62233642Y-106029781D02*
G01*
X62379414Y-106090162D01*
X62379416Y-106090163D01*
X62510608Y-106177822D01*
X62622178Y-106289392D01*
X62709837Y-106420584D01*
X62709838Y-106420586D01*
X62770219Y-106566358D01*
X62801000Y-106721107D01*
X62801000Y-106878893D01*
X62770219Y-107033642D01*
X62722119Y-107149765D01*
X62709837Y-107179416D01*
X62622178Y-107310608D01*
X62510608Y-107422178D01*
X62379416Y-107509837D01*
X62379415Y-107509838D01*
X62379414Y-107509838D01*
X62233642Y-107570219D01*
X62078893Y-107601000D01*
X61921107Y-107601000D01*
X61766358Y-107570219D01*
X61620586Y-107509838D01*
X61620585Y-107509838D01*
X61620584Y-107509837D01*
X61489392Y-107422178D01*
X61377822Y-107310608D01*
X61290163Y-107179416D01*
X61277881Y-107149765D01*
X61229781Y-107033642D01*
X61199000Y-106878893D01*
X61199000Y-106721107D01*
X61229781Y-106566358D01*
X61290162Y-106420586D01*
X61290163Y-106420584D01*
X61377822Y-106289392D01*
X61489392Y-106177822D01*
X61620584Y-106090163D01*
X61620586Y-106090162D01*
X61766358Y-106029781D01*
X61921107Y-105999000D01*
X62078893Y-105999000D01*
X62233642Y-106029781D01*
G37*
G36*
X99748228Y-104561703D02*
G01*
X99903100Y-104625853D01*
X100042481Y-104718985D01*
X100161015Y-104837519D01*
X100254147Y-104976900D01*
X100318297Y-105131772D01*
X100351000Y-105296184D01*
X100351000Y-105463816D01*
X100318297Y-105628228D01*
X100254147Y-105783100D01*
X100161015Y-105922481D01*
X100042481Y-106041015D01*
X99903100Y-106134147D01*
X99748228Y-106198297D01*
X99583816Y-106231000D01*
X99416184Y-106231000D01*
X99251772Y-106198297D01*
X99096900Y-106134147D01*
X98957519Y-106041015D01*
X98838985Y-105922481D01*
X98745853Y-105783100D01*
X98681703Y-105628228D01*
X98649000Y-105463816D01*
X98649000Y-105296184D01*
X98681703Y-105131772D01*
X98745853Y-104976900D01*
X98838985Y-104837519D01*
X98957519Y-104718985D01*
X99096900Y-104625853D01*
X99251772Y-104561703D01*
X99416184Y-104529000D01*
X99583816Y-104529000D01*
X99748228Y-104561703D01*
G37*
G36*
X102288228Y-104561703D02*
G01*
X102443100Y-104625853D01*
X102582481Y-104718985D01*
X102701015Y-104837519D01*
X102794147Y-104976900D01*
X102858297Y-105131772D01*
X102891000Y-105296184D01*
X102891000Y-105463816D01*
X102858297Y-105628228D01*
X102794147Y-105783100D01*
X102701015Y-105922481D01*
X102582481Y-106041015D01*
X102443100Y-106134147D01*
X102288228Y-106198297D01*
X102123816Y-106231000D01*
X101956184Y-106231000D01*
X101791772Y-106198297D01*
X101636900Y-106134147D01*
X101497519Y-106041015D01*
X101378985Y-105922481D01*
X101285853Y-105783100D01*
X101221703Y-105628228D01*
X101189000Y-105463816D01*
X101189000Y-105296184D01*
X101221703Y-105131772D01*
X101285853Y-104976900D01*
X101378985Y-104837519D01*
X101497519Y-104718985D01*
X101636900Y-104625853D01*
X101791772Y-104561703D01*
X101956184Y-104529000D01*
X102123816Y-104529000D01*
X102288228Y-104561703D01*
G37*
G36*
X104828228Y-104561703D02*
G01*
X104983100Y-104625853D01*
X105122481Y-104718985D01*
X105241015Y-104837519D01*
X105334147Y-104976900D01*
X105398297Y-105131772D01*
X105431000Y-105296184D01*
X105431000Y-105463816D01*
X105398297Y-105628228D01*
X105334147Y-105783100D01*
X105241015Y-105922481D01*
X105122481Y-106041015D01*
X104983100Y-106134147D01*
X104828228Y-106198297D01*
X104663816Y-106231000D01*
X104496184Y-106231000D01*
X104331772Y-106198297D01*
X104176900Y-106134147D01*
X104037519Y-106041015D01*
X103918985Y-105922481D01*
X103825853Y-105783100D01*
X103761703Y-105628228D01*
X103729000Y-105463816D01*
X103729000Y-105296184D01*
X103761703Y-105131772D01*
X103825853Y-104976900D01*
X103918985Y-104837519D01*
X104037519Y-104718985D01*
X104176900Y-104625853D01*
X104331772Y-104561703D01*
X104496184Y-104529000D01*
X104663816Y-104529000D01*
X104828228Y-104561703D01*
G37*
G36*
X107368228Y-104561703D02*
G01*
X107523100Y-104625853D01*
X107662481Y-104718985D01*
X107781015Y-104837519D01*
X107874147Y-104976900D01*
X107938297Y-105131772D01*
X107971000Y-105296184D01*
X107971000Y-105463816D01*
X107938297Y-105628228D01*
X107874147Y-105783100D01*
X107781015Y-105922481D01*
X107662481Y-106041015D01*
X107523100Y-106134147D01*
X107368228Y-106198297D01*
X107203816Y-106231000D01*
X107036184Y-106231000D01*
X106871772Y-106198297D01*
X106716900Y-106134147D01*
X106577519Y-106041015D01*
X106458985Y-105922481D01*
X106365853Y-105783100D01*
X106301703Y-105628228D01*
X106269000Y-105463816D01*
X106269000Y-105296184D01*
X106301703Y-105131772D01*
X106365853Y-104976900D01*
X106458985Y-104837519D01*
X106577519Y-104718985D01*
X106716900Y-104625853D01*
X106871772Y-104561703D01*
X107036184Y-104529000D01*
X107203816Y-104529000D01*
X107368228Y-104561703D01*
G37*
G36*
X109908228Y-104561703D02*
G01*
X110063100Y-104625853D01*
X110202481Y-104718985D01*
X110321015Y-104837519D01*
X110414147Y-104976900D01*
X110478297Y-105131772D01*
X110511000Y-105296184D01*
X110511000Y-105463816D01*
X110478297Y-105628228D01*
X110414147Y-105783100D01*
X110321015Y-105922481D01*
X110202481Y-106041015D01*
X110063100Y-106134147D01*
X109908228Y-106198297D01*
X109743816Y-106231000D01*
X109576184Y-106231000D01*
X109411772Y-106198297D01*
X109256900Y-106134147D01*
X109117519Y-106041015D01*
X108998985Y-105922481D01*
X108905853Y-105783100D01*
X108841703Y-105628228D01*
X108809000Y-105463816D01*
X108809000Y-105296184D01*
X108841703Y-105131772D01*
X108905853Y-104976900D01*
X108998985Y-104837519D01*
X109117519Y-104718985D01*
X109256900Y-104625853D01*
X109411772Y-104561703D01*
X109576184Y-104529000D01*
X109743816Y-104529000D01*
X109908228Y-104561703D01*
G37*
G36*
X112448228Y-104561703D02*
G01*
X112603100Y-104625853D01*
X112742481Y-104718985D01*
X112861015Y-104837519D01*
X112954147Y-104976900D01*
X113018297Y-105131772D01*
X113051000Y-105296184D01*
X113051000Y-105463816D01*
X113018297Y-105628228D01*
X112954147Y-105783100D01*
X112861015Y-105922481D01*
X112742481Y-106041015D01*
X112603100Y-106134147D01*
X112448228Y-106198297D01*
X112283816Y-106231000D01*
X112116184Y-106231000D01*
X111951772Y-106198297D01*
X111796900Y-106134147D01*
X111657519Y-106041015D01*
X111538985Y-105922481D01*
X111445853Y-105783100D01*
X111381703Y-105628228D01*
X111349000Y-105463816D01*
X111349000Y-105296184D01*
X111381703Y-105131772D01*
X111445853Y-104976900D01*
X111538985Y-104837519D01*
X111657519Y-104718985D01*
X111796900Y-104625853D01*
X111951772Y-104561703D01*
X112116184Y-104529000D01*
X112283816Y-104529000D01*
X112448228Y-104561703D01*
G37*
G36*
X114988228Y-104561703D02*
G01*
X115143100Y-104625853D01*
X115282481Y-104718985D01*
X115401015Y-104837519D01*
X115494147Y-104976900D01*
X115558297Y-105131772D01*
X115591000Y-105296184D01*
X115591000Y-105463816D01*
X115558297Y-105628228D01*
X115494147Y-105783100D01*
X115401015Y-105922481D01*
X115282481Y-106041015D01*
X115143100Y-106134147D01*
X114988228Y-106198297D01*
X114823816Y-106231000D01*
X114656184Y-106231000D01*
X114491772Y-106198297D01*
X114336900Y-106134147D01*
X114197519Y-106041015D01*
X114078985Y-105922481D01*
X113985853Y-105783100D01*
X113921703Y-105628228D01*
X113889000Y-105463816D01*
X113889000Y-105296184D01*
X113921703Y-105131772D01*
X113985853Y-104976900D01*
X114078985Y-104837519D01*
X114197519Y-104718985D01*
X114336900Y-104625853D01*
X114491772Y-104561703D01*
X114656184Y-104529000D01*
X114823816Y-104529000D01*
X114988228Y-104561703D01*
G37*
G36*
X117528228Y-104561703D02*
G01*
X117683100Y-104625853D01*
X117822481Y-104718985D01*
X117941015Y-104837519D01*
X118034147Y-104976900D01*
X118098297Y-105131772D01*
X118131000Y-105296184D01*
X118131000Y-105463816D01*
X118098297Y-105628228D01*
X118034147Y-105783100D01*
X117941015Y-105922481D01*
X117822481Y-106041015D01*
X117683100Y-106134147D01*
X117528228Y-106198297D01*
X117363816Y-106231000D01*
X117196184Y-106231000D01*
X117031772Y-106198297D01*
X116876900Y-106134147D01*
X116737519Y-106041015D01*
X116618985Y-105922481D01*
X116525853Y-105783100D01*
X116461703Y-105628228D01*
X116429000Y-105463816D01*
X116429000Y-105296184D01*
X116461703Y-105131772D01*
X116525853Y-104976900D01*
X116618985Y-104837519D01*
X116737519Y-104718985D01*
X116876900Y-104625853D01*
X117031772Y-104561703D01*
X117196184Y-104529000D01*
X117363816Y-104529000D01*
X117528228Y-104561703D01*
G37*
G36*
X132748228Y-104481703D02*
G01*
X132903100Y-104545853D01*
X133042481Y-104638985D01*
X133161015Y-104757519D01*
X133254147Y-104896900D01*
X133318297Y-105051772D01*
X133351000Y-105216184D01*
X133351000Y-105383816D01*
X133318297Y-105548228D01*
X133254147Y-105703100D01*
X133161015Y-105842481D01*
X133042481Y-105961015D01*
X132903100Y-106054147D01*
X132748228Y-106118297D01*
X132583816Y-106151000D01*
X132416184Y-106151000D01*
X132251772Y-106118297D01*
X132096900Y-106054147D01*
X131957519Y-105961015D01*
X131838985Y-105842481D01*
X131745853Y-105703100D01*
X131681703Y-105548228D01*
X131649000Y-105383816D01*
X131649000Y-105216184D01*
X131681703Y-105051772D01*
X131745853Y-104896900D01*
X131838985Y-104757519D01*
X131957519Y-104638985D01*
X132096900Y-104545853D01*
X132251772Y-104481703D01*
X132416184Y-104449000D01*
X132583816Y-104449000D01*
X132748228Y-104481703D01*
G37*
G36*
X127748228Y-104481703D02*
G01*
X127903100Y-104545853D01*
X128042481Y-104638985D01*
X128161015Y-104757519D01*
X128254147Y-104896900D01*
X128318297Y-105051772D01*
X128351000Y-105216184D01*
X128351000Y-105383816D01*
X128318297Y-105548228D01*
X128254147Y-105703100D01*
X128161015Y-105842481D01*
X128042481Y-105961015D01*
X127903100Y-106054147D01*
X127748228Y-106118297D01*
X127583816Y-106151000D01*
X127416184Y-106151000D01*
X127251772Y-106118297D01*
X127096900Y-106054147D01*
X126957519Y-105961015D01*
X126838985Y-105842481D01*
X126745853Y-105703100D01*
X126681703Y-105548228D01*
X126649000Y-105383816D01*
X126649000Y-105216184D01*
X126681703Y-105051772D01*
X126745853Y-104896900D01*
X126838985Y-104757519D01*
X126957519Y-104638985D01*
X127096900Y-104545853D01*
X127251772Y-104481703D01*
X127416184Y-104449000D01*
X127583816Y-104449000D01*
X127748228Y-104481703D01*
G37*
G36*
X125148228Y-103081703D02*
G01*
X125303100Y-103145853D01*
X125442481Y-103238985D01*
X125561015Y-103357519D01*
X125654147Y-103496900D01*
X125718297Y-103651772D01*
X125751000Y-103816184D01*
X125751000Y-103983816D01*
X125718297Y-104148228D01*
X125654147Y-104303100D01*
X125561015Y-104442481D01*
X125442481Y-104561015D01*
X125303100Y-104654147D01*
X125148228Y-104718297D01*
X124983816Y-104751000D01*
X124816184Y-104751000D01*
X124651772Y-104718297D01*
X124496900Y-104654147D01*
X124357519Y-104561015D01*
X124238985Y-104442481D01*
X124145853Y-104303100D01*
X124081703Y-104148228D01*
X124049000Y-103983816D01*
X124049000Y-103816184D01*
X124081703Y-103651772D01*
X124145853Y-103496900D01*
X124238985Y-103357519D01*
X124357519Y-103238985D01*
X124496900Y-103145853D01*
X124651772Y-103081703D01*
X124816184Y-103049000D01*
X124983816Y-103049000D01*
X125148228Y-103081703D01*
G37*
G36*
X120148228Y-103081703D02*
G01*
X120303100Y-103145853D01*
X120442481Y-103238985D01*
X120561015Y-103357519D01*
X120654147Y-103496900D01*
X120718297Y-103651772D01*
X120751000Y-103816184D01*
X120751000Y-103983816D01*
X120718297Y-104148228D01*
X120654147Y-104303100D01*
X120561015Y-104442481D01*
X120442481Y-104561015D01*
X120303100Y-104654147D01*
X120148228Y-104718297D01*
X119983816Y-104751000D01*
X119816184Y-104751000D01*
X119651772Y-104718297D01*
X119496900Y-104654147D01*
X119357519Y-104561015D01*
X119238985Y-104442481D01*
X119145853Y-104303100D01*
X119081703Y-104148228D01*
X119049000Y-103983816D01*
X119049000Y-103816184D01*
X119081703Y-103651772D01*
X119145853Y-103496900D01*
X119238985Y-103357519D01*
X119357519Y-103238985D01*
X119496900Y-103145853D01*
X119651772Y-103081703D01*
X119816184Y-103049000D01*
X119983816Y-103049000D01*
X120148228Y-103081703D01*
G37*
G36*
X106501000Y-103901000D02*
G01*
X104899000Y-103901000D01*
X104899000Y-102299000D01*
X106501000Y-102299000D01*
X106501000Y-103901000D01*
G37*
G36*
X109833642Y-102309781D02*
G01*
X109979414Y-102370162D01*
X109979416Y-102370163D01*
X110110608Y-102457822D01*
X110222178Y-102569392D01*
X110309837Y-102700584D01*
X110309838Y-102700586D01*
X110370219Y-102846358D01*
X110401000Y-103001107D01*
X110401000Y-103158893D01*
X110370219Y-103313642D01*
X110316852Y-103442480D01*
X110309837Y-103459416D01*
X110222178Y-103590608D01*
X110110608Y-103702178D01*
X109979416Y-103789837D01*
X109979415Y-103789838D01*
X109979414Y-103789838D01*
X109833642Y-103850219D01*
X109678893Y-103881000D01*
X109521107Y-103881000D01*
X109366358Y-103850219D01*
X109220586Y-103789838D01*
X109220585Y-103789838D01*
X109220584Y-103789837D01*
X109089392Y-103702178D01*
X108977822Y-103590608D01*
X108890163Y-103459416D01*
X108883148Y-103442480D01*
X108829781Y-103313642D01*
X108799000Y-103158893D01*
X108799000Y-103001107D01*
X108829781Y-102846358D01*
X108890162Y-102700586D01*
X108890163Y-102700584D01*
X108977822Y-102569392D01*
X109089392Y-102457822D01*
X109220584Y-102370163D01*
X109220586Y-102370162D01*
X109366358Y-102309781D01*
X109521107Y-102279000D01*
X109678893Y-102279000D01*
X109833642Y-102309781D01*
G37*
G36*
X115233642Y-102209781D02*
G01*
X115370230Y-102266358D01*
X115379416Y-102270163D01*
X115510608Y-102357822D01*
X115622178Y-102469392D01*
X115705464Y-102594040D01*
X115709838Y-102600586D01*
X115770219Y-102746358D01*
X115801000Y-102901107D01*
X115801000Y-103058893D01*
X115770219Y-103213642D01*
X115709838Y-103359414D01*
X115709837Y-103359416D01*
X115622178Y-103490608D01*
X115510608Y-103602178D01*
X115379416Y-103689837D01*
X115379415Y-103689838D01*
X115379414Y-103689838D01*
X115233642Y-103750219D01*
X115078893Y-103781000D01*
X114921107Y-103781000D01*
X114766358Y-103750219D01*
X114620586Y-103689838D01*
X114620585Y-103689838D01*
X114620584Y-103689837D01*
X114489392Y-103602178D01*
X114377822Y-103490608D01*
X114290163Y-103359416D01*
X114290162Y-103359414D01*
X114229781Y-103213642D01*
X114199000Y-103058893D01*
X114199000Y-102901107D01*
X114229781Y-102746358D01*
X114290162Y-102600586D01*
X114294536Y-102594040D01*
X114377822Y-102469392D01*
X114489392Y-102357822D01*
X114620584Y-102270163D01*
X114629770Y-102266358D01*
X114766358Y-102209781D01*
X114921107Y-102179000D01*
X115078893Y-102179000D01*
X115233642Y-102209781D01*
G37*
G36*
X62848228Y-102081703D02*
G01*
X63003100Y-102145853D01*
X63142481Y-102238985D01*
X63261015Y-102357519D01*
X63354147Y-102496900D01*
X63418297Y-102651772D01*
X63451000Y-102816184D01*
X63451000Y-102983816D01*
X63418297Y-103148228D01*
X63354147Y-103303100D01*
X63261015Y-103442481D01*
X63142481Y-103561015D01*
X63003100Y-103654147D01*
X62848228Y-103718297D01*
X62683816Y-103751000D01*
X62516184Y-103751000D01*
X62351772Y-103718297D01*
X62196900Y-103654147D01*
X62057519Y-103561015D01*
X61938985Y-103442481D01*
X61845853Y-103303100D01*
X61781703Y-103148228D01*
X61749000Y-102983816D01*
X61749000Y-102816184D01*
X61781703Y-102651772D01*
X61845853Y-102496900D01*
X61938985Y-102357519D01*
X62057519Y-102238985D01*
X62196900Y-102145853D01*
X62351772Y-102081703D01*
X62516184Y-102049000D01*
X62683816Y-102049000D01*
X62848228Y-102081703D01*
G37*
G36*
X138533642Y-101729781D02*
G01*
X138679414Y-101790162D01*
X138679416Y-101790163D01*
X138810608Y-101877822D01*
X138922178Y-101989392D01*
X138983859Y-102081705D01*
X139009838Y-102120586D01*
X139070219Y-102266358D01*
X139101000Y-102421107D01*
X139101000Y-102578893D01*
X139070219Y-102733642D01*
X139009838Y-102879414D01*
X139009837Y-102879416D01*
X138922178Y-103010608D01*
X138810608Y-103122178D01*
X138679416Y-103209837D01*
X138679415Y-103209838D01*
X138679414Y-103209838D01*
X138533642Y-103270219D01*
X138378893Y-103301000D01*
X138221107Y-103301000D01*
X138066358Y-103270219D01*
X137920586Y-103209838D01*
X137920585Y-103209838D01*
X137920584Y-103209837D01*
X137789392Y-103122178D01*
X137677822Y-103010608D01*
X137590163Y-102879416D01*
X137590162Y-102879414D01*
X137529781Y-102733642D01*
X137499000Y-102578893D01*
X137499000Y-102421107D01*
X137529781Y-102266358D01*
X137590162Y-102120586D01*
X137616141Y-102081705D01*
X137677822Y-101989392D01*
X137789392Y-101877822D01*
X137920584Y-101790163D01*
X137920586Y-101790162D01*
X138066358Y-101729781D01*
X138221107Y-101699000D01*
X138378893Y-101699000D01*
X138533642Y-101729781D01*
G37*
G36*
X97651000Y-102851000D02*
G01*
X95349000Y-102851000D01*
X95349000Y-100549000D01*
X97651000Y-100549000D01*
X97651000Y-102851000D01*
G37*
G36*
X86564549Y-100571116D02*
G01*
X86675734Y-100593232D01*
X86885203Y-100679997D01*
X87073720Y-100805960D01*
X87234040Y-100966280D01*
X87360003Y-101154797D01*
X87446768Y-101364266D01*
X87468884Y-101475451D01*
X87476987Y-101516185D01*
X87491000Y-101586636D01*
X87491000Y-101813364D01*
X87446768Y-102035734D01*
X87360003Y-102245203D01*
X87234040Y-102433720D01*
X87073720Y-102594040D01*
X86885203Y-102720003D01*
X86675734Y-102806768D01*
X86628396Y-102816184D01*
X86453365Y-102851000D01*
X86226635Y-102851000D01*
X86051604Y-102816184D01*
X86004266Y-102806768D01*
X85794797Y-102720003D01*
X85606280Y-102594040D01*
X85445960Y-102433720D01*
X85319997Y-102245203D01*
X85233232Y-102035734D01*
X85189000Y-101813364D01*
X85189000Y-101586636D01*
X85203014Y-101516185D01*
X85211116Y-101475451D01*
X85233232Y-101364266D01*
X85319997Y-101154797D01*
X85445960Y-100966280D01*
X85606280Y-100805960D01*
X85794797Y-100679997D01*
X86004266Y-100593232D01*
X86115451Y-100571116D01*
X86226635Y-100549000D01*
X86453365Y-100549000D01*
X86564549Y-100571116D01*
G37*
G36*
X132548228Y-101081703D02*
G01*
X132703100Y-101145853D01*
X132842481Y-101238985D01*
X132961015Y-101357519D01*
X133054147Y-101496900D01*
X133118297Y-101651772D01*
X133151000Y-101816184D01*
X133151000Y-101983816D01*
X133118297Y-102148228D01*
X133054147Y-102303100D01*
X132961015Y-102442481D01*
X132842481Y-102561015D01*
X132703100Y-102654147D01*
X132548228Y-102718297D01*
X132383816Y-102751000D01*
X132216184Y-102751000D01*
X132051772Y-102718297D01*
X131896900Y-102654147D01*
X131757519Y-102561015D01*
X131638985Y-102442481D01*
X131545853Y-102303100D01*
X131481703Y-102148228D01*
X131449000Y-101983816D01*
X131449000Y-101816184D01*
X131481703Y-101651772D01*
X131545853Y-101496900D01*
X131638985Y-101357519D01*
X131757519Y-101238985D01*
X131896900Y-101145853D01*
X132051772Y-101081703D01*
X132216184Y-101049000D01*
X132383816Y-101049000D01*
X132548228Y-101081703D01*
G37*
G36*
X127548228Y-101081703D02*
G01*
X127703100Y-101145853D01*
X127842481Y-101238985D01*
X127961015Y-101357519D01*
X128054147Y-101496900D01*
X128118297Y-101651772D01*
X128151000Y-101816184D01*
X128151000Y-101983816D01*
X128118297Y-102148228D01*
X128054147Y-102303100D01*
X127961015Y-102442481D01*
X127842481Y-102561015D01*
X127703100Y-102654147D01*
X127548228Y-102718297D01*
X127383816Y-102751000D01*
X127216184Y-102751000D01*
X127051772Y-102718297D01*
X126896900Y-102654147D01*
X126757519Y-102561015D01*
X126638985Y-102442481D01*
X126545853Y-102303100D01*
X126481703Y-102148228D01*
X126449000Y-101983816D01*
X126449000Y-101816184D01*
X126481703Y-101651772D01*
X126545853Y-101496900D01*
X126638985Y-101357519D01*
X126757519Y-101238985D01*
X126896900Y-101145853D01*
X127051772Y-101081703D01*
X127216184Y-101049000D01*
X127383816Y-101049000D01*
X127548228Y-101081703D01*
G37*
G36*
X70551000Y-102451000D02*
G01*
X68849000Y-102451000D01*
X68849000Y-100749000D01*
X70551000Y-100749000D01*
X70551000Y-102451000D01*
G37*
G36*
X72448228Y-100781703D02*
G01*
X72603100Y-100845853D01*
X72742481Y-100938985D01*
X72861015Y-101057519D01*
X72954147Y-101196900D01*
X73018297Y-101351772D01*
X73051000Y-101516184D01*
X73051000Y-101683816D01*
X73018297Y-101848228D01*
X72954147Y-102003100D01*
X72861015Y-102142481D01*
X72742481Y-102261015D01*
X72603100Y-102354147D01*
X72448228Y-102418297D01*
X72283816Y-102451000D01*
X72116184Y-102451000D01*
X71951772Y-102418297D01*
X71796900Y-102354147D01*
X71657519Y-102261015D01*
X71538985Y-102142481D01*
X71445853Y-102003100D01*
X71381703Y-101848228D01*
X71349000Y-101683816D01*
X71349000Y-101516184D01*
X71381703Y-101351772D01*
X71445853Y-101196900D01*
X71538985Y-101057519D01*
X71657519Y-100938985D01*
X71796900Y-100845853D01*
X71951772Y-100781703D01*
X72116184Y-100749000D01*
X72283816Y-100749000D01*
X72448228Y-100781703D01*
G37*
G36*
X63451000Y-101751000D02*
G01*
X61749000Y-101751000D01*
X61749000Y-100049000D01*
X63451000Y-100049000D01*
X63451000Y-101751000D01*
G37*
G36*
X125148228Y-99981703D02*
G01*
X125303100Y-100045853D01*
X125442481Y-100138985D01*
X125561015Y-100257519D01*
X125654147Y-100396900D01*
X125718297Y-100551772D01*
X125751000Y-100716184D01*
X125751000Y-100883816D01*
X125718297Y-101048228D01*
X125654147Y-101203100D01*
X125561015Y-101342481D01*
X125442481Y-101461015D01*
X125303100Y-101554147D01*
X125148228Y-101618297D01*
X124983816Y-101651000D01*
X124816184Y-101651000D01*
X124651772Y-101618297D01*
X124496900Y-101554147D01*
X124357519Y-101461015D01*
X124238985Y-101342481D01*
X124145853Y-101203100D01*
X124081703Y-101048228D01*
X124049000Y-100883816D01*
X124049000Y-100716184D01*
X124081703Y-100551772D01*
X124145853Y-100396900D01*
X124238985Y-100257519D01*
X124357519Y-100138985D01*
X124496900Y-100045853D01*
X124651772Y-99981703D01*
X124816184Y-99949000D01*
X124983816Y-99949000D01*
X125148228Y-99981703D01*
G37*
G36*
X120148228Y-99981703D02*
G01*
X120303100Y-100045853D01*
X120442481Y-100138985D01*
X120561015Y-100257519D01*
X120654147Y-100396900D01*
X120718297Y-100551772D01*
X120751000Y-100716184D01*
X120751000Y-100883816D01*
X120718297Y-101048228D01*
X120654147Y-101203100D01*
X120561015Y-101342481D01*
X120442481Y-101461015D01*
X120303100Y-101554147D01*
X120148228Y-101618297D01*
X119983816Y-101651000D01*
X119816184Y-101651000D01*
X119651772Y-101618297D01*
X119496900Y-101554147D01*
X119357519Y-101461015D01*
X119238985Y-101342481D01*
X119145853Y-101203100D01*
X119081703Y-101048228D01*
X119049000Y-100883816D01*
X119049000Y-100716184D01*
X119081703Y-100551772D01*
X119145853Y-100396900D01*
X119238985Y-100257519D01*
X119357519Y-100138985D01*
X119496900Y-100045853D01*
X119651772Y-99981703D01*
X119816184Y-99949000D01*
X119983816Y-99949000D01*
X120148228Y-99981703D01*
G37*
G36*
X105933642Y-99789781D02*
G01*
X106031132Y-99830163D01*
X106079416Y-99850163D01*
X106210608Y-99937822D01*
X106322178Y-100049392D01*
X106409837Y-100180584D01*
X106409838Y-100180586D01*
X106470219Y-100326358D01*
X106501000Y-100481107D01*
X106501000Y-100638893D01*
X106470219Y-100793642D01*
X106418586Y-100918295D01*
X106409837Y-100939416D01*
X106322178Y-101070608D01*
X106210608Y-101182178D01*
X106079416Y-101269837D01*
X106079415Y-101269838D01*
X106079414Y-101269838D01*
X105933642Y-101330219D01*
X105778893Y-101361000D01*
X105621107Y-101361000D01*
X105466358Y-101330219D01*
X105320586Y-101269838D01*
X105320585Y-101269838D01*
X105320584Y-101269837D01*
X105189392Y-101182178D01*
X105077822Y-101070608D01*
X104990163Y-100939416D01*
X104981414Y-100918295D01*
X104929781Y-100793642D01*
X104899000Y-100638893D01*
X104899000Y-100481107D01*
X104929781Y-100326358D01*
X104990162Y-100180586D01*
X104990163Y-100180584D01*
X105077822Y-100049392D01*
X105189392Y-99937822D01*
X105320584Y-99850163D01*
X105368868Y-99830163D01*
X105466358Y-99789781D01*
X105621107Y-99759000D01*
X105778893Y-99759000D01*
X105933642Y-99789781D01*
G37*
G36*
X109833642Y-99769781D02*
G01*
X109979414Y-99830162D01*
X109979416Y-99830163D01*
X110110608Y-99917822D01*
X110222178Y-100029392D01*
X110295405Y-100138985D01*
X110309838Y-100160586D01*
X110370219Y-100306358D01*
X110401000Y-100461107D01*
X110401000Y-100618893D01*
X110370219Y-100773642D01*
X110310301Y-100918297D01*
X110309837Y-100919416D01*
X110222178Y-101050608D01*
X110110608Y-101162178D01*
X109979416Y-101249837D01*
X109979415Y-101249838D01*
X109979414Y-101249838D01*
X109833642Y-101310219D01*
X109678893Y-101341000D01*
X109521107Y-101341000D01*
X109366358Y-101310219D01*
X109220586Y-101249838D01*
X109220585Y-101249838D01*
X109220584Y-101249837D01*
X109089392Y-101162178D01*
X108977822Y-101050608D01*
X108890163Y-100919416D01*
X108889699Y-100918297D01*
X108829781Y-100773642D01*
X108799000Y-100618893D01*
X108799000Y-100461107D01*
X108829781Y-100306358D01*
X108890162Y-100160586D01*
X108904595Y-100138985D01*
X108977822Y-100029392D01*
X109089392Y-99917822D01*
X109220584Y-99830163D01*
X109220586Y-99830162D01*
X109366358Y-99769781D01*
X109521107Y-99739000D01*
X109678893Y-99739000D01*
X109833642Y-99769781D01*
G37*
G36*
X115233642Y-99669781D02*
G01*
X115379414Y-99730162D01*
X115379416Y-99730163D01*
X115510608Y-99817822D01*
X115622178Y-99929392D01*
X115702359Y-100049393D01*
X115709838Y-100060586D01*
X115770219Y-100206358D01*
X115801000Y-100361107D01*
X115801000Y-100518893D01*
X115770219Y-100673642D01*
X115715411Y-100805960D01*
X115709837Y-100819416D01*
X115622178Y-100950608D01*
X115510608Y-101062178D01*
X115379416Y-101149837D01*
X115379415Y-101149838D01*
X115379414Y-101149838D01*
X115233642Y-101210219D01*
X115078893Y-101241000D01*
X114921107Y-101241000D01*
X114766358Y-101210219D01*
X114620586Y-101149838D01*
X114620585Y-101149838D01*
X114620584Y-101149837D01*
X114489392Y-101062178D01*
X114377822Y-100950608D01*
X114290163Y-100819416D01*
X114284589Y-100805960D01*
X114229781Y-100673642D01*
X114199000Y-100518893D01*
X114199000Y-100361107D01*
X114229781Y-100206358D01*
X114290162Y-100060586D01*
X114297641Y-100049393D01*
X114377822Y-99929392D01*
X114489392Y-99817822D01*
X114620584Y-99730163D01*
X114620586Y-99730162D01*
X114766358Y-99669781D01*
X114921107Y-99639000D01*
X115078893Y-99639000D01*
X115233642Y-99669781D01*
G37*
G36*
X138648228Y-99281703D02*
G01*
X138803100Y-99345853D01*
X138942481Y-99438985D01*
X139061015Y-99557519D01*
X139154147Y-99696900D01*
X139218297Y-99851772D01*
X139251000Y-100016184D01*
X139251000Y-100183816D01*
X139218297Y-100348228D01*
X139154147Y-100503100D01*
X139061015Y-100642481D01*
X138942481Y-100761015D01*
X138803100Y-100854147D01*
X138648228Y-100918297D01*
X138483816Y-100951000D01*
X138316184Y-100951000D01*
X138151772Y-100918297D01*
X137996900Y-100854147D01*
X137857519Y-100761015D01*
X137738985Y-100642481D01*
X137645853Y-100503100D01*
X137581703Y-100348228D01*
X137549000Y-100183816D01*
X137549000Y-100016184D01*
X137581703Y-99851772D01*
X137645853Y-99696900D01*
X137738985Y-99557519D01*
X137857519Y-99438985D01*
X137996900Y-99345853D01*
X138151772Y-99281703D01*
X138316184Y-99249000D01*
X138483816Y-99249000D01*
X138648228Y-99281703D01*
G37*
G36*
X127548228Y-97281703D02*
G01*
X127703100Y-97345853D01*
X127842481Y-97438985D01*
X127961015Y-97557519D01*
X128054147Y-97696900D01*
X128118297Y-97851772D01*
X128151000Y-98016184D01*
X128151000Y-98183816D01*
X128118297Y-98348228D01*
X128054147Y-98503100D01*
X127961015Y-98642481D01*
X127842481Y-98761015D01*
X127703100Y-98854147D01*
X127548228Y-98918297D01*
X127383816Y-98951000D01*
X127216184Y-98951000D01*
X127051772Y-98918297D01*
X126896900Y-98854147D01*
X126757519Y-98761015D01*
X126638985Y-98642481D01*
X126545853Y-98503100D01*
X126481703Y-98348228D01*
X126449000Y-98183816D01*
X126449000Y-98016184D01*
X126481703Y-97851772D01*
X126545853Y-97696900D01*
X126638985Y-97557519D01*
X126757519Y-97438985D01*
X126896900Y-97345853D01*
X127051772Y-97281703D01*
X127216184Y-97249000D01*
X127383816Y-97249000D01*
X127548228Y-97281703D01*
G37*
G36*
X132548228Y-97281703D02*
G01*
X132703100Y-97345853D01*
X132842481Y-97438985D01*
X132961015Y-97557519D01*
X133054147Y-97696900D01*
X133118297Y-97851772D01*
X133151000Y-98016184D01*
X133151000Y-98183816D01*
X133118297Y-98348228D01*
X133054147Y-98503100D01*
X132961015Y-98642481D01*
X132842481Y-98761015D01*
X132703100Y-98854147D01*
X132548228Y-98918297D01*
X132383816Y-98951000D01*
X132216184Y-98951000D01*
X132051772Y-98918297D01*
X131896900Y-98854147D01*
X131757519Y-98761015D01*
X131638985Y-98642481D01*
X131545853Y-98503100D01*
X131481703Y-98348228D01*
X131449000Y-98183816D01*
X131449000Y-98016184D01*
X131481703Y-97851772D01*
X131545853Y-97696900D01*
X131638985Y-97557519D01*
X131757519Y-97438985D01*
X131896900Y-97345853D01*
X132051772Y-97281703D01*
X132216184Y-97249000D01*
X132383816Y-97249000D01*
X132548228Y-97281703D01*
G37*
G36*
X96684549Y-96671116D02*
G01*
X96795734Y-96693232D01*
X97005203Y-96779997D01*
X97193720Y-96905960D01*
X97354040Y-97066280D01*
X97480003Y-97254797D01*
X97561593Y-97451772D01*
X97566768Y-97464267D01*
X97611000Y-97686635D01*
X97611000Y-97913365D01*
X97604065Y-97948228D01*
X97566768Y-98135734D01*
X97480003Y-98345203D01*
X97354040Y-98533720D01*
X97193720Y-98694040D01*
X97005203Y-98820003D01*
X96795734Y-98906768D01*
X96684549Y-98928884D01*
X96573365Y-98951000D01*
X96346635Y-98951000D01*
X96235451Y-98928884D01*
X96124266Y-98906768D01*
X95914797Y-98820003D01*
X95726280Y-98694040D01*
X95565960Y-98533720D01*
X95439997Y-98345203D01*
X95353232Y-98135734D01*
X95315935Y-97948228D01*
X95309000Y-97913365D01*
X95309000Y-97686635D01*
X95353232Y-97464267D01*
X95358408Y-97451772D01*
X95439997Y-97254797D01*
X95565960Y-97066280D01*
X95726280Y-96905960D01*
X95914797Y-96779997D01*
X96124266Y-96693232D01*
X96235451Y-96671116D01*
X96346635Y-96649000D01*
X96573365Y-96649000D01*
X96684549Y-96671116D01*
G37*
G36*
X87451000Y-98951000D02*
G01*
X85149000Y-98951000D01*
X85149000Y-96649000D01*
X87451000Y-96649000D01*
X87451000Y-98951000D01*
G37*
G36*
X105933642Y-97249781D02*
G01*
X106079414Y-97310162D01*
X106079416Y-97310163D01*
X106210608Y-97397822D01*
X106322178Y-97509392D01*
X106393534Y-97616185D01*
X106409838Y-97640586D01*
X106470219Y-97786358D01*
X106501000Y-97941107D01*
X106501000Y-98098893D01*
X106470219Y-98253642D01*
X106425743Y-98361015D01*
X106409837Y-98399416D01*
X106322178Y-98530608D01*
X106210608Y-98642178D01*
X106079416Y-98729837D01*
X106079415Y-98729838D01*
X106079414Y-98729838D01*
X105933642Y-98790219D01*
X105778893Y-98821000D01*
X105621107Y-98821000D01*
X105466358Y-98790219D01*
X105320586Y-98729838D01*
X105320585Y-98729838D01*
X105320584Y-98729837D01*
X105189392Y-98642178D01*
X105077822Y-98530608D01*
X104990163Y-98399416D01*
X104974257Y-98361015D01*
X104929781Y-98253642D01*
X104899000Y-98098893D01*
X104899000Y-97941107D01*
X104929781Y-97786358D01*
X104990162Y-97640586D01*
X105006466Y-97616185D01*
X105077822Y-97509392D01*
X105189392Y-97397822D01*
X105320584Y-97310163D01*
X105320586Y-97310162D01*
X105466358Y-97249781D01*
X105621107Y-97219000D01*
X105778893Y-97219000D01*
X105933642Y-97249781D01*
G37*
G36*
X110401000Y-98801000D02*
G01*
X108799000Y-98801000D01*
X108799000Y-97199000D01*
X110401000Y-97199000D01*
X110401000Y-98801000D01*
G37*
G36*
X115801000Y-98701000D02*
G01*
X114199000Y-98701000D01*
X114199000Y-97099000D01*
X115801000Y-97099000D01*
X115801000Y-98701000D01*
G37*
G36*
X120148228Y-96881703D02*
G01*
X120303100Y-96945853D01*
X120442481Y-97038985D01*
X120561015Y-97157519D01*
X120654147Y-97296900D01*
X120718297Y-97451772D01*
X120751000Y-97616184D01*
X120751000Y-97783816D01*
X120718297Y-97948228D01*
X120654147Y-98103100D01*
X120561015Y-98242481D01*
X120442481Y-98361015D01*
X120303100Y-98454147D01*
X120148228Y-98518297D01*
X119983816Y-98551000D01*
X119816184Y-98551000D01*
X119651772Y-98518297D01*
X119496900Y-98454147D01*
X119357519Y-98361015D01*
X119238985Y-98242481D01*
X119145853Y-98103100D01*
X119081703Y-97948228D01*
X119049000Y-97783816D01*
X119049000Y-97616184D01*
X119081703Y-97451772D01*
X119145853Y-97296900D01*
X119238985Y-97157519D01*
X119357519Y-97038985D01*
X119496900Y-96945853D01*
X119651772Y-96881703D01*
X119816184Y-96849000D01*
X119983816Y-96849000D01*
X120148228Y-96881703D01*
G37*
G36*
X125148228Y-96881703D02*
G01*
X125303100Y-96945853D01*
X125442481Y-97038985D01*
X125561015Y-97157519D01*
X125654147Y-97296900D01*
X125718297Y-97451772D01*
X125751000Y-97616184D01*
X125751000Y-97783816D01*
X125718297Y-97948228D01*
X125654147Y-98103100D01*
X125561015Y-98242481D01*
X125442481Y-98361015D01*
X125303100Y-98454147D01*
X125148228Y-98518297D01*
X124983816Y-98551000D01*
X124816184Y-98551000D01*
X124651772Y-98518297D01*
X124496900Y-98454147D01*
X124357519Y-98361015D01*
X124238985Y-98242481D01*
X124145853Y-98103100D01*
X124081703Y-97948228D01*
X124049000Y-97783816D01*
X124049000Y-97616184D01*
X124081703Y-97451772D01*
X124145853Y-97296900D01*
X124238985Y-97157519D01*
X124357519Y-97038985D01*
X124496900Y-96945853D01*
X124651772Y-96881703D01*
X124816184Y-96849000D01*
X124983816Y-96849000D01*
X125148228Y-96881703D01*
G37*
G36*
X70451000Y-98551000D02*
G01*
X68749000Y-98551000D01*
X68749000Y-96849000D01*
X70451000Y-96849000D01*
X70451000Y-98551000D01*
G37*
G36*
X72388228Y-96881703D02*
G01*
X72543100Y-96945853D01*
X72682481Y-97038985D01*
X72801015Y-97157519D01*
X72894147Y-97296900D01*
X72958297Y-97451772D01*
X72991000Y-97616184D01*
X72991000Y-97783816D01*
X72958297Y-97948228D01*
X72894147Y-98103100D01*
X72801015Y-98242481D01*
X72682481Y-98361015D01*
X72543100Y-98454147D01*
X72388228Y-98518297D01*
X72223816Y-98551000D01*
X72056184Y-98551000D01*
X71891772Y-98518297D01*
X71736900Y-98454147D01*
X71597519Y-98361015D01*
X71478985Y-98242481D01*
X71385853Y-98103100D01*
X71321703Y-97948228D01*
X71289000Y-97783816D01*
X71289000Y-97616184D01*
X71321703Y-97451772D01*
X71385853Y-97296900D01*
X71478985Y-97157519D01*
X71597519Y-97038985D01*
X71736900Y-96945853D01*
X71891772Y-96881703D01*
X72056184Y-96849000D01*
X72223816Y-96849000D01*
X72388228Y-96881703D01*
G37*
G36*
X74928228Y-96881703D02*
G01*
X75083100Y-96945853D01*
X75222481Y-97038985D01*
X75341015Y-97157519D01*
X75434147Y-97296900D01*
X75498297Y-97451772D01*
X75531000Y-97616184D01*
X75531000Y-97783816D01*
X75498297Y-97948228D01*
X75434147Y-98103100D01*
X75341015Y-98242481D01*
X75222481Y-98361015D01*
X75083100Y-98454147D01*
X74928228Y-98518297D01*
X74763816Y-98551000D01*
X74596184Y-98551000D01*
X74431772Y-98518297D01*
X74276900Y-98454147D01*
X74137519Y-98361015D01*
X74018985Y-98242481D01*
X73925853Y-98103100D01*
X73861703Y-97948228D01*
X73829000Y-97783816D01*
X73829000Y-97616184D01*
X73861703Y-97451772D01*
X73925853Y-97296900D01*
X74018985Y-97157519D01*
X74137519Y-97038985D01*
X74276900Y-96945853D01*
X74431772Y-96881703D01*
X74596184Y-96849000D01*
X74763816Y-96849000D01*
X74928228Y-96881703D01*
G37*
G36*
X77468228Y-96881703D02*
G01*
X77623100Y-96945853D01*
X77762481Y-97038985D01*
X77881015Y-97157519D01*
X77974147Y-97296900D01*
X78038297Y-97451772D01*
X78071000Y-97616184D01*
X78071000Y-97783816D01*
X78038297Y-97948228D01*
X77974147Y-98103100D01*
X77881015Y-98242481D01*
X77762481Y-98361015D01*
X77623100Y-98454147D01*
X77468228Y-98518297D01*
X77303816Y-98551000D01*
X77136184Y-98551000D01*
X76971772Y-98518297D01*
X76816900Y-98454147D01*
X76677519Y-98361015D01*
X76558985Y-98242481D01*
X76465853Y-98103100D01*
X76401703Y-97948228D01*
X76369000Y-97783816D01*
X76369000Y-97616184D01*
X76401703Y-97451772D01*
X76465853Y-97296900D01*
X76558985Y-97157519D01*
X76677519Y-97038985D01*
X76816900Y-96945853D01*
X76971772Y-96881703D01*
X77136184Y-96849000D01*
X77303816Y-96849000D01*
X77468228Y-96881703D01*
G37*
G36*
X62937916Y-94492334D02*
G01*
X63046492Y-94525271D01*
X63046495Y-94525272D01*
X63082601Y-94544571D01*
X63146557Y-94578756D01*
X63234264Y-94650736D01*
X63306244Y-94738443D01*
X63313368Y-94751772D01*
X63359728Y-94838505D01*
X63359729Y-94838508D01*
X63392666Y-94947084D01*
X63403787Y-95060000D01*
X63392666Y-95172916D01*
X63359729Y-95281492D01*
X63359728Y-95281495D01*
X63340429Y-95317601D01*
X63306244Y-95381557D01*
X63234264Y-95469264D01*
X63146557Y-95541244D01*
X63065141Y-95584761D01*
X63044766Y-95598375D01*
X63027439Y-95615702D01*
X63013826Y-95636076D01*
X63004448Y-95658715D01*
X62999668Y-95682748D01*
X62999668Y-95707252D01*
X63004448Y-95731285D01*
X63013826Y-95753924D01*
X63027440Y-95774299D01*
X63044767Y-95791626D01*
X63065141Y-95805239D01*
X63146557Y-95848756D01*
X63234264Y-95920736D01*
X63306244Y-96008443D01*
X63340429Y-96072399D01*
X63359728Y-96108505D01*
X63359729Y-96108508D01*
X63392666Y-96217084D01*
X63403787Y-96330000D01*
X63392666Y-96442916D01*
X63359729Y-96551492D01*
X63359728Y-96551495D01*
X63340429Y-96587601D01*
X63306244Y-96651557D01*
X63234264Y-96739264D01*
X63157354Y-96802383D01*
X63140035Y-96819702D01*
X63126421Y-96840077D01*
X63117043Y-96862716D01*
X63112263Y-96886749D01*
X63112263Y-96911253D01*
X63117043Y-96935286D01*
X63126421Y-96957925D01*
X63140034Y-96978299D01*
X63157361Y-96995626D01*
X63177736Y-97009240D01*
X63200375Y-97018618D01*
X63224408Y-97023398D01*
X63236660Y-97024000D01*
X63401000Y-97024000D01*
X63401000Y-98176000D01*
X61799000Y-98176000D01*
X61799000Y-97024000D01*
X61963340Y-97024000D01*
X61987726Y-97021598D01*
X62011175Y-97014485D01*
X62032786Y-97002934D01*
X62051728Y-96987389D01*
X62067273Y-96968447D01*
X62078824Y-96946836D01*
X62085937Y-96923387D01*
X62088339Y-96899001D01*
X62085937Y-96874615D01*
X62078824Y-96851166D01*
X62067273Y-96829555D01*
X62051728Y-96810613D01*
X62042655Y-96802391D01*
X61965736Y-96739264D01*
X61893756Y-96651557D01*
X61859571Y-96587601D01*
X61840272Y-96551495D01*
X61840271Y-96551492D01*
X61807334Y-96442916D01*
X61796213Y-96330000D01*
X61807334Y-96217084D01*
X61840271Y-96108508D01*
X61840272Y-96108505D01*
X61859571Y-96072399D01*
X61893756Y-96008443D01*
X61965736Y-95920736D01*
X62053443Y-95848756D01*
X62134859Y-95805239D01*
X62155234Y-95791625D01*
X62172561Y-95774298D01*
X62186174Y-95753924D01*
X62195552Y-95731285D01*
X62200332Y-95707252D01*
X62200332Y-95682748D01*
X62195552Y-95658715D01*
X62186174Y-95636076D01*
X62172560Y-95615701D01*
X62155233Y-95598374D01*
X62134859Y-95584761D01*
X62053443Y-95541244D01*
X61965736Y-95469264D01*
X61893756Y-95381557D01*
X61859571Y-95317601D01*
X61840272Y-95281495D01*
X61840271Y-95281492D01*
X61807334Y-95172916D01*
X61796213Y-95060000D01*
X61807334Y-94947084D01*
X61840271Y-94838508D01*
X61840272Y-94838505D01*
X61886632Y-94751772D01*
X61893756Y-94738443D01*
X61965736Y-94650736D01*
X62053443Y-94578756D01*
X62117399Y-94544571D01*
X62153505Y-94525272D01*
X62153508Y-94525271D01*
X62262084Y-94492334D01*
X62346702Y-94484000D01*
X62853298Y-94484000D01*
X62937916Y-94492334D01*
G37*
G36*
X138648228Y-94281703D02*
G01*
X138803100Y-94345853D01*
X138942481Y-94438985D01*
X139061015Y-94557519D01*
X139154147Y-94696900D01*
X139218297Y-94851772D01*
X139251000Y-95016184D01*
X139251000Y-95183816D01*
X139218297Y-95348228D01*
X139154147Y-95503100D01*
X139061015Y-95642481D01*
X138942481Y-95761015D01*
X138803100Y-95854147D01*
X138648228Y-95918297D01*
X138483816Y-95951000D01*
X138316184Y-95951000D01*
X138151772Y-95918297D01*
X137996900Y-95854147D01*
X137857519Y-95761015D01*
X137738985Y-95642481D01*
X137645853Y-95503100D01*
X137581703Y-95348228D01*
X137549000Y-95183816D01*
X137549000Y-95016184D01*
X137581703Y-94851772D01*
X137645853Y-94696900D01*
X137738985Y-94557519D01*
X137857519Y-94438985D01*
X137996900Y-94345853D01*
X138151772Y-94281703D01*
X138316184Y-94249000D01*
X138483816Y-94249000D01*
X138648228Y-94281703D01*
G37*
G36*
X127608228Y-94181703D02*
G01*
X127763100Y-94245853D01*
X127902481Y-94338985D01*
X128021015Y-94457519D01*
X128114147Y-94596900D01*
X128178297Y-94751772D01*
X128211000Y-94916184D01*
X128211000Y-95083816D01*
X128178297Y-95248228D01*
X128114147Y-95403100D01*
X128021015Y-95542481D01*
X127902481Y-95661015D01*
X127763100Y-95754147D01*
X127608228Y-95818297D01*
X127443816Y-95851000D01*
X127276184Y-95851000D01*
X127111772Y-95818297D01*
X126956900Y-95754147D01*
X126817519Y-95661015D01*
X126698985Y-95542481D01*
X126605853Y-95403100D01*
X126541703Y-95248228D01*
X126509000Y-95083816D01*
X126509000Y-94916184D01*
X126541703Y-94751772D01*
X126605853Y-94596900D01*
X126698985Y-94457519D01*
X126817519Y-94338985D01*
X126956900Y-94245853D01*
X127111772Y-94181703D01*
X127276184Y-94149000D01*
X127443816Y-94149000D01*
X127608228Y-94181703D01*
G37*
G36*
X118051000Y-95851000D02*
G01*
X116349000Y-95851000D01*
X116349000Y-94149000D01*
X118051000Y-94149000D01*
X118051000Y-95851000D01*
G37*
G36*
X119988228Y-94181703D02*
G01*
X120143100Y-94245853D01*
X120282481Y-94338985D01*
X120401015Y-94457519D01*
X120494147Y-94596900D01*
X120558297Y-94751772D01*
X120591000Y-94916184D01*
X120591000Y-95083816D01*
X120558297Y-95248228D01*
X120494147Y-95403100D01*
X120401015Y-95542481D01*
X120282481Y-95661015D01*
X120143100Y-95754147D01*
X119988228Y-95818297D01*
X119823816Y-95851000D01*
X119656184Y-95851000D01*
X119491772Y-95818297D01*
X119336900Y-95754147D01*
X119197519Y-95661015D01*
X119078985Y-95542481D01*
X118985853Y-95403100D01*
X118921703Y-95248228D01*
X118889000Y-95083816D01*
X118889000Y-94916184D01*
X118921703Y-94751772D01*
X118985853Y-94596900D01*
X119078985Y-94457519D01*
X119197519Y-94338985D01*
X119336900Y-94245853D01*
X119491772Y-94181703D01*
X119656184Y-94149000D01*
X119823816Y-94149000D01*
X119988228Y-94181703D01*
G37*
G36*
X130148228Y-94181703D02*
G01*
X130303100Y-94245853D01*
X130442481Y-94338985D01*
X130561015Y-94457519D01*
X130654147Y-94596900D01*
X130718297Y-94751772D01*
X130751000Y-94916184D01*
X130751000Y-95083816D01*
X130718297Y-95248228D01*
X130654147Y-95403100D01*
X130561015Y-95542481D01*
X130442481Y-95661015D01*
X130303100Y-95754147D01*
X130148228Y-95818297D01*
X129983816Y-95851000D01*
X129816184Y-95851000D01*
X129651772Y-95818297D01*
X129496900Y-95754147D01*
X129357519Y-95661015D01*
X129238985Y-95542481D01*
X129145853Y-95403100D01*
X129081703Y-95248228D01*
X129049000Y-95083816D01*
X129049000Y-94916184D01*
X129081703Y-94751772D01*
X129145853Y-94596900D01*
X129238985Y-94457519D01*
X129357519Y-94338985D01*
X129496900Y-94245853D01*
X129651772Y-94181703D01*
X129816184Y-94149000D01*
X129983816Y-94149000D01*
X130148228Y-94181703D01*
G37*
G36*
X122528228Y-94181703D02*
G01*
X122683100Y-94245853D01*
X122822481Y-94338985D01*
X122941015Y-94457519D01*
X123034147Y-94596900D01*
X123098297Y-94751772D01*
X123131000Y-94916184D01*
X123131000Y-95083816D01*
X123098297Y-95248228D01*
X123034147Y-95403100D01*
X122941015Y-95542481D01*
X122822481Y-95661015D01*
X122683100Y-95754147D01*
X122528228Y-95818297D01*
X122363816Y-95851000D01*
X122196184Y-95851000D01*
X122031772Y-95818297D01*
X121876900Y-95754147D01*
X121737519Y-95661015D01*
X121618985Y-95542481D01*
X121525853Y-95403100D01*
X121461703Y-95248228D01*
X121429000Y-95083816D01*
X121429000Y-94916184D01*
X121461703Y-94751772D01*
X121525853Y-94596900D01*
X121618985Y-94457519D01*
X121737519Y-94338985D01*
X121876900Y-94245853D01*
X122031772Y-94181703D01*
X122196184Y-94149000D01*
X122363816Y-94149000D01*
X122528228Y-94181703D01*
G37*
G36*
X125068228Y-94181703D02*
G01*
X125223100Y-94245853D01*
X125362481Y-94338985D01*
X125481015Y-94457519D01*
X125574147Y-94596900D01*
X125638297Y-94751772D01*
X125671000Y-94916184D01*
X125671000Y-95083816D01*
X125638297Y-95248228D01*
X125574147Y-95403100D01*
X125481015Y-95542481D01*
X125362481Y-95661015D01*
X125223100Y-95754147D01*
X125068228Y-95818297D01*
X124903816Y-95851000D01*
X124736184Y-95851000D01*
X124571772Y-95818297D01*
X124416900Y-95754147D01*
X124277519Y-95661015D01*
X124158985Y-95542481D01*
X124065853Y-95403100D01*
X124001703Y-95248228D01*
X123969000Y-95083816D01*
X123969000Y-94916184D01*
X124001703Y-94751772D01*
X124065853Y-94596900D01*
X124158985Y-94457519D01*
X124277519Y-94338985D01*
X124416900Y-94245853D01*
X124571772Y-94181703D01*
X124736184Y-94149000D01*
X124903816Y-94149000D01*
X125068228Y-94181703D01*
G37*
G36*
X132688228Y-94181703D02*
G01*
X132843100Y-94245853D01*
X132982481Y-94338985D01*
X133101015Y-94457519D01*
X133194147Y-94596900D01*
X133258297Y-94751772D01*
X133291000Y-94916184D01*
X133291000Y-95083816D01*
X133258297Y-95248228D01*
X133194147Y-95403100D01*
X133101015Y-95542481D01*
X132982481Y-95661015D01*
X132843100Y-95754147D01*
X132688228Y-95818297D01*
X132523816Y-95851000D01*
X132356184Y-95851000D01*
X132191772Y-95818297D01*
X132036900Y-95754147D01*
X131897519Y-95661015D01*
X131778985Y-95542481D01*
X131685853Y-95403100D01*
X131621703Y-95248228D01*
X131589000Y-95083816D01*
X131589000Y-94916184D01*
X131621703Y-94751772D01*
X131685853Y-94596900D01*
X131778985Y-94457519D01*
X131897519Y-94338985D01*
X132036900Y-94245853D01*
X132191772Y-94181703D01*
X132356184Y-94149000D01*
X132523816Y-94149000D01*
X132688228Y-94181703D01*
G37*
G36*
X106548228Y-93781703D02*
G01*
X106703100Y-93845853D01*
X106842481Y-93938985D01*
X106961015Y-94057519D01*
X107054147Y-94196900D01*
X107118297Y-94351772D01*
X107151000Y-94516184D01*
X107151000Y-94683816D01*
X107118297Y-94848228D01*
X107054147Y-95003100D01*
X106961015Y-95142481D01*
X106842481Y-95261015D01*
X106703100Y-95354147D01*
X106548228Y-95418297D01*
X106383816Y-95451000D01*
X106216184Y-95451000D01*
X106051772Y-95418297D01*
X105896900Y-95354147D01*
X105757519Y-95261015D01*
X105638985Y-95142481D01*
X105545853Y-95003100D01*
X105481703Y-94848228D01*
X105449000Y-94683816D01*
X105449000Y-94516184D01*
X105481703Y-94351772D01*
X105545853Y-94196900D01*
X105638985Y-94057519D01*
X105757519Y-93938985D01*
X105896900Y-93845853D01*
X106051772Y-93781703D01*
X106216184Y-93749000D01*
X106383816Y-93749000D01*
X106548228Y-93781703D01*
G37*
G36*
X111548228Y-93781703D02*
G01*
X111703100Y-93845853D01*
X111842481Y-93938985D01*
X111961015Y-94057519D01*
X112054147Y-94196900D01*
X112118297Y-94351772D01*
X112151000Y-94516184D01*
X112151000Y-94683816D01*
X112118297Y-94848228D01*
X112054147Y-95003100D01*
X111961015Y-95142481D01*
X111842481Y-95261015D01*
X111703100Y-95354147D01*
X111548228Y-95418297D01*
X111383816Y-95451000D01*
X111216184Y-95451000D01*
X111051772Y-95418297D01*
X110896900Y-95354147D01*
X110757519Y-95261015D01*
X110638985Y-95142481D01*
X110545853Y-95003100D01*
X110481703Y-94848228D01*
X110449000Y-94683816D01*
X110449000Y-94516184D01*
X110481703Y-94351772D01*
X110545853Y-94196900D01*
X110638985Y-94057519D01*
X110757519Y-93938985D01*
X110896900Y-93845853D01*
X111051772Y-93781703D01*
X111216184Y-93749000D01*
X111383816Y-93749000D01*
X111548228Y-93781703D01*
G37*
G36*
X103933642Y-93629781D02*
G01*
X104079414Y-93690162D01*
X104079416Y-93690163D01*
X104210608Y-93777822D01*
X104322178Y-93889392D01*
X104409837Y-94020584D01*
X104409838Y-94020586D01*
X104470219Y-94166358D01*
X104501000Y-94321107D01*
X104501000Y-94478893D01*
X104470219Y-94633642D01*
X104409838Y-94779414D01*
X104409837Y-94779416D01*
X104322178Y-94910608D01*
X104210608Y-95022178D01*
X104079416Y-95109837D01*
X104079415Y-95109838D01*
X104079414Y-95109838D01*
X103933642Y-95170219D01*
X103778893Y-95201000D01*
X103621107Y-95201000D01*
X103466358Y-95170219D01*
X103320586Y-95109838D01*
X103320585Y-95109838D01*
X103320584Y-95109837D01*
X103189392Y-95022178D01*
X103077822Y-94910608D01*
X102990163Y-94779416D01*
X102990162Y-94779414D01*
X102929781Y-94633642D01*
X102899000Y-94478893D01*
X102899000Y-94321107D01*
X102929781Y-94166358D01*
X102990162Y-94020586D01*
X102990163Y-94020584D01*
X103077822Y-93889392D01*
X103189392Y-93777822D01*
X103320584Y-93690163D01*
X103320586Y-93690162D01*
X103466358Y-93629781D01*
X103621107Y-93599000D01*
X103778893Y-93599000D01*
X103933642Y-93629781D01*
G37*
G36*
X96248228Y-93381703D02*
G01*
X96403100Y-93445853D01*
X96542481Y-93538985D01*
X96661015Y-93657519D01*
X96754147Y-93796900D01*
X96818297Y-93951772D01*
X96851000Y-94116184D01*
X96851000Y-94283816D01*
X96818297Y-94448228D01*
X96754147Y-94603100D01*
X96661015Y-94742481D01*
X96542481Y-94861015D01*
X96403100Y-94954147D01*
X96248228Y-95018297D01*
X96083816Y-95051000D01*
X95916184Y-95051000D01*
X95751772Y-95018297D01*
X95596900Y-94954147D01*
X95457519Y-94861015D01*
X95338985Y-94742481D01*
X95245853Y-94603100D01*
X95181703Y-94448228D01*
X95149000Y-94283816D01*
X95149000Y-94116184D01*
X95181703Y-93951772D01*
X95245853Y-93796900D01*
X95338985Y-93657519D01*
X95457519Y-93538985D01*
X95596900Y-93445853D01*
X95751772Y-93381703D01*
X95916184Y-93349000D01*
X96083816Y-93349000D01*
X96248228Y-93381703D01*
G37*
G36*
X91248228Y-93381703D02*
G01*
X91403100Y-93445853D01*
X91542481Y-93538985D01*
X91661015Y-93657519D01*
X91754147Y-93796900D01*
X91818297Y-93951772D01*
X91851000Y-94116184D01*
X91851000Y-94283816D01*
X91818297Y-94448228D01*
X91754147Y-94603100D01*
X91661015Y-94742481D01*
X91542481Y-94861015D01*
X91403100Y-94954147D01*
X91248228Y-95018297D01*
X91083816Y-95051000D01*
X90916184Y-95051000D01*
X90751772Y-95018297D01*
X90596900Y-94954147D01*
X90457519Y-94861015D01*
X90338985Y-94742481D01*
X90245853Y-94603100D01*
X90181703Y-94448228D01*
X90149000Y-94283816D01*
X90149000Y-94116184D01*
X90181703Y-93951772D01*
X90245853Y-93796900D01*
X90338985Y-93657519D01*
X90457519Y-93538985D01*
X90596900Y-93445853D01*
X90751772Y-93381703D01*
X90916184Y-93349000D01*
X91083816Y-93349000D01*
X91248228Y-93381703D01*
G37*
G36*
X88533642Y-93329781D02*
G01*
X88658992Y-93381703D01*
X88679416Y-93390163D01*
X88810608Y-93477822D01*
X88922178Y-93589392D01*
X88989510Y-93690163D01*
X89009838Y-93720586D01*
X89070219Y-93866358D01*
X89101000Y-94021107D01*
X89101000Y-94178893D01*
X89070219Y-94333642D01*
X89022755Y-94448229D01*
X89009837Y-94479416D01*
X88922178Y-94610608D01*
X88810608Y-94722178D01*
X88679416Y-94809837D01*
X88679415Y-94809838D01*
X88679414Y-94809838D01*
X88533642Y-94870219D01*
X88378893Y-94901000D01*
X88221107Y-94901000D01*
X88066358Y-94870219D01*
X87920586Y-94809838D01*
X87920585Y-94809838D01*
X87920584Y-94809837D01*
X87789392Y-94722178D01*
X87677822Y-94610608D01*
X87590163Y-94479416D01*
X87577245Y-94448229D01*
X87529781Y-94333642D01*
X87499000Y-94178893D01*
X87499000Y-94021107D01*
X87529781Y-93866358D01*
X87590162Y-93720586D01*
X87610490Y-93690163D01*
X87677822Y-93589392D01*
X87789392Y-93477822D01*
X87920584Y-93390163D01*
X87941008Y-93381703D01*
X88066358Y-93329781D01*
X88221107Y-93299000D01*
X88378893Y-93299000D01*
X88533642Y-93329781D01*
G37*
G36*
X138048228Y-91881703D02*
G01*
X138203100Y-91945853D01*
X138342481Y-92038985D01*
X138461015Y-92157519D01*
X138554147Y-92296900D01*
X138618297Y-92451772D01*
X138651000Y-92616184D01*
X138651000Y-92783816D01*
X138618297Y-92948228D01*
X138554147Y-93103100D01*
X138461015Y-93242481D01*
X138342481Y-93361015D01*
X138203100Y-93454147D01*
X138048228Y-93518297D01*
X137883816Y-93551000D01*
X137716184Y-93551000D01*
X137551772Y-93518297D01*
X137396900Y-93454147D01*
X137257519Y-93361015D01*
X137138985Y-93242481D01*
X137045853Y-93103100D01*
X136981703Y-92948228D01*
X136949000Y-92783816D01*
X136949000Y-92616184D01*
X136981703Y-92451772D01*
X137045853Y-92296900D01*
X137138985Y-92157519D01*
X137257519Y-92038985D01*
X137396900Y-91945853D01*
X137551772Y-91881703D01*
X137716184Y-91849000D01*
X137883816Y-91849000D01*
X138048228Y-91881703D01*
G37*
G36*
X109068228Y-91101703D02*
G01*
X109223100Y-91165853D01*
X109362481Y-91258985D01*
X109481015Y-91377519D01*
X109574147Y-91516900D01*
X109638297Y-91671772D01*
X109671000Y-91836184D01*
X109671000Y-92003816D01*
X109638297Y-92168228D01*
X109574147Y-92323100D01*
X109481015Y-92462481D01*
X109362481Y-92581015D01*
X109223100Y-92674147D01*
X109068228Y-92738297D01*
X108903816Y-92771000D01*
X108736184Y-92771000D01*
X108571772Y-92738297D01*
X108416900Y-92674147D01*
X108277519Y-92581015D01*
X108158985Y-92462481D01*
X108065853Y-92323100D01*
X108001703Y-92168228D01*
X107969000Y-92003816D01*
X107969000Y-91836184D01*
X108001703Y-91671772D01*
X108065853Y-91516900D01*
X108158985Y-91377519D01*
X108277519Y-91258985D01*
X108416900Y-91165853D01*
X108571772Y-91101703D01*
X108736184Y-91069000D01*
X108903816Y-91069000D01*
X109068228Y-91101703D01*
G37*
G36*
X98908228Y-91101703D02*
G01*
X99063100Y-91165853D01*
X99202481Y-91258985D01*
X99321015Y-91377519D01*
X99414147Y-91516900D01*
X99478297Y-91671772D01*
X99511000Y-91836184D01*
X99511000Y-92003816D01*
X99478297Y-92168228D01*
X99414147Y-92323100D01*
X99321015Y-92462481D01*
X99202481Y-92581015D01*
X99063100Y-92674147D01*
X98908228Y-92738297D01*
X98743816Y-92771000D01*
X98576184Y-92771000D01*
X98411772Y-92738297D01*
X98256900Y-92674147D01*
X98117519Y-92581015D01*
X97998985Y-92462481D01*
X97905853Y-92323100D01*
X97841703Y-92168228D01*
X97809000Y-92003816D01*
X97809000Y-91836184D01*
X97841703Y-91671772D01*
X97905853Y-91516900D01*
X97998985Y-91377519D01*
X98117519Y-91258985D01*
X98256900Y-91165853D01*
X98411772Y-91101703D01*
X98576184Y-91069000D01*
X98743816Y-91069000D01*
X98908228Y-91101703D01*
G37*
G36*
X101448228Y-91101703D02*
G01*
X101603100Y-91165853D01*
X101742481Y-91258985D01*
X101861015Y-91377519D01*
X101954147Y-91516900D01*
X102018297Y-91671772D01*
X102051000Y-91836184D01*
X102051000Y-92003816D01*
X102018297Y-92168228D01*
X101954147Y-92323100D01*
X101861015Y-92462481D01*
X101742481Y-92581015D01*
X101603100Y-92674147D01*
X101448228Y-92738297D01*
X101283816Y-92771000D01*
X101116184Y-92771000D01*
X100951772Y-92738297D01*
X100796900Y-92674147D01*
X100657519Y-92581015D01*
X100538985Y-92462481D01*
X100445853Y-92323100D01*
X100381703Y-92168228D01*
X100349000Y-92003816D01*
X100349000Y-91836184D01*
X100381703Y-91671772D01*
X100445853Y-91516900D01*
X100538985Y-91377519D01*
X100657519Y-91258985D01*
X100796900Y-91165853D01*
X100951772Y-91101703D01*
X101116184Y-91069000D01*
X101283816Y-91069000D01*
X101448228Y-91101703D01*
G37*
G36*
X103988228Y-91101703D02*
G01*
X104143100Y-91165853D01*
X104282481Y-91258985D01*
X104401015Y-91377519D01*
X104494147Y-91516900D01*
X104558297Y-91671772D01*
X104591000Y-91836184D01*
X104591000Y-92003816D01*
X104558297Y-92168228D01*
X104494147Y-92323100D01*
X104401015Y-92462481D01*
X104282481Y-92581015D01*
X104143100Y-92674147D01*
X103988228Y-92738297D01*
X103823816Y-92771000D01*
X103656184Y-92771000D01*
X103491772Y-92738297D01*
X103336900Y-92674147D01*
X103197519Y-92581015D01*
X103078985Y-92462481D01*
X102985853Y-92323100D01*
X102921703Y-92168228D01*
X102889000Y-92003816D01*
X102889000Y-91836184D01*
X102921703Y-91671772D01*
X102985853Y-91516900D01*
X103078985Y-91377519D01*
X103197519Y-91258985D01*
X103336900Y-91165853D01*
X103491772Y-91101703D01*
X103656184Y-91069000D01*
X103823816Y-91069000D01*
X103988228Y-91101703D01*
G37*
G36*
X106528228Y-91101703D02*
G01*
X106683100Y-91165853D01*
X106822481Y-91258985D01*
X106941015Y-91377519D01*
X107034147Y-91516900D01*
X107098297Y-91671772D01*
X107131000Y-91836184D01*
X107131000Y-92003816D01*
X107098297Y-92168228D01*
X107034147Y-92323100D01*
X106941015Y-92462481D01*
X106822481Y-92581015D01*
X106683100Y-92674147D01*
X106528228Y-92738297D01*
X106363816Y-92771000D01*
X106196184Y-92771000D01*
X106031772Y-92738297D01*
X105876900Y-92674147D01*
X105737519Y-92581015D01*
X105618985Y-92462481D01*
X105525853Y-92323100D01*
X105461703Y-92168228D01*
X105429000Y-92003816D01*
X105429000Y-91836184D01*
X105461703Y-91671772D01*
X105525853Y-91516900D01*
X105618985Y-91377519D01*
X105737519Y-91258985D01*
X105876900Y-91165853D01*
X106031772Y-91101703D01*
X106196184Y-91069000D01*
X106363816Y-91069000D01*
X106528228Y-91101703D01*
G37*
G36*
X111608228Y-91101703D02*
G01*
X111763100Y-91165853D01*
X111902481Y-91258985D01*
X112021015Y-91377519D01*
X112114147Y-91516900D01*
X112178297Y-91671772D01*
X112211000Y-91836184D01*
X112211000Y-92003816D01*
X112178297Y-92168228D01*
X112114147Y-92323100D01*
X112021015Y-92462481D01*
X111902481Y-92581015D01*
X111763100Y-92674147D01*
X111608228Y-92738297D01*
X111443816Y-92771000D01*
X111276184Y-92771000D01*
X111111772Y-92738297D01*
X110956900Y-92674147D01*
X110817519Y-92581015D01*
X110698985Y-92462481D01*
X110605853Y-92323100D01*
X110541703Y-92168228D01*
X110509000Y-92003816D01*
X110509000Y-91836184D01*
X110541703Y-91671772D01*
X110605853Y-91516900D01*
X110698985Y-91377519D01*
X110817519Y-91258985D01*
X110956900Y-91165853D01*
X111111772Y-91101703D01*
X111276184Y-91069000D01*
X111443816Y-91069000D01*
X111608228Y-91101703D01*
G37*
G36*
X114148228Y-91101703D02*
G01*
X114303100Y-91165853D01*
X114442481Y-91258985D01*
X114561015Y-91377519D01*
X114654147Y-91516900D01*
X114718297Y-91671772D01*
X114751000Y-91836184D01*
X114751000Y-92003816D01*
X114718297Y-92168228D01*
X114654147Y-92323100D01*
X114561015Y-92462481D01*
X114442481Y-92581015D01*
X114303100Y-92674147D01*
X114148228Y-92738297D01*
X113983816Y-92771000D01*
X113816184Y-92771000D01*
X113651772Y-92738297D01*
X113496900Y-92674147D01*
X113357519Y-92581015D01*
X113238985Y-92462481D01*
X113145853Y-92323100D01*
X113081703Y-92168228D01*
X113049000Y-92003816D01*
X113049000Y-91836184D01*
X113081703Y-91671772D01*
X113145853Y-91516900D01*
X113238985Y-91377519D01*
X113357519Y-91258985D01*
X113496900Y-91165853D01*
X113651772Y-91101703D01*
X113816184Y-91069000D01*
X113983816Y-91069000D01*
X114148228Y-91101703D01*
G37*
G36*
X62948228Y-90681703D02*
G01*
X63103100Y-90745853D01*
X63242481Y-90838985D01*
X63361015Y-90957519D01*
X63454147Y-91096900D01*
X63518297Y-91251772D01*
X63551000Y-91416184D01*
X63551000Y-91583816D01*
X63518297Y-91748228D01*
X63454147Y-91903100D01*
X63361015Y-92042481D01*
X63242481Y-92161015D01*
X63103100Y-92254147D01*
X62948228Y-92318297D01*
X62783816Y-92351000D01*
X62616184Y-92351000D01*
X62451772Y-92318297D01*
X62296900Y-92254147D01*
X62157519Y-92161015D01*
X62038985Y-92042481D01*
X61945853Y-91903100D01*
X61881703Y-91748228D01*
X61849000Y-91583816D01*
X61849000Y-91416184D01*
X61881703Y-91251772D01*
X61945853Y-91096900D01*
X62038985Y-90957519D01*
X62157519Y-90838985D01*
X62296900Y-90745853D01*
X62451772Y-90681703D01*
X62616184Y-90649000D01*
X62783816Y-90649000D01*
X62948228Y-90681703D01*
G37*
G36*
X88648228Y-90381703D02*
G01*
X88803100Y-90445853D01*
X88942481Y-90538985D01*
X89061015Y-90657519D01*
X89154147Y-90796900D01*
X89218297Y-90951772D01*
X89251000Y-91116184D01*
X89251000Y-91283816D01*
X89218297Y-91448228D01*
X89154147Y-91603100D01*
X89061015Y-91742481D01*
X88942481Y-91861015D01*
X88803100Y-91954147D01*
X88648228Y-92018297D01*
X88483816Y-92051000D01*
X88316184Y-92051000D01*
X88151772Y-92018297D01*
X87996900Y-91954147D01*
X87857519Y-91861015D01*
X87738985Y-91742481D01*
X87645853Y-91603100D01*
X87581703Y-91448228D01*
X87549000Y-91283816D01*
X87549000Y-91116184D01*
X87581703Y-90951772D01*
X87645853Y-90796900D01*
X87738985Y-90657519D01*
X87857519Y-90538985D01*
X87996900Y-90445853D01*
X88151772Y-90381703D01*
X88316184Y-90349000D01*
X88483816Y-90349000D01*
X88648228Y-90381703D01*
G37*
G36*
X94748228Y-90181703D02*
G01*
X94903100Y-90245853D01*
X95042481Y-90338985D01*
X95161015Y-90457519D01*
X95254147Y-90596900D01*
X95318297Y-90751772D01*
X95351000Y-90916184D01*
X95351000Y-91083816D01*
X95318297Y-91248228D01*
X95254147Y-91403100D01*
X95161015Y-91542481D01*
X95042481Y-91661015D01*
X94903100Y-91754147D01*
X94748228Y-91818297D01*
X94583816Y-91851000D01*
X94416184Y-91851000D01*
X94251772Y-91818297D01*
X94096900Y-91754147D01*
X93957519Y-91661015D01*
X93838985Y-91542481D01*
X93745853Y-91403100D01*
X93681703Y-91248228D01*
X93649000Y-91083816D01*
X93649000Y-90916184D01*
X93681703Y-90751772D01*
X93745853Y-90596900D01*
X93838985Y-90457519D01*
X93957519Y-90338985D01*
X94096900Y-90245853D01*
X94251772Y-90181703D01*
X94416184Y-90149000D01*
X94583816Y-90149000D01*
X94748228Y-90181703D01*
G37*
G36*
X69848228Y-89261703D02*
G01*
X70003100Y-89325853D01*
X70142481Y-89418985D01*
X70261015Y-89537519D01*
X70354147Y-89676900D01*
X70418297Y-89831772D01*
X70451000Y-89996184D01*
X70451000Y-90163816D01*
X70418297Y-90328228D01*
X70354147Y-90483100D01*
X70261015Y-90622481D01*
X70142481Y-90741015D01*
X70003100Y-90834147D01*
X69848228Y-90898297D01*
X69683816Y-90931000D01*
X69516184Y-90931000D01*
X69351772Y-90898297D01*
X69196900Y-90834147D01*
X69057519Y-90741015D01*
X68938985Y-90622481D01*
X68845853Y-90483100D01*
X68781703Y-90328228D01*
X68749000Y-90163816D01*
X68749000Y-89996184D01*
X68781703Y-89831772D01*
X68845853Y-89676900D01*
X68938985Y-89537519D01*
X69057519Y-89418985D01*
X69196900Y-89325853D01*
X69351772Y-89261703D01*
X69516184Y-89229000D01*
X69683816Y-89229000D01*
X69848228Y-89261703D01*
G37*
G36*
X72388228Y-89261703D02*
G01*
X72543100Y-89325853D01*
X72682481Y-89418985D01*
X72801015Y-89537519D01*
X72894147Y-89676900D01*
X72958297Y-89831772D01*
X72991000Y-89996184D01*
X72991000Y-90163816D01*
X72958297Y-90328228D01*
X72894147Y-90483100D01*
X72801015Y-90622481D01*
X72682481Y-90741015D01*
X72543100Y-90834147D01*
X72388228Y-90898297D01*
X72223816Y-90931000D01*
X72056184Y-90931000D01*
X71891772Y-90898297D01*
X71736900Y-90834147D01*
X71597519Y-90741015D01*
X71478985Y-90622481D01*
X71385853Y-90483100D01*
X71321703Y-90328228D01*
X71289000Y-90163816D01*
X71289000Y-89996184D01*
X71321703Y-89831772D01*
X71385853Y-89676900D01*
X71478985Y-89537519D01*
X71597519Y-89418985D01*
X71736900Y-89325853D01*
X71891772Y-89261703D01*
X72056184Y-89229000D01*
X72223816Y-89229000D01*
X72388228Y-89261703D01*
G37*
G36*
X74928228Y-89261703D02*
G01*
X75083100Y-89325853D01*
X75222481Y-89418985D01*
X75341015Y-89537519D01*
X75434147Y-89676900D01*
X75498297Y-89831772D01*
X75531000Y-89996184D01*
X75531000Y-90163816D01*
X75498297Y-90328228D01*
X75434147Y-90483100D01*
X75341015Y-90622481D01*
X75222481Y-90741015D01*
X75083100Y-90834147D01*
X74928228Y-90898297D01*
X74763816Y-90931000D01*
X74596184Y-90931000D01*
X74431772Y-90898297D01*
X74276900Y-90834147D01*
X74137519Y-90741015D01*
X74018985Y-90622481D01*
X73925853Y-90483100D01*
X73861703Y-90328228D01*
X73829000Y-90163816D01*
X73829000Y-89996184D01*
X73861703Y-89831772D01*
X73925853Y-89676900D01*
X74018985Y-89537519D01*
X74137519Y-89418985D01*
X74276900Y-89325853D01*
X74431772Y-89261703D01*
X74596184Y-89229000D01*
X74763816Y-89229000D01*
X74928228Y-89261703D01*
G37*
G36*
X77468228Y-89261703D02*
G01*
X77623100Y-89325853D01*
X77762481Y-89418985D01*
X77881015Y-89537519D01*
X77974147Y-89676900D01*
X78038297Y-89831772D01*
X78071000Y-89996184D01*
X78071000Y-90163816D01*
X78038297Y-90328228D01*
X77974147Y-90483100D01*
X77881015Y-90622481D01*
X77762481Y-90741015D01*
X77623100Y-90834147D01*
X77468228Y-90898297D01*
X77303816Y-90931000D01*
X77136184Y-90931000D01*
X76971772Y-90898297D01*
X76816900Y-90834147D01*
X76677519Y-90741015D01*
X76558985Y-90622481D01*
X76465853Y-90483100D01*
X76401703Y-90328228D01*
X76369000Y-90163816D01*
X76369000Y-89996184D01*
X76401703Y-89831772D01*
X76465853Y-89676900D01*
X76558985Y-89537519D01*
X76677519Y-89418985D01*
X76816900Y-89325853D01*
X76971772Y-89261703D01*
X77136184Y-89229000D01*
X77303816Y-89229000D01*
X77468228Y-89261703D01*
G37*
G36*
X80333642Y-89229781D02*
G01*
X80479414Y-89290162D01*
X80479416Y-89290163D01*
X80610608Y-89377822D01*
X80722178Y-89489392D01*
X80809837Y-89620584D01*
X80809838Y-89620586D01*
X80870219Y-89766358D01*
X80901000Y-89921107D01*
X80901000Y-90078893D01*
X80870219Y-90233642D01*
X80809838Y-90379414D01*
X80809837Y-90379416D01*
X80722178Y-90510608D01*
X80610608Y-90622178D01*
X80479416Y-90709837D01*
X80479415Y-90709838D01*
X80479414Y-90709838D01*
X80333642Y-90770219D01*
X80178893Y-90801000D01*
X80021107Y-90801000D01*
X79866358Y-90770219D01*
X79720586Y-90709838D01*
X79720585Y-90709838D01*
X79720584Y-90709837D01*
X79589392Y-90622178D01*
X79477822Y-90510608D01*
X79390163Y-90379416D01*
X79390162Y-90379414D01*
X79329781Y-90233642D01*
X79299000Y-90078893D01*
X79299000Y-89921107D01*
X79329781Y-89766358D01*
X79390162Y-89620586D01*
X79390163Y-89620584D01*
X79477822Y-89489392D01*
X79589392Y-89377822D01*
X79720584Y-89290163D01*
X79720586Y-89290162D01*
X79866358Y-89229781D01*
X80021107Y-89199000D01*
X80178893Y-89199000D01*
X80333642Y-89229781D01*
G37*
G36*
X63551000Y-90351000D02*
G01*
X61849000Y-90351000D01*
X61849000Y-88649000D01*
X63551000Y-88649000D01*
X63551000Y-90351000D01*
G37*
G36*
X138048228Y-86881703D02*
G01*
X138203100Y-86945853D01*
X138342481Y-87038985D01*
X138461015Y-87157519D01*
X138554147Y-87296900D01*
X138618297Y-87451772D01*
X138651000Y-87616184D01*
X138651000Y-87783816D01*
X138618297Y-87948228D01*
X138554147Y-88103100D01*
X138461015Y-88242481D01*
X138342481Y-88361015D01*
X138203100Y-88454147D01*
X138048228Y-88518297D01*
X137883816Y-88551000D01*
X137716184Y-88551000D01*
X137551772Y-88518297D01*
X137396900Y-88454147D01*
X137257519Y-88361015D01*
X137138985Y-88242481D01*
X137045853Y-88103100D01*
X136981703Y-87948228D01*
X136949000Y-87783816D01*
X136949000Y-87616184D01*
X136981703Y-87451772D01*
X137045853Y-87296900D01*
X137138985Y-87157519D01*
X137257519Y-87038985D01*
X137396900Y-86945853D01*
X137551772Y-86881703D01*
X137716184Y-86849000D01*
X137883816Y-86849000D01*
X138048228Y-86881703D01*
G37*
G36*
X122528228Y-86561703D02*
G01*
X122683100Y-86625853D01*
X122822481Y-86718985D01*
X122941015Y-86837519D01*
X123034147Y-86976900D01*
X123098297Y-87131772D01*
X123131000Y-87296184D01*
X123131000Y-87463816D01*
X123098297Y-87628228D01*
X123034147Y-87783100D01*
X122941015Y-87922481D01*
X122822481Y-88041015D01*
X122683100Y-88134147D01*
X122528228Y-88198297D01*
X122363816Y-88231000D01*
X122196184Y-88231000D01*
X122031772Y-88198297D01*
X121876900Y-88134147D01*
X121737519Y-88041015D01*
X121618985Y-87922481D01*
X121525853Y-87783100D01*
X121461703Y-87628228D01*
X121429000Y-87463816D01*
X121429000Y-87296184D01*
X121461703Y-87131772D01*
X121525853Y-86976900D01*
X121618985Y-86837519D01*
X121737519Y-86718985D01*
X121876900Y-86625853D01*
X122031772Y-86561703D01*
X122196184Y-86529000D01*
X122363816Y-86529000D01*
X122528228Y-86561703D01*
G37*
G36*
X125068228Y-86561703D02*
G01*
X125223100Y-86625853D01*
X125362481Y-86718985D01*
X125481015Y-86837519D01*
X125574147Y-86976900D01*
X125638297Y-87131772D01*
X125671000Y-87296184D01*
X125671000Y-87463816D01*
X125638297Y-87628228D01*
X125574147Y-87783100D01*
X125481015Y-87922481D01*
X125362481Y-88041015D01*
X125223100Y-88134147D01*
X125068228Y-88198297D01*
X124903816Y-88231000D01*
X124736184Y-88231000D01*
X124571772Y-88198297D01*
X124416900Y-88134147D01*
X124277519Y-88041015D01*
X124158985Y-87922481D01*
X124065853Y-87783100D01*
X124001703Y-87628228D01*
X123969000Y-87463816D01*
X123969000Y-87296184D01*
X124001703Y-87131772D01*
X124065853Y-86976900D01*
X124158985Y-86837519D01*
X124277519Y-86718985D01*
X124416900Y-86625853D01*
X124571772Y-86561703D01*
X124736184Y-86529000D01*
X124903816Y-86529000D01*
X125068228Y-86561703D01*
G37*
G36*
X119988228Y-86561703D02*
G01*
X120143100Y-86625853D01*
X120282481Y-86718985D01*
X120401015Y-86837519D01*
X120494147Y-86976900D01*
X120558297Y-87131772D01*
X120591000Y-87296184D01*
X120591000Y-87463816D01*
X120558297Y-87628228D01*
X120494147Y-87783100D01*
X120401015Y-87922481D01*
X120282481Y-88041015D01*
X120143100Y-88134147D01*
X119988228Y-88198297D01*
X119823816Y-88231000D01*
X119656184Y-88231000D01*
X119491772Y-88198297D01*
X119336900Y-88134147D01*
X119197519Y-88041015D01*
X119078985Y-87922481D01*
X118985853Y-87783100D01*
X118921703Y-87628228D01*
X118889000Y-87463816D01*
X118889000Y-87296184D01*
X118921703Y-87131772D01*
X118985853Y-86976900D01*
X119078985Y-86837519D01*
X119197519Y-86718985D01*
X119336900Y-86625853D01*
X119491772Y-86561703D01*
X119656184Y-86529000D01*
X119823816Y-86529000D01*
X119988228Y-86561703D01*
G37*
G36*
X127608228Y-86561703D02*
G01*
X127763100Y-86625853D01*
X127902481Y-86718985D01*
X128021015Y-86837519D01*
X128114147Y-86976900D01*
X128178297Y-87131772D01*
X128211000Y-87296184D01*
X128211000Y-87463816D01*
X128178297Y-87628228D01*
X128114147Y-87783100D01*
X128021015Y-87922481D01*
X127902481Y-88041015D01*
X127763100Y-88134147D01*
X127608228Y-88198297D01*
X127443816Y-88231000D01*
X127276184Y-88231000D01*
X127111772Y-88198297D01*
X126956900Y-88134147D01*
X126817519Y-88041015D01*
X126698985Y-87922481D01*
X126605853Y-87783100D01*
X126541703Y-87628228D01*
X126509000Y-87463816D01*
X126509000Y-87296184D01*
X126541703Y-87131772D01*
X126605853Y-86976900D01*
X126698985Y-86837519D01*
X126817519Y-86718985D01*
X126956900Y-86625853D01*
X127111772Y-86561703D01*
X127276184Y-86529000D01*
X127443816Y-86529000D01*
X127608228Y-86561703D01*
G37*
G36*
X117448228Y-86561703D02*
G01*
X117603100Y-86625853D01*
X117742481Y-86718985D01*
X117861015Y-86837519D01*
X117954147Y-86976900D01*
X118018297Y-87131772D01*
X118051000Y-87296184D01*
X118051000Y-87463816D01*
X118018297Y-87628228D01*
X117954147Y-87783100D01*
X117861015Y-87922481D01*
X117742481Y-88041015D01*
X117603100Y-88134147D01*
X117448228Y-88198297D01*
X117283816Y-88231000D01*
X117116184Y-88231000D01*
X116951772Y-88198297D01*
X116796900Y-88134147D01*
X116657519Y-88041015D01*
X116538985Y-87922481D01*
X116445853Y-87783100D01*
X116381703Y-87628228D01*
X116349000Y-87463816D01*
X116349000Y-87296184D01*
X116381703Y-87131772D01*
X116445853Y-86976900D01*
X116538985Y-86837519D01*
X116657519Y-86718985D01*
X116796900Y-86625853D01*
X116951772Y-86561703D01*
X117116184Y-86529000D01*
X117283816Y-86529000D01*
X117448228Y-86561703D01*
G37*
G36*
X130148228Y-86561703D02*
G01*
X130303100Y-86625853D01*
X130442481Y-86718985D01*
X130561015Y-86837519D01*
X130654147Y-86976900D01*
X130718297Y-87131772D01*
X130751000Y-87296184D01*
X130751000Y-87463816D01*
X130718297Y-87628228D01*
X130654147Y-87783100D01*
X130561015Y-87922481D01*
X130442481Y-88041015D01*
X130303100Y-88134147D01*
X130148228Y-88198297D01*
X129983816Y-88231000D01*
X129816184Y-88231000D01*
X129651772Y-88198297D01*
X129496900Y-88134147D01*
X129357519Y-88041015D01*
X129238985Y-87922481D01*
X129145853Y-87783100D01*
X129081703Y-87628228D01*
X129049000Y-87463816D01*
X129049000Y-87296184D01*
X129081703Y-87131772D01*
X129145853Y-86976900D01*
X129238985Y-86837519D01*
X129357519Y-86718985D01*
X129496900Y-86625853D01*
X129651772Y-86561703D01*
X129816184Y-86529000D01*
X129983816Y-86529000D01*
X130148228Y-86561703D01*
G37*
G36*
X132688228Y-86561703D02*
G01*
X132843100Y-86625853D01*
X132982481Y-86718985D01*
X133101015Y-86837519D01*
X133194147Y-86976900D01*
X133258297Y-87131772D01*
X133291000Y-87296184D01*
X133291000Y-87463816D01*
X133258297Y-87628228D01*
X133194147Y-87783100D01*
X133101015Y-87922481D01*
X132982481Y-88041015D01*
X132843100Y-88134147D01*
X132688228Y-88198297D01*
X132523816Y-88231000D01*
X132356184Y-88231000D01*
X132191772Y-88198297D01*
X132036900Y-88134147D01*
X131897519Y-88041015D01*
X131778985Y-87922481D01*
X131685853Y-87783100D01*
X131621703Y-87628228D01*
X131589000Y-87463816D01*
X131589000Y-87296184D01*
X131621703Y-87131772D01*
X131685853Y-86976900D01*
X131778985Y-86837519D01*
X131897519Y-86718985D01*
X132036900Y-86625853D01*
X132191772Y-86561703D01*
X132356184Y-86529000D01*
X132523816Y-86529000D01*
X132688228Y-86561703D01*
G37*
G36*
X88648228Y-85381703D02*
G01*
X88803100Y-85445853D01*
X88942481Y-85538985D01*
X89061015Y-85657519D01*
X89154147Y-85796900D01*
X89218297Y-85951772D01*
X89251000Y-86116184D01*
X89251000Y-86283816D01*
X89218297Y-86448228D01*
X89154147Y-86603100D01*
X89061015Y-86742481D01*
X88942481Y-86861015D01*
X88803100Y-86954147D01*
X88648228Y-87018297D01*
X88483816Y-87051000D01*
X88316184Y-87051000D01*
X88151772Y-87018297D01*
X87996900Y-86954147D01*
X87857519Y-86861015D01*
X87738985Y-86742481D01*
X87645853Y-86603100D01*
X87581703Y-86448228D01*
X87549000Y-86283816D01*
X87549000Y-86116184D01*
X87581703Y-85951772D01*
X87645853Y-85796900D01*
X87738985Y-85657519D01*
X87857519Y-85538985D01*
X87996900Y-85445853D01*
X88151772Y-85381703D01*
X88316184Y-85349000D01*
X88483816Y-85349000D01*
X88648228Y-85381703D01*
G37*
G36*
X63048228Y-85281703D02*
G01*
X63203100Y-85345853D01*
X63342481Y-85438985D01*
X63461015Y-85557519D01*
X63554147Y-85696900D01*
X63618297Y-85851772D01*
X63651000Y-86016184D01*
X63651000Y-86183816D01*
X63618297Y-86348228D01*
X63554147Y-86503100D01*
X63461015Y-86642481D01*
X63342481Y-86761015D01*
X63203100Y-86854147D01*
X63048228Y-86918297D01*
X62883816Y-86951000D01*
X62716184Y-86951000D01*
X62551772Y-86918297D01*
X62396900Y-86854147D01*
X62257519Y-86761015D01*
X62138985Y-86642481D01*
X62045853Y-86503100D01*
X61981703Y-86348228D01*
X61949000Y-86183816D01*
X61949000Y-86016184D01*
X61981703Y-85851772D01*
X62045853Y-85696900D01*
X62138985Y-85557519D01*
X62257519Y-85438985D01*
X62396900Y-85345853D01*
X62551772Y-85281703D01*
X62716184Y-85249000D01*
X62883816Y-85249000D01*
X63048228Y-85281703D01*
G37*
G36*
X75851000Y-86951000D02*
G01*
X74149000Y-86951000D01*
X74149000Y-85249000D01*
X75851000Y-85249000D01*
X75851000Y-86951000D01*
G37*
G36*
X77748228Y-85281703D02*
G01*
X77903100Y-85345853D01*
X78042481Y-85438985D01*
X78161015Y-85557519D01*
X78254147Y-85696900D01*
X78318297Y-85851772D01*
X78351000Y-86016184D01*
X78351000Y-86183816D01*
X78318297Y-86348228D01*
X78254147Y-86503100D01*
X78161015Y-86642481D01*
X78042481Y-86761015D01*
X77903100Y-86854147D01*
X77748228Y-86918297D01*
X77583816Y-86951000D01*
X77416184Y-86951000D01*
X77251772Y-86918297D01*
X77096900Y-86854147D01*
X76957519Y-86761015D01*
X76838985Y-86642481D01*
X76745853Y-86503100D01*
X76681703Y-86348228D01*
X76649000Y-86183816D01*
X76649000Y-86016184D01*
X76681703Y-85851772D01*
X76745853Y-85696900D01*
X76838985Y-85557519D01*
X76957519Y-85438985D01*
X77096900Y-85345853D01*
X77251772Y-85281703D01*
X77416184Y-85249000D01*
X77583816Y-85249000D01*
X77748228Y-85281703D01*
G37*
G36*
X70451000Y-86951000D02*
G01*
X68749000Y-86951000D01*
X68749000Y-85249000D01*
X70451000Y-85249000D01*
X70451000Y-86951000D01*
G37*
G36*
X71848228Y-85281703D02*
G01*
X72003100Y-85345853D01*
X72142481Y-85438985D01*
X72261015Y-85557519D01*
X72354147Y-85696900D01*
X72418297Y-85851772D01*
X72451000Y-86016184D01*
X72451000Y-86183816D01*
X72418297Y-86348228D01*
X72354147Y-86503100D01*
X72261015Y-86642481D01*
X72142481Y-86761015D01*
X72003100Y-86854147D01*
X71848228Y-86918297D01*
X71683816Y-86951000D01*
X71516184Y-86951000D01*
X71351772Y-86918297D01*
X71196900Y-86854147D01*
X71057519Y-86761015D01*
X70938985Y-86642481D01*
X70845853Y-86503100D01*
X70781703Y-86348228D01*
X70749000Y-86183816D01*
X70749000Y-86016184D01*
X70781703Y-85851772D01*
X70845853Y-85696900D01*
X70938985Y-85557519D01*
X71057519Y-85438985D01*
X71196900Y-85345853D01*
X71351772Y-85281703D01*
X71516184Y-85249000D01*
X71683816Y-85249000D01*
X71848228Y-85281703D01*
G37*
G36*
X94748228Y-85181703D02*
G01*
X94903100Y-85245853D01*
X95042481Y-85338985D01*
X95161015Y-85457519D01*
X95254147Y-85596900D01*
X95318297Y-85751772D01*
X95351000Y-85916184D01*
X95351000Y-86083816D01*
X95318297Y-86248228D01*
X95254147Y-86403100D01*
X95161015Y-86542481D01*
X95042481Y-86661015D01*
X94903100Y-86754147D01*
X94748228Y-86818297D01*
X94583816Y-86851000D01*
X94416184Y-86851000D01*
X94251772Y-86818297D01*
X94096900Y-86754147D01*
X93957519Y-86661015D01*
X93838985Y-86542481D01*
X93745853Y-86403100D01*
X93681703Y-86248228D01*
X93649000Y-86083816D01*
X93649000Y-85916184D01*
X93681703Y-85751772D01*
X93745853Y-85596900D01*
X93838985Y-85457519D01*
X93957519Y-85338985D01*
X94096900Y-85245853D01*
X94251772Y-85181703D01*
X94416184Y-85149000D01*
X94583816Y-85149000D01*
X94748228Y-85181703D01*
G37*
G36*
X135951000Y-85751000D02*
G01*
X133649000Y-85751000D01*
X133649000Y-83449000D01*
X135951000Y-83449000D01*
X135951000Y-85751000D01*
G37*
G36*
X124864549Y-83471116D02*
G01*
X124975734Y-83493232D01*
X125185203Y-83579997D01*
X125373720Y-83705960D01*
X125534040Y-83866280D01*
X125660003Y-84054797D01*
X125726852Y-84216184D01*
X125746768Y-84264267D01*
X125791000Y-84486635D01*
X125791000Y-84713365D01*
X125776986Y-84783816D01*
X125746768Y-84935734D01*
X125660003Y-85145203D01*
X125534040Y-85333720D01*
X125373720Y-85494040D01*
X125185203Y-85620003D01*
X124975734Y-85706768D01*
X124864549Y-85728884D01*
X124753365Y-85751000D01*
X124526635Y-85751000D01*
X124415451Y-85728884D01*
X124304266Y-85706768D01*
X124094797Y-85620003D01*
X123906280Y-85494040D01*
X123745960Y-85333720D01*
X123619997Y-85145203D01*
X123533232Y-84935734D01*
X123503014Y-84783816D01*
X123489000Y-84713365D01*
X123489000Y-84486635D01*
X123533232Y-84264267D01*
X123553149Y-84216184D01*
X123619997Y-84054797D01*
X123745960Y-83866280D01*
X123906280Y-83705960D01*
X124094797Y-83579997D01*
X124304266Y-83493232D01*
X124415451Y-83471116D01*
X124526635Y-83449000D01*
X124753365Y-83449000D01*
X124864549Y-83471116D01*
G37*
G36*
X117148228Y-83881703D02*
G01*
X117303100Y-83945853D01*
X117442481Y-84038985D01*
X117561015Y-84157519D01*
X117654147Y-84296900D01*
X117718297Y-84451772D01*
X117751000Y-84616184D01*
X117751000Y-84783816D01*
X117718297Y-84948228D01*
X117654147Y-85103100D01*
X117561015Y-85242481D01*
X117442481Y-85361015D01*
X117303100Y-85454147D01*
X117148228Y-85518297D01*
X116983816Y-85551000D01*
X116816184Y-85551000D01*
X116651772Y-85518297D01*
X116496900Y-85454147D01*
X116357519Y-85361015D01*
X116238985Y-85242481D01*
X116145853Y-85103100D01*
X116081703Y-84948228D01*
X116049000Y-84783816D01*
X116049000Y-84616184D01*
X116081703Y-84451772D01*
X116145853Y-84296900D01*
X116238985Y-84157519D01*
X116357519Y-84038985D01*
X116496900Y-83945853D01*
X116651772Y-83881703D01*
X116816184Y-83849000D01*
X116983816Y-83849000D01*
X117148228Y-83881703D01*
G37*
G36*
X122148228Y-83881703D02*
G01*
X122303100Y-83945853D01*
X122442481Y-84038985D01*
X122561015Y-84157519D01*
X122654147Y-84296900D01*
X122718297Y-84451772D01*
X122751000Y-84616184D01*
X122751000Y-84783816D01*
X122718297Y-84948228D01*
X122654147Y-85103100D01*
X122561015Y-85242481D01*
X122442481Y-85361015D01*
X122303100Y-85454147D01*
X122148228Y-85518297D01*
X121983816Y-85551000D01*
X121816184Y-85551000D01*
X121651772Y-85518297D01*
X121496900Y-85454147D01*
X121357519Y-85361015D01*
X121238985Y-85242481D01*
X121145853Y-85103100D01*
X121081703Y-84948228D01*
X121049000Y-84783816D01*
X121049000Y-84616184D01*
X121081703Y-84451772D01*
X121145853Y-84296900D01*
X121238985Y-84157519D01*
X121357519Y-84038985D01*
X121496900Y-83945853D01*
X121651772Y-83881703D01*
X121816184Y-83849000D01*
X121983816Y-83849000D01*
X122148228Y-83881703D01*
G37*
G36*
X111608228Y-83481703D02*
G01*
X111763100Y-83545853D01*
X111902481Y-83638985D01*
X112021015Y-83757519D01*
X112114147Y-83896900D01*
X112178297Y-84051772D01*
X112211000Y-84216184D01*
X112211000Y-84383816D01*
X112178297Y-84548228D01*
X112114147Y-84703100D01*
X112021015Y-84842481D01*
X111902481Y-84961015D01*
X111763100Y-85054147D01*
X111608228Y-85118297D01*
X111443816Y-85151000D01*
X111276184Y-85151000D01*
X111111772Y-85118297D01*
X110956900Y-85054147D01*
X110817519Y-84961015D01*
X110698985Y-84842481D01*
X110605853Y-84703100D01*
X110541703Y-84548228D01*
X110509000Y-84383816D01*
X110509000Y-84216184D01*
X110541703Y-84051772D01*
X110605853Y-83896900D01*
X110698985Y-83757519D01*
X110817519Y-83638985D01*
X110956900Y-83545853D01*
X111111772Y-83481703D01*
X111276184Y-83449000D01*
X111443816Y-83449000D01*
X111608228Y-83481703D01*
G37*
G36*
X109068228Y-83481703D02*
G01*
X109223100Y-83545853D01*
X109362481Y-83638985D01*
X109481015Y-83757519D01*
X109574147Y-83896900D01*
X109638297Y-84051772D01*
X109671000Y-84216184D01*
X109671000Y-84383816D01*
X109638297Y-84548228D01*
X109574147Y-84703100D01*
X109481015Y-84842481D01*
X109362481Y-84961015D01*
X109223100Y-85054147D01*
X109068228Y-85118297D01*
X108903816Y-85151000D01*
X108736184Y-85151000D01*
X108571772Y-85118297D01*
X108416900Y-85054147D01*
X108277519Y-84961015D01*
X108158985Y-84842481D01*
X108065853Y-84703100D01*
X108001703Y-84548228D01*
X107969000Y-84383816D01*
X107969000Y-84216184D01*
X108001703Y-84051772D01*
X108065853Y-83896900D01*
X108158985Y-83757519D01*
X108277519Y-83638985D01*
X108416900Y-83545853D01*
X108571772Y-83481703D01*
X108736184Y-83449000D01*
X108903816Y-83449000D01*
X109068228Y-83481703D01*
G37*
G36*
X114751000Y-85151000D02*
G01*
X113049000Y-85151000D01*
X113049000Y-83449000D01*
X114751000Y-83449000D01*
X114751000Y-85151000D01*
G37*
G36*
X98908228Y-83481703D02*
G01*
X99063100Y-83545853D01*
X99202481Y-83638985D01*
X99321015Y-83757519D01*
X99414147Y-83896900D01*
X99478297Y-84051772D01*
X99511000Y-84216184D01*
X99511000Y-84383816D01*
X99478297Y-84548228D01*
X99414147Y-84703100D01*
X99321015Y-84842481D01*
X99202481Y-84961015D01*
X99063100Y-85054147D01*
X98908228Y-85118297D01*
X98743816Y-85151000D01*
X98576184Y-85151000D01*
X98411772Y-85118297D01*
X98256900Y-85054147D01*
X98117519Y-84961015D01*
X97998985Y-84842481D01*
X97905853Y-84703100D01*
X97841703Y-84548228D01*
X97809000Y-84383816D01*
X97809000Y-84216184D01*
X97841703Y-84051772D01*
X97905853Y-83896900D01*
X97998985Y-83757519D01*
X98117519Y-83638985D01*
X98256900Y-83545853D01*
X98411772Y-83481703D01*
X98576184Y-83449000D01*
X98743816Y-83449000D01*
X98908228Y-83481703D01*
G37*
G36*
X106528228Y-83481703D02*
G01*
X106683100Y-83545853D01*
X106822481Y-83638985D01*
X106941015Y-83757519D01*
X107034147Y-83896900D01*
X107098297Y-84051772D01*
X107131000Y-84216184D01*
X107131000Y-84383816D01*
X107098297Y-84548228D01*
X107034147Y-84703100D01*
X106941015Y-84842481D01*
X106822481Y-84961015D01*
X106683100Y-85054147D01*
X106528228Y-85118297D01*
X106363816Y-85151000D01*
X106196184Y-85151000D01*
X106031772Y-85118297D01*
X105876900Y-85054147D01*
X105737519Y-84961015D01*
X105618985Y-84842481D01*
X105525853Y-84703100D01*
X105461703Y-84548228D01*
X105429000Y-84383816D01*
X105429000Y-84216184D01*
X105461703Y-84051772D01*
X105525853Y-83896900D01*
X105618985Y-83757519D01*
X105737519Y-83638985D01*
X105876900Y-83545853D01*
X106031772Y-83481703D01*
X106196184Y-83449000D01*
X106363816Y-83449000D01*
X106528228Y-83481703D01*
G37*
G36*
X103988228Y-83481703D02*
G01*
X104143100Y-83545853D01*
X104282481Y-83638985D01*
X104401015Y-83757519D01*
X104494147Y-83896900D01*
X104558297Y-84051772D01*
X104591000Y-84216184D01*
X104591000Y-84383816D01*
X104558297Y-84548228D01*
X104494147Y-84703100D01*
X104401015Y-84842481D01*
X104282481Y-84961015D01*
X104143100Y-85054147D01*
X103988228Y-85118297D01*
X103823816Y-85151000D01*
X103656184Y-85151000D01*
X103491772Y-85118297D01*
X103336900Y-85054147D01*
X103197519Y-84961015D01*
X103078985Y-84842481D01*
X102985853Y-84703100D01*
X102921703Y-84548228D01*
X102889000Y-84383816D01*
X102889000Y-84216184D01*
X102921703Y-84051772D01*
X102985853Y-83896900D01*
X103078985Y-83757519D01*
X103197519Y-83638985D01*
X103336900Y-83545853D01*
X103491772Y-83481703D01*
X103656184Y-83449000D01*
X103823816Y-83449000D01*
X103988228Y-83481703D01*
G37*
G36*
X101448228Y-83481703D02*
G01*
X101603100Y-83545853D01*
X101742481Y-83638985D01*
X101861015Y-83757519D01*
X101954147Y-83896900D01*
X102018297Y-84051772D01*
X102051000Y-84216184D01*
X102051000Y-84383816D01*
X102018297Y-84548228D01*
X101954147Y-84703100D01*
X101861015Y-84842481D01*
X101742481Y-84961015D01*
X101603100Y-85054147D01*
X101448228Y-85118297D01*
X101283816Y-85151000D01*
X101116184Y-85151000D01*
X100951772Y-85118297D01*
X100796900Y-85054147D01*
X100657519Y-84961015D01*
X100538985Y-84842481D01*
X100445853Y-84703100D01*
X100381703Y-84548228D01*
X100349000Y-84383816D01*
X100349000Y-84216184D01*
X100381703Y-84051772D01*
X100445853Y-83896900D01*
X100538985Y-83757519D01*
X100657519Y-83638985D01*
X100796900Y-83545853D01*
X100951772Y-83481703D01*
X101116184Y-83449000D01*
X101283816Y-83449000D01*
X101448228Y-83481703D01*
G37*
G36*
X63651000Y-84451000D02*
G01*
X61949000Y-84451000D01*
X61949000Y-82749000D01*
X63651000Y-82749000D01*
X63651000Y-84451000D01*
G37*
G36*
X98848228Y-80781703D02*
G01*
X99003100Y-80845853D01*
X99142481Y-80938985D01*
X99261015Y-81057519D01*
X99354147Y-81196900D01*
X99418297Y-81351772D01*
X99451000Y-81516184D01*
X99451000Y-81683816D01*
X99418297Y-81848228D01*
X99354147Y-82003100D01*
X99261015Y-82142481D01*
X99142481Y-82261015D01*
X99003100Y-82354147D01*
X98848228Y-82418297D01*
X98683816Y-82451000D01*
X98516184Y-82451000D01*
X98351772Y-82418297D01*
X98196900Y-82354147D01*
X98057519Y-82261015D01*
X97938985Y-82142481D01*
X97845853Y-82003100D01*
X97781703Y-81848228D01*
X97749000Y-81683816D01*
X97749000Y-81516184D01*
X97781703Y-81351772D01*
X97845853Y-81196900D01*
X97938985Y-81057519D01*
X98057519Y-80938985D01*
X98196900Y-80845853D01*
X98351772Y-80781703D01*
X98516184Y-80749000D01*
X98683816Y-80749000D01*
X98848228Y-80781703D01*
G37*
G36*
X103848228Y-80781703D02*
G01*
X104003100Y-80845853D01*
X104142481Y-80938985D01*
X104261015Y-81057519D01*
X104354147Y-81196900D01*
X104418297Y-81351772D01*
X104451000Y-81516184D01*
X104451000Y-81683816D01*
X104418297Y-81848228D01*
X104354147Y-82003100D01*
X104261015Y-82142481D01*
X104142481Y-82261015D01*
X104003100Y-82354147D01*
X103848228Y-82418297D01*
X103683816Y-82451000D01*
X103516184Y-82451000D01*
X103351772Y-82418297D01*
X103196900Y-82354147D01*
X103057519Y-82261015D01*
X102938985Y-82142481D01*
X102845853Y-82003100D01*
X102781703Y-81848228D01*
X102749000Y-81683816D01*
X102749000Y-81516184D01*
X102781703Y-81351772D01*
X102845853Y-81196900D01*
X102938985Y-81057519D01*
X103057519Y-80938985D01*
X103196900Y-80845853D01*
X103351772Y-80781703D01*
X103516184Y-80749000D01*
X103683816Y-80749000D01*
X103848228Y-80781703D01*
G37*
G36*
X111548228Y-80781703D02*
G01*
X111703100Y-80845853D01*
X111842481Y-80938985D01*
X111961015Y-81057519D01*
X112054147Y-81196900D01*
X112118297Y-81351772D01*
X112151000Y-81516184D01*
X112151000Y-81683816D01*
X112118297Y-81848228D01*
X112054147Y-82003100D01*
X111961015Y-82142481D01*
X111842481Y-82261015D01*
X111703100Y-82354147D01*
X111548228Y-82418297D01*
X111383816Y-82451000D01*
X111216184Y-82451000D01*
X111051772Y-82418297D01*
X110896900Y-82354147D01*
X110757519Y-82261015D01*
X110638985Y-82142481D01*
X110545853Y-82003100D01*
X110481703Y-81848228D01*
X110449000Y-81683816D01*
X110449000Y-81516184D01*
X110481703Y-81351772D01*
X110545853Y-81196900D01*
X110638985Y-81057519D01*
X110757519Y-80938985D01*
X110896900Y-80845853D01*
X111051772Y-80781703D01*
X111216184Y-80749000D01*
X111383816Y-80749000D01*
X111548228Y-80781703D01*
G37*
G36*
X106548228Y-80781703D02*
G01*
X106703100Y-80845853D01*
X106842481Y-80938985D01*
X106961015Y-81057519D01*
X107054147Y-81196900D01*
X107118297Y-81351772D01*
X107151000Y-81516184D01*
X107151000Y-81683816D01*
X107118297Y-81848228D01*
X107054147Y-82003100D01*
X106961015Y-82142481D01*
X106842481Y-82261015D01*
X106703100Y-82354147D01*
X106548228Y-82418297D01*
X106383816Y-82451000D01*
X106216184Y-82451000D01*
X106051772Y-82418297D01*
X105896900Y-82354147D01*
X105757519Y-82261015D01*
X105638985Y-82142481D01*
X105545853Y-82003100D01*
X105481703Y-81848228D01*
X105449000Y-81683816D01*
X105449000Y-81516184D01*
X105481703Y-81351772D01*
X105545853Y-81196900D01*
X105638985Y-81057519D01*
X105757519Y-80938985D01*
X105896900Y-80845853D01*
X106051772Y-80781703D01*
X106216184Y-80749000D01*
X106383816Y-80749000D01*
X106548228Y-80781703D01*
G37*
G36*
X91233642Y-80129781D02*
G01*
X91379414Y-80190162D01*
X91379416Y-80190163D01*
X91510608Y-80277822D01*
X91622178Y-80389392D01*
X91709837Y-80520584D01*
X91709838Y-80520586D01*
X91770219Y-80666358D01*
X91801000Y-80821107D01*
X91801000Y-80978893D01*
X91770219Y-81133642D01*
X91744015Y-81196903D01*
X91709837Y-81279416D01*
X91622178Y-81410608D01*
X91510608Y-81522178D01*
X91379416Y-81609837D01*
X91379415Y-81609838D01*
X91379414Y-81609838D01*
X91233642Y-81670219D01*
X91078893Y-81701000D01*
X90921107Y-81701000D01*
X90766358Y-81670219D01*
X90620586Y-81609838D01*
X90620585Y-81609838D01*
X90620584Y-81609837D01*
X90489392Y-81522178D01*
X90377822Y-81410608D01*
X90290163Y-81279416D01*
X90255985Y-81196903D01*
X90229781Y-81133642D01*
X90199000Y-80978893D01*
X90199000Y-80821107D01*
X90229781Y-80666358D01*
X90290162Y-80520586D01*
X90290163Y-80520584D01*
X90377822Y-80389392D01*
X90489392Y-80277822D01*
X90620584Y-80190163D01*
X90620586Y-80190162D01*
X90766358Y-80129781D01*
X90921107Y-80099000D01*
X91078893Y-80099000D01*
X91233642Y-80129781D01*
G37*
G36*
X80741000Y-81321000D02*
G01*
X78099000Y-81321000D01*
X78099000Y-78679000D01*
X80741000Y-78679000D01*
X80741000Y-81321000D01*
G37*
G36*
X74597714Y-78704382D02*
G01*
X74725322Y-78729765D01*
X74866148Y-78788097D01*
X74965727Y-78829344D01*
X74965728Y-78829345D01*
X75182089Y-78973912D01*
X75366088Y-79157911D01*
X75419208Y-79237411D01*
X75510656Y-79374273D01*
X75551903Y-79473852D01*
X75610235Y-79614678D01*
X75610235Y-79614680D01*
X75661000Y-79869891D01*
X75661000Y-80130109D01*
X75649054Y-80190163D01*
X75610235Y-80385322D01*
X75554207Y-80520584D01*
X75510656Y-80625727D01*
X75510655Y-80625728D01*
X75366088Y-80842089D01*
X75182089Y-81026088D01*
X75135047Y-81057520D01*
X74965727Y-81170656D01*
X74866148Y-81211903D01*
X74725322Y-81270235D01*
X74597715Y-81295617D01*
X74470109Y-81321000D01*
X74209891Y-81321000D01*
X74082285Y-81295617D01*
X73954678Y-81270235D01*
X73813852Y-81211903D01*
X73714273Y-81170656D01*
X73544953Y-81057520D01*
X73497911Y-81026088D01*
X73313912Y-80842089D01*
X73169345Y-80625728D01*
X73169344Y-80625727D01*
X73125793Y-80520584D01*
X73069765Y-80385322D01*
X73030946Y-80190163D01*
X73019000Y-80130109D01*
X73019000Y-79869891D01*
X73069765Y-79614680D01*
X73069765Y-79614678D01*
X73128097Y-79473852D01*
X73169344Y-79374273D01*
X73260792Y-79237411D01*
X73313912Y-79157911D01*
X73497911Y-78973912D01*
X73714272Y-78829345D01*
X73714273Y-78829344D01*
X73813852Y-78788097D01*
X73954678Y-78729765D01*
X74082286Y-78704382D01*
X74209891Y-78679000D01*
X74470109Y-78679000D01*
X74597714Y-78704382D01*
G37*
G36*
X69517714Y-78704382D02*
G01*
X69645322Y-78729765D01*
X69786148Y-78788097D01*
X69885727Y-78829344D01*
X69885728Y-78829345D01*
X70102089Y-78973912D01*
X70286088Y-79157911D01*
X70339208Y-79237411D01*
X70430656Y-79374273D01*
X70471903Y-79473852D01*
X70530235Y-79614678D01*
X70530235Y-79614680D01*
X70581000Y-79869891D01*
X70581000Y-80130109D01*
X70569054Y-80190163D01*
X70530235Y-80385322D01*
X70474207Y-80520584D01*
X70430656Y-80625727D01*
X70430655Y-80625728D01*
X70286088Y-80842089D01*
X70102089Y-81026088D01*
X70055047Y-81057520D01*
X69885727Y-81170656D01*
X69786148Y-81211903D01*
X69645322Y-81270235D01*
X69517715Y-81295617D01*
X69390109Y-81321000D01*
X69129891Y-81321000D01*
X69002285Y-81295617D01*
X68874678Y-81270235D01*
X68733852Y-81211903D01*
X68634273Y-81170656D01*
X68464953Y-81057520D01*
X68417911Y-81026088D01*
X68233912Y-80842089D01*
X68089345Y-80625728D01*
X68089344Y-80625727D01*
X68045793Y-80520584D01*
X67989765Y-80385322D01*
X67950946Y-80190163D01*
X67939000Y-80130109D01*
X67939000Y-79869891D01*
X67989765Y-79614680D01*
X67989765Y-79614678D01*
X68048097Y-79473852D01*
X68089344Y-79374273D01*
X68180792Y-79237411D01*
X68233912Y-79157911D01*
X68417911Y-78973912D01*
X68634272Y-78829345D01*
X68634273Y-78829344D01*
X68733852Y-78788097D01*
X68874678Y-78729765D01*
X69002286Y-78704382D01*
X69129891Y-78679000D01*
X69390109Y-78679000D01*
X69517714Y-78704382D01*
G37*
G36*
X120837714Y-78704382D02*
G01*
X120965322Y-78729765D01*
X121106148Y-78788097D01*
X121205727Y-78829344D01*
X121205728Y-78829345D01*
X121422089Y-78973912D01*
X121606088Y-79157911D01*
X121659208Y-79237411D01*
X121750656Y-79374273D01*
X121791903Y-79473852D01*
X121850235Y-79614678D01*
X121850235Y-79614680D01*
X121901000Y-79869891D01*
X121901000Y-80130109D01*
X121889054Y-80190163D01*
X121850235Y-80385322D01*
X121794207Y-80520584D01*
X121750656Y-80625727D01*
X121750655Y-80625728D01*
X121606088Y-80842089D01*
X121422089Y-81026088D01*
X121375047Y-81057520D01*
X121205727Y-81170656D01*
X121106148Y-81211903D01*
X120965322Y-81270235D01*
X120837715Y-81295617D01*
X120710109Y-81321000D01*
X120449891Y-81321000D01*
X120322285Y-81295617D01*
X120194678Y-81270235D01*
X120053852Y-81211903D01*
X119954273Y-81170656D01*
X119784953Y-81057520D01*
X119737911Y-81026088D01*
X119553912Y-80842089D01*
X119409345Y-80625728D01*
X119409344Y-80625727D01*
X119365793Y-80520584D01*
X119309765Y-80385322D01*
X119270946Y-80190163D01*
X119259000Y-80130109D01*
X119259000Y-79869891D01*
X119309765Y-79614680D01*
X119309765Y-79614678D01*
X119368097Y-79473852D01*
X119409344Y-79374273D01*
X119500792Y-79237411D01*
X119553912Y-79157911D01*
X119737911Y-78973912D01*
X119954272Y-78829345D01*
X119954273Y-78829344D01*
X120053852Y-78788097D01*
X120194678Y-78729765D01*
X120322286Y-78704382D01*
X120449891Y-78679000D01*
X120710109Y-78679000D01*
X120837714Y-78704382D01*
G37*
G36*
X132061000Y-81321000D02*
G01*
X129419000Y-81321000D01*
X129419000Y-78679000D01*
X132061000Y-78679000D01*
X132061000Y-81321000D01*
G37*
G36*
X125917714Y-78704382D02*
G01*
X126045322Y-78729765D01*
X126186148Y-78788097D01*
X126285727Y-78829344D01*
X126285728Y-78829345D01*
X126502089Y-78973912D01*
X126686088Y-79157911D01*
X126739208Y-79237411D01*
X126830656Y-79374273D01*
X126871903Y-79473852D01*
X126930235Y-79614678D01*
X126930235Y-79614680D01*
X126981000Y-79869891D01*
X126981000Y-80130109D01*
X126969054Y-80190163D01*
X126930235Y-80385322D01*
X126874207Y-80520584D01*
X126830656Y-80625727D01*
X126830655Y-80625728D01*
X126686088Y-80842089D01*
X126502089Y-81026088D01*
X126455047Y-81057520D01*
X126285727Y-81170656D01*
X126186148Y-81211903D01*
X126045322Y-81270235D01*
X125917715Y-81295617D01*
X125790109Y-81321000D01*
X125529891Y-81321000D01*
X125402285Y-81295617D01*
X125274678Y-81270235D01*
X125133852Y-81211903D01*
X125034273Y-81170656D01*
X124864953Y-81057520D01*
X124817911Y-81026088D01*
X124633912Y-80842089D01*
X124489345Y-80625728D01*
X124489344Y-80625727D01*
X124445793Y-80520584D01*
X124389765Y-80385322D01*
X124350946Y-80190163D01*
X124339000Y-80130109D01*
X124339000Y-79869891D01*
X124389765Y-79614680D01*
X124389765Y-79614678D01*
X124448097Y-79473852D01*
X124489344Y-79374273D01*
X124580792Y-79237411D01*
X124633912Y-79157911D01*
X124817911Y-78973912D01*
X125034272Y-78829345D01*
X125034273Y-78829344D01*
X125133852Y-78788097D01*
X125274678Y-78729765D01*
X125402286Y-78704382D01*
X125529891Y-78679000D01*
X125790109Y-78679000D01*
X125917714Y-78704382D01*
G37*
G36*
X137508600Y-77602989D02*
G01*
X137541652Y-77613015D01*
X137572103Y-77629292D01*
X137598799Y-77651201D01*
X137620708Y-77677897D01*
X137636985Y-77708348D01*
X137647011Y-77741400D01*
X137651000Y-77781903D01*
X137651000Y-79218097D01*
X137647011Y-79258600D01*
X137636985Y-79291652D01*
X137620708Y-79322103D01*
X137598799Y-79348799D01*
X137572103Y-79370708D01*
X137541652Y-79386985D01*
X137508600Y-79397011D01*
X137468097Y-79401000D01*
X135731903Y-79401000D01*
X135691400Y-79397011D01*
X135658348Y-79386985D01*
X135627897Y-79370708D01*
X135601201Y-79348799D01*
X135579292Y-79322103D01*
X135563015Y-79291652D01*
X135552989Y-79258600D01*
X135549000Y-79218097D01*
X135549000Y-77781903D01*
X135552989Y-77741400D01*
X135563015Y-77708348D01*
X135579292Y-77677897D01*
X135601201Y-77651201D01*
X135627897Y-77629292D01*
X135658348Y-77613015D01*
X135691400Y-77602989D01*
X135731903Y-77599000D01*
X137468097Y-77599000D01*
X137508600Y-77602989D01*
G37*
G36*
X63645959Y-77604092D02*
G01*
X63726627Y-77612037D01*
X63896466Y-77663557D01*
X64052991Y-77747222D01*
X64088729Y-77776552D01*
X64190186Y-77859814D01*
X64260676Y-77945708D01*
X64302778Y-77997009D01*
X64386443Y-78153534D01*
X64437963Y-78323373D01*
X64455359Y-78500000D01*
X64437963Y-78676627D01*
X64386443Y-78846466D01*
X64302778Y-79002991D01*
X64273448Y-79038729D01*
X64190186Y-79140186D01*
X64095250Y-79218097D01*
X64052991Y-79252778D01*
X63896466Y-79336443D01*
X63726627Y-79387963D01*
X63660443Y-79394481D01*
X63594260Y-79401000D01*
X63205740Y-79401000D01*
X63139557Y-79394481D01*
X63073373Y-79387963D01*
X62903534Y-79336443D01*
X62747009Y-79252778D01*
X62704750Y-79218097D01*
X62609814Y-79140186D01*
X62526552Y-79038729D01*
X62497222Y-79002991D01*
X62413557Y-78846466D01*
X62362037Y-78676627D01*
X62344641Y-78500000D01*
X62362037Y-78323373D01*
X62413557Y-78153534D01*
X62497222Y-77997009D01*
X62539324Y-77945708D01*
X62609814Y-77859814D01*
X62711271Y-77776552D01*
X62747009Y-77747222D01*
X62903534Y-77663557D01*
X63073373Y-77612037D01*
X63154041Y-77604092D01*
X63205740Y-77599000D01*
X63594260Y-77599000D01*
X63645959Y-77604092D01*
G37*
G36*
X110576627Y-75912037D02*
G01*
X110746466Y-75963557D01*
X110746468Y-75963558D01*
X110747794Y-75964267D01*
X110902991Y-76047222D01*
X110926359Y-76066400D01*
X111040186Y-76159814D01*
X111123448Y-76261271D01*
X111152778Y-76297009D01*
X111236443Y-76453534D01*
X111287963Y-76623374D01*
X111289619Y-76640185D01*
X111299195Y-76737411D01*
X111301000Y-76755743D01*
X111301000Y-77144258D01*
X111287963Y-77276627D01*
X111236443Y-77446466D01*
X111152778Y-77602991D01*
X111131193Y-77629292D01*
X111040186Y-77740186D01*
X110902989Y-77852779D01*
X110770120Y-77923799D01*
X110746465Y-77936443D01*
X110576626Y-77987963D01*
X110400000Y-78005359D01*
X110223373Y-77987963D01*
X110053534Y-77936443D01*
X109897009Y-77852778D01*
X109847688Y-77812301D01*
X109759814Y-77740186D01*
X109647221Y-77602989D01*
X109563558Y-77446467D01*
X109563557Y-77446465D01*
X109512037Y-77276626D01*
X109499000Y-77144257D01*
X109499000Y-76755742D01*
X109512037Y-76623373D01*
X109563557Y-76453534D01*
X109647222Y-76297009D01*
X109759815Y-76159815D01*
X109897010Y-76047222D01*
X110052207Y-75964267D01*
X110053533Y-75963558D01*
X110053535Y-75963557D01*
X110223374Y-75912037D01*
X110400000Y-75894641D01*
X110576627Y-75912037D01*
G37*
G36*
X113658600Y-75902989D02*
G01*
X113691652Y-75913015D01*
X113722103Y-75929292D01*
X113748799Y-75951201D01*
X113770708Y-75977897D01*
X113786985Y-76008348D01*
X113797011Y-76041400D01*
X113801000Y-76081903D01*
X113801000Y-77818097D01*
X113797011Y-77858600D01*
X113786985Y-77891652D01*
X113770708Y-77922103D01*
X113748799Y-77948799D01*
X113722103Y-77970708D01*
X113691652Y-77986985D01*
X113658600Y-77997011D01*
X113618097Y-78001000D01*
X112181903Y-78001000D01*
X112141400Y-77997011D01*
X112108348Y-77986985D01*
X112077897Y-77970708D01*
X112051201Y-77948799D01*
X112029292Y-77922103D01*
X112013015Y-77891652D01*
X112002989Y-77858600D01*
X111999000Y-77818097D01*
X111999000Y-76081903D01*
X112002989Y-76041400D01*
X112013015Y-76008348D01*
X112029292Y-75977897D01*
X112051201Y-75951201D01*
X112077897Y-75929292D01*
X112108348Y-75913015D01*
X112141400Y-75902989D01*
X112181903Y-75899000D01*
X113618097Y-75899000D01*
X113658600Y-75902989D01*
G37*
G36*
X95376627Y-75937037D02*
G01*
X95546466Y-75988557D01*
X95702991Y-76072222D01*
X95738729Y-76101552D01*
X95840186Y-76184814D01*
X95923448Y-76286271D01*
X95952778Y-76322009D01*
X96036443Y-76478534D01*
X96087963Y-76648374D01*
X96087963Y-76648376D01*
X96098538Y-76755740D01*
X96101000Y-76780743D01*
X96101000Y-77119258D01*
X96087963Y-77251627D01*
X96036443Y-77421466D01*
X95952778Y-77577991D01*
X95932262Y-77602990D01*
X95840186Y-77715186D01*
X95702989Y-77827779D01*
X95546467Y-77911442D01*
X95546465Y-77911443D01*
X95376626Y-77962963D01*
X95200000Y-77980359D01*
X95023373Y-77962963D01*
X94853534Y-77911443D01*
X94697009Y-77827778D01*
X94648173Y-77787699D01*
X94559814Y-77715186D01*
X94447221Y-77577989D01*
X94363558Y-77421467D01*
X94342182Y-77351000D01*
X94312037Y-77251626D01*
X94305518Y-77185441D01*
X94299000Y-77119259D01*
X94299000Y-76780740D01*
X94312037Y-76648375D01*
X94312037Y-76648373D01*
X94363557Y-76478534D01*
X94447222Y-76322009D01*
X94559815Y-76184815D01*
X94697010Y-76072222D01*
X94853535Y-75988557D01*
X95023374Y-75937037D01*
X95200000Y-75919641D01*
X95376627Y-75937037D01*
G37*
G36*
X97876627Y-75937037D02*
G01*
X98046466Y-75988557D01*
X98202991Y-76072222D01*
X98238729Y-76101552D01*
X98340186Y-76184814D01*
X98423448Y-76286271D01*
X98452778Y-76322009D01*
X98536443Y-76478534D01*
X98587963Y-76648374D01*
X98587963Y-76648376D01*
X98598538Y-76755740D01*
X98601000Y-76780743D01*
X98601000Y-77119258D01*
X98587963Y-77251627D01*
X98536443Y-77421466D01*
X98452778Y-77577991D01*
X98432262Y-77602990D01*
X98340186Y-77715186D01*
X98202989Y-77827779D01*
X98046467Y-77911442D01*
X98046465Y-77911443D01*
X97876626Y-77962963D01*
X97700000Y-77980359D01*
X97523373Y-77962963D01*
X97353534Y-77911443D01*
X97197009Y-77827778D01*
X97148173Y-77787699D01*
X97059814Y-77715186D01*
X96947221Y-77577989D01*
X96863558Y-77421467D01*
X96842182Y-77351000D01*
X96812037Y-77251626D01*
X96805518Y-77185441D01*
X96799000Y-77119259D01*
X96799000Y-76780740D01*
X96812037Y-76648375D01*
X96812037Y-76648373D01*
X96863557Y-76478534D01*
X96947222Y-76322009D01*
X97059815Y-76184815D01*
X97197010Y-76072222D01*
X97353535Y-75988557D01*
X97523374Y-75937037D01*
X97700000Y-75919641D01*
X97876627Y-75937037D01*
G37*
G36*
X100376627Y-75937037D02*
G01*
X100546466Y-75988557D01*
X100702991Y-76072222D01*
X100738729Y-76101552D01*
X100840186Y-76184814D01*
X100923448Y-76286271D01*
X100952778Y-76322009D01*
X101036443Y-76478534D01*
X101087963Y-76648374D01*
X101087963Y-76648376D01*
X101098538Y-76755740D01*
X101101000Y-76780743D01*
X101101000Y-77119258D01*
X101087963Y-77251627D01*
X101036443Y-77421466D01*
X100952778Y-77577991D01*
X100932262Y-77602990D01*
X100840186Y-77715186D01*
X100702989Y-77827779D01*
X100546467Y-77911442D01*
X100546465Y-77911443D01*
X100376626Y-77962963D01*
X100200000Y-77980359D01*
X100023373Y-77962963D01*
X99853534Y-77911443D01*
X99697009Y-77827778D01*
X99648173Y-77787699D01*
X99559814Y-77715186D01*
X99447221Y-77577989D01*
X99363558Y-77421467D01*
X99342182Y-77351000D01*
X99312037Y-77251626D01*
X99305518Y-77185441D01*
X99299000Y-77119259D01*
X99299000Y-76780740D01*
X99312037Y-76648375D01*
X99312037Y-76648373D01*
X99363557Y-76478534D01*
X99447222Y-76322009D01*
X99559815Y-76184815D01*
X99697010Y-76072222D01*
X99853535Y-75988557D01*
X100023374Y-75937037D01*
X100200000Y-75919641D01*
X100376627Y-75937037D01*
G37*
G36*
X103458600Y-75927989D02*
G01*
X103491652Y-75938015D01*
X103522103Y-75954292D01*
X103548799Y-75976201D01*
X103570708Y-76002897D01*
X103586985Y-76033348D01*
X103597011Y-76066400D01*
X103601000Y-76106903D01*
X103601000Y-77793097D01*
X103597011Y-77833600D01*
X103586985Y-77866652D01*
X103570708Y-77897103D01*
X103548799Y-77923799D01*
X103522103Y-77945708D01*
X103491652Y-77961985D01*
X103458600Y-77972011D01*
X103418097Y-77976000D01*
X101981903Y-77976000D01*
X101941400Y-77972011D01*
X101908348Y-77961985D01*
X101877897Y-77945708D01*
X101851201Y-77923799D01*
X101829292Y-77897103D01*
X101813015Y-77866652D01*
X101802989Y-77833600D01*
X101799000Y-77793097D01*
X101799000Y-76106903D01*
X101802989Y-76066400D01*
X101813015Y-76033348D01*
X101829292Y-76002897D01*
X101851201Y-75976201D01*
X101877897Y-75954292D01*
X101908348Y-75938015D01*
X101941400Y-75927989D01*
X101981903Y-75924000D01*
X103418097Y-75924000D01*
X103458600Y-75927989D01*
G37*
G36*
X127784549Y-75171116D02*
G01*
X127895734Y-75193232D01*
X128026075Y-75247221D01*
X128063177Y-75262589D01*
X128105203Y-75279997D01*
X128293720Y-75405960D01*
X128454040Y-75566280D01*
X128580003Y-75754797D01*
X128666768Y-75964266D01*
X128674452Y-76002897D01*
X128706498Y-76164000D01*
X128711000Y-76186636D01*
X128711000Y-76413364D01*
X128666768Y-76635734D01*
X128580003Y-76845203D01*
X128454040Y-77033720D01*
X128293720Y-77194040D01*
X128105203Y-77320003D01*
X127895734Y-77406768D01*
X127821847Y-77421465D01*
X127673365Y-77451000D01*
X127446635Y-77451000D01*
X127298153Y-77421465D01*
X127224266Y-77406768D01*
X127014797Y-77320003D01*
X126826280Y-77194040D01*
X126665960Y-77033720D01*
X126539997Y-76845203D01*
X126453232Y-76635734D01*
X126409000Y-76413364D01*
X126409000Y-76186636D01*
X126413503Y-76164000D01*
X126445548Y-76002897D01*
X126453232Y-75964266D01*
X126539997Y-75754797D01*
X126665960Y-75566280D01*
X126826280Y-75405960D01*
X127014797Y-75279997D01*
X127056824Y-75262589D01*
X127093925Y-75247221D01*
X127224266Y-75193232D01*
X127335451Y-75171116D01*
X127446635Y-75149000D01*
X127673365Y-75149000D01*
X127784549Y-75171116D01*
G37*
G36*
X118551000Y-77451000D02*
G01*
X116249000Y-77451000D01*
X116249000Y-75149000D01*
X118551000Y-75149000D01*
X118551000Y-77451000D01*
G37*
G36*
X91851000Y-77351000D02*
G01*
X89549000Y-77351000D01*
X89549000Y-75049000D01*
X91851000Y-75049000D01*
X91851000Y-77351000D01*
G37*
G36*
X80764549Y-75071116D02*
G01*
X80875734Y-75093232D01*
X80962790Y-75129292D01*
X81080134Y-75177897D01*
X81085203Y-75179997D01*
X81273720Y-75305960D01*
X81434040Y-75466280D01*
X81560003Y-75654797D01*
X81646768Y-75864266D01*
X81662561Y-75943661D01*
X81691000Y-76086635D01*
X81691000Y-76313365D01*
X81689280Y-76322011D01*
X81646768Y-76535734D01*
X81560003Y-76745203D01*
X81434040Y-76933720D01*
X81273720Y-77094040D01*
X81085203Y-77220003D01*
X80875734Y-77306768D01*
X80809197Y-77320003D01*
X80653365Y-77351000D01*
X80426635Y-77351000D01*
X80270803Y-77320003D01*
X80204266Y-77306768D01*
X79994797Y-77220003D01*
X79806280Y-77094040D01*
X79645960Y-76933720D01*
X79519997Y-76745203D01*
X79433232Y-76535734D01*
X79390720Y-76322011D01*
X79389000Y-76313365D01*
X79389000Y-76086635D01*
X79417439Y-75943661D01*
X79433232Y-75864266D01*
X79519997Y-75654797D01*
X79645960Y-75466280D01*
X79806280Y-75305960D01*
X79994797Y-75179997D01*
X79999867Y-75177897D01*
X80117210Y-75129292D01*
X80204266Y-75093232D01*
X80315451Y-75071116D01*
X80426635Y-75049000D01*
X80653365Y-75049000D01*
X80764549Y-75071116D01*
G37*
G36*
X136834760Y-75102989D02*
G01*
X136926627Y-75112037D01*
X137096466Y-75163557D01*
X137252991Y-75247222D01*
X137288729Y-75276552D01*
X137390186Y-75359814D01*
X137473448Y-75461271D01*
X137502778Y-75497009D01*
X137586443Y-75653534D01*
X137637963Y-75823373D01*
X137655359Y-76000000D01*
X137637963Y-76176627D01*
X137586443Y-76346466D01*
X137502778Y-76502991D01*
X137475907Y-76535733D01*
X137390186Y-76640186D01*
X137295250Y-76718097D01*
X137252991Y-76752778D01*
X137096466Y-76836443D01*
X136926627Y-76887963D01*
X136860442Y-76894482D01*
X136794260Y-76901000D01*
X136405740Y-76901000D01*
X136339558Y-76894482D01*
X136273373Y-76887963D01*
X136103534Y-76836443D01*
X135947009Y-76752778D01*
X135904750Y-76718097D01*
X135809814Y-76640186D01*
X135724093Y-76535733D01*
X135697222Y-76502991D01*
X135613557Y-76346466D01*
X135562037Y-76176627D01*
X135544641Y-76000000D01*
X135562037Y-75823373D01*
X135613557Y-75653534D01*
X135697222Y-75497009D01*
X135726552Y-75461271D01*
X135809814Y-75359814D01*
X135911271Y-75276552D01*
X135947009Y-75247222D01*
X136103534Y-75163557D01*
X136273373Y-75112037D01*
X136365240Y-75102989D01*
X136405740Y-75099000D01*
X136794260Y-75099000D01*
X136834760Y-75102989D01*
G37*
G36*
X64308600Y-75102989D02*
G01*
X64341652Y-75113015D01*
X64372103Y-75129292D01*
X64398799Y-75151201D01*
X64420708Y-75177897D01*
X64436985Y-75208348D01*
X64447011Y-75241400D01*
X64451000Y-75281903D01*
X64451000Y-76718097D01*
X64447011Y-76758600D01*
X64436985Y-76791652D01*
X64420708Y-76822103D01*
X64398799Y-76848799D01*
X64372103Y-76870708D01*
X64341652Y-76886985D01*
X64308600Y-76897011D01*
X64268097Y-76901000D01*
X62531903Y-76901000D01*
X62491400Y-76897011D01*
X62458348Y-76886985D01*
X62427897Y-76870708D01*
X62401201Y-76848799D01*
X62379292Y-76822103D01*
X62363015Y-76791652D01*
X62352989Y-76758600D01*
X62349000Y-76718097D01*
X62349000Y-75281903D01*
X62352989Y-75241400D01*
X62363015Y-75208348D01*
X62379292Y-75177897D01*
X62401201Y-75151201D01*
X62427897Y-75129292D01*
X62458348Y-75113015D01*
X62491400Y-75102989D01*
X62531903Y-75099000D01*
X64268097Y-75099000D01*
X64308600Y-75102989D01*
G37*
M02*
