M48
; DRILL file {KiCad (5.1.5-0-10_14)} date 2021 September 10, Friday 16:38:45
; FORMAT={-:-/ absolute / inch / decimal}
; #@! TF.CreationDate,2021-09-10T16:38:45+02:00
; #@! TF.GenerationSoftware,Kicad,Pcbnew,(5.1.5-0-10_14)
FMAT,2
INCH
T1C0.0157
T2C0.0276
T3C0.0295
T4C0.0315
T5C0.0354
T6C0.0374
T7C0.0394
T8C0.0433
T9C0.0551
%
G90
G05
T1
X2.5157Y-4.5748
X2.6535Y-4.748
X2.7717Y-4.8189
X2.9213Y-4.4646
X2.9528Y-4.5906
X3.003Y-4.7411
X3.0945Y-4.6142
X3.1732Y-5.2126
X3.185Y-4.6693
X3.2283Y-3.1496
X3.2913Y-3.2059
X3.4016Y-4.3661
X3.4134Y-4.8858
X3.4921Y-4.9882
X3.5197Y-3.1299
X3.5866Y-3.4764
X3.7205Y-4.5984
X3.7319Y-3.685
X3.7382Y-3.4567
X3.8891Y-4.201
X3.9445Y-4.6028
X3.9685Y-3.5461
X3.9803Y-3.9646
X3.9827Y-3.8762
X4.0269Y-4.5984
X4.0315Y-3.6811
X4.0472Y-3.4961
X4.0512Y-3.9449
X4.063Y-4.2874
X4.0829Y-3.9607
X4.1142Y-3.9374
X4.1415Y-3.5313
X4.1436Y-4.2323
X4.248Y-4.2323
X4.2559Y-4.9921
X4.3959Y-4.5667
X4.437Y-4.9646
X4.4608Y-3.697
X4.4685Y-4.2205
X4.48Y-3.5082
X4.5313Y-3.126
X4.5472Y-4.2402
X4.5659Y-4.2884
X4.5827Y-4.7638
X4.5911Y-3.1811
X4.6457Y-3.8819
X4.6478Y-3.5415
X4.6581Y-4.2179
X4.6693Y-4.6055
X4.6811Y-4.7008
X4.752Y-3.5394
X5.0315Y-3.5945
X5.0748Y-5.2677
X5.0945Y-3.2677
X5.1804Y-4.9528
X5.2323Y-3.9291
X5.3386Y-3.9961
X5.3581Y-3.7557
X5.3583Y-3.4921
T2
X3.1535Y-3.5433
X3.5827Y-3.185
X2.4409Y-4.2047
X4.0827Y-3.7165
X3.3386Y-4.4055
X5.4449Y-4.0354
X3.4764Y-3.7047
X2.4173Y-5.0039
X5.4646Y-5.0039
T3
X2.4646Y-3.7425
X2.4646Y-3.7925
X2.4646Y-3.8425
T4
X4.185Y-3.2126
X4.3819Y-3.2126
X5.0197Y-4.1457
X5.2165Y-4.1457
X3.4803Y-3.3937
X3.4803Y-3.5906
X2.7402Y-3.5465
X2.7402Y-3.8465
X2.8402Y-3.5465
X2.8402Y-3.8465
X2.9402Y-3.5465
X2.9402Y-3.8465
X3.0402Y-3.5465
X3.0402Y-3.8465
X5.4488Y-3.7441
X5.4488Y-3.9409
X4.7205Y-4.0906
X4.9173Y-4.0906
X3.7874Y-4.6811
X3.9843Y-4.6811
X3.4882Y-4.7205
X3.685Y-4.7205
X2.7441Y-4.0
X2.8425Y-4.0
X2.4646Y-3.9724
X2.4646Y-4.0512
X4.5276Y-3.8543
X4.5276Y-3.9543
X4.5276Y-4.0543
X3.0354Y-4.5346
X3.0354Y-4.8346
X3.1354Y-4.5346
X3.1354Y-4.8346
X3.2354Y-4.5346
X3.2354Y-4.8346
X3.3354Y-4.5346
X3.3354Y-4.8346
X3.5394Y-4.4331
X3.7362Y-4.4331
X4.1811Y-4.6811
X4.378Y-4.6811
X4.7205Y-3.9685
X4.9173Y-3.9685
X5.0118Y-3.8622
X5.2087Y-3.8622
X2.4724Y-3.2913
X2.4724Y-3.3898
X2.4685Y-3.5236
X2.4685Y-3.6024
X3.9173Y-4.1488
X3.9173Y-4.4488
X4.0173Y-4.1488
X4.0173Y-4.4488
X4.1173Y-4.1488
X4.1173Y-4.4488
X4.2173Y-4.1488
X4.2173Y-4.4488
X4.3173Y-4.1488
X4.3173Y-4.4488
X4.4173Y-4.1488
X4.4173Y-4.4488
X4.5173Y-4.1488
X4.5173Y-4.4488
X4.6173Y-4.1488
X4.6173Y-4.4488
X3.8819Y-3.2126
X4.0787Y-3.2126
X4.6024Y-3.3346
X4.7992Y-3.3346
X4.7323Y-4.437
X4.9291Y-4.437
X4.315Y-3.8583
X4.315Y-3.9583
X4.315Y-4.0583
X5.0118Y-4.0118
X5.2087Y-4.0118
X3.5827Y-3.7087
X3.7795Y-3.7087
X2.9528Y-3.3898
X3.0512Y-3.3898
X4.185Y-3.7244
X4.3819Y-3.7244
X5.4252Y-3.4528
X5.4252Y-3.6496
X4.5307Y-4.5394
X4.5307Y-4.8394
X4.6307Y-4.5394
X4.6307Y-4.8394
X4.7307Y-4.5394
X4.7307Y-4.8394
X4.8307Y-4.5394
X4.8307Y-4.8394
X2.7402Y-3.3898
X2.8189Y-3.3898
X3.8843Y-3.3189
X3.8843Y-3.6189
X3.9843Y-3.3189
X3.9843Y-3.6189
X4.0843Y-3.3189
X4.0843Y-3.6189
X4.1843Y-3.3189
X4.1843Y-3.6189
X4.2843Y-3.3189
X4.2843Y-3.6189
X4.3843Y-3.3189
X4.3843Y-3.6189
X4.4843Y-3.3189
X4.4843Y-3.6189
X3.7205Y-3.3858
X3.7205Y-3.5827
X4.7205Y-3.8465
X4.9173Y-3.8465
X4.1614Y-3.8591
X4.1614Y-3.9591
X4.1614Y-4.0591
X4.6142Y-3.4402
X4.6142Y-3.7402
X4.7142Y-3.4402
X4.7142Y-3.7402
X4.8142Y-3.4402
X4.8142Y-3.7402
X4.9142Y-3.4402
X4.9142Y-3.7402
X5.0142Y-3.4402
X5.0142Y-3.7402
X5.1142Y-3.4402
X5.1142Y-3.7402
X5.2142Y-3.4402
X5.2142Y-3.7402
T5
X2.874Y-5.0827
X2.974Y-5.0827
X4.9Y-5.0866
X5.0Y-5.0866
T6
X3.748Y-3.0295
X3.8465Y-3.0295
X3.9449Y-3.0295
X4.0433Y-3.0295
T7
X2.4606Y-5.1811
X2.5591Y-5.1811
X5.378Y-2.9921
X5.378Y-3.0906
X2.4961Y-2.9921
X2.4961Y-3.0906
X5.0567Y-4.6701
X5.0567Y-4.8701
X5.1567Y-4.6701
X5.1567Y-4.8701
X5.2567Y-4.6701
X5.2567Y-4.8701
X5.4567Y-4.6701
X5.4567Y-4.8701
X5.3169Y-5.1811
X5.4154Y-5.1811
X4.3465Y-3.0295
X4.4449Y-3.0295
X2.4173Y-4.6701
X2.4173Y-4.8701
X2.6173Y-4.6701
X2.6173Y-4.8701
X2.7173Y-4.6701
X2.7173Y-4.8701
X2.8173Y-4.6701
X2.8173Y-4.8701
X3.487Y-4.8356
X3.587Y-4.8356
X3.687Y-4.8356
X3.787Y-4.8356
X3.887Y-4.8356
X3.987Y-4.8356
X4.087Y-4.8356
X4.187Y-4.8356
X4.287Y-4.8356
X4.387Y-4.8356
T8
X3.3992Y-4.0039
X3.7992Y-4.0039
X2.4094Y-4.5472
X2.8094Y-4.5472
X4.622Y-3.0039
X5.022Y-3.0039
X4.9071Y-3.3307
X5.3071Y-3.3307
X2.4094Y-4.4173
X2.8094Y-4.4173
X3.1709Y-3.0
X3.5709Y-3.0
X5.0606Y-4.4094
X5.4606Y-4.4094
X3.3976Y-3.8504
X3.7976Y-3.8504
X5.0606Y-4.5394
X5.4606Y-4.5394
T9
X4.7472Y-4.2685
X4.9472Y-4.2685
X5.1472Y-4.2685
X4.7472Y-3.1496
X4.9472Y-3.1496
X5.1472Y-3.1496
X2.7268Y-4.2685
X2.9268Y-4.2685
X3.1268Y-4.2685
X2.7268Y-3.1496
X2.9268Y-3.1496
X3.1268Y-3.1496
T0
M30
