G04 #@! TF.GenerationSoftware,KiCad,Pcbnew,(5.1.5-0-10_14)*
G04 #@! TF.CreationDate,2021-09-10T16:38:47+02:00*
G04 #@! TF.ProjectId,ms20verb,6d733230-7665-4726-922e-6b696361645f,rev?*
G04 #@! TF.SameCoordinates,Original*
G04 #@! TF.FileFunction,Legend,Top*
G04 #@! TF.FilePolarity,Positive*
%FSLAX46Y46*%
G04 Gerber Fmt 4.6, Leading zero omitted, Abs format (unit mm)*
G04 Created by KiCad (PCBNEW (5.1.5-0-10_14)) date 2021-09-10 16:38:47*
%MOMM*%
%LPD*%
G04 APERTURE LIST*
%ADD10C,0.150000*%
%ADD11C,0.120000*%
%ADD12C,0.127000*%
%ADD13C,0.609600*%
%ADD14C,0.101600*%
%ADD15C,0.154432*%
%ADD16C,0.081280*%
G04 APERTURE END LIST*
D10*
X95380952Y-133752380D02*
X95380952Y-134466666D01*
X95333333Y-134609523D01*
X95238095Y-134704761D01*
X95095238Y-134752380D01*
X95000000Y-134752380D01*
X96333333Y-134752380D02*
X95857142Y-134752380D01*
X95857142Y-133752380D01*
X97238095Y-134657142D02*
X97190476Y-134704761D01*
X97047619Y-134752380D01*
X96952380Y-134752380D01*
X96809523Y-134704761D01*
X96714285Y-134609523D01*
X96666666Y-134514285D01*
X96619047Y-134323809D01*
X96619047Y-134180952D01*
X96666666Y-133990476D01*
X96714285Y-133895238D01*
X96809523Y-133800000D01*
X96952380Y-133752380D01*
X97047619Y-133752380D01*
X97190476Y-133800000D01*
X97238095Y-133847619D01*
X97952380Y-133752380D02*
X97952380Y-134466666D01*
X97904761Y-134609523D01*
X97809523Y-134704761D01*
X97666666Y-134752380D01*
X97571428Y-134752380D01*
X98904761Y-134752380D02*
X98428571Y-134752380D01*
X98428571Y-133752380D01*
X99809523Y-134657142D02*
X99761904Y-134704761D01*
X99619047Y-134752380D01*
X99523809Y-134752380D01*
X99380952Y-134704761D01*
X99285714Y-134609523D01*
X99238095Y-134514285D01*
X99190476Y-134323809D01*
X99190476Y-134180952D01*
X99238095Y-133990476D01*
X99285714Y-133895238D01*
X99380952Y-133800000D01*
X99523809Y-133752380D01*
X99619047Y-133752380D01*
X99761904Y-133800000D01*
X99809523Y-133847619D01*
X100523809Y-133752380D02*
X100523809Y-134466666D01*
X100476190Y-134609523D01*
X100380952Y-134704761D01*
X100238095Y-134752380D01*
X100142857Y-134752380D01*
X101476190Y-134752380D02*
X101000000Y-134752380D01*
X101000000Y-133752380D01*
X102380952Y-134657142D02*
X102333333Y-134704761D01*
X102190476Y-134752380D01*
X102095238Y-134752380D01*
X101952380Y-134704761D01*
X101857142Y-134609523D01*
X101809523Y-134514285D01*
X101761904Y-134323809D01*
X101761904Y-134180952D01*
X101809523Y-133990476D01*
X101857142Y-133895238D01*
X101952380Y-133800000D01*
X102095238Y-133752380D01*
X102190476Y-133752380D01*
X102333333Y-133800000D01*
X102380952Y-133847619D01*
X103095238Y-133752380D02*
X103095238Y-134466666D01*
X103047619Y-134609523D01*
X102952380Y-134704761D01*
X102809523Y-134752380D01*
X102714285Y-134752380D01*
X104047619Y-134752380D02*
X103571428Y-134752380D01*
X103571428Y-133752380D01*
X104952380Y-134657142D02*
X104904761Y-134704761D01*
X104761904Y-134752380D01*
X104666666Y-134752380D01*
X104523809Y-134704761D01*
X104428571Y-134609523D01*
X104380952Y-134514285D01*
X104333333Y-134323809D01*
X104333333Y-134180952D01*
X104380952Y-133990476D01*
X104428571Y-133895238D01*
X104523809Y-133800000D01*
X104666666Y-133752380D01*
X104761904Y-133752380D01*
X104904761Y-133800000D01*
X104952380Y-133847619D01*
D11*
X78223117Y-129243117D02*
G75*
G03X78223117Y-129243117I-3883117J0D01*
G01*
X129543117Y-129243117D02*
G75*
G03X129543117Y-129243117I-3883117J0D01*
G01*
X113887736Y-102742383D02*
G75*
G02X113300000Y-102350000I1112264J2302383D01*
G01*
X116098807Y-102796400D02*
G75*
G03X117600000Y-100440000I-1098807J2356400D01*
G01*
X116098807Y-98083600D02*
G75*
G02X117600000Y-100440000I-1098807J-2356400D01*
G01*
X113877955Y-98117369D02*
G75*
G03X113300000Y-98500000I1122045J-2322631D01*
G01*
X113300000Y-98500000D02*
X113300000Y-102350000D01*
X88340000Y-77670000D02*
X88340000Y-74730000D01*
X88340000Y-74730000D02*
X82900000Y-74730000D01*
X82900000Y-74730000D02*
X82900000Y-77670000D01*
X82900000Y-77670000D02*
X88340000Y-77670000D01*
X89360000Y-76200000D02*
X88340000Y-76200000D01*
X81880000Y-76200000D02*
X82900000Y-76200000D01*
X87440000Y-77670000D02*
X87440000Y-74730000D01*
X87320000Y-77670000D02*
X87320000Y-74730000D01*
X87560000Y-77670000D02*
X87560000Y-74730000D01*
X119080000Y-114070000D02*
X119080000Y-111330000D01*
X126320000Y-114070000D02*
X126320000Y-111330000D01*
X126320000Y-111330000D02*
X119080000Y-111330000D01*
X126320000Y-114070000D02*
X119080000Y-114070000D01*
X96020000Y-110230000D02*
X96020000Y-114970000D01*
X88780000Y-110230000D02*
X88780000Y-114970000D01*
X88780000Y-114970000D02*
X96020000Y-114970000D01*
X88780000Y-110230000D02*
X96020000Y-110230000D01*
X112420000Y-80230000D02*
X112420000Y-82970000D01*
X105180000Y-80230000D02*
X105180000Y-82970000D01*
X105180000Y-82970000D02*
X112420000Y-82970000D01*
X105180000Y-80230000D02*
X112420000Y-80230000D01*
X132200000Y-128850000D02*
X132200000Y-130100000D01*
X133450000Y-128850000D02*
X132200000Y-128850000D01*
X139350000Y-134350000D02*
X136300000Y-134350000D01*
X139350000Y-131400000D02*
X139350000Y-134350000D01*
X140100000Y-131400000D02*
X139350000Y-131400000D01*
X133250000Y-134350000D02*
X136300000Y-134350000D01*
X133250000Y-131400000D02*
X133250000Y-134350000D01*
X132500000Y-131400000D02*
X133250000Y-131400000D01*
X140100000Y-129150000D02*
X138300000Y-129150000D01*
X140100000Y-129900000D02*
X140100000Y-129150000D01*
X138300000Y-129900000D02*
X140100000Y-129900000D01*
X138300000Y-129150000D02*
X138300000Y-129900000D01*
X134300000Y-129150000D02*
X132500000Y-129150000D01*
X134300000Y-129900000D02*
X134300000Y-129150000D01*
X132500000Y-129900000D02*
X134300000Y-129900000D01*
X132500000Y-129150000D02*
X132500000Y-129900000D01*
X136800000Y-129150000D02*
X135800000Y-129150000D01*
X136800000Y-129900000D02*
X136800000Y-129150000D01*
X135800000Y-129900000D02*
X136800000Y-129900000D01*
X135800000Y-129150000D02*
X135800000Y-129900000D01*
X140110000Y-129140000D02*
X132490000Y-129140000D01*
X140110000Y-135110000D02*
X140110000Y-129140000D01*
X132490000Y-135110000D02*
X140110000Y-135110000D01*
X132490000Y-129140000D02*
X132490000Y-135110000D01*
X139750000Y-127100000D02*
G75*
G03X139750000Y-127100000I-950000J0D01*
G01*
X59940000Y-129140000D02*
X59940000Y-135110000D01*
X59940000Y-135110000D02*
X67560000Y-135110000D01*
X67560000Y-135110000D02*
X67560000Y-129140000D01*
X67560000Y-129140000D02*
X59940000Y-129140000D01*
X63250000Y-129150000D02*
X63250000Y-129900000D01*
X63250000Y-129900000D02*
X64250000Y-129900000D01*
X64250000Y-129900000D02*
X64250000Y-129150000D01*
X64250000Y-129150000D02*
X63250000Y-129150000D01*
X59950000Y-129150000D02*
X59950000Y-129900000D01*
X59950000Y-129900000D02*
X61750000Y-129900000D01*
X61750000Y-129900000D02*
X61750000Y-129150000D01*
X61750000Y-129150000D02*
X59950000Y-129150000D01*
X65750000Y-129150000D02*
X65750000Y-129900000D01*
X65750000Y-129900000D02*
X67550000Y-129900000D01*
X67550000Y-129900000D02*
X67550000Y-129150000D01*
X67550000Y-129150000D02*
X65750000Y-129150000D01*
X59950000Y-131400000D02*
X60700000Y-131400000D01*
X60700000Y-131400000D02*
X60700000Y-134350000D01*
X60700000Y-134350000D02*
X63750000Y-134350000D01*
X67550000Y-131400000D02*
X66800000Y-131400000D01*
X66800000Y-131400000D02*
X66800000Y-134350000D01*
X66800000Y-134350000D02*
X63750000Y-134350000D01*
X60900000Y-128850000D02*
X59650000Y-128850000D01*
X59650000Y-128850000D02*
X59650000Y-130100000D01*
X123020000Y-83330000D02*
X123020000Y-86070000D01*
X115780000Y-83330000D02*
X115780000Y-86070000D01*
X115780000Y-86070000D02*
X123020000Y-86070000D01*
X115780000Y-83330000D02*
X123020000Y-83330000D01*
X132470000Y-102955000D02*
X132470000Y-103621000D01*
X132470000Y-100179000D02*
X132470000Y-100845000D01*
X127130000Y-102955000D02*
X127130000Y-103621000D01*
X127130000Y-100179000D02*
X127130000Y-100845000D01*
X127130000Y-103621000D02*
X132470000Y-103621000D01*
X127130000Y-100179000D02*
X132470000Y-100179000D01*
X118780000Y-99070000D02*
X118780000Y-96330000D01*
X126020000Y-99070000D02*
X126020000Y-96330000D01*
X126020000Y-96330000D02*
X118780000Y-96330000D01*
X126020000Y-99070000D02*
X118780000Y-99070000D01*
X140170000Y-93820000D02*
X135430000Y-93820000D01*
X140170000Y-86580000D02*
X135430000Y-86580000D01*
X135430000Y-86580000D02*
X135430000Y-93820000D01*
X140170000Y-86580000D02*
X140170000Y-93820000D01*
X105260000Y-79410000D02*
X105260000Y-73440000D01*
X105260000Y-73440000D02*
X92640000Y-73440000D01*
X92640000Y-73440000D02*
X92640000Y-79410000D01*
X92640000Y-79410000D02*
X105260000Y-79410000D01*
X101950000Y-79400000D02*
X101950000Y-78650000D01*
X101950000Y-78650000D02*
X95950000Y-78650000D01*
X95950000Y-78650000D02*
X95950000Y-79400000D01*
X95950000Y-79400000D02*
X101950000Y-79400000D01*
X105250000Y-79400000D02*
X105250000Y-78650000D01*
X105250000Y-78650000D02*
X103450000Y-78650000D01*
X103450000Y-78650000D02*
X103450000Y-79400000D01*
X103450000Y-79400000D02*
X105250000Y-79400000D01*
X94450000Y-79400000D02*
X94450000Y-78650000D01*
X94450000Y-78650000D02*
X92650000Y-78650000D01*
X92650000Y-78650000D02*
X92650000Y-79400000D01*
X92650000Y-79400000D02*
X94450000Y-79400000D01*
X105250000Y-77150000D02*
X104500000Y-77150000D01*
X104500000Y-77150000D02*
X104500000Y-74200000D01*
X104500000Y-74200000D02*
X98950000Y-74200000D01*
X92650000Y-77150000D02*
X93400000Y-77150000D01*
X93400000Y-77150000D02*
X93400000Y-74200000D01*
X93400000Y-74200000D02*
X98950000Y-74200000D01*
X104300000Y-79700000D02*
X105550000Y-79700000D01*
X105550000Y-79700000D02*
X105550000Y-78450000D01*
X115460000Y-79410000D02*
X115460000Y-73440000D01*
X115460000Y-73440000D02*
X107840000Y-73440000D01*
X107840000Y-73440000D02*
X107840000Y-79410000D01*
X107840000Y-79410000D02*
X115460000Y-79410000D01*
X112150000Y-79400000D02*
X112150000Y-78650000D01*
X112150000Y-78650000D02*
X111150000Y-78650000D01*
X111150000Y-78650000D02*
X111150000Y-79400000D01*
X111150000Y-79400000D02*
X112150000Y-79400000D01*
X115450000Y-79400000D02*
X115450000Y-78650000D01*
X115450000Y-78650000D02*
X113650000Y-78650000D01*
X113650000Y-78650000D02*
X113650000Y-79400000D01*
X113650000Y-79400000D02*
X115450000Y-79400000D01*
X109650000Y-79400000D02*
X109650000Y-78650000D01*
X109650000Y-78650000D02*
X107850000Y-78650000D01*
X107850000Y-78650000D02*
X107850000Y-79400000D01*
X107850000Y-79400000D02*
X109650000Y-79400000D01*
X115450000Y-77150000D02*
X114700000Y-77150000D01*
X114700000Y-77150000D02*
X114700000Y-74200000D01*
X114700000Y-74200000D02*
X111650000Y-74200000D01*
X107850000Y-77150000D02*
X108600000Y-77150000D01*
X108600000Y-77150000D02*
X108600000Y-74200000D01*
X108600000Y-74200000D02*
X111650000Y-74200000D01*
X114500000Y-79700000D02*
X115750000Y-79700000D01*
X115750000Y-79700000D02*
X115750000Y-78450000D01*
X65860000Y-73440000D02*
X59890000Y-73440000D01*
X59890000Y-73440000D02*
X59890000Y-81060000D01*
X59890000Y-81060000D02*
X65860000Y-81060000D01*
X65860000Y-81060000D02*
X65860000Y-73440000D01*
X65850000Y-76750000D02*
X65100000Y-76750000D01*
X65100000Y-76750000D02*
X65100000Y-77750000D01*
X65100000Y-77750000D02*
X65850000Y-77750000D01*
X65850000Y-77750000D02*
X65850000Y-76750000D01*
X65850000Y-73450000D02*
X65100000Y-73450000D01*
X65100000Y-73450000D02*
X65100000Y-75250000D01*
X65100000Y-75250000D02*
X65850000Y-75250000D01*
X65850000Y-75250000D02*
X65850000Y-73450000D01*
X65850000Y-79250000D02*
X65100000Y-79250000D01*
X65100000Y-79250000D02*
X65100000Y-81050000D01*
X65100000Y-81050000D02*
X65850000Y-81050000D01*
X65850000Y-81050000D02*
X65850000Y-79250000D01*
X63600000Y-73450000D02*
X63600000Y-74200000D01*
X63600000Y-74200000D02*
X60650000Y-74200000D01*
X60650000Y-74200000D02*
X60650000Y-77250000D01*
X63600000Y-81050000D02*
X63600000Y-80300000D01*
X63600000Y-80300000D02*
X60650000Y-80300000D01*
X60650000Y-80300000D02*
X60650000Y-77250000D01*
X66150000Y-74400000D02*
X66150000Y-73150000D01*
X66150000Y-73150000D02*
X64900000Y-73150000D01*
D12*
X132264000Y-109944000D02*
X132264000Y-106896000D01*
X129216000Y-109944000D02*
X132264000Y-109944000D01*
X129216000Y-106896000D02*
X129216000Y-109944000D01*
X127184000Y-109944000D02*
X127184000Y-106896000D01*
X124136000Y-109944000D02*
X127184000Y-109944000D01*
X124136000Y-106896000D02*
X124136000Y-109944000D01*
X122104000Y-109944000D02*
X122104000Y-106896000D01*
X119056000Y-109944000D02*
X122104000Y-109944000D01*
X119056000Y-106896000D02*
X119056000Y-109944000D01*
X129216000Y-106896000D02*
X132264000Y-106896000D01*
X124136000Y-106896000D02*
X127184000Y-106896000D01*
X119056000Y-106896000D02*
X122104000Y-106896000D01*
D11*
X126020000Y-99430000D02*
X126020000Y-102170000D01*
X118780000Y-99430000D02*
X118780000Y-102170000D01*
X118780000Y-102170000D02*
X126020000Y-102170000D01*
X118780000Y-99430000D02*
X126020000Y-99430000D01*
X132470000Y-106355000D02*
X132470000Y-106670000D01*
X132470000Y-103930000D02*
X132470000Y-104245000D01*
X127530000Y-106355000D02*
X127530000Y-106670000D01*
X127530000Y-103930000D02*
X127530000Y-104245000D01*
X127530000Y-106670000D02*
X132470000Y-106670000D01*
X127530000Y-103930000D02*
X132470000Y-103930000D01*
X103570000Y-82655000D02*
X103570000Y-82970000D01*
X103570000Y-80230000D02*
X103570000Y-80545000D01*
X98630000Y-82655000D02*
X98630000Y-82970000D01*
X98630000Y-80230000D02*
X98630000Y-80545000D01*
X98630000Y-82970000D02*
X103570000Y-82970000D01*
X98630000Y-80230000D02*
X103570000Y-80230000D01*
X133850000Y-81350000D02*
X135100000Y-81350000D01*
X133850000Y-80100000D02*
X133850000Y-81350000D01*
X139350000Y-74200000D02*
X139350000Y-77250000D01*
X136400000Y-74200000D02*
X139350000Y-74200000D01*
X136400000Y-73450000D02*
X136400000Y-74200000D01*
X139350000Y-80300000D02*
X139350000Y-77250000D01*
X136400000Y-80300000D02*
X139350000Y-80300000D01*
X136400000Y-81050000D02*
X136400000Y-80300000D01*
X134150000Y-73450000D02*
X134150000Y-75250000D01*
X134900000Y-73450000D02*
X134150000Y-73450000D01*
X134900000Y-75250000D02*
X134900000Y-73450000D01*
X134150000Y-75250000D02*
X134900000Y-75250000D01*
X134150000Y-79250000D02*
X134150000Y-81050000D01*
X134900000Y-79250000D02*
X134150000Y-79250000D01*
X134900000Y-81050000D02*
X134900000Y-79250000D01*
X134150000Y-81050000D02*
X134900000Y-81050000D01*
X134150000Y-76750000D02*
X134150000Y-77750000D01*
X134900000Y-76750000D02*
X134150000Y-76750000D01*
X134900000Y-77750000D02*
X134900000Y-76750000D01*
X134150000Y-77750000D02*
X134900000Y-77750000D01*
X134140000Y-73440000D02*
X134140000Y-81060000D01*
X140110000Y-73440000D02*
X134140000Y-73440000D01*
X140110000Y-81060000D02*
X140110000Y-73440000D01*
X134140000Y-81060000D02*
X140110000Y-81060000D01*
D12*
X80944000Y-109944000D02*
X80944000Y-106896000D01*
X77896000Y-109944000D02*
X80944000Y-109944000D01*
X77896000Y-106896000D02*
X77896000Y-109944000D01*
X75864000Y-109944000D02*
X75864000Y-106896000D01*
X72816000Y-109944000D02*
X75864000Y-109944000D01*
X72816000Y-106896000D02*
X72816000Y-109944000D01*
X70784000Y-109944000D02*
X70784000Y-106896000D01*
X67736000Y-109944000D02*
X70784000Y-109944000D01*
X67736000Y-106896000D02*
X67736000Y-109944000D01*
X77896000Y-106896000D02*
X80944000Y-106896000D01*
X72816000Y-106896000D02*
X75864000Y-106896000D01*
X67736000Y-106896000D02*
X70784000Y-106896000D01*
D11*
X96170000Y-95255000D02*
X96170000Y-95921000D01*
X96170000Y-92479000D02*
X96170000Y-93145000D01*
X90830000Y-95255000D02*
X90830000Y-95921000D01*
X90830000Y-92479000D02*
X90830000Y-93145000D01*
X90830000Y-95921000D02*
X96170000Y-95921000D01*
X90830000Y-92479000D02*
X96170000Y-92479000D01*
X132470000Y-99155000D02*
X132470000Y-99821000D01*
X132470000Y-96379000D02*
X132470000Y-97045000D01*
X127130000Y-99155000D02*
X127130000Y-99821000D01*
X127130000Y-96379000D02*
X127130000Y-97045000D01*
X127130000Y-99821000D02*
X132470000Y-99821000D01*
X127130000Y-96379000D02*
X132470000Y-96379000D01*
X92130000Y-84880000D02*
X96870000Y-84880000D01*
X92130000Y-92120000D02*
X96870000Y-92120000D01*
X96870000Y-92120000D02*
X96870000Y-84880000D01*
X92130000Y-92120000D02*
X92130000Y-84880000D01*
X105180000Y-95970000D02*
X105180000Y-93230000D01*
X112420000Y-95970000D02*
X112420000Y-93230000D01*
X112420000Y-93230000D02*
X105180000Y-93230000D01*
X112420000Y-95970000D02*
X105180000Y-95970000D01*
X65420000Y-84850000D02*
G75*
G03X65420000Y-84850000I-2620000J0D01*
G01*
X65380000Y-84850000D02*
X60220000Y-84850000D01*
X65380000Y-84890000D02*
X60220000Y-84890000D01*
X65379000Y-84930000D02*
X60221000Y-84930000D01*
X65378000Y-84970000D02*
X60222000Y-84970000D01*
X65376000Y-85010000D02*
X60224000Y-85010000D01*
X65373000Y-85050000D02*
X60227000Y-85050000D01*
X65369000Y-85090000D02*
X63840000Y-85090000D01*
X61760000Y-85090000D02*
X60231000Y-85090000D01*
X65365000Y-85130000D02*
X63840000Y-85130000D01*
X61760000Y-85130000D02*
X60235000Y-85130000D01*
X65361000Y-85170000D02*
X63840000Y-85170000D01*
X61760000Y-85170000D02*
X60239000Y-85170000D01*
X65356000Y-85210000D02*
X63840000Y-85210000D01*
X61760000Y-85210000D02*
X60244000Y-85210000D01*
X65350000Y-85250000D02*
X63840000Y-85250000D01*
X61760000Y-85250000D02*
X60250000Y-85250000D01*
X65343000Y-85290000D02*
X63840000Y-85290000D01*
X61760000Y-85290000D02*
X60257000Y-85290000D01*
X65336000Y-85330000D02*
X63840000Y-85330000D01*
X61760000Y-85330000D02*
X60264000Y-85330000D01*
X65328000Y-85370000D02*
X63840000Y-85370000D01*
X61760000Y-85370000D02*
X60272000Y-85370000D01*
X65320000Y-85410000D02*
X63840000Y-85410000D01*
X61760000Y-85410000D02*
X60280000Y-85410000D01*
X65311000Y-85450000D02*
X63840000Y-85450000D01*
X61760000Y-85450000D02*
X60289000Y-85450000D01*
X65301000Y-85490000D02*
X63840000Y-85490000D01*
X61760000Y-85490000D02*
X60299000Y-85490000D01*
X65291000Y-85530000D02*
X63840000Y-85530000D01*
X61760000Y-85530000D02*
X60309000Y-85530000D01*
X65280000Y-85571000D02*
X63840000Y-85571000D01*
X61760000Y-85571000D02*
X60320000Y-85571000D01*
X65268000Y-85611000D02*
X63840000Y-85611000D01*
X61760000Y-85611000D02*
X60332000Y-85611000D01*
X65255000Y-85651000D02*
X63840000Y-85651000D01*
X61760000Y-85651000D02*
X60345000Y-85651000D01*
X65242000Y-85691000D02*
X63840000Y-85691000D01*
X61760000Y-85691000D02*
X60358000Y-85691000D01*
X65228000Y-85731000D02*
X63840000Y-85731000D01*
X61760000Y-85731000D02*
X60372000Y-85731000D01*
X65214000Y-85771000D02*
X63840000Y-85771000D01*
X61760000Y-85771000D02*
X60386000Y-85771000D01*
X65198000Y-85811000D02*
X63840000Y-85811000D01*
X61760000Y-85811000D02*
X60402000Y-85811000D01*
X65182000Y-85851000D02*
X63840000Y-85851000D01*
X61760000Y-85851000D02*
X60418000Y-85851000D01*
X65165000Y-85891000D02*
X63840000Y-85891000D01*
X61760000Y-85891000D02*
X60435000Y-85891000D01*
X65148000Y-85931000D02*
X63840000Y-85931000D01*
X61760000Y-85931000D02*
X60452000Y-85931000D01*
X65129000Y-85971000D02*
X63840000Y-85971000D01*
X61760000Y-85971000D02*
X60471000Y-85971000D01*
X65110000Y-86011000D02*
X63840000Y-86011000D01*
X61760000Y-86011000D02*
X60490000Y-86011000D01*
X65090000Y-86051000D02*
X63840000Y-86051000D01*
X61760000Y-86051000D02*
X60510000Y-86051000D01*
X65068000Y-86091000D02*
X63840000Y-86091000D01*
X61760000Y-86091000D02*
X60532000Y-86091000D01*
X65047000Y-86131000D02*
X63840000Y-86131000D01*
X61760000Y-86131000D02*
X60553000Y-86131000D01*
X65024000Y-86171000D02*
X63840000Y-86171000D01*
X61760000Y-86171000D02*
X60576000Y-86171000D01*
X65000000Y-86211000D02*
X63840000Y-86211000D01*
X61760000Y-86211000D02*
X60600000Y-86211000D01*
X64975000Y-86251000D02*
X63840000Y-86251000D01*
X61760000Y-86251000D02*
X60625000Y-86251000D01*
X64949000Y-86291000D02*
X63840000Y-86291000D01*
X61760000Y-86291000D02*
X60651000Y-86291000D01*
X64922000Y-86331000D02*
X63840000Y-86331000D01*
X61760000Y-86331000D02*
X60678000Y-86331000D01*
X64895000Y-86371000D02*
X63840000Y-86371000D01*
X61760000Y-86371000D02*
X60705000Y-86371000D01*
X64865000Y-86411000D02*
X63840000Y-86411000D01*
X61760000Y-86411000D02*
X60735000Y-86411000D01*
X64835000Y-86451000D02*
X63840000Y-86451000D01*
X61760000Y-86451000D02*
X60765000Y-86451000D01*
X64804000Y-86491000D02*
X63840000Y-86491000D01*
X61760000Y-86491000D02*
X60796000Y-86491000D01*
X64771000Y-86531000D02*
X63840000Y-86531000D01*
X61760000Y-86531000D02*
X60829000Y-86531000D01*
X64737000Y-86571000D02*
X63840000Y-86571000D01*
X61760000Y-86571000D02*
X60863000Y-86571000D01*
X64701000Y-86611000D02*
X63840000Y-86611000D01*
X61760000Y-86611000D02*
X60899000Y-86611000D01*
X64664000Y-86651000D02*
X63840000Y-86651000D01*
X61760000Y-86651000D02*
X60936000Y-86651000D01*
X64626000Y-86691000D02*
X63840000Y-86691000D01*
X61760000Y-86691000D02*
X60974000Y-86691000D01*
X64585000Y-86731000D02*
X63840000Y-86731000D01*
X61760000Y-86731000D02*
X61015000Y-86731000D01*
X64543000Y-86771000D02*
X63840000Y-86771000D01*
X61760000Y-86771000D02*
X61057000Y-86771000D01*
X64499000Y-86811000D02*
X63840000Y-86811000D01*
X61760000Y-86811000D02*
X61101000Y-86811000D01*
X64453000Y-86851000D02*
X63840000Y-86851000D01*
X61760000Y-86851000D02*
X61147000Y-86851000D01*
X64405000Y-86891000D02*
X63840000Y-86891000D01*
X61760000Y-86891000D02*
X61195000Y-86891000D01*
X64354000Y-86931000D02*
X63840000Y-86931000D01*
X61760000Y-86931000D02*
X61246000Y-86931000D01*
X64300000Y-86971000D02*
X63840000Y-86971000D01*
X61760000Y-86971000D02*
X61300000Y-86971000D01*
X64243000Y-87011000D02*
X63840000Y-87011000D01*
X61760000Y-87011000D02*
X61357000Y-87011000D01*
X64183000Y-87051000D02*
X63840000Y-87051000D01*
X61760000Y-87051000D02*
X61417000Y-87051000D01*
X64119000Y-87091000D02*
X63840000Y-87091000D01*
X61760000Y-87091000D02*
X61481000Y-87091000D01*
X64051000Y-87131000D02*
X63840000Y-87131000D01*
X61760000Y-87131000D02*
X61549000Y-87131000D01*
X63978000Y-87171000D02*
X61622000Y-87171000D01*
X63898000Y-87211000D02*
X61702000Y-87211000D01*
X63811000Y-87251000D02*
X61789000Y-87251000D01*
X63715000Y-87291000D02*
X61885000Y-87291000D01*
X63605000Y-87331000D02*
X61995000Y-87331000D01*
X63477000Y-87371000D02*
X62123000Y-87371000D01*
X63318000Y-87411000D02*
X62282000Y-87411000D01*
X63084000Y-87451000D02*
X62516000Y-87451000D01*
X64275000Y-82045225D02*
X64275000Y-82545225D01*
X64525000Y-82295225D02*
X64025000Y-82295225D01*
X93360000Y-103170000D02*
X93360000Y-100230000D01*
X93120000Y-103170000D02*
X93120000Y-100230000D01*
X93240000Y-103170000D02*
X93240000Y-100230000D01*
X87680000Y-101700000D02*
X88700000Y-101700000D01*
X95160000Y-101700000D02*
X94140000Y-101700000D01*
X88700000Y-103170000D02*
X94140000Y-103170000D01*
X88700000Y-100230000D02*
X88700000Y-103170000D01*
X94140000Y-100230000D02*
X88700000Y-100230000D01*
X94140000Y-103170000D02*
X94140000Y-100230000D01*
X89440000Y-96330000D02*
X89440000Y-99270000D01*
X89680000Y-96330000D02*
X89680000Y-99270000D01*
X89560000Y-96330000D02*
X89560000Y-99270000D01*
X95120000Y-97800000D02*
X94100000Y-97800000D01*
X87640000Y-97800000D02*
X88660000Y-97800000D01*
X94100000Y-96330000D02*
X88660000Y-96330000D01*
X94100000Y-99270000D02*
X94100000Y-96330000D01*
X88660000Y-99270000D02*
X94100000Y-99270000D01*
X88660000Y-96330000D02*
X88660000Y-99270000D01*
X120540000Y-74830000D02*
X120540000Y-77770000D01*
X120780000Y-74830000D02*
X120780000Y-77770000D01*
X120660000Y-74830000D02*
X120660000Y-77770000D01*
X126220000Y-76300000D02*
X125200000Y-76300000D01*
X118740000Y-76300000D02*
X119760000Y-76300000D01*
X125200000Y-74830000D02*
X119760000Y-74830000D01*
X125200000Y-77770000D02*
X125200000Y-74830000D01*
X119760000Y-77770000D02*
X125200000Y-77770000D01*
X119760000Y-74830000D02*
X119760000Y-77770000D01*
X131660000Y-86070000D02*
X131660000Y-83130000D01*
X131420000Y-86070000D02*
X131420000Y-83130000D01*
X131540000Y-86070000D02*
X131540000Y-83130000D01*
X125980000Y-84600000D02*
X127000000Y-84600000D01*
X133460000Y-84600000D02*
X132440000Y-84600000D01*
X127000000Y-86070000D02*
X132440000Y-86070000D01*
X127000000Y-83130000D02*
X127000000Y-86070000D01*
X132440000Y-83130000D02*
X127000000Y-83130000D01*
X132440000Y-86070000D02*
X132440000Y-83130000D01*
D13*
X138600000Y-120144000D02*
X138600000Y-122176000D01*
D12*
X125100000Y-125120000D02*
X140100000Y-125120000D01*
X125100000Y-117120000D02*
X125100000Y-125120000D01*
X140100000Y-117120000D02*
X125100000Y-117120000D01*
X140100000Y-125120000D02*
X140100000Y-117120000D01*
D13*
X61400000Y-122176000D02*
X61400000Y-120144000D01*
D12*
X74900000Y-117200000D02*
X59900000Y-117200000D01*
X74900000Y-125200000D02*
X74900000Y-117200000D01*
X59900000Y-125200000D02*
X74900000Y-125200000D01*
X59900000Y-117200000D02*
X59900000Y-125200000D01*
D11*
X108487736Y-102842383D02*
G75*
G02X107900000Y-102450000I1112264J2302383D01*
G01*
X110698807Y-102896400D02*
G75*
G03X112200000Y-100540000I-1098807J2356400D01*
G01*
X110698807Y-98183600D02*
G75*
G02X112200000Y-100540000I-1098807J-2356400D01*
G01*
X108477955Y-98217369D02*
G75*
G03X107900000Y-98600000I1122045J-2322631D01*
G01*
X107900000Y-98600000D02*
X107900000Y-102450000D01*
X106812264Y-98257617D02*
G75*
G02X107400000Y-98650000I-1112264J-2302383D01*
G01*
X104601193Y-98203600D02*
G75*
G03X103100000Y-100560000I1098807J-2356400D01*
G01*
X104601193Y-102916400D02*
G75*
G02X103100000Y-100560000I1098807J2356400D01*
G01*
X106822045Y-102882631D02*
G75*
G03X107400000Y-102500000I-1122045J2322631D01*
G01*
X107400000Y-102500000D02*
X107400000Y-98650000D01*
X91950000Y-80900000D02*
G75*
G03X91950000Y-80900000I-950000J0D01*
G01*
X64450000Y-98130000D02*
X64450000Y-94530000D01*
X64438478Y-98168478D02*
G75*
G02X60000000Y-96330000I-1838478J1838478D01*
G01*
X64438478Y-94491522D02*
G75*
G03X60000000Y-96330000I-1838478J-1838478D01*
G01*
X137345000Y-100270000D02*
X136679000Y-100270000D01*
X140121000Y-100270000D02*
X139455000Y-100270000D01*
X137345000Y-94930000D02*
X136679000Y-94930000D01*
X140121000Y-94930000D02*
X139455000Y-94930000D01*
X136679000Y-94930000D02*
X136679000Y-100270000D01*
X140121000Y-94930000D02*
X140121000Y-100270000D01*
X118780000Y-105270000D02*
X118780000Y-102530000D01*
X126020000Y-105270000D02*
X126020000Y-102530000D01*
X126020000Y-102530000D02*
X118780000Y-102530000D01*
X126020000Y-105270000D02*
X118780000Y-105270000D01*
X115230000Y-90760000D02*
X115230000Y-89110000D01*
X97330000Y-90760000D02*
X115230000Y-90760000D01*
X97330000Y-85460000D02*
X97330000Y-90760000D01*
X115230000Y-85460000D02*
X97330000Y-85460000D01*
X115230000Y-87110000D02*
X115230000Y-85460000D01*
X115230000Y-89110000D02*
G75*
G02X115230000Y-87110000I0J1000000D01*
G01*
X115870000Y-88540000D02*
X115870000Y-90190000D01*
X133770000Y-88540000D02*
X115870000Y-88540000D01*
X133770000Y-93840000D02*
X133770000Y-88540000D01*
X115870000Y-93840000D02*
X133770000Y-93840000D01*
X115870000Y-92190000D02*
X115870000Y-93840000D01*
X115870000Y-90190000D02*
G75*
G02X115870000Y-92190000I0J-1000000D01*
G01*
X98170000Y-106540000D02*
X98170000Y-108190000D01*
X118610000Y-106540000D02*
X98170000Y-106540000D01*
X118610000Y-111840000D02*
X118610000Y-106540000D01*
X98170000Y-111840000D02*
X118610000Y-111840000D01*
X98170000Y-110190000D02*
X98170000Y-111840000D01*
X98170000Y-108190000D02*
G75*
G02X98170000Y-110190000I0J-1000000D01*
G01*
X68270000Y-92890000D02*
G75*
G02X68270000Y-94890000I0J-1000000D01*
G01*
X68270000Y-94890000D02*
X68270000Y-96540000D01*
X68270000Y-96540000D02*
X78550000Y-96540000D01*
X78550000Y-96540000D02*
X78550000Y-91240000D01*
X78550000Y-91240000D02*
X68270000Y-91240000D01*
X68270000Y-91240000D02*
X68270000Y-92890000D01*
X75770000Y-116340000D02*
X75770000Y-117990000D01*
X86050000Y-116340000D02*
X75770000Y-116340000D01*
X86050000Y-121640000D02*
X86050000Y-116340000D01*
X75770000Y-121640000D02*
X86050000Y-121640000D01*
X75770000Y-119990000D02*
X75770000Y-121640000D01*
X75770000Y-117990000D02*
G75*
G02X75770000Y-119990000I0J-1000000D01*
G01*
X124030000Y-121760000D02*
X124030000Y-120110000D01*
X113750000Y-121760000D02*
X124030000Y-121760000D01*
X113750000Y-116460000D02*
X113750000Y-121760000D01*
X124030000Y-116460000D02*
X113750000Y-116460000D01*
X124030000Y-118110000D02*
X124030000Y-116460000D01*
X124030000Y-120110000D02*
G75*
G02X124030000Y-118110000I0J1000000D01*
G01*
X81050000Y-90000000D02*
G75*
G03X81050000Y-90000000I-950000J0D01*
G01*
X62950000Y-106800000D02*
G75*
G03X62950000Y-106800000I-950000J0D01*
G01*
X85750000Y-111900000D02*
G75*
G03X85750000Y-111900000I-950000J0D01*
G01*
X89250000Y-94100000D02*
G75*
G03X89250000Y-94100000I-950000J0D01*
G01*
X62350000Y-127100000D02*
G75*
G03X62350000Y-127100000I-950000J0D01*
G01*
X104650000Y-94400000D02*
G75*
G03X104650000Y-94400000I-950000J0D01*
G01*
X139250000Y-102500000D02*
G75*
G03X139250000Y-102500000I-950000J0D01*
G01*
D12*
X119050000Y-153305000D02*
X80950000Y-153305000D01*
X119050000Y-153305000D02*
X119050000Y-124095000D01*
X119050000Y-124095000D02*
X112700000Y-124095000D01*
X112700000Y-124095000D02*
X87300000Y-124095000D01*
X87300000Y-124095000D02*
X80950000Y-124095000D01*
X80950000Y-124095000D02*
X80950000Y-153305000D01*
X117780000Y-152035000D02*
X82220000Y-152035000D01*
X82220000Y-152035000D02*
X82220000Y-125365000D01*
X82220000Y-125365000D02*
X117780000Y-125365000D01*
X117780000Y-125365000D02*
X117780000Y-152035000D01*
X112700000Y-124095000D02*
X112700000Y-121555000D01*
X112700000Y-121555000D02*
X87300000Y-121555000D01*
X87300000Y-121555000D02*
X87300000Y-124095000D01*
D11*
X64340000Y-110730000D02*
X64340000Y-113670000D01*
X64580000Y-110730000D02*
X64580000Y-113670000D01*
X64460000Y-110730000D02*
X64460000Y-113670000D01*
X70020000Y-112200000D02*
X69000000Y-112200000D01*
X62540000Y-112200000D02*
X63560000Y-112200000D01*
X69000000Y-110730000D02*
X63560000Y-110730000D01*
X69000000Y-113670000D02*
X69000000Y-110730000D01*
X63560000Y-113670000D02*
X69000000Y-113670000D01*
X63560000Y-110730000D02*
X63560000Y-113670000D01*
X71710000Y-127555000D02*
X71710000Y-130645000D01*
X76770000Y-129100000D02*
G75*
G03X76770000Y-129100000I-2500000J0D01*
G01*
X77260000Y-129099538D02*
G75*
G02X71710000Y-130644830I-2990000J-462D01*
G01*
X77260000Y-129100462D02*
G75*
G03X71710000Y-127555170I-2990000J462D01*
G01*
X64340000Y-114030000D02*
X64340000Y-116970000D01*
X64580000Y-114030000D02*
X64580000Y-116970000D01*
X64460000Y-114030000D02*
X64460000Y-116970000D01*
X70020000Y-115500000D02*
X69000000Y-115500000D01*
X62540000Y-115500000D02*
X63560000Y-115500000D01*
X69000000Y-114030000D02*
X63560000Y-114030000D01*
X69000000Y-116970000D02*
X69000000Y-114030000D01*
X63560000Y-116970000D02*
X69000000Y-116970000D01*
X63560000Y-114030000D02*
X63560000Y-116970000D01*
X128290000Y-130745000D02*
X128290000Y-127655000D01*
X128230000Y-129200000D02*
G75*
G03X128230000Y-129200000I-2500000J0D01*
G01*
X122740000Y-129200462D02*
G75*
G02X128290000Y-127655170I2990000J462D01*
G01*
X122740000Y-129199538D02*
G75*
G03X128290000Y-130744830I2990000J-462D01*
G01*
X135560000Y-116770000D02*
X135560000Y-113830000D01*
X135320000Y-116770000D02*
X135320000Y-113830000D01*
X135440000Y-116770000D02*
X135440000Y-113830000D01*
X129880000Y-115300000D02*
X130900000Y-115300000D01*
X137360000Y-115300000D02*
X136340000Y-115300000D01*
X130900000Y-116770000D02*
X136340000Y-116770000D01*
X130900000Y-113830000D02*
X130900000Y-116770000D01*
X136340000Y-113830000D02*
X130900000Y-113830000D01*
X136340000Y-116770000D02*
X136340000Y-113830000D01*
X135560000Y-113470000D02*
X135560000Y-110530000D01*
X135320000Y-113470000D02*
X135320000Y-110530000D01*
X135440000Y-113470000D02*
X135440000Y-110530000D01*
X129880000Y-112000000D02*
X130900000Y-112000000D01*
X137360000Y-112000000D02*
X136340000Y-112000000D01*
X130900000Y-113470000D02*
X136340000Y-113470000D01*
X130900000Y-110530000D02*
X130900000Y-113470000D01*
X136340000Y-110530000D02*
X130900000Y-110530000D01*
X136340000Y-113470000D02*
X136340000Y-110530000D01*
X78870000Y-86100000D02*
G75*
G03X78870000Y-86100000I-2620000J0D01*
G01*
X76250000Y-83520000D02*
X76250000Y-88680000D01*
X76290000Y-83520000D02*
X76290000Y-88680000D01*
X76330000Y-83521000D02*
X76330000Y-88679000D01*
X76370000Y-83522000D02*
X76370000Y-88678000D01*
X76410000Y-83524000D02*
X76410000Y-88676000D01*
X76450000Y-83527000D02*
X76450000Y-88673000D01*
X76490000Y-83531000D02*
X76490000Y-85060000D01*
X76490000Y-87140000D02*
X76490000Y-88669000D01*
X76530000Y-83535000D02*
X76530000Y-85060000D01*
X76530000Y-87140000D02*
X76530000Y-88665000D01*
X76570000Y-83539000D02*
X76570000Y-85060000D01*
X76570000Y-87140000D02*
X76570000Y-88661000D01*
X76610000Y-83544000D02*
X76610000Y-85060000D01*
X76610000Y-87140000D02*
X76610000Y-88656000D01*
X76650000Y-83550000D02*
X76650000Y-85060000D01*
X76650000Y-87140000D02*
X76650000Y-88650000D01*
X76690000Y-83557000D02*
X76690000Y-85060000D01*
X76690000Y-87140000D02*
X76690000Y-88643000D01*
X76730000Y-83564000D02*
X76730000Y-85060000D01*
X76730000Y-87140000D02*
X76730000Y-88636000D01*
X76770000Y-83572000D02*
X76770000Y-85060000D01*
X76770000Y-87140000D02*
X76770000Y-88628000D01*
X76810000Y-83580000D02*
X76810000Y-85060000D01*
X76810000Y-87140000D02*
X76810000Y-88620000D01*
X76850000Y-83589000D02*
X76850000Y-85060000D01*
X76850000Y-87140000D02*
X76850000Y-88611000D01*
X76890000Y-83599000D02*
X76890000Y-85060000D01*
X76890000Y-87140000D02*
X76890000Y-88601000D01*
X76930000Y-83609000D02*
X76930000Y-85060000D01*
X76930000Y-87140000D02*
X76930000Y-88591000D01*
X76971000Y-83620000D02*
X76971000Y-85060000D01*
X76971000Y-87140000D02*
X76971000Y-88580000D01*
X77011000Y-83632000D02*
X77011000Y-85060000D01*
X77011000Y-87140000D02*
X77011000Y-88568000D01*
X77051000Y-83645000D02*
X77051000Y-85060000D01*
X77051000Y-87140000D02*
X77051000Y-88555000D01*
X77091000Y-83658000D02*
X77091000Y-85060000D01*
X77091000Y-87140000D02*
X77091000Y-88542000D01*
X77131000Y-83672000D02*
X77131000Y-85060000D01*
X77131000Y-87140000D02*
X77131000Y-88528000D01*
X77171000Y-83686000D02*
X77171000Y-85060000D01*
X77171000Y-87140000D02*
X77171000Y-88514000D01*
X77211000Y-83702000D02*
X77211000Y-85060000D01*
X77211000Y-87140000D02*
X77211000Y-88498000D01*
X77251000Y-83718000D02*
X77251000Y-85060000D01*
X77251000Y-87140000D02*
X77251000Y-88482000D01*
X77291000Y-83735000D02*
X77291000Y-85060000D01*
X77291000Y-87140000D02*
X77291000Y-88465000D01*
X77331000Y-83752000D02*
X77331000Y-85060000D01*
X77331000Y-87140000D02*
X77331000Y-88448000D01*
X77371000Y-83771000D02*
X77371000Y-85060000D01*
X77371000Y-87140000D02*
X77371000Y-88429000D01*
X77411000Y-83790000D02*
X77411000Y-85060000D01*
X77411000Y-87140000D02*
X77411000Y-88410000D01*
X77451000Y-83810000D02*
X77451000Y-85060000D01*
X77451000Y-87140000D02*
X77451000Y-88390000D01*
X77491000Y-83832000D02*
X77491000Y-85060000D01*
X77491000Y-87140000D02*
X77491000Y-88368000D01*
X77531000Y-83853000D02*
X77531000Y-85060000D01*
X77531000Y-87140000D02*
X77531000Y-88347000D01*
X77571000Y-83876000D02*
X77571000Y-85060000D01*
X77571000Y-87140000D02*
X77571000Y-88324000D01*
X77611000Y-83900000D02*
X77611000Y-85060000D01*
X77611000Y-87140000D02*
X77611000Y-88300000D01*
X77651000Y-83925000D02*
X77651000Y-85060000D01*
X77651000Y-87140000D02*
X77651000Y-88275000D01*
X77691000Y-83951000D02*
X77691000Y-85060000D01*
X77691000Y-87140000D02*
X77691000Y-88249000D01*
X77731000Y-83978000D02*
X77731000Y-85060000D01*
X77731000Y-87140000D02*
X77731000Y-88222000D01*
X77771000Y-84005000D02*
X77771000Y-85060000D01*
X77771000Y-87140000D02*
X77771000Y-88195000D01*
X77811000Y-84035000D02*
X77811000Y-85060000D01*
X77811000Y-87140000D02*
X77811000Y-88165000D01*
X77851000Y-84065000D02*
X77851000Y-85060000D01*
X77851000Y-87140000D02*
X77851000Y-88135000D01*
X77891000Y-84096000D02*
X77891000Y-85060000D01*
X77891000Y-87140000D02*
X77891000Y-88104000D01*
X77931000Y-84129000D02*
X77931000Y-85060000D01*
X77931000Y-87140000D02*
X77931000Y-88071000D01*
X77971000Y-84163000D02*
X77971000Y-85060000D01*
X77971000Y-87140000D02*
X77971000Y-88037000D01*
X78011000Y-84199000D02*
X78011000Y-85060000D01*
X78011000Y-87140000D02*
X78011000Y-88001000D01*
X78051000Y-84236000D02*
X78051000Y-85060000D01*
X78051000Y-87140000D02*
X78051000Y-87964000D01*
X78091000Y-84274000D02*
X78091000Y-85060000D01*
X78091000Y-87140000D02*
X78091000Y-87926000D01*
X78131000Y-84315000D02*
X78131000Y-85060000D01*
X78131000Y-87140000D02*
X78131000Y-87885000D01*
X78171000Y-84357000D02*
X78171000Y-85060000D01*
X78171000Y-87140000D02*
X78171000Y-87843000D01*
X78211000Y-84401000D02*
X78211000Y-85060000D01*
X78211000Y-87140000D02*
X78211000Y-87799000D01*
X78251000Y-84447000D02*
X78251000Y-85060000D01*
X78251000Y-87140000D02*
X78251000Y-87753000D01*
X78291000Y-84495000D02*
X78291000Y-85060000D01*
X78291000Y-87140000D02*
X78291000Y-87705000D01*
X78331000Y-84546000D02*
X78331000Y-85060000D01*
X78331000Y-87140000D02*
X78331000Y-87654000D01*
X78371000Y-84600000D02*
X78371000Y-85060000D01*
X78371000Y-87140000D02*
X78371000Y-87600000D01*
X78411000Y-84657000D02*
X78411000Y-85060000D01*
X78411000Y-87140000D02*
X78411000Y-87543000D01*
X78451000Y-84717000D02*
X78451000Y-85060000D01*
X78451000Y-87140000D02*
X78451000Y-87483000D01*
X78491000Y-84781000D02*
X78491000Y-85060000D01*
X78491000Y-87140000D02*
X78491000Y-87419000D01*
X78531000Y-84849000D02*
X78531000Y-85060000D01*
X78531000Y-87140000D02*
X78531000Y-87351000D01*
X78571000Y-84922000D02*
X78571000Y-87278000D01*
X78611000Y-85002000D02*
X78611000Y-87198000D01*
X78651000Y-85089000D02*
X78651000Y-87111000D01*
X78691000Y-85185000D02*
X78691000Y-87015000D01*
X78731000Y-85295000D02*
X78731000Y-86905000D01*
X78771000Y-85423000D02*
X78771000Y-86777000D01*
X78811000Y-85582000D02*
X78811000Y-86618000D01*
X78851000Y-85816000D02*
X78851000Y-86384000D01*
X73445225Y-84625000D02*
X73945225Y-84625000D01*
X73695225Y-84375000D02*
X73695225Y-84875000D01*
X65220000Y-101900000D02*
G75*
G03X65220000Y-101900000I-2620000J0D01*
G01*
X61560000Y-101900000D02*
X60020000Y-101900000D01*
X65180000Y-101900000D02*
X63640000Y-101900000D01*
X61560000Y-101940000D02*
X60020000Y-101940000D01*
X65180000Y-101940000D02*
X63640000Y-101940000D01*
X65179000Y-101980000D02*
X63640000Y-101980000D01*
X61560000Y-101980000D02*
X60021000Y-101980000D01*
X65178000Y-102020000D02*
X63640000Y-102020000D01*
X61560000Y-102020000D02*
X60022000Y-102020000D01*
X65176000Y-102060000D02*
X63640000Y-102060000D01*
X61560000Y-102060000D02*
X60024000Y-102060000D01*
X65173000Y-102100000D02*
X63640000Y-102100000D01*
X61560000Y-102100000D02*
X60027000Y-102100000D01*
X65169000Y-102140000D02*
X63640000Y-102140000D01*
X61560000Y-102140000D02*
X60031000Y-102140000D01*
X65165000Y-102180000D02*
X63640000Y-102180000D01*
X61560000Y-102180000D02*
X60035000Y-102180000D01*
X65161000Y-102220000D02*
X63640000Y-102220000D01*
X61560000Y-102220000D02*
X60039000Y-102220000D01*
X65156000Y-102260000D02*
X63640000Y-102260000D01*
X61560000Y-102260000D02*
X60044000Y-102260000D01*
X65150000Y-102300000D02*
X63640000Y-102300000D01*
X61560000Y-102300000D02*
X60050000Y-102300000D01*
X65143000Y-102340000D02*
X63640000Y-102340000D01*
X61560000Y-102340000D02*
X60057000Y-102340000D01*
X65136000Y-102380000D02*
X63640000Y-102380000D01*
X61560000Y-102380000D02*
X60064000Y-102380000D01*
X65128000Y-102420000D02*
X63640000Y-102420000D01*
X61560000Y-102420000D02*
X60072000Y-102420000D01*
X65120000Y-102460000D02*
X63640000Y-102460000D01*
X61560000Y-102460000D02*
X60080000Y-102460000D01*
X65111000Y-102500000D02*
X63640000Y-102500000D01*
X61560000Y-102500000D02*
X60089000Y-102500000D01*
X65101000Y-102540000D02*
X63640000Y-102540000D01*
X61560000Y-102540000D02*
X60099000Y-102540000D01*
X65091000Y-102580000D02*
X63640000Y-102580000D01*
X61560000Y-102580000D02*
X60109000Y-102580000D01*
X65080000Y-102621000D02*
X63640000Y-102621000D01*
X61560000Y-102621000D02*
X60120000Y-102621000D01*
X65068000Y-102661000D02*
X63640000Y-102661000D01*
X61560000Y-102661000D02*
X60132000Y-102661000D01*
X65055000Y-102701000D02*
X63640000Y-102701000D01*
X61560000Y-102701000D02*
X60145000Y-102701000D01*
X65042000Y-102741000D02*
X63640000Y-102741000D01*
X61560000Y-102741000D02*
X60158000Y-102741000D01*
X65028000Y-102781000D02*
X63640000Y-102781000D01*
X61560000Y-102781000D02*
X60172000Y-102781000D01*
X65014000Y-102821000D02*
X63640000Y-102821000D01*
X61560000Y-102821000D02*
X60186000Y-102821000D01*
X64998000Y-102861000D02*
X63640000Y-102861000D01*
X61560000Y-102861000D02*
X60202000Y-102861000D01*
X64982000Y-102901000D02*
X63640000Y-102901000D01*
X61560000Y-102901000D02*
X60218000Y-102901000D01*
X64965000Y-102941000D02*
X63640000Y-102941000D01*
X61560000Y-102941000D02*
X60235000Y-102941000D01*
X64948000Y-102981000D02*
X63640000Y-102981000D01*
X61560000Y-102981000D02*
X60252000Y-102981000D01*
X64929000Y-103021000D02*
X63640000Y-103021000D01*
X61560000Y-103021000D02*
X60271000Y-103021000D01*
X64910000Y-103061000D02*
X63640000Y-103061000D01*
X61560000Y-103061000D02*
X60290000Y-103061000D01*
X64890000Y-103101000D02*
X63640000Y-103101000D01*
X61560000Y-103101000D02*
X60310000Y-103101000D01*
X64868000Y-103141000D02*
X63640000Y-103141000D01*
X61560000Y-103141000D02*
X60332000Y-103141000D01*
X64847000Y-103181000D02*
X63640000Y-103181000D01*
X61560000Y-103181000D02*
X60353000Y-103181000D01*
X64824000Y-103221000D02*
X63640000Y-103221000D01*
X61560000Y-103221000D02*
X60376000Y-103221000D01*
X64800000Y-103261000D02*
X63640000Y-103261000D01*
X61560000Y-103261000D02*
X60400000Y-103261000D01*
X64775000Y-103301000D02*
X63640000Y-103301000D01*
X61560000Y-103301000D02*
X60425000Y-103301000D01*
X64749000Y-103341000D02*
X63640000Y-103341000D01*
X61560000Y-103341000D02*
X60451000Y-103341000D01*
X64722000Y-103381000D02*
X63640000Y-103381000D01*
X61560000Y-103381000D02*
X60478000Y-103381000D01*
X64695000Y-103421000D02*
X63640000Y-103421000D01*
X61560000Y-103421000D02*
X60505000Y-103421000D01*
X64665000Y-103461000D02*
X63640000Y-103461000D01*
X61560000Y-103461000D02*
X60535000Y-103461000D01*
X64635000Y-103501000D02*
X63640000Y-103501000D01*
X61560000Y-103501000D02*
X60565000Y-103501000D01*
X64604000Y-103541000D02*
X63640000Y-103541000D01*
X61560000Y-103541000D02*
X60596000Y-103541000D01*
X64571000Y-103581000D02*
X63640000Y-103581000D01*
X61560000Y-103581000D02*
X60629000Y-103581000D01*
X64537000Y-103621000D02*
X63640000Y-103621000D01*
X61560000Y-103621000D02*
X60663000Y-103621000D01*
X64501000Y-103661000D02*
X63640000Y-103661000D01*
X61560000Y-103661000D02*
X60699000Y-103661000D01*
X64464000Y-103701000D02*
X63640000Y-103701000D01*
X61560000Y-103701000D02*
X60736000Y-103701000D01*
X64426000Y-103741000D02*
X63640000Y-103741000D01*
X61560000Y-103741000D02*
X60774000Y-103741000D01*
X64385000Y-103781000D02*
X63640000Y-103781000D01*
X61560000Y-103781000D02*
X60815000Y-103781000D01*
X64343000Y-103821000D02*
X63640000Y-103821000D01*
X61560000Y-103821000D02*
X60857000Y-103821000D01*
X64299000Y-103861000D02*
X63640000Y-103861000D01*
X61560000Y-103861000D02*
X60901000Y-103861000D01*
X64253000Y-103901000D02*
X63640000Y-103901000D01*
X61560000Y-103901000D02*
X60947000Y-103901000D01*
X64205000Y-103941000D02*
X60995000Y-103941000D01*
X64154000Y-103981000D02*
X61046000Y-103981000D01*
X64100000Y-104021000D02*
X61100000Y-104021000D01*
X64043000Y-104061000D02*
X61157000Y-104061000D01*
X63983000Y-104101000D02*
X61217000Y-104101000D01*
X63919000Y-104141000D02*
X61281000Y-104141000D01*
X63851000Y-104181000D02*
X61349000Y-104181000D01*
X63778000Y-104221000D02*
X61422000Y-104221000D01*
X63698000Y-104261000D02*
X61502000Y-104261000D01*
X63611000Y-104301000D02*
X61589000Y-104301000D01*
X63515000Y-104341000D02*
X61685000Y-104341000D01*
X63405000Y-104381000D02*
X61795000Y-104381000D01*
X63277000Y-104421000D02*
X61923000Y-104421000D01*
X63118000Y-104461000D02*
X62082000Y-104461000D01*
X62884000Y-104501000D02*
X62316000Y-104501000D01*
X64075000Y-99095225D02*
X64075000Y-99595225D01*
X64325000Y-99345225D02*
X63825000Y-99345225D01*
X73570000Y-101600000D02*
G75*
G03X73570000Y-101600000I-2620000J0D01*
G01*
X70950000Y-99020000D02*
X70950000Y-104180000D01*
X70990000Y-99020000D02*
X70990000Y-104180000D01*
X71030000Y-99021000D02*
X71030000Y-104179000D01*
X71070000Y-99022000D02*
X71070000Y-104178000D01*
X71110000Y-99024000D02*
X71110000Y-104176000D01*
X71150000Y-99027000D02*
X71150000Y-104173000D01*
X71190000Y-99031000D02*
X71190000Y-100560000D01*
X71190000Y-102640000D02*
X71190000Y-104169000D01*
X71230000Y-99035000D02*
X71230000Y-100560000D01*
X71230000Y-102640000D02*
X71230000Y-104165000D01*
X71270000Y-99039000D02*
X71270000Y-100560000D01*
X71270000Y-102640000D02*
X71270000Y-104161000D01*
X71310000Y-99044000D02*
X71310000Y-100560000D01*
X71310000Y-102640000D02*
X71310000Y-104156000D01*
X71350000Y-99050000D02*
X71350000Y-100560000D01*
X71350000Y-102640000D02*
X71350000Y-104150000D01*
X71390000Y-99057000D02*
X71390000Y-100560000D01*
X71390000Y-102640000D02*
X71390000Y-104143000D01*
X71430000Y-99064000D02*
X71430000Y-100560000D01*
X71430000Y-102640000D02*
X71430000Y-104136000D01*
X71470000Y-99072000D02*
X71470000Y-100560000D01*
X71470000Y-102640000D02*
X71470000Y-104128000D01*
X71510000Y-99080000D02*
X71510000Y-100560000D01*
X71510000Y-102640000D02*
X71510000Y-104120000D01*
X71550000Y-99089000D02*
X71550000Y-100560000D01*
X71550000Y-102640000D02*
X71550000Y-104111000D01*
X71590000Y-99099000D02*
X71590000Y-100560000D01*
X71590000Y-102640000D02*
X71590000Y-104101000D01*
X71630000Y-99109000D02*
X71630000Y-100560000D01*
X71630000Y-102640000D02*
X71630000Y-104091000D01*
X71671000Y-99120000D02*
X71671000Y-100560000D01*
X71671000Y-102640000D02*
X71671000Y-104080000D01*
X71711000Y-99132000D02*
X71711000Y-100560000D01*
X71711000Y-102640000D02*
X71711000Y-104068000D01*
X71751000Y-99145000D02*
X71751000Y-100560000D01*
X71751000Y-102640000D02*
X71751000Y-104055000D01*
X71791000Y-99158000D02*
X71791000Y-100560000D01*
X71791000Y-102640000D02*
X71791000Y-104042000D01*
X71831000Y-99172000D02*
X71831000Y-100560000D01*
X71831000Y-102640000D02*
X71831000Y-104028000D01*
X71871000Y-99186000D02*
X71871000Y-100560000D01*
X71871000Y-102640000D02*
X71871000Y-104014000D01*
X71911000Y-99202000D02*
X71911000Y-100560000D01*
X71911000Y-102640000D02*
X71911000Y-103998000D01*
X71951000Y-99218000D02*
X71951000Y-100560000D01*
X71951000Y-102640000D02*
X71951000Y-103982000D01*
X71991000Y-99235000D02*
X71991000Y-100560000D01*
X71991000Y-102640000D02*
X71991000Y-103965000D01*
X72031000Y-99252000D02*
X72031000Y-100560000D01*
X72031000Y-102640000D02*
X72031000Y-103948000D01*
X72071000Y-99271000D02*
X72071000Y-100560000D01*
X72071000Y-102640000D02*
X72071000Y-103929000D01*
X72111000Y-99290000D02*
X72111000Y-100560000D01*
X72111000Y-102640000D02*
X72111000Y-103910000D01*
X72151000Y-99310000D02*
X72151000Y-100560000D01*
X72151000Y-102640000D02*
X72151000Y-103890000D01*
X72191000Y-99332000D02*
X72191000Y-100560000D01*
X72191000Y-102640000D02*
X72191000Y-103868000D01*
X72231000Y-99353000D02*
X72231000Y-100560000D01*
X72231000Y-102640000D02*
X72231000Y-103847000D01*
X72271000Y-99376000D02*
X72271000Y-100560000D01*
X72271000Y-102640000D02*
X72271000Y-103824000D01*
X72311000Y-99400000D02*
X72311000Y-100560000D01*
X72311000Y-102640000D02*
X72311000Y-103800000D01*
X72351000Y-99425000D02*
X72351000Y-100560000D01*
X72351000Y-102640000D02*
X72351000Y-103775000D01*
X72391000Y-99451000D02*
X72391000Y-100560000D01*
X72391000Y-102640000D02*
X72391000Y-103749000D01*
X72431000Y-99478000D02*
X72431000Y-100560000D01*
X72431000Y-102640000D02*
X72431000Y-103722000D01*
X72471000Y-99505000D02*
X72471000Y-100560000D01*
X72471000Y-102640000D02*
X72471000Y-103695000D01*
X72511000Y-99535000D02*
X72511000Y-100560000D01*
X72511000Y-102640000D02*
X72511000Y-103665000D01*
X72551000Y-99565000D02*
X72551000Y-100560000D01*
X72551000Y-102640000D02*
X72551000Y-103635000D01*
X72591000Y-99596000D02*
X72591000Y-100560000D01*
X72591000Y-102640000D02*
X72591000Y-103604000D01*
X72631000Y-99629000D02*
X72631000Y-100560000D01*
X72631000Y-102640000D02*
X72631000Y-103571000D01*
X72671000Y-99663000D02*
X72671000Y-100560000D01*
X72671000Y-102640000D02*
X72671000Y-103537000D01*
X72711000Y-99699000D02*
X72711000Y-100560000D01*
X72711000Y-102640000D02*
X72711000Y-103501000D01*
X72751000Y-99736000D02*
X72751000Y-100560000D01*
X72751000Y-102640000D02*
X72751000Y-103464000D01*
X72791000Y-99774000D02*
X72791000Y-100560000D01*
X72791000Y-102640000D02*
X72791000Y-103426000D01*
X72831000Y-99815000D02*
X72831000Y-100560000D01*
X72831000Y-102640000D02*
X72831000Y-103385000D01*
X72871000Y-99857000D02*
X72871000Y-100560000D01*
X72871000Y-102640000D02*
X72871000Y-103343000D01*
X72911000Y-99901000D02*
X72911000Y-100560000D01*
X72911000Y-102640000D02*
X72911000Y-103299000D01*
X72951000Y-99947000D02*
X72951000Y-100560000D01*
X72951000Y-102640000D02*
X72951000Y-103253000D01*
X72991000Y-99995000D02*
X72991000Y-100560000D01*
X72991000Y-102640000D02*
X72991000Y-103205000D01*
X73031000Y-100046000D02*
X73031000Y-100560000D01*
X73031000Y-102640000D02*
X73031000Y-103154000D01*
X73071000Y-100100000D02*
X73071000Y-100560000D01*
X73071000Y-102640000D02*
X73071000Y-103100000D01*
X73111000Y-100157000D02*
X73111000Y-100560000D01*
X73111000Y-102640000D02*
X73111000Y-103043000D01*
X73151000Y-100217000D02*
X73151000Y-100560000D01*
X73151000Y-102640000D02*
X73151000Y-102983000D01*
X73191000Y-100281000D02*
X73191000Y-100560000D01*
X73191000Y-102640000D02*
X73191000Y-102919000D01*
X73231000Y-100349000D02*
X73231000Y-100560000D01*
X73231000Y-102640000D02*
X73231000Y-102851000D01*
X73271000Y-100422000D02*
X73271000Y-102778000D01*
X73311000Y-100502000D02*
X73311000Y-102698000D01*
X73351000Y-100589000D02*
X73351000Y-102611000D01*
X73391000Y-100685000D02*
X73391000Y-102515000D01*
X73431000Y-100795000D02*
X73431000Y-102405000D01*
X73471000Y-100923000D02*
X73471000Y-102277000D01*
X73511000Y-101082000D02*
X73511000Y-102118000D01*
X73551000Y-101316000D02*
X73551000Y-101884000D01*
X68145225Y-100125000D02*
X68645225Y-100125000D01*
X68395225Y-99875000D02*
X68395225Y-100375000D01*
X65320000Y-90500000D02*
G75*
G03X65320000Y-90500000I-2620000J0D01*
G01*
X61660000Y-90500000D02*
X60120000Y-90500000D01*
X65280000Y-90500000D02*
X63740000Y-90500000D01*
X61660000Y-90540000D02*
X60120000Y-90540000D01*
X65280000Y-90540000D02*
X63740000Y-90540000D01*
X65279000Y-90580000D02*
X63740000Y-90580000D01*
X61660000Y-90580000D02*
X60121000Y-90580000D01*
X65278000Y-90620000D02*
X63740000Y-90620000D01*
X61660000Y-90620000D02*
X60122000Y-90620000D01*
X65276000Y-90660000D02*
X63740000Y-90660000D01*
X61660000Y-90660000D02*
X60124000Y-90660000D01*
X65273000Y-90700000D02*
X63740000Y-90700000D01*
X61660000Y-90700000D02*
X60127000Y-90700000D01*
X65269000Y-90740000D02*
X63740000Y-90740000D01*
X61660000Y-90740000D02*
X60131000Y-90740000D01*
X65265000Y-90780000D02*
X63740000Y-90780000D01*
X61660000Y-90780000D02*
X60135000Y-90780000D01*
X65261000Y-90820000D02*
X63740000Y-90820000D01*
X61660000Y-90820000D02*
X60139000Y-90820000D01*
X65256000Y-90860000D02*
X63740000Y-90860000D01*
X61660000Y-90860000D02*
X60144000Y-90860000D01*
X65250000Y-90900000D02*
X63740000Y-90900000D01*
X61660000Y-90900000D02*
X60150000Y-90900000D01*
X65243000Y-90940000D02*
X63740000Y-90940000D01*
X61660000Y-90940000D02*
X60157000Y-90940000D01*
X65236000Y-90980000D02*
X63740000Y-90980000D01*
X61660000Y-90980000D02*
X60164000Y-90980000D01*
X65228000Y-91020000D02*
X63740000Y-91020000D01*
X61660000Y-91020000D02*
X60172000Y-91020000D01*
X65220000Y-91060000D02*
X63740000Y-91060000D01*
X61660000Y-91060000D02*
X60180000Y-91060000D01*
X65211000Y-91100000D02*
X63740000Y-91100000D01*
X61660000Y-91100000D02*
X60189000Y-91100000D01*
X65201000Y-91140000D02*
X63740000Y-91140000D01*
X61660000Y-91140000D02*
X60199000Y-91140000D01*
X65191000Y-91180000D02*
X63740000Y-91180000D01*
X61660000Y-91180000D02*
X60209000Y-91180000D01*
X65180000Y-91221000D02*
X63740000Y-91221000D01*
X61660000Y-91221000D02*
X60220000Y-91221000D01*
X65168000Y-91261000D02*
X63740000Y-91261000D01*
X61660000Y-91261000D02*
X60232000Y-91261000D01*
X65155000Y-91301000D02*
X63740000Y-91301000D01*
X61660000Y-91301000D02*
X60245000Y-91301000D01*
X65142000Y-91341000D02*
X63740000Y-91341000D01*
X61660000Y-91341000D02*
X60258000Y-91341000D01*
X65128000Y-91381000D02*
X63740000Y-91381000D01*
X61660000Y-91381000D02*
X60272000Y-91381000D01*
X65114000Y-91421000D02*
X63740000Y-91421000D01*
X61660000Y-91421000D02*
X60286000Y-91421000D01*
X65098000Y-91461000D02*
X63740000Y-91461000D01*
X61660000Y-91461000D02*
X60302000Y-91461000D01*
X65082000Y-91501000D02*
X63740000Y-91501000D01*
X61660000Y-91501000D02*
X60318000Y-91501000D01*
X65065000Y-91541000D02*
X63740000Y-91541000D01*
X61660000Y-91541000D02*
X60335000Y-91541000D01*
X65048000Y-91581000D02*
X63740000Y-91581000D01*
X61660000Y-91581000D02*
X60352000Y-91581000D01*
X65029000Y-91621000D02*
X63740000Y-91621000D01*
X61660000Y-91621000D02*
X60371000Y-91621000D01*
X65010000Y-91661000D02*
X63740000Y-91661000D01*
X61660000Y-91661000D02*
X60390000Y-91661000D01*
X64990000Y-91701000D02*
X63740000Y-91701000D01*
X61660000Y-91701000D02*
X60410000Y-91701000D01*
X64968000Y-91741000D02*
X63740000Y-91741000D01*
X61660000Y-91741000D02*
X60432000Y-91741000D01*
X64947000Y-91781000D02*
X63740000Y-91781000D01*
X61660000Y-91781000D02*
X60453000Y-91781000D01*
X64924000Y-91821000D02*
X63740000Y-91821000D01*
X61660000Y-91821000D02*
X60476000Y-91821000D01*
X64900000Y-91861000D02*
X63740000Y-91861000D01*
X61660000Y-91861000D02*
X60500000Y-91861000D01*
X64875000Y-91901000D02*
X63740000Y-91901000D01*
X61660000Y-91901000D02*
X60525000Y-91901000D01*
X64849000Y-91941000D02*
X63740000Y-91941000D01*
X61660000Y-91941000D02*
X60551000Y-91941000D01*
X64822000Y-91981000D02*
X63740000Y-91981000D01*
X61660000Y-91981000D02*
X60578000Y-91981000D01*
X64795000Y-92021000D02*
X63740000Y-92021000D01*
X61660000Y-92021000D02*
X60605000Y-92021000D01*
X64765000Y-92061000D02*
X63740000Y-92061000D01*
X61660000Y-92061000D02*
X60635000Y-92061000D01*
X64735000Y-92101000D02*
X63740000Y-92101000D01*
X61660000Y-92101000D02*
X60665000Y-92101000D01*
X64704000Y-92141000D02*
X63740000Y-92141000D01*
X61660000Y-92141000D02*
X60696000Y-92141000D01*
X64671000Y-92181000D02*
X63740000Y-92181000D01*
X61660000Y-92181000D02*
X60729000Y-92181000D01*
X64637000Y-92221000D02*
X63740000Y-92221000D01*
X61660000Y-92221000D02*
X60763000Y-92221000D01*
X64601000Y-92261000D02*
X63740000Y-92261000D01*
X61660000Y-92261000D02*
X60799000Y-92261000D01*
X64564000Y-92301000D02*
X63740000Y-92301000D01*
X61660000Y-92301000D02*
X60836000Y-92301000D01*
X64526000Y-92341000D02*
X63740000Y-92341000D01*
X61660000Y-92341000D02*
X60874000Y-92341000D01*
X64485000Y-92381000D02*
X63740000Y-92381000D01*
X61660000Y-92381000D02*
X60915000Y-92381000D01*
X64443000Y-92421000D02*
X63740000Y-92421000D01*
X61660000Y-92421000D02*
X60957000Y-92421000D01*
X64399000Y-92461000D02*
X63740000Y-92461000D01*
X61660000Y-92461000D02*
X61001000Y-92461000D01*
X64353000Y-92501000D02*
X63740000Y-92501000D01*
X61660000Y-92501000D02*
X61047000Y-92501000D01*
X64305000Y-92541000D02*
X61095000Y-92541000D01*
X64254000Y-92581000D02*
X61146000Y-92581000D01*
X64200000Y-92621000D02*
X61200000Y-92621000D01*
X64143000Y-92661000D02*
X61257000Y-92661000D01*
X64083000Y-92701000D02*
X61317000Y-92701000D01*
X64019000Y-92741000D02*
X61381000Y-92741000D01*
X63951000Y-92781000D02*
X61449000Y-92781000D01*
X63878000Y-92821000D02*
X61522000Y-92821000D01*
X63798000Y-92861000D02*
X61602000Y-92861000D01*
X63711000Y-92901000D02*
X61689000Y-92901000D01*
X63615000Y-92941000D02*
X61785000Y-92941000D01*
X63505000Y-92981000D02*
X61895000Y-92981000D01*
X63377000Y-93021000D02*
X62023000Y-93021000D01*
X63218000Y-93061000D02*
X62182000Y-93061000D01*
X62984000Y-93101000D02*
X62416000Y-93101000D01*
X64175000Y-87695225D02*
X64175000Y-88195225D01*
X64425000Y-87945225D02*
X63925000Y-87945225D01*
X73220000Y-86100000D02*
G75*
G03X73220000Y-86100000I-2620000J0D01*
G01*
X70600000Y-87140000D02*
X70600000Y-88680000D01*
X70600000Y-83520000D02*
X70600000Y-85060000D01*
X70640000Y-87140000D02*
X70640000Y-88680000D01*
X70640000Y-83520000D02*
X70640000Y-85060000D01*
X70680000Y-83521000D02*
X70680000Y-85060000D01*
X70680000Y-87140000D02*
X70680000Y-88679000D01*
X70720000Y-83522000D02*
X70720000Y-85060000D01*
X70720000Y-87140000D02*
X70720000Y-88678000D01*
X70760000Y-83524000D02*
X70760000Y-85060000D01*
X70760000Y-87140000D02*
X70760000Y-88676000D01*
X70800000Y-83527000D02*
X70800000Y-85060000D01*
X70800000Y-87140000D02*
X70800000Y-88673000D01*
X70840000Y-83531000D02*
X70840000Y-85060000D01*
X70840000Y-87140000D02*
X70840000Y-88669000D01*
X70880000Y-83535000D02*
X70880000Y-85060000D01*
X70880000Y-87140000D02*
X70880000Y-88665000D01*
X70920000Y-83539000D02*
X70920000Y-85060000D01*
X70920000Y-87140000D02*
X70920000Y-88661000D01*
X70960000Y-83544000D02*
X70960000Y-85060000D01*
X70960000Y-87140000D02*
X70960000Y-88656000D01*
X71000000Y-83550000D02*
X71000000Y-85060000D01*
X71000000Y-87140000D02*
X71000000Y-88650000D01*
X71040000Y-83557000D02*
X71040000Y-85060000D01*
X71040000Y-87140000D02*
X71040000Y-88643000D01*
X71080000Y-83564000D02*
X71080000Y-85060000D01*
X71080000Y-87140000D02*
X71080000Y-88636000D01*
X71120000Y-83572000D02*
X71120000Y-85060000D01*
X71120000Y-87140000D02*
X71120000Y-88628000D01*
X71160000Y-83580000D02*
X71160000Y-85060000D01*
X71160000Y-87140000D02*
X71160000Y-88620000D01*
X71200000Y-83589000D02*
X71200000Y-85060000D01*
X71200000Y-87140000D02*
X71200000Y-88611000D01*
X71240000Y-83599000D02*
X71240000Y-85060000D01*
X71240000Y-87140000D02*
X71240000Y-88601000D01*
X71280000Y-83609000D02*
X71280000Y-85060000D01*
X71280000Y-87140000D02*
X71280000Y-88591000D01*
X71321000Y-83620000D02*
X71321000Y-85060000D01*
X71321000Y-87140000D02*
X71321000Y-88580000D01*
X71361000Y-83632000D02*
X71361000Y-85060000D01*
X71361000Y-87140000D02*
X71361000Y-88568000D01*
X71401000Y-83645000D02*
X71401000Y-85060000D01*
X71401000Y-87140000D02*
X71401000Y-88555000D01*
X71441000Y-83658000D02*
X71441000Y-85060000D01*
X71441000Y-87140000D02*
X71441000Y-88542000D01*
X71481000Y-83672000D02*
X71481000Y-85060000D01*
X71481000Y-87140000D02*
X71481000Y-88528000D01*
X71521000Y-83686000D02*
X71521000Y-85060000D01*
X71521000Y-87140000D02*
X71521000Y-88514000D01*
X71561000Y-83702000D02*
X71561000Y-85060000D01*
X71561000Y-87140000D02*
X71561000Y-88498000D01*
X71601000Y-83718000D02*
X71601000Y-85060000D01*
X71601000Y-87140000D02*
X71601000Y-88482000D01*
X71641000Y-83735000D02*
X71641000Y-85060000D01*
X71641000Y-87140000D02*
X71641000Y-88465000D01*
X71681000Y-83752000D02*
X71681000Y-85060000D01*
X71681000Y-87140000D02*
X71681000Y-88448000D01*
X71721000Y-83771000D02*
X71721000Y-85060000D01*
X71721000Y-87140000D02*
X71721000Y-88429000D01*
X71761000Y-83790000D02*
X71761000Y-85060000D01*
X71761000Y-87140000D02*
X71761000Y-88410000D01*
X71801000Y-83810000D02*
X71801000Y-85060000D01*
X71801000Y-87140000D02*
X71801000Y-88390000D01*
X71841000Y-83832000D02*
X71841000Y-85060000D01*
X71841000Y-87140000D02*
X71841000Y-88368000D01*
X71881000Y-83853000D02*
X71881000Y-85060000D01*
X71881000Y-87140000D02*
X71881000Y-88347000D01*
X71921000Y-83876000D02*
X71921000Y-85060000D01*
X71921000Y-87140000D02*
X71921000Y-88324000D01*
X71961000Y-83900000D02*
X71961000Y-85060000D01*
X71961000Y-87140000D02*
X71961000Y-88300000D01*
X72001000Y-83925000D02*
X72001000Y-85060000D01*
X72001000Y-87140000D02*
X72001000Y-88275000D01*
X72041000Y-83951000D02*
X72041000Y-85060000D01*
X72041000Y-87140000D02*
X72041000Y-88249000D01*
X72081000Y-83978000D02*
X72081000Y-85060000D01*
X72081000Y-87140000D02*
X72081000Y-88222000D01*
X72121000Y-84005000D02*
X72121000Y-85060000D01*
X72121000Y-87140000D02*
X72121000Y-88195000D01*
X72161000Y-84035000D02*
X72161000Y-85060000D01*
X72161000Y-87140000D02*
X72161000Y-88165000D01*
X72201000Y-84065000D02*
X72201000Y-85060000D01*
X72201000Y-87140000D02*
X72201000Y-88135000D01*
X72241000Y-84096000D02*
X72241000Y-85060000D01*
X72241000Y-87140000D02*
X72241000Y-88104000D01*
X72281000Y-84129000D02*
X72281000Y-85060000D01*
X72281000Y-87140000D02*
X72281000Y-88071000D01*
X72321000Y-84163000D02*
X72321000Y-85060000D01*
X72321000Y-87140000D02*
X72321000Y-88037000D01*
X72361000Y-84199000D02*
X72361000Y-85060000D01*
X72361000Y-87140000D02*
X72361000Y-88001000D01*
X72401000Y-84236000D02*
X72401000Y-85060000D01*
X72401000Y-87140000D02*
X72401000Y-87964000D01*
X72441000Y-84274000D02*
X72441000Y-85060000D01*
X72441000Y-87140000D02*
X72441000Y-87926000D01*
X72481000Y-84315000D02*
X72481000Y-85060000D01*
X72481000Y-87140000D02*
X72481000Y-87885000D01*
X72521000Y-84357000D02*
X72521000Y-85060000D01*
X72521000Y-87140000D02*
X72521000Y-87843000D01*
X72561000Y-84401000D02*
X72561000Y-85060000D01*
X72561000Y-87140000D02*
X72561000Y-87799000D01*
X72601000Y-84447000D02*
X72601000Y-85060000D01*
X72601000Y-87140000D02*
X72601000Y-87753000D01*
X72641000Y-84495000D02*
X72641000Y-87705000D01*
X72681000Y-84546000D02*
X72681000Y-87654000D01*
X72721000Y-84600000D02*
X72721000Y-87600000D01*
X72761000Y-84657000D02*
X72761000Y-87543000D01*
X72801000Y-84717000D02*
X72801000Y-87483000D01*
X72841000Y-84781000D02*
X72841000Y-87419000D01*
X72881000Y-84849000D02*
X72881000Y-87351000D01*
X72921000Y-84922000D02*
X72921000Y-87278000D01*
X72961000Y-85002000D02*
X72961000Y-87198000D01*
X73001000Y-85089000D02*
X73001000Y-87111000D01*
X73041000Y-85185000D02*
X73041000Y-87015000D01*
X73081000Y-85295000D02*
X73081000Y-86905000D01*
X73121000Y-85423000D02*
X73121000Y-86777000D01*
X73161000Y-85582000D02*
X73161000Y-86618000D01*
X73201000Y-85816000D02*
X73201000Y-86384000D01*
X67795225Y-84625000D02*
X68295225Y-84625000D01*
X68045225Y-84375000D02*
X68045225Y-84875000D01*
X94720000Y-118530000D02*
X94720000Y-121270000D01*
X87480000Y-118530000D02*
X87480000Y-121270000D01*
X87480000Y-121270000D02*
X94720000Y-121270000D01*
X87480000Y-118530000D02*
X94720000Y-118530000D01*
X89455000Y-86030000D02*
X90121000Y-86030000D01*
X86679000Y-86030000D02*
X87345000Y-86030000D01*
X89455000Y-91370000D02*
X90121000Y-91370000D01*
X86679000Y-91370000D02*
X87345000Y-91370000D01*
X90121000Y-91370000D02*
X90121000Y-86030000D01*
X86679000Y-91370000D02*
X86679000Y-86030000D01*
X112320000Y-116530000D02*
X112320000Y-121270000D01*
X105080000Y-116530000D02*
X105080000Y-121270000D01*
X105080000Y-121270000D02*
X112320000Y-121270000D01*
X105080000Y-116530000D02*
X112320000Y-116530000D01*
X95080000Y-116530000D02*
X102320000Y-116530000D01*
X95080000Y-121270000D02*
X102320000Y-121270000D01*
X95080000Y-116530000D02*
X95080000Y-121270000D01*
X102320000Y-116530000D02*
X102320000Y-121270000D01*
D12*
X97230000Y-68555000D02*
G75*
G03X97230000Y-68555000I-1000000J0D01*
G01*
X90230000Y-47555000D02*
X90230000Y-44555000D01*
X87230000Y-47555000D02*
X90230000Y-47555000D01*
X87230000Y-44555000D02*
X87230000Y-47555000D01*
X95230000Y-64555000D02*
G75*
G03X97230000Y-64555000I1000000J0D01*
G01*
X83730000Y-70055000D02*
G75*
G03X84730000Y-70055000I500000J0D01*
G01*
X84730000Y-64555000D02*
X84730000Y-70055000D01*
X83730000Y-64555000D02*
X83730000Y-70055000D01*
X94230000Y-68555000D02*
G75*
G03X98300000Y-68555000I2035000J0D01*
G01*
X98300000Y-64555000D02*
X98300000Y-68555000D01*
X94230000Y-64555000D02*
X94230000Y-68555000D01*
X94230000Y-63555000D02*
X98300000Y-63555000D01*
X85230000Y-63555000D02*
X83300000Y-63555000D01*
X94230000Y-63555000D02*
X94230000Y-44555000D01*
X83730000Y-64555000D02*
X83300000Y-64555000D01*
X84730000Y-64555000D02*
X83730000Y-64555000D01*
X85230000Y-64555000D02*
X84730000Y-64555000D01*
X85230000Y-63555000D02*
X85230000Y-64555000D01*
X94230000Y-63555000D02*
X85230000Y-63555000D01*
X94230000Y-64555000D02*
X94230000Y-63555000D01*
X95230000Y-64555000D02*
X94230000Y-64555000D01*
X97230000Y-64555000D02*
X95230000Y-64555000D01*
X98300000Y-64555000D02*
X97230000Y-64555000D01*
X98300000Y-63555000D02*
X98300000Y-64555000D01*
X98300000Y-44555000D02*
X98300000Y-63555000D01*
X96300000Y-44555000D02*
X98300000Y-44555000D01*
X90230000Y-44555000D02*
X94230000Y-44555000D01*
X87230000Y-44555000D02*
X90230000Y-44555000D01*
X83300000Y-44555000D02*
X85300000Y-44555000D01*
X83300000Y-63555000D02*
X83300000Y-44555000D01*
X83300000Y-64555000D02*
X83300000Y-63555000D01*
X95250000Y-42555000D02*
X87230000Y-43555000D01*
X86350000Y-37555000D02*
X95250000Y-36555000D01*
X86350000Y-38555000D02*
X95250000Y-37555000D01*
X86350000Y-39555000D02*
X95250000Y-38555000D01*
X86350000Y-40555000D02*
X95250000Y-39555000D01*
X86350000Y-41555000D02*
X95250000Y-40555000D01*
X86350000Y-42555000D02*
X95250000Y-41555000D01*
X87230000Y-43555000D02*
X95250000Y-43555000D01*
X86350000Y-43555000D02*
X87230000Y-43555000D01*
X87230000Y-44555000D02*
X85300000Y-44555000D01*
X96300000Y-44555000D02*
X94230000Y-44555000D01*
X96300000Y-43555000D02*
X96300000Y-44555000D01*
X95250000Y-43555000D02*
X96300000Y-43555000D01*
X95250000Y-42555000D02*
X95250000Y-43555000D01*
X95250000Y-41555000D02*
X95250000Y-42555000D01*
X95250000Y-40555000D02*
X95250000Y-41555000D01*
X95250000Y-39555000D02*
X95250000Y-40555000D01*
X95250000Y-38555000D02*
X95250000Y-39555000D01*
X95250000Y-37555000D02*
X95250000Y-38555000D01*
X95250000Y-36555000D02*
X95250000Y-37555000D01*
X86350000Y-36555000D02*
X95250000Y-36555000D01*
X86350000Y-37555000D02*
X86350000Y-36555000D01*
X86350000Y-38555000D02*
X86350000Y-37555000D01*
X86350000Y-39555000D02*
X86350000Y-38555000D01*
X86350000Y-40555000D02*
X86350000Y-39555000D01*
X86350000Y-41555000D02*
X86350000Y-40555000D01*
X86350000Y-42555000D02*
X86350000Y-41555000D01*
X86350000Y-43555000D02*
X86350000Y-42555000D01*
X85300000Y-43555000D02*
X86350000Y-43555000D01*
X85300000Y-44555000D02*
X85300000Y-43555000D01*
X120180000Y-44615000D02*
X120180000Y-43615000D01*
X120180000Y-43615000D02*
X121230000Y-43615000D01*
X121230000Y-43615000D02*
X121230000Y-42615000D01*
X121230000Y-42615000D02*
X121230000Y-41615000D01*
X121230000Y-41615000D02*
X121230000Y-40615000D01*
X121230000Y-40615000D02*
X121230000Y-39615000D01*
X121230000Y-39615000D02*
X121230000Y-38615000D01*
X121230000Y-38615000D02*
X121230000Y-37615000D01*
X121230000Y-37615000D02*
X121230000Y-36615000D01*
X121230000Y-36615000D02*
X130130000Y-36615000D01*
X130130000Y-36615000D02*
X130130000Y-37615000D01*
X130130000Y-37615000D02*
X130130000Y-38615000D01*
X130130000Y-38615000D02*
X130130000Y-39615000D01*
X130130000Y-39615000D02*
X130130000Y-40615000D01*
X130130000Y-40615000D02*
X130130000Y-41615000D01*
X130130000Y-41615000D02*
X130130000Y-42615000D01*
X130130000Y-42615000D02*
X130130000Y-43615000D01*
X130130000Y-43615000D02*
X131180000Y-43615000D01*
X131180000Y-43615000D02*
X131180000Y-44615000D01*
X131180000Y-44615000D02*
X129110000Y-44615000D01*
X122110000Y-44615000D02*
X120180000Y-44615000D01*
X121230000Y-43615000D02*
X122110000Y-43615000D01*
X122110000Y-43615000D02*
X130130000Y-43615000D01*
X121230000Y-42615000D02*
X130130000Y-41615000D01*
X121230000Y-41615000D02*
X130130000Y-40615000D01*
X121230000Y-40615000D02*
X130130000Y-39615000D01*
X121230000Y-39615000D02*
X130130000Y-38615000D01*
X121230000Y-38615000D02*
X130130000Y-37615000D01*
X121230000Y-37615000D02*
X130130000Y-36615000D01*
X130130000Y-42615000D02*
X122110000Y-43615000D01*
X118180000Y-64615000D02*
X118180000Y-63615000D01*
X118180000Y-63615000D02*
X118180000Y-44615000D01*
X118180000Y-44615000D02*
X120180000Y-44615000D01*
X122110000Y-44615000D02*
X125110000Y-44615000D01*
X125110000Y-44615000D02*
X129110000Y-44615000D01*
X131180000Y-44615000D02*
X133180000Y-44615000D01*
X133180000Y-44615000D02*
X133180000Y-63615000D01*
X133180000Y-63615000D02*
X133180000Y-64615000D01*
X133180000Y-64615000D02*
X132110000Y-64615000D01*
X132110000Y-64615000D02*
X130110000Y-64615000D01*
X130110000Y-64615000D02*
X129110000Y-64615000D01*
X129110000Y-64615000D02*
X129110000Y-63615000D01*
X129110000Y-63615000D02*
X120110000Y-63615000D01*
X120110000Y-63615000D02*
X120110000Y-64615000D01*
X120110000Y-64615000D02*
X119610000Y-64615000D01*
X119610000Y-64615000D02*
X118610000Y-64615000D01*
X118610000Y-64615000D02*
X118180000Y-64615000D01*
X129110000Y-63615000D02*
X129110000Y-44615000D01*
X120110000Y-63615000D02*
X118180000Y-63615000D01*
X129110000Y-63615000D02*
X133180000Y-63615000D01*
X129110000Y-64615000D02*
X129110000Y-68615000D01*
X133180000Y-64615000D02*
X133180000Y-68615000D01*
X129110000Y-68615000D02*
G75*
G03X133180000Y-68615000I2035000J0D01*
G01*
X118610000Y-64615000D02*
X118610000Y-70115000D01*
X119610000Y-64615000D02*
X119610000Y-70115000D01*
X118610000Y-70115000D02*
G75*
G03X119610000Y-70115000I500000J0D01*
G01*
X130110000Y-64615000D02*
G75*
G03X132110000Y-64615000I1000000J0D01*
G01*
X122110000Y-44615000D02*
X122110000Y-47615000D01*
X122110000Y-47615000D02*
X125110000Y-47615000D01*
X125110000Y-47615000D02*
X125110000Y-44615000D01*
X132110000Y-68615000D02*
G75*
G03X132110000Y-68615000I-1000000J0D01*
G01*
X80770000Y-68635000D02*
G75*
G03X80770000Y-68635000I-1000000J0D01*
G01*
X73770000Y-47635000D02*
X73770000Y-44635000D01*
X70770000Y-47635000D02*
X73770000Y-47635000D01*
X70770000Y-44635000D02*
X70770000Y-47635000D01*
X78770000Y-64635000D02*
G75*
G03X80770000Y-64635000I1000000J0D01*
G01*
X67270000Y-70135000D02*
G75*
G03X68270000Y-70135000I500000J0D01*
G01*
X68270000Y-64635000D02*
X68270000Y-70135000D01*
X67270000Y-64635000D02*
X67270000Y-70135000D01*
X77770000Y-68635000D02*
G75*
G03X81840000Y-68635000I2035000J0D01*
G01*
X81840000Y-64635000D02*
X81840000Y-68635000D01*
X77770000Y-64635000D02*
X77770000Y-68635000D01*
X77770000Y-63635000D02*
X81840000Y-63635000D01*
X68770000Y-63635000D02*
X66840000Y-63635000D01*
X77770000Y-63635000D02*
X77770000Y-44635000D01*
X67270000Y-64635000D02*
X66840000Y-64635000D01*
X68270000Y-64635000D02*
X67270000Y-64635000D01*
X68770000Y-64635000D02*
X68270000Y-64635000D01*
X68770000Y-63635000D02*
X68770000Y-64635000D01*
X77770000Y-63635000D02*
X68770000Y-63635000D01*
X77770000Y-64635000D02*
X77770000Y-63635000D01*
X78770000Y-64635000D02*
X77770000Y-64635000D01*
X80770000Y-64635000D02*
X78770000Y-64635000D01*
X81840000Y-64635000D02*
X80770000Y-64635000D01*
X81840000Y-63635000D02*
X81840000Y-64635000D01*
X81840000Y-44635000D02*
X81840000Y-63635000D01*
X79840000Y-44635000D02*
X81840000Y-44635000D01*
X73770000Y-44635000D02*
X77770000Y-44635000D01*
X70770000Y-44635000D02*
X73770000Y-44635000D01*
X66840000Y-44635000D02*
X68840000Y-44635000D01*
X66840000Y-63635000D02*
X66840000Y-44635000D01*
X66840000Y-64635000D02*
X66840000Y-63635000D01*
X78790000Y-42635000D02*
X70770000Y-43635000D01*
X69890000Y-37635000D02*
X78790000Y-36635000D01*
X69890000Y-38635000D02*
X78790000Y-37635000D01*
X69890000Y-39635000D02*
X78790000Y-38635000D01*
X69890000Y-40635000D02*
X78790000Y-39635000D01*
X69890000Y-41635000D02*
X78790000Y-40635000D01*
X69890000Y-42635000D02*
X78790000Y-41635000D01*
X70770000Y-43635000D02*
X78790000Y-43635000D01*
X69890000Y-43635000D02*
X70770000Y-43635000D01*
X70770000Y-44635000D02*
X68840000Y-44635000D01*
X79840000Y-44635000D02*
X77770000Y-44635000D01*
X79840000Y-43635000D02*
X79840000Y-44635000D01*
X78790000Y-43635000D02*
X79840000Y-43635000D01*
X78790000Y-42635000D02*
X78790000Y-43635000D01*
X78790000Y-41635000D02*
X78790000Y-42635000D01*
X78790000Y-40635000D02*
X78790000Y-41635000D01*
X78790000Y-39635000D02*
X78790000Y-40635000D01*
X78790000Y-38635000D02*
X78790000Y-39635000D01*
X78790000Y-37635000D02*
X78790000Y-38635000D01*
X78790000Y-36635000D02*
X78790000Y-37635000D01*
X69890000Y-36635000D02*
X78790000Y-36635000D01*
X69890000Y-37635000D02*
X69890000Y-36635000D01*
X69890000Y-38635000D02*
X69890000Y-37635000D01*
X69890000Y-39635000D02*
X69890000Y-38635000D01*
X69890000Y-40635000D02*
X69890000Y-39635000D01*
X69890000Y-41635000D02*
X69890000Y-40635000D01*
X69890000Y-42635000D02*
X69890000Y-41635000D01*
X69890000Y-43635000D02*
X69890000Y-42635000D01*
X68840000Y-43635000D02*
X69890000Y-43635000D01*
X68840000Y-44635000D02*
X68840000Y-43635000D01*
X119056000Y-78476000D02*
X122104000Y-78476000D01*
X124136000Y-78476000D02*
X127184000Y-78476000D01*
X129216000Y-78476000D02*
X132264000Y-78476000D01*
X119056000Y-78476000D02*
X119056000Y-81524000D01*
X119056000Y-81524000D02*
X122104000Y-81524000D01*
X122104000Y-81524000D02*
X122104000Y-78476000D01*
X124136000Y-78476000D02*
X124136000Y-81524000D01*
X124136000Y-81524000D02*
X127184000Y-81524000D01*
X127184000Y-81524000D02*
X127184000Y-78476000D01*
X129216000Y-78476000D02*
X129216000Y-81524000D01*
X129216000Y-81524000D02*
X132264000Y-81524000D01*
X132264000Y-81524000D02*
X132264000Y-78476000D01*
X80944000Y-81524000D02*
X80944000Y-78476000D01*
X77896000Y-81524000D02*
X80944000Y-81524000D01*
X77896000Y-78476000D02*
X77896000Y-81524000D01*
X75864000Y-81524000D02*
X75864000Y-78476000D01*
X72816000Y-81524000D02*
X75864000Y-81524000D01*
X72816000Y-78476000D02*
X72816000Y-81524000D01*
X70784000Y-81524000D02*
X70784000Y-78476000D01*
X67736000Y-81524000D02*
X70784000Y-81524000D01*
X67736000Y-78476000D02*
X67736000Y-81524000D01*
X77896000Y-78476000D02*
X80944000Y-78476000D01*
X72816000Y-78476000D02*
X75864000Y-78476000D01*
X67736000Y-78476000D02*
X70784000Y-78476000D01*
D10*
X117947619Y-97595238D02*
X117900000Y-97690476D01*
X117804761Y-97785714D01*
X117661904Y-97928571D01*
X117614285Y-98023809D01*
X117614285Y-98119047D01*
X117852380Y-98071428D02*
X117804761Y-98166666D01*
X117709523Y-98261904D01*
X117519047Y-98309523D01*
X117185714Y-98309523D01*
X116995238Y-98261904D01*
X116900000Y-98166666D01*
X116852380Y-98071428D01*
X116852380Y-97880952D01*
X116900000Y-97785714D01*
X116995238Y-97690476D01*
X117185714Y-97642857D01*
X117519047Y-97642857D01*
X117709523Y-97690476D01*
X117804761Y-97785714D01*
X117852380Y-97880952D01*
X117852380Y-98071428D01*
X116852380Y-97309523D02*
X116852380Y-96690476D01*
X117233333Y-97023809D01*
X117233333Y-96880952D01*
X117280952Y-96785714D01*
X117328571Y-96738095D01*
X117423809Y-96690476D01*
X117661904Y-96690476D01*
X117757142Y-96738095D01*
X117804761Y-96785714D01*
X117852380Y-96880952D01*
X117852380Y-97166666D01*
X117804761Y-97261904D01*
X117757142Y-97309523D01*
X83985714Y-76652380D02*
X83985714Y-75652380D01*
X84223809Y-75652380D01*
X84366666Y-75700000D01*
X84461904Y-75795238D01*
X84509523Y-75890476D01*
X84557142Y-76080952D01*
X84557142Y-76223809D01*
X84509523Y-76414285D01*
X84461904Y-76509523D01*
X84366666Y-76604761D01*
X84223809Y-76652380D01*
X83985714Y-76652380D01*
X85509523Y-76652380D02*
X84938095Y-76652380D01*
X85223809Y-76652380D02*
X85223809Y-75652380D01*
X85128571Y-75795238D01*
X85033333Y-75890476D01*
X84938095Y-75938095D01*
X86461904Y-76652380D02*
X85890476Y-76652380D01*
X86176190Y-76652380D02*
X86176190Y-75652380D01*
X86080952Y-75795238D01*
X85985714Y-75890476D01*
X85890476Y-75938095D01*
X88638095Y-78552380D02*
X88638095Y-77552380D01*
X89209523Y-78552380D02*
X88780952Y-77980952D01*
X89209523Y-77552380D02*
X88638095Y-78123809D01*
X122057142Y-113057142D02*
X122009523Y-113104761D01*
X121866666Y-113152380D01*
X121771428Y-113152380D01*
X121628571Y-113104761D01*
X121533333Y-113009523D01*
X121485714Y-112914285D01*
X121438095Y-112723809D01*
X121438095Y-112580952D01*
X121485714Y-112390476D01*
X121533333Y-112295238D01*
X121628571Y-112200000D01*
X121771428Y-112152380D01*
X121866666Y-112152380D01*
X122009523Y-112200000D01*
X122057142Y-112247619D01*
X123009523Y-113152380D02*
X122438095Y-113152380D01*
X122723809Y-113152380D02*
X122723809Y-112152380D01*
X122628571Y-112295238D01*
X122533333Y-112390476D01*
X122438095Y-112438095D01*
X123485714Y-113152380D02*
X123676190Y-113152380D01*
X123771428Y-113104761D01*
X123819047Y-113057142D01*
X123914285Y-112914285D01*
X123961904Y-112723809D01*
X123961904Y-112342857D01*
X123914285Y-112247619D01*
X123866666Y-112200000D01*
X123771428Y-112152380D01*
X123580952Y-112152380D01*
X123485714Y-112200000D01*
X123438095Y-112247619D01*
X123390476Y-112342857D01*
X123390476Y-112580952D01*
X123438095Y-112676190D01*
X123485714Y-112723809D01*
X123580952Y-112771428D01*
X123771428Y-112771428D01*
X123866666Y-112723809D01*
X123914285Y-112676190D01*
X123961904Y-112580952D01*
X91757142Y-112957142D02*
X91709523Y-113004761D01*
X91566666Y-113052380D01*
X91471428Y-113052380D01*
X91328571Y-113004761D01*
X91233333Y-112909523D01*
X91185714Y-112814285D01*
X91138095Y-112623809D01*
X91138095Y-112480952D01*
X91185714Y-112290476D01*
X91233333Y-112195238D01*
X91328571Y-112100000D01*
X91471428Y-112052380D01*
X91566666Y-112052380D01*
X91709523Y-112100000D01*
X91757142Y-112147619D01*
X92138095Y-112147619D02*
X92185714Y-112100000D01*
X92280952Y-112052380D01*
X92519047Y-112052380D01*
X92614285Y-112100000D01*
X92661904Y-112147619D01*
X92709523Y-112242857D01*
X92709523Y-112338095D01*
X92661904Y-112480952D01*
X92090476Y-113052380D01*
X92709523Y-113052380D01*
X93328571Y-112052380D02*
X93423809Y-112052380D01*
X93519047Y-112100000D01*
X93566666Y-112147619D01*
X93614285Y-112242857D01*
X93661904Y-112433333D01*
X93661904Y-112671428D01*
X93614285Y-112861904D01*
X93566666Y-112957142D01*
X93519047Y-113004761D01*
X93423809Y-113052380D01*
X93328571Y-113052380D01*
X93233333Y-113004761D01*
X93185714Y-112957142D01*
X93138095Y-112861904D01*
X93090476Y-112671428D01*
X93090476Y-112433333D01*
X93138095Y-112242857D01*
X93185714Y-112147619D01*
X93233333Y-112100000D01*
X93328571Y-112052380D01*
X108333333Y-82057142D02*
X108285714Y-82104761D01*
X108142857Y-82152380D01*
X108047619Y-82152380D01*
X107904761Y-82104761D01*
X107809523Y-82009523D01*
X107761904Y-81914285D01*
X107714285Y-81723809D01*
X107714285Y-81580952D01*
X107761904Y-81390476D01*
X107809523Y-81295238D01*
X107904761Y-81200000D01*
X108047619Y-81152380D01*
X108142857Y-81152380D01*
X108285714Y-81200000D01*
X108333333Y-81247619D01*
X108809523Y-82152380D02*
X109000000Y-82152380D01*
X109095238Y-82104761D01*
X109142857Y-82057142D01*
X109238095Y-81914285D01*
X109285714Y-81723809D01*
X109285714Y-81342857D01*
X109238095Y-81247619D01*
X109190476Y-81200000D01*
X109095238Y-81152380D01*
X108904761Y-81152380D01*
X108809523Y-81200000D01*
X108761904Y-81247619D01*
X108714285Y-81342857D01*
X108714285Y-81580952D01*
X108761904Y-81676190D01*
X108809523Y-81723809D01*
X108904761Y-81771428D01*
X109095238Y-81771428D01*
X109190476Y-81723809D01*
X109238095Y-81676190D01*
X109285714Y-81580952D01*
X135966666Y-133652380D02*
X135966666Y-134366666D01*
X135919047Y-134509523D01*
X135823809Y-134604761D01*
X135680952Y-134652380D01*
X135585714Y-134652380D01*
X136871428Y-133985714D02*
X136871428Y-134652380D01*
X136633333Y-133604761D02*
X136395238Y-134319047D01*
X137014285Y-134319047D01*
X131457142Y-126928571D02*
X131123809Y-126928571D01*
X131123809Y-127452380D02*
X131123809Y-126452380D01*
X131600000Y-126452380D01*
X131980952Y-127452380D02*
X131980952Y-126785714D01*
X131980952Y-126452380D02*
X131933333Y-126500000D01*
X131980952Y-126547619D01*
X132028571Y-126500000D01*
X131980952Y-126452380D01*
X131980952Y-126547619D01*
X132600000Y-127452380D02*
X132504761Y-127404761D01*
X132457142Y-127309523D01*
X132457142Y-126452380D01*
X132838095Y-126785714D02*
X133219047Y-126785714D01*
X132980952Y-126452380D02*
X132980952Y-127309523D01*
X133028571Y-127404761D01*
X133123809Y-127452380D01*
X133219047Y-127452380D01*
X133933333Y-127404761D02*
X133838095Y-127452380D01*
X133647619Y-127452380D01*
X133552380Y-127404761D01*
X133504761Y-127309523D01*
X133504761Y-126928571D01*
X133552380Y-126833333D01*
X133647619Y-126785714D01*
X133838095Y-126785714D01*
X133933333Y-126833333D01*
X133980952Y-126928571D01*
X133980952Y-127023809D01*
X133504761Y-127119047D01*
X134409523Y-127452380D02*
X134409523Y-126785714D01*
X134409523Y-126976190D02*
X134457142Y-126880952D01*
X134504761Y-126833333D01*
X134600000Y-126785714D01*
X134695238Y-126785714D01*
X135219047Y-126452380D02*
X135409523Y-126452380D01*
X135504761Y-126500000D01*
X135600000Y-126595238D01*
X135647619Y-126785714D01*
X135647619Y-127119047D01*
X135600000Y-127309523D01*
X135504761Y-127404761D01*
X135409523Y-127452380D01*
X135219047Y-127452380D01*
X135123809Y-127404761D01*
X135028571Y-127309523D01*
X134980952Y-127119047D01*
X134980952Y-126785714D01*
X135028571Y-126595238D01*
X135123809Y-126500000D01*
X135219047Y-126452380D01*
X136504761Y-126785714D02*
X136504761Y-127452380D01*
X136076190Y-126785714D02*
X136076190Y-127309523D01*
X136123809Y-127404761D01*
X136219047Y-127452380D01*
X136361904Y-127452380D01*
X136457142Y-127404761D01*
X136504761Y-127357142D01*
X136838095Y-126785714D02*
X137219047Y-126785714D01*
X136980952Y-126452380D02*
X136980952Y-127309523D01*
X137028571Y-127404761D01*
X137123809Y-127452380D01*
X137219047Y-127452380D01*
X63416666Y-133802380D02*
X63416666Y-134516666D01*
X63369047Y-134659523D01*
X63273809Y-134754761D01*
X63130952Y-134802380D01*
X63035714Y-134802380D01*
X63797619Y-133802380D02*
X64416666Y-133802380D01*
X64083333Y-134183333D01*
X64226190Y-134183333D01*
X64321428Y-134230952D01*
X64369047Y-134278571D01*
X64416666Y-134373809D01*
X64416666Y-134611904D01*
X64369047Y-134707142D01*
X64321428Y-134754761D01*
X64226190Y-134802380D01*
X63940476Y-134802380D01*
X63845238Y-134754761D01*
X63797619Y-134707142D01*
X118757142Y-85057142D02*
X118709523Y-85104761D01*
X118566666Y-85152380D01*
X118471428Y-85152380D01*
X118328571Y-85104761D01*
X118233333Y-85009523D01*
X118185714Y-84914285D01*
X118138095Y-84723809D01*
X118138095Y-84580952D01*
X118185714Y-84390476D01*
X118233333Y-84295238D01*
X118328571Y-84200000D01*
X118471428Y-84152380D01*
X118566666Y-84152380D01*
X118709523Y-84200000D01*
X118757142Y-84247619D01*
X119709523Y-85152380D02*
X119138095Y-85152380D01*
X119423809Y-85152380D02*
X119423809Y-84152380D01*
X119328571Y-84295238D01*
X119233333Y-84390476D01*
X119138095Y-84438095D01*
X120566666Y-84152380D02*
X120376190Y-84152380D01*
X120280952Y-84200000D01*
X120233333Y-84247619D01*
X120138095Y-84390476D01*
X120090476Y-84580952D01*
X120090476Y-84961904D01*
X120138095Y-85057142D01*
X120185714Y-85104761D01*
X120280952Y-85152380D01*
X120471428Y-85152380D01*
X120566666Y-85104761D01*
X120614285Y-85057142D01*
X120661904Y-84961904D01*
X120661904Y-84723809D01*
X120614285Y-84628571D01*
X120566666Y-84580952D01*
X120471428Y-84533333D01*
X120280952Y-84533333D01*
X120185714Y-84580952D01*
X120138095Y-84628571D01*
X120090476Y-84723809D01*
X129157142Y-102257142D02*
X129109523Y-102304761D01*
X128966666Y-102352380D01*
X128871428Y-102352380D01*
X128728571Y-102304761D01*
X128633333Y-102209523D01*
X128585714Y-102114285D01*
X128538095Y-101923809D01*
X128538095Y-101780952D01*
X128585714Y-101590476D01*
X128633333Y-101495238D01*
X128728571Y-101400000D01*
X128871428Y-101352380D01*
X128966666Y-101352380D01*
X129109523Y-101400000D01*
X129157142Y-101447619D01*
X130109523Y-102352380D02*
X129538095Y-102352380D01*
X129823809Y-102352380D02*
X129823809Y-101352380D01*
X129728571Y-101495238D01*
X129633333Y-101590476D01*
X129538095Y-101638095D01*
X130442857Y-101352380D02*
X131061904Y-101352380D01*
X130728571Y-101733333D01*
X130871428Y-101733333D01*
X130966666Y-101780952D01*
X131014285Y-101828571D01*
X131061904Y-101923809D01*
X131061904Y-102161904D01*
X131014285Y-102257142D01*
X130966666Y-102304761D01*
X130871428Y-102352380D01*
X130585714Y-102352380D01*
X130490476Y-102304761D01*
X130442857Y-102257142D01*
X121657142Y-98057142D02*
X121609523Y-98104761D01*
X121466666Y-98152380D01*
X121371428Y-98152380D01*
X121228571Y-98104761D01*
X121133333Y-98009523D01*
X121085714Y-97914285D01*
X121038095Y-97723809D01*
X121038095Y-97580952D01*
X121085714Y-97390476D01*
X121133333Y-97295238D01*
X121228571Y-97200000D01*
X121371428Y-97152380D01*
X121466666Y-97152380D01*
X121609523Y-97200000D01*
X121657142Y-97247619D01*
X122609523Y-98152380D02*
X122038095Y-98152380D01*
X122323809Y-98152380D02*
X122323809Y-97152380D01*
X122228571Y-97295238D01*
X122133333Y-97390476D01*
X122038095Y-97438095D01*
X123514285Y-97152380D02*
X123038095Y-97152380D01*
X122990476Y-97628571D01*
X123038095Y-97580952D01*
X123133333Y-97533333D01*
X123371428Y-97533333D01*
X123466666Y-97580952D01*
X123514285Y-97628571D01*
X123561904Y-97723809D01*
X123561904Y-97961904D01*
X123514285Y-98057142D01*
X123466666Y-98104761D01*
X123371428Y-98152380D01*
X123133333Y-98152380D01*
X123038095Y-98104761D01*
X122990476Y-98057142D01*
X138157142Y-90842857D02*
X138204761Y-90890476D01*
X138252380Y-91033333D01*
X138252380Y-91128571D01*
X138204761Y-91271428D01*
X138109523Y-91366666D01*
X138014285Y-91414285D01*
X137823809Y-91461904D01*
X137680952Y-91461904D01*
X137490476Y-91414285D01*
X137395238Y-91366666D01*
X137300000Y-91271428D01*
X137252380Y-91128571D01*
X137252380Y-91033333D01*
X137300000Y-90890476D01*
X137347619Y-90842857D01*
X138252380Y-89890476D02*
X138252380Y-90461904D01*
X138252380Y-90176190D02*
X137252380Y-90176190D01*
X137395238Y-90271428D01*
X137490476Y-90366666D01*
X137538095Y-90461904D01*
X137585714Y-89033333D02*
X138252380Y-89033333D01*
X137204761Y-89271428D02*
X137919047Y-89509523D01*
X137919047Y-88890476D01*
X91066666Y-78152380D02*
X91066666Y-78866666D01*
X91019047Y-79009523D01*
X90923809Y-79104761D01*
X90780952Y-79152380D01*
X90685714Y-79152380D01*
X92019047Y-78152380D02*
X91542857Y-78152380D01*
X91495238Y-78628571D01*
X91542857Y-78580952D01*
X91638095Y-78533333D01*
X91876190Y-78533333D01*
X91971428Y-78580952D01*
X92019047Y-78628571D01*
X92066666Y-78723809D01*
X92066666Y-78961904D01*
X92019047Y-79057142D01*
X91971428Y-79104761D01*
X91876190Y-79152380D01*
X91638095Y-79152380D01*
X91542857Y-79104761D01*
X91495238Y-79057142D01*
X106266666Y-78452380D02*
X106266666Y-79166666D01*
X106219047Y-79309523D01*
X106123809Y-79404761D01*
X105980952Y-79452380D01*
X105885714Y-79452380D01*
X107171428Y-78452380D02*
X106980952Y-78452380D01*
X106885714Y-78500000D01*
X106838095Y-78547619D01*
X106742857Y-78690476D01*
X106695238Y-78880952D01*
X106695238Y-79261904D01*
X106742857Y-79357142D01*
X106790476Y-79404761D01*
X106885714Y-79452380D01*
X107076190Y-79452380D01*
X107171428Y-79404761D01*
X107219047Y-79357142D01*
X107266666Y-79261904D01*
X107266666Y-79023809D01*
X107219047Y-78928571D01*
X107171428Y-78880952D01*
X107076190Y-78833333D01*
X106885714Y-78833333D01*
X106790476Y-78880952D01*
X106742857Y-78928571D01*
X106695238Y-79023809D01*
X66302380Y-77583333D02*
X67016666Y-77583333D01*
X67159523Y-77630952D01*
X67254761Y-77726190D01*
X67302380Y-77869047D01*
X67302380Y-77964285D01*
X67302380Y-76583333D02*
X67302380Y-77154761D01*
X67302380Y-76869047D02*
X66302380Y-76869047D01*
X66445238Y-76964285D01*
X66540476Y-77059523D01*
X66588095Y-77154761D01*
X121757142Y-101157142D02*
X121709523Y-101204761D01*
X121566666Y-101252380D01*
X121471428Y-101252380D01*
X121328571Y-101204761D01*
X121233333Y-101109523D01*
X121185714Y-101014285D01*
X121138095Y-100823809D01*
X121138095Y-100680952D01*
X121185714Y-100490476D01*
X121233333Y-100395238D01*
X121328571Y-100300000D01*
X121471428Y-100252380D01*
X121566666Y-100252380D01*
X121709523Y-100300000D01*
X121757142Y-100347619D01*
X122709523Y-101252380D02*
X122138095Y-101252380D01*
X122423809Y-101252380D02*
X122423809Y-100252380D01*
X122328571Y-100395238D01*
X122233333Y-100490476D01*
X122138095Y-100538095D01*
X123280952Y-100680952D02*
X123185714Y-100633333D01*
X123138095Y-100585714D01*
X123090476Y-100490476D01*
X123090476Y-100442857D01*
X123138095Y-100347619D01*
X123185714Y-100300000D01*
X123280952Y-100252380D01*
X123471428Y-100252380D01*
X123566666Y-100300000D01*
X123614285Y-100347619D01*
X123661904Y-100442857D01*
X123661904Y-100490476D01*
X123614285Y-100585714D01*
X123566666Y-100633333D01*
X123471428Y-100680952D01*
X123280952Y-100680952D01*
X123185714Y-100728571D01*
X123138095Y-100776190D01*
X123090476Y-100871428D01*
X123090476Y-101061904D01*
X123138095Y-101157142D01*
X123185714Y-101204761D01*
X123280952Y-101252380D01*
X123471428Y-101252380D01*
X123566666Y-101204761D01*
X123614285Y-101157142D01*
X123661904Y-101061904D01*
X123661904Y-100871428D01*
X123614285Y-100776190D01*
X123566666Y-100728571D01*
X123471428Y-100680952D01*
X129933333Y-105657142D02*
X129885714Y-105704761D01*
X129742857Y-105752380D01*
X129647619Y-105752380D01*
X129504761Y-105704761D01*
X129409523Y-105609523D01*
X129361904Y-105514285D01*
X129314285Y-105323809D01*
X129314285Y-105180952D01*
X129361904Y-104990476D01*
X129409523Y-104895238D01*
X129504761Y-104800000D01*
X129647619Y-104752380D01*
X129742857Y-104752380D01*
X129885714Y-104800000D01*
X129933333Y-104847619D01*
X130266666Y-104752380D02*
X130885714Y-104752380D01*
X130552380Y-105133333D01*
X130695238Y-105133333D01*
X130790476Y-105180952D01*
X130838095Y-105228571D01*
X130885714Y-105323809D01*
X130885714Y-105561904D01*
X130838095Y-105657142D01*
X130790476Y-105704761D01*
X130695238Y-105752380D01*
X130409523Y-105752380D01*
X130314285Y-105704761D01*
X130266666Y-105657142D01*
X100933333Y-81957142D02*
X100885714Y-82004761D01*
X100742857Y-82052380D01*
X100647619Y-82052380D01*
X100504761Y-82004761D01*
X100409523Y-81909523D01*
X100361904Y-81814285D01*
X100314285Y-81623809D01*
X100314285Y-81480952D01*
X100361904Y-81290476D01*
X100409523Y-81195238D01*
X100504761Y-81100000D01*
X100647619Y-81052380D01*
X100742857Y-81052380D01*
X100885714Y-81100000D01*
X100933333Y-81147619D01*
X101790476Y-81385714D02*
X101790476Y-82052380D01*
X101552380Y-81004761D02*
X101314285Y-81719047D01*
X101933333Y-81719047D01*
X132652380Y-77583333D02*
X133366666Y-77583333D01*
X133509523Y-77630952D01*
X133604761Y-77726190D01*
X133652380Y-77869047D01*
X133652380Y-77964285D01*
X132747619Y-77154761D02*
X132700000Y-77107142D01*
X132652380Y-77011904D01*
X132652380Y-76773809D01*
X132700000Y-76678571D01*
X132747619Y-76630952D01*
X132842857Y-76583333D01*
X132938095Y-76583333D01*
X133080952Y-76630952D01*
X133652380Y-77202380D01*
X133652380Y-76583333D01*
X93333333Y-94557142D02*
X93285714Y-94604761D01*
X93142857Y-94652380D01*
X93047619Y-94652380D01*
X92904761Y-94604761D01*
X92809523Y-94509523D01*
X92761904Y-94414285D01*
X92714285Y-94223809D01*
X92714285Y-94080952D01*
X92761904Y-93890476D01*
X92809523Y-93795238D01*
X92904761Y-93700000D01*
X93047619Y-93652380D01*
X93142857Y-93652380D01*
X93285714Y-93700000D01*
X93333333Y-93747619D01*
X94190476Y-93652380D02*
X94000000Y-93652380D01*
X93904761Y-93700000D01*
X93857142Y-93747619D01*
X93761904Y-93890476D01*
X93714285Y-94080952D01*
X93714285Y-94461904D01*
X93761904Y-94557142D01*
X93809523Y-94604761D01*
X93904761Y-94652380D01*
X94095238Y-94652380D01*
X94190476Y-94604761D01*
X94238095Y-94557142D01*
X94285714Y-94461904D01*
X94285714Y-94223809D01*
X94238095Y-94128571D01*
X94190476Y-94080952D01*
X94095238Y-94033333D01*
X93904761Y-94033333D01*
X93809523Y-94080952D01*
X93761904Y-94128571D01*
X93714285Y-94223809D01*
X129157142Y-98457142D02*
X129109523Y-98504761D01*
X128966666Y-98552380D01*
X128871428Y-98552380D01*
X128728571Y-98504761D01*
X128633333Y-98409523D01*
X128585714Y-98314285D01*
X128538095Y-98123809D01*
X128538095Y-97980952D01*
X128585714Y-97790476D01*
X128633333Y-97695238D01*
X128728571Y-97600000D01*
X128871428Y-97552380D01*
X128966666Y-97552380D01*
X129109523Y-97600000D01*
X129157142Y-97647619D01*
X130109523Y-98552380D02*
X129538095Y-98552380D01*
X129823809Y-98552380D02*
X129823809Y-97552380D01*
X129728571Y-97695238D01*
X129633333Y-97790476D01*
X129538095Y-97838095D01*
X131061904Y-98552380D02*
X130490476Y-98552380D01*
X130776190Y-98552380D02*
X130776190Y-97552380D01*
X130680952Y-97695238D01*
X130585714Y-97790476D01*
X130490476Y-97838095D01*
X94857142Y-88666666D02*
X94904761Y-88714285D01*
X94952380Y-88857142D01*
X94952380Y-88952380D01*
X94904761Y-89095238D01*
X94809523Y-89190476D01*
X94714285Y-89238095D01*
X94523809Y-89285714D01*
X94380952Y-89285714D01*
X94190476Y-89238095D01*
X94095238Y-89190476D01*
X94000000Y-89095238D01*
X93952380Y-88952380D01*
X93952380Y-88857142D01*
X94000000Y-88714285D01*
X94047619Y-88666666D01*
X94380952Y-88095238D02*
X94333333Y-88190476D01*
X94285714Y-88238095D01*
X94190476Y-88285714D01*
X94142857Y-88285714D01*
X94047619Y-88238095D01*
X94000000Y-88190476D01*
X93952380Y-88095238D01*
X93952380Y-87904761D01*
X94000000Y-87809523D01*
X94047619Y-87761904D01*
X94142857Y-87714285D01*
X94190476Y-87714285D01*
X94285714Y-87761904D01*
X94333333Y-87809523D01*
X94380952Y-87904761D01*
X94380952Y-88095238D01*
X94428571Y-88190476D01*
X94476190Y-88238095D01*
X94571428Y-88285714D01*
X94761904Y-88285714D01*
X94857142Y-88238095D01*
X94904761Y-88190476D01*
X94952380Y-88095238D01*
X94952380Y-87904761D01*
X94904761Y-87809523D01*
X94857142Y-87761904D01*
X94761904Y-87714285D01*
X94571428Y-87714285D01*
X94476190Y-87761904D01*
X94428571Y-87809523D01*
X94380952Y-87904761D01*
X108157142Y-94957142D02*
X108109523Y-95004761D01*
X107966666Y-95052380D01*
X107871428Y-95052380D01*
X107728571Y-95004761D01*
X107633333Y-94909523D01*
X107585714Y-94814285D01*
X107538095Y-94623809D01*
X107538095Y-94480952D01*
X107585714Y-94290476D01*
X107633333Y-94195238D01*
X107728571Y-94100000D01*
X107871428Y-94052380D01*
X107966666Y-94052380D01*
X108109523Y-94100000D01*
X108157142Y-94147619D01*
X109109523Y-95052380D02*
X108538095Y-95052380D01*
X108823809Y-95052380D02*
X108823809Y-94052380D01*
X108728571Y-94195238D01*
X108633333Y-94290476D01*
X108538095Y-94338095D01*
X109728571Y-94052380D02*
X109823809Y-94052380D01*
X109919047Y-94100000D01*
X109966666Y-94147619D01*
X110014285Y-94242857D01*
X110061904Y-94433333D01*
X110061904Y-94671428D01*
X110014285Y-94861904D01*
X109966666Y-94957142D01*
X109919047Y-95004761D01*
X109823809Y-95052380D01*
X109728571Y-95052380D01*
X109633333Y-95004761D01*
X109585714Y-94957142D01*
X109538095Y-94861904D01*
X109490476Y-94671428D01*
X109490476Y-94433333D01*
X109538095Y-94242857D01*
X109585714Y-94147619D01*
X109633333Y-94100000D01*
X109728571Y-94052380D01*
X66457142Y-83542857D02*
X66504761Y-83590476D01*
X66552380Y-83733333D01*
X66552380Y-83828571D01*
X66504761Y-83971428D01*
X66409523Y-84066666D01*
X66314285Y-84114285D01*
X66123809Y-84161904D01*
X65980952Y-84161904D01*
X65790476Y-84114285D01*
X65695238Y-84066666D01*
X65600000Y-83971428D01*
X65552380Y-83828571D01*
X65552380Y-83733333D01*
X65600000Y-83590476D01*
X65647619Y-83542857D01*
X65647619Y-83161904D02*
X65600000Y-83114285D01*
X65552380Y-83019047D01*
X65552380Y-82780952D01*
X65600000Y-82685714D01*
X65647619Y-82638095D01*
X65742857Y-82590476D01*
X65838095Y-82590476D01*
X65980952Y-82638095D01*
X66552380Y-83209523D01*
X66552380Y-82590476D01*
X65552380Y-81733333D02*
X65552380Y-81923809D01*
X65600000Y-82019047D01*
X65647619Y-82066666D01*
X65790476Y-82161904D01*
X65980952Y-82209523D01*
X66361904Y-82209523D01*
X66457142Y-82161904D01*
X66504761Y-82114285D01*
X66552380Y-82019047D01*
X66552380Y-81828571D01*
X66504761Y-81733333D01*
X66457142Y-81685714D01*
X66361904Y-81638095D01*
X66123809Y-81638095D01*
X66028571Y-81685714D01*
X65980952Y-81733333D01*
X65933333Y-81828571D01*
X65933333Y-82019047D01*
X65980952Y-82114285D01*
X66028571Y-82161904D01*
X66123809Y-82209523D01*
X90261904Y-102152380D02*
X90261904Y-101152380D01*
X90500000Y-101152380D01*
X90642857Y-101200000D01*
X90738095Y-101295238D01*
X90785714Y-101390476D01*
X90833333Y-101580952D01*
X90833333Y-101723809D01*
X90785714Y-101914285D01*
X90738095Y-102009523D01*
X90642857Y-102104761D01*
X90500000Y-102152380D01*
X90261904Y-102152380D01*
X91166666Y-101152380D02*
X91833333Y-101152380D01*
X91404761Y-102152380D01*
X96238095Y-104252380D02*
X96238095Y-103252380D01*
X96809523Y-104252380D02*
X96380952Y-103680952D01*
X96809523Y-103252380D02*
X96238095Y-103823809D01*
X91061904Y-98252380D02*
X91061904Y-97252380D01*
X91300000Y-97252380D01*
X91442857Y-97300000D01*
X91538095Y-97395238D01*
X91585714Y-97490476D01*
X91633333Y-97680952D01*
X91633333Y-97823809D01*
X91585714Y-98014285D01*
X91538095Y-98109523D01*
X91442857Y-98204761D01*
X91300000Y-98252380D01*
X91061904Y-98252380D01*
X92204761Y-97680952D02*
X92109523Y-97633333D01*
X92061904Y-97585714D01*
X92014285Y-97490476D01*
X92014285Y-97442857D01*
X92061904Y-97347619D01*
X92109523Y-97300000D01*
X92204761Y-97252380D01*
X92395238Y-97252380D01*
X92490476Y-97300000D01*
X92538095Y-97347619D01*
X92585714Y-97442857D01*
X92585714Y-97490476D01*
X92538095Y-97585714D01*
X92490476Y-97633333D01*
X92395238Y-97680952D01*
X92204761Y-97680952D01*
X92109523Y-97728571D01*
X92061904Y-97776190D01*
X92014285Y-97871428D01*
X92014285Y-98061904D01*
X92061904Y-98157142D01*
X92109523Y-98204761D01*
X92204761Y-98252380D01*
X92395238Y-98252380D01*
X92490476Y-98204761D01*
X92538095Y-98157142D01*
X92585714Y-98061904D01*
X92585714Y-97871428D01*
X92538095Y-97776190D01*
X92490476Y-97728571D01*
X92395238Y-97680952D01*
X86038095Y-96152380D02*
X86038095Y-95152380D01*
X86609523Y-96152380D02*
X86180952Y-95580952D01*
X86609523Y-95152380D02*
X86038095Y-95723809D01*
X122201904Y-76772380D02*
X122201904Y-75772380D01*
X122440000Y-75772380D01*
X122582857Y-75820000D01*
X122678095Y-75915238D01*
X122725714Y-76010476D01*
X122773333Y-76200952D01*
X122773333Y-76343809D01*
X122725714Y-76534285D01*
X122678095Y-76629523D01*
X122582857Y-76724761D01*
X122440000Y-76772380D01*
X122201904Y-76772380D01*
X123249523Y-76772380D02*
X123440000Y-76772380D01*
X123535238Y-76724761D01*
X123582857Y-76677142D01*
X123678095Y-76534285D01*
X123725714Y-76343809D01*
X123725714Y-75962857D01*
X123678095Y-75867619D01*
X123630476Y-75820000D01*
X123535238Y-75772380D01*
X123344761Y-75772380D01*
X123249523Y-75820000D01*
X123201904Y-75867619D01*
X123154285Y-75962857D01*
X123154285Y-76200952D01*
X123201904Y-76296190D01*
X123249523Y-76343809D01*
X123344761Y-76391428D01*
X123535238Y-76391428D01*
X123630476Y-76343809D01*
X123678095Y-76296190D01*
X123725714Y-76200952D01*
X117138095Y-74652380D02*
X117138095Y-73652380D01*
X117709523Y-74652380D02*
X117280952Y-74080952D01*
X117709523Y-73652380D02*
X117138095Y-74223809D01*
X128085714Y-85052380D02*
X128085714Y-84052380D01*
X128323809Y-84052380D01*
X128466666Y-84100000D01*
X128561904Y-84195238D01*
X128609523Y-84290476D01*
X128657142Y-84480952D01*
X128657142Y-84623809D01*
X128609523Y-84814285D01*
X128561904Y-84909523D01*
X128466666Y-85004761D01*
X128323809Y-85052380D01*
X128085714Y-85052380D01*
X129609523Y-85052380D02*
X129038095Y-85052380D01*
X129323809Y-85052380D02*
X129323809Y-84052380D01*
X129228571Y-84195238D01*
X129133333Y-84290476D01*
X129038095Y-84338095D01*
X130228571Y-84052380D02*
X130323809Y-84052380D01*
X130419047Y-84100000D01*
X130466666Y-84147619D01*
X130514285Y-84242857D01*
X130561904Y-84433333D01*
X130561904Y-84671428D01*
X130514285Y-84861904D01*
X130466666Y-84957142D01*
X130419047Y-85004761D01*
X130323809Y-85052380D01*
X130228571Y-85052380D01*
X130133333Y-85004761D01*
X130085714Y-84957142D01*
X130038095Y-84861904D01*
X129990476Y-84671428D01*
X129990476Y-84433333D01*
X130038095Y-84242857D01*
X130085714Y-84147619D01*
X130133333Y-84100000D01*
X130228571Y-84052380D01*
X134538095Y-87152380D02*
X134538095Y-86152380D01*
X135109523Y-87152380D02*
X134680952Y-86580952D01*
X135109523Y-86152380D02*
X134538095Y-86723809D01*
D14*
X131359488Y-121705797D02*
X131359488Y-120499297D01*
X132048916Y-121705797D02*
X131531845Y-121016369D01*
X132048916Y-120499297D02*
X131359488Y-121188726D01*
X132508535Y-120614202D02*
X132565988Y-120556750D01*
X132680892Y-120499297D01*
X132968154Y-120499297D01*
X133083059Y-120556750D01*
X133140511Y-120614202D01*
X133197964Y-120729107D01*
X133197964Y-120844011D01*
X133140511Y-121016369D01*
X132451083Y-121705797D01*
X133197964Y-121705797D01*
D15*
X136825991Y-124398620D02*
X136825991Y-123001379D01*
D14*
X136235380Y-118706178D02*
X137154619Y-118706178D01*
X136695000Y-119165797D02*
X136695000Y-118246559D01*
X66859488Y-121705797D02*
X66859488Y-120499297D01*
X67548916Y-121705797D02*
X67031845Y-121016369D01*
X67548916Y-120499297D02*
X66859488Y-121188726D01*
X68697964Y-121705797D02*
X68008535Y-121705797D01*
X68353250Y-121705797D02*
X68353250Y-120499297D01*
X68238345Y-120671654D01*
X68123440Y-120786559D01*
X68008535Y-120844011D01*
D15*
X63435991Y-119318620D02*
X63435991Y-117921379D01*
D14*
X62845380Y-123786178D02*
X63764619Y-123786178D01*
X63305000Y-124245797D02*
X63305000Y-123326559D01*
D10*
X112547619Y-97795238D02*
X112500000Y-97890476D01*
X112404761Y-97985714D01*
X112261904Y-98128571D01*
X112214285Y-98223809D01*
X112214285Y-98319047D01*
X112452380Y-98271428D02*
X112404761Y-98366666D01*
X112309523Y-98461904D01*
X112119047Y-98509523D01*
X111785714Y-98509523D01*
X111595238Y-98461904D01*
X111500000Y-98366666D01*
X111452380Y-98271428D01*
X111452380Y-98080952D01*
X111500000Y-97985714D01*
X111595238Y-97890476D01*
X111785714Y-97842857D01*
X112119047Y-97842857D01*
X112309523Y-97890476D01*
X112404761Y-97985714D01*
X112452380Y-98080952D01*
X112452380Y-98271428D01*
X112452380Y-96890476D02*
X112452380Y-97461904D01*
X112452380Y-97176190D02*
X111452380Y-97176190D01*
X111595238Y-97271428D01*
X111690476Y-97366666D01*
X111738095Y-97461904D01*
X104447619Y-97395238D02*
X104400000Y-97490476D01*
X104304761Y-97585714D01*
X104161904Y-97728571D01*
X104114285Y-97823809D01*
X104114285Y-97919047D01*
X104352380Y-97871428D02*
X104304761Y-97966666D01*
X104209523Y-98061904D01*
X104019047Y-98109523D01*
X103685714Y-98109523D01*
X103495238Y-98061904D01*
X103400000Y-97966666D01*
X103352380Y-97871428D01*
X103352380Y-97680952D01*
X103400000Y-97585714D01*
X103495238Y-97490476D01*
X103685714Y-97442857D01*
X104019047Y-97442857D01*
X104209523Y-97490476D01*
X104304761Y-97585714D01*
X104352380Y-97680952D01*
X104352380Y-97871428D01*
X103447619Y-97061904D02*
X103400000Y-97014285D01*
X103352380Y-96919047D01*
X103352380Y-96680952D01*
X103400000Y-96585714D01*
X103447619Y-96538095D01*
X103542857Y-96490476D01*
X103638095Y-96490476D01*
X103780952Y-96538095D01*
X104352380Y-97109523D01*
X104352380Y-96490476D01*
X82709523Y-80728571D02*
X83042857Y-80728571D01*
X83185714Y-81252380D02*
X82709523Y-81252380D01*
X82709523Y-80252380D01*
X83185714Y-80252380D01*
X83471428Y-80585714D02*
X83852380Y-80585714D01*
X83614285Y-81252380D02*
X83614285Y-80395238D01*
X83661904Y-80300000D01*
X83757142Y-80252380D01*
X83852380Y-80252380D01*
X84042857Y-80585714D02*
X84423809Y-80585714D01*
X84185714Y-81252380D02*
X84185714Y-80395238D01*
X84233333Y-80300000D01*
X84328571Y-80252380D01*
X84423809Y-80252380D01*
X85138095Y-81204761D02*
X85042857Y-81252380D01*
X84852380Y-81252380D01*
X84757142Y-81204761D01*
X84709523Y-81109523D01*
X84709523Y-80728571D01*
X84757142Y-80633333D01*
X84852380Y-80585714D01*
X85042857Y-80585714D01*
X85138095Y-80633333D01*
X85185714Y-80728571D01*
X85185714Y-80823809D01*
X84709523Y-80919047D01*
X86042857Y-81204761D02*
X85947619Y-81252380D01*
X85757142Y-81252380D01*
X85661904Y-81204761D01*
X85614285Y-81157142D01*
X85566666Y-81061904D01*
X85566666Y-80776190D01*
X85614285Y-80680952D01*
X85661904Y-80633333D01*
X85757142Y-80585714D01*
X85947619Y-80585714D01*
X86042857Y-80633333D01*
X86328571Y-80585714D02*
X86709523Y-80585714D01*
X86471428Y-80252380D02*
X86471428Y-81109523D01*
X86519047Y-81204761D01*
X86614285Y-81252380D01*
X86709523Y-81252380D01*
X87233333Y-80252380D02*
X87423809Y-80252380D01*
X87519047Y-80300000D01*
X87614285Y-80395238D01*
X87661904Y-80585714D01*
X87661904Y-80919047D01*
X87614285Y-81109523D01*
X87519047Y-81204761D01*
X87423809Y-81252380D01*
X87233333Y-81252380D01*
X87138095Y-81204761D01*
X87042857Y-81109523D01*
X86995238Y-80919047D01*
X86995238Y-80585714D01*
X87042857Y-80395238D01*
X87138095Y-80300000D01*
X87233333Y-80252380D01*
X88519047Y-80585714D02*
X88519047Y-81252380D01*
X88090476Y-80585714D02*
X88090476Y-81109523D01*
X88138095Y-81204761D01*
X88233333Y-81252380D01*
X88376190Y-81252380D01*
X88471428Y-81204761D01*
X88519047Y-81157142D01*
X88852380Y-80585714D02*
X89233333Y-80585714D01*
X88995238Y-80252380D02*
X88995238Y-81109523D01*
X89042857Y-81204761D01*
X89138095Y-81252380D01*
X89233333Y-81252380D01*
X64952380Y-96961904D02*
X65761904Y-96961904D01*
X65857142Y-96914285D01*
X65904761Y-96866666D01*
X65952380Y-96771428D01*
X65952380Y-96580952D01*
X65904761Y-96485714D01*
X65857142Y-96438095D01*
X65761904Y-96390476D01*
X64952380Y-96390476D01*
X64952380Y-96009523D02*
X64952380Y-95342857D01*
X65952380Y-95771428D01*
X138757142Y-98242857D02*
X138804761Y-98290476D01*
X138852380Y-98433333D01*
X138852380Y-98528571D01*
X138804761Y-98671428D01*
X138709523Y-98766666D01*
X138614285Y-98814285D01*
X138423809Y-98861904D01*
X138280952Y-98861904D01*
X138090476Y-98814285D01*
X137995238Y-98766666D01*
X137900000Y-98671428D01*
X137852380Y-98528571D01*
X137852380Y-98433333D01*
X137900000Y-98290476D01*
X137947619Y-98242857D01*
X138852380Y-97290476D02*
X138852380Y-97861904D01*
X138852380Y-97576190D02*
X137852380Y-97576190D01*
X137995238Y-97671428D01*
X138090476Y-97766666D01*
X138138095Y-97861904D01*
X137947619Y-96909523D02*
X137900000Y-96861904D01*
X137852380Y-96766666D01*
X137852380Y-96528571D01*
X137900000Y-96433333D01*
X137947619Y-96385714D01*
X138042857Y-96338095D01*
X138138095Y-96338095D01*
X138280952Y-96385714D01*
X138852380Y-96957142D01*
X138852380Y-96338095D01*
X122233333Y-104257142D02*
X122185714Y-104304761D01*
X122042857Y-104352380D01*
X121947619Y-104352380D01*
X121804761Y-104304761D01*
X121709523Y-104209523D01*
X121661904Y-104114285D01*
X121614285Y-103923809D01*
X121614285Y-103780952D01*
X121661904Y-103590476D01*
X121709523Y-103495238D01*
X121804761Y-103400000D01*
X121947619Y-103352380D01*
X122042857Y-103352380D01*
X122185714Y-103400000D01*
X122233333Y-103447619D01*
X122614285Y-103447619D02*
X122661904Y-103400000D01*
X122757142Y-103352380D01*
X122995238Y-103352380D01*
X123090476Y-103400000D01*
X123138095Y-103447619D01*
X123185714Y-103542857D01*
X123185714Y-103638095D01*
X123138095Y-103780952D01*
X122566666Y-104352380D01*
X123185714Y-104352380D01*
X105752380Y-88871904D02*
X106561904Y-88871904D01*
X106657142Y-88824285D01*
X106704761Y-88776666D01*
X106752380Y-88681428D01*
X106752380Y-88490952D01*
X106704761Y-88395714D01*
X106657142Y-88348095D01*
X106561904Y-88300476D01*
X105752380Y-88300476D01*
X106752380Y-87300476D02*
X106752380Y-87871904D01*
X106752380Y-87586190D02*
X105752380Y-87586190D01*
X105895238Y-87681428D01*
X105990476Y-87776666D01*
X106038095Y-87871904D01*
X124252380Y-91861904D02*
X125061904Y-91861904D01*
X125157142Y-91814285D01*
X125204761Y-91766666D01*
X125252380Y-91671428D01*
X125252380Y-91480952D01*
X125204761Y-91385714D01*
X125157142Y-91338095D01*
X125061904Y-91290476D01*
X124252380Y-91290476D01*
X124347619Y-90861904D02*
X124300000Y-90814285D01*
X124252380Y-90719047D01*
X124252380Y-90480952D01*
X124300000Y-90385714D01*
X124347619Y-90338095D01*
X124442857Y-90290476D01*
X124538095Y-90290476D01*
X124680952Y-90338095D01*
X125252380Y-90909523D01*
X125252380Y-90290476D01*
X107852380Y-109961904D02*
X108661904Y-109961904D01*
X108757142Y-109914285D01*
X108804761Y-109866666D01*
X108852380Y-109771428D01*
X108852380Y-109580952D01*
X108804761Y-109485714D01*
X108757142Y-109438095D01*
X108661904Y-109390476D01*
X107852380Y-109390476D01*
X107852380Y-109009523D02*
X107852380Y-108390476D01*
X108233333Y-108723809D01*
X108233333Y-108580952D01*
X108280952Y-108485714D01*
X108328571Y-108438095D01*
X108423809Y-108390476D01*
X108661904Y-108390476D01*
X108757142Y-108438095D01*
X108804761Y-108485714D01*
X108852380Y-108580952D01*
X108852380Y-108866666D01*
X108804761Y-108961904D01*
X108757142Y-109009523D01*
X72852380Y-94661904D02*
X73661904Y-94661904D01*
X73757142Y-94614285D01*
X73804761Y-94566666D01*
X73852380Y-94471428D01*
X73852380Y-94280952D01*
X73804761Y-94185714D01*
X73757142Y-94138095D01*
X73661904Y-94090476D01*
X72852380Y-94090476D01*
X72852380Y-93185714D02*
X72852380Y-93376190D01*
X72900000Y-93471428D01*
X72947619Y-93519047D01*
X73090476Y-93614285D01*
X73280952Y-93661904D01*
X73661904Y-93661904D01*
X73757142Y-93614285D01*
X73804761Y-93566666D01*
X73852380Y-93471428D01*
X73852380Y-93280952D01*
X73804761Y-93185714D01*
X73757142Y-93138095D01*
X73661904Y-93090476D01*
X73423809Y-93090476D01*
X73328571Y-93138095D01*
X73280952Y-93185714D01*
X73233333Y-93280952D01*
X73233333Y-93471428D01*
X73280952Y-93566666D01*
X73328571Y-93614285D01*
X73423809Y-93661904D01*
X80352380Y-119761904D02*
X81161904Y-119761904D01*
X81257142Y-119714285D01*
X81304761Y-119666666D01*
X81352380Y-119571428D01*
X81352380Y-119380952D01*
X81304761Y-119285714D01*
X81257142Y-119238095D01*
X81161904Y-119190476D01*
X80352380Y-119190476D01*
X80685714Y-118285714D02*
X81352380Y-118285714D01*
X80304761Y-118523809D02*
X81019047Y-118761904D01*
X81019047Y-118142857D01*
X118352380Y-119961904D02*
X119161904Y-119961904D01*
X119257142Y-119914285D01*
X119304761Y-119866666D01*
X119352380Y-119771428D01*
X119352380Y-119580952D01*
X119304761Y-119485714D01*
X119257142Y-119438095D01*
X119161904Y-119390476D01*
X118352380Y-119390476D01*
X118352380Y-118438095D02*
X118352380Y-118914285D01*
X118828571Y-118961904D01*
X118780952Y-118914285D01*
X118733333Y-118819047D01*
X118733333Y-118580952D01*
X118780952Y-118485714D01*
X118828571Y-118438095D01*
X118923809Y-118390476D01*
X119161904Y-118390476D01*
X119257142Y-118438095D01*
X119304761Y-118485714D01*
X119352380Y-118580952D01*
X119352380Y-118819047D01*
X119304761Y-118914285D01*
X119257142Y-118961904D01*
X78514285Y-87971428D02*
X79276190Y-87971428D01*
X79800000Y-88352380D02*
X79990476Y-88352380D01*
X80085714Y-88304761D01*
X80133333Y-88257142D01*
X80228571Y-88114285D01*
X80276190Y-87923809D01*
X80276190Y-87542857D01*
X80228571Y-87447619D01*
X80180952Y-87400000D01*
X80085714Y-87352380D01*
X79895238Y-87352380D01*
X79800000Y-87400000D01*
X79752380Y-87447619D01*
X79704761Y-87542857D01*
X79704761Y-87780952D01*
X79752380Y-87876190D01*
X79800000Y-87923809D01*
X79895238Y-87971428D01*
X80085714Y-87971428D01*
X80180952Y-87923809D01*
X80228571Y-87876190D01*
X80276190Y-87780952D01*
X80561904Y-87352380D02*
X80895238Y-88352380D01*
X81228571Y-87352380D01*
X63614285Y-106771428D02*
X64376190Y-106771428D01*
X63995238Y-107152380D02*
X63995238Y-106390476D01*
X65328571Y-106152380D02*
X64852380Y-106152380D01*
X64804761Y-106628571D01*
X64852380Y-106580952D01*
X64947619Y-106533333D01*
X65185714Y-106533333D01*
X65280952Y-106580952D01*
X65328571Y-106628571D01*
X65376190Y-106723809D01*
X65376190Y-106961904D01*
X65328571Y-107057142D01*
X65280952Y-107104761D01*
X65185714Y-107152380D01*
X64947619Y-107152380D01*
X64852380Y-107104761D01*
X64804761Y-107057142D01*
X65661904Y-106152380D02*
X65995238Y-107152380D01*
X66328571Y-106152380D01*
X76447619Y-112352380D02*
X76114285Y-111876190D01*
X75876190Y-112352380D02*
X75876190Y-111352380D01*
X76257142Y-111352380D01*
X76352380Y-111400000D01*
X76400000Y-111447619D01*
X76447619Y-111542857D01*
X76447619Y-111685714D01*
X76400000Y-111780952D01*
X76352380Y-111828571D01*
X76257142Y-111876190D01*
X75876190Y-111876190D01*
X77257142Y-112304761D02*
X77161904Y-112352380D01*
X76971428Y-112352380D01*
X76876190Y-112304761D01*
X76828571Y-112209523D01*
X76828571Y-111828571D01*
X76876190Y-111733333D01*
X76971428Y-111685714D01*
X77161904Y-111685714D01*
X77257142Y-111733333D01*
X77304761Y-111828571D01*
X77304761Y-111923809D01*
X76828571Y-112019047D01*
X77638095Y-111685714D02*
X77876190Y-112352380D01*
X78114285Y-111685714D01*
X78876190Y-112304761D02*
X78780952Y-112352380D01*
X78590476Y-112352380D01*
X78495238Y-112304761D01*
X78447619Y-112209523D01*
X78447619Y-111828571D01*
X78495238Y-111733333D01*
X78590476Y-111685714D01*
X78780952Y-111685714D01*
X78876190Y-111733333D01*
X78923809Y-111828571D01*
X78923809Y-111923809D01*
X78447619Y-112019047D01*
X79352380Y-112352380D02*
X79352380Y-111685714D01*
X79352380Y-111876190D02*
X79400000Y-111780952D01*
X79447619Y-111733333D01*
X79542857Y-111685714D01*
X79638095Y-111685714D01*
X79971428Y-112352380D02*
X79971428Y-111352380D01*
X79971428Y-111733333D02*
X80066666Y-111685714D01*
X80257142Y-111685714D01*
X80352380Y-111733333D01*
X80400000Y-111780952D01*
X80447619Y-111876190D01*
X80447619Y-112161904D01*
X80400000Y-112257142D01*
X80352380Y-112304761D01*
X80257142Y-112352380D01*
X80066666Y-112352380D01*
X79971428Y-112304761D01*
X81066666Y-111352380D02*
X81257142Y-111352380D01*
X81352380Y-111400000D01*
X81447619Y-111495238D01*
X81495238Y-111685714D01*
X81495238Y-112019047D01*
X81447619Y-112209523D01*
X81352380Y-112304761D01*
X81257142Y-112352380D01*
X81066666Y-112352380D01*
X80971428Y-112304761D01*
X80876190Y-112209523D01*
X80828571Y-112019047D01*
X80828571Y-111685714D01*
X80876190Y-111495238D01*
X80971428Y-111400000D01*
X81066666Y-111352380D01*
X82352380Y-111685714D02*
X82352380Y-112352380D01*
X81923809Y-111685714D02*
X81923809Y-112209523D01*
X81971428Y-112304761D01*
X82066666Y-112352380D01*
X82209523Y-112352380D01*
X82304761Y-112304761D01*
X82352380Y-112257142D01*
X82685714Y-111685714D02*
X83066666Y-111685714D01*
X82828571Y-111352380D02*
X82828571Y-112209523D01*
X82876190Y-112304761D01*
X82971428Y-112352380D01*
X83066666Y-112352380D01*
X82123809Y-94128571D02*
X81790476Y-94128571D01*
X81790476Y-94652380D02*
X81790476Y-93652380D01*
X82266666Y-93652380D01*
X82647619Y-94652380D02*
X82647619Y-93985714D01*
X82647619Y-94176190D02*
X82695238Y-94080952D01*
X82742857Y-94033333D01*
X82838095Y-93985714D01*
X82933333Y-93985714D01*
X83647619Y-94604761D02*
X83552380Y-94652380D01*
X83361904Y-94652380D01*
X83266666Y-94604761D01*
X83219047Y-94509523D01*
X83219047Y-94128571D01*
X83266666Y-94033333D01*
X83361904Y-93985714D01*
X83552380Y-93985714D01*
X83647619Y-94033333D01*
X83695238Y-94128571D01*
X83695238Y-94223809D01*
X83219047Y-94319047D01*
X84552380Y-93985714D02*
X84552380Y-94985714D01*
X84552380Y-94604761D02*
X84457142Y-94652380D01*
X84266666Y-94652380D01*
X84171428Y-94604761D01*
X84123809Y-94557142D01*
X84076190Y-94461904D01*
X84076190Y-94176190D01*
X84123809Y-94080952D01*
X84171428Y-94033333D01*
X84266666Y-93985714D01*
X84457142Y-93985714D01*
X84552380Y-94033333D01*
X85600000Y-94557142D02*
X85552380Y-94604761D01*
X85409523Y-94652380D01*
X85314285Y-94652380D01*
X85171428Y-94604761D01*
X85076190Y-94509523D01*
X85028571Y-94414285D01*
X84980952Y-94223809D01*
X84980952Y-94080952D01*
X85028571Y-93890476D01*
X85076190Y-93795238D01*
X85171428Y-93700000D01*
X85314285Y-93652380D01*
X85409523Y-93652380D01*
X85552380Y-93700000D01*
X85600000Y-93747619D01*
X85885714Y-93652380D02*
X86219047Y-94652380D01*
X86552380Y-93652380D01*
X63414285Y-127228571D02*
X63557142Y-127276190D01*
X63604761Y-127323809D01*
X63652380Y-127419047D01*
X63652380Y-127561904D01*
X63604761Y-127657142D01*
X63557142Y-127704761D01*
X63461904Y-127752380D01*
X63080952Y-127752380D01*
X63080952Y-126752380D01*
X63414285Y-126752380D01*
X63509523Y-126800000D01*
X63557142Y-126847619D01*
X63604761Y-126942857D01*
X63604761Y-127038095D01*
X63557142Y-127133333D01*
X63509523Y-127180952D01*
X63414285Y-127228571D01*
X63080952Y-127228571D01*
X64223809Y-127752380D02*
X64128571Y-127704761D01*
X64080952Y-127609523D01*
X64080952Y-126752380D01*
X64985714Y-127704761D02*
X64890476Y-127752380D01*
X64700000Y-127752380D01*
X64604761Y-127704761D01*
X64557142Y-127609523D01*
X64557142Y-127228571D01*
X64604761Y-127133333D01*
X64700000Y-127085714D01*
X64890476Y-127085714D01*
X64985714Y-127133333D01*
X65033333Y-127228571D01*
X65033333Y-127323809D01*
X64557142Y-127419047D01*
X65461904Y-127085714D02*
X65461904Y-127752380D01*
X65461904Y-127180952D02*
X65509523Y-127133333D01*
X65604761Y-127085714D01*
X65747619Y-127085714D01*
X65842857Y-127133333D01*
X65890476Y-127228571D01*
X65890476Y-127752380D01*
X66795238Y-127752380D02*
X66795238Y-126752380D01*
X66795238Y-127704761D02*
X66700000Y-127752380D01*
X66509523Y-127752380D01*
X66414285Y-127704761D01*
X66366666Y-127657142D01*
X66319047Y-127561904D01*
X66319047Y-127276190D01*
X66366666Y-127180952D01*
X66414285Y-127133333D01*
X66509523Y-127085714D01*
X66700000Y-127085714D01*
X66795238Y-127133333D01*
X67461904Y-126752380D02*
X67652380Y-126752380D01*
X67747619Y-126800000D01*
X67842857Y-126895238D01*
X67890476Y-127085714D01*
X67890476Y-127419047D01*
X67842857Y-127609523D01*
X67747619Y-127704761D01*
X67652380Y-127752380D01*
X67461904Y-127752380D01*
X67366666Y-127704761D01*
X67271428Y-127609523D01*
X67223809Y-127419047D01*
X67223809Y-127085714D01*
X67271428Y-126895238D01*
X67366666Y-126800000D01*
X67461904Y-126752380D01*
X68747619Y-127085714D02*
X68747619Y-127752380D01*
X68319047Y-127085714D02*
X68319047Y-127609523D01*
X68366666Y-127704761D01*
X68461904Y-127752380D01*
X68604761Y-127752380D01*
X68700000Y-127704761D01*
X68747619Y-127657142D01*
X69080952Y-127085714D02*
X69461904Y-127085714D01*
X69223809Y-126752380D02*
X69223809Y-127609523D01*
X69271428Y-127704761D01*
X69366666Y-127752380D01*
X69461904Y-127752380D01*
X97728571Y-94328571D02*
X97395238Y-94328571D01*
X97395238Y-94852380D02*
X97395238Y-93852380D01*
X97871428Y-93852380D01*
X98252380Y-94852380D02*
X98252380Y-94185714D01*
X98252380Y-93852380D02*
X98204761Y-93900000D01*
X98252380Y-93947619D01*
X98300000Y-93900000D01*
X98252380Y-93852380D01*
X98252380Y-93947619D01*
X98871428Y-94852380D02*
X98776190Y-94804761D01*
X98728571Y-94709523D01*
X98728571Y-93852380D01*
X99109523Y-94185714D02*
X99490476Y-94185714D01*
X99252380Y-93852380D02*
X99252380Y-94709523D01*
X99300000Y-94804761D01*
X99395238Y-94852380D01*
X99490476Y-94852380D01*
X100204761Y-94804761D02*
X100109523Y-94852380D01*
X99919047Y-94852380D01*
X99823809Y-94804761D01*
X99776190Y-94709523D01*
X99776190Y-94328571D01*
X99823809Y-94233333D01*
X99919047Y-94185714D01*
X100109523Y-94185714D01*
X100204761Y-94233333D01*
X100252380Y-94328571D01*
X100252380Y-94423809D01*
X99776190Y-94519047D01*
X100680952Y-94852380D02*
X100680952Y-94185714D01*
X100680952Y-94376190D02*
X100728571Y-94280952D01*
X100776190Y-94233333D01*
X100871428Y-94185714D01*
X100966666Y-94185714D01*
X101300000Y-94852380D02*
X101300000Y-93852380D01*
X101776190Y-94185714D02*
X101776190Y-94852380D01*
X101776190Y-94280952D02*
X101823809Y-94233333D01*
X101919047Y-94185714D01*
X102061904Y-94185714D01*
X102157142Y-94233333D01*
X102204761Y-94328571D01*
X102204761Y-94852380D01*
X137357142Y-109447619D02*
X137404761Y-109495238D01*
X137452380Y-109638095D01*
X137452380Y-109733333D01*
X137404761Y-109876190D01*
X137309523Y-109971428D01*
X137214285Y-110019047D01*
X137023809Y-110066666D01*
X136880952Y-110066666D01*
X136690476Y-110019047D01*
X136595238Y-109971428D01*
X136500000Y-109876190D01*
X136452380Y-109733333D01*
X136452380Y-109638095D01*
X136500000Y-109495238D01*
X136547619Y-109447619D01*
X137452380Y-108876190D02*
X137404761Y-108971428D01*
X137309523Y-109019047D01*
X136452380Y-109019047D01*
X137404761Y-108114285D02*
X137452380Y-108209523D01*
X137452380Y-108400000D01*
X137404761Y-108495238D01*
X137309523Y-108542857D01*
X136928571Y-108542857D01*
X136833333Y-108495238D01*
X136785714Y-108400000D01*
X136785714Y-108209523D01*
X136833333Y-108114285D01*
X136928571Y-108066666D01*
X137023809Y-108066666D01*
X137119047Y-108542857D01*
X137452380Y-107209523D02*
X136928571Y-107209523D01*
X136833333Y-107257142D01*
X136785714Y-107352380D01*
X136785714Y-107542857D01*
X136833333Y-107638095D01*
X137404761Y-107209523D02*
X137452380Y-107304761D01*
X137452380Y-107542857D01*
X137404761Y-107638095D01*
X137309523Y-107685714D01*
X137214285Y-107685714D01*
X137119047Y-107638095D01*
X137071428Y-107542857D01*
X137071428Y-107304761D01*
X137023809Y-107209523D01*
X136785714Y-106733333D02*
X137452380Y-106733333D01*
X136880952Y-106733333D02*
X136833333Y-106685714D01*
X136785714Y-106590476D01*
X136785714Y-106447619D01*
X136833333Y-106352380D01*
X136928571Y-106304761D01*
X137452380Y-106304761D01*
X136452380Y-105638095D02*
X136452380Y-105447619D01*
X136500000Y-105352380D01*
X136595238Y-105257142D01*
X136785714Y-105209523D01*
X137119047Y-105209523D01*
X137309523Y-105257142D01*
X137404761Y-105352380D01*
X137452380Y-105447619D01*
X137452380Y-105638095D01*
X137404761Y-105733333D01*
X137309523Y-105828571D01*
X137119047Y-105876190D01*
X136785714Y-105876190D01*
X136595238Y-105828571D01*
X136500000Y-105733333D01*
X136452380Y-105638095D01*
X136785714Y-104352380D02*
X137452380Y-104352380D01*
X136785714Y-104780952D02*
X137309523Y-104780952D01*
X137404761Y-104733333D01*
X137452380Y-104638095D01*
X137452380Y-104495238D01*
X137404761Y-104400000D01*
X137357142Y-104352380D01*
X136785714Y-104019047D02*
X136785714Y-103638095D01*
X136452380Y-103876190D02*
X137309523Y-103876190D01*
X137404761Y-103828571D01*
X137452380Y-103733333D01*
X137452380Y-103638095D01*
X96335142Y-138591142D02*
X96552857Y-138663714D01*
X96625428Y-138736285D01*
X96698000Y-138881428D01*
X96698000Y-139099142D01*
X96625428Y-139244285D01*
X96552857Y-139316857D01*
X96407714Y-139389428D01*
X95827142Y-139389428D01*
X95827142Y-137865428D01*
X96335142Y-137865428D01*
X96480285Y-137938000D01*
X96552857Y-138010571D01*
X96625428Y-138155714D01*
X96625428Y-138300857D01*
X96552857Y-138446000D01*
X96480285Y-138518571D01*
X96335142Y-138591142D01*
X95827142Y-138591142D01*
X97133428Y-137865428D02*
X98004285Y-137865428D01*
X97568857Y-139389428D02*
X97568857Y-137865428D01*
X98512285Y-139389428D02*
X98512285Y-137865428D01*
X98875142Y-137865428D01*
X99092857Y-137938000D01*
X99238000Y-138083142D01*
X99310571Y-138228285D01*
X99383142Y-138518571D01*
X99383142Y-138736285D01*
X99310571Y-139026571D01*
X99238000Y-139171714D01*
X99092857Y-139316857D01*
X98875142Y-139389428D01*
X98512285Y-139389428D01*
X100907142Y-139389428D02*
X100399142Y-138663714D01*
X100036285Y-139389428D02*
X100036285Y-137865428D01*
X100616857Y-137865428D01*
X100762000Y-137938000D01*
X100834571Y-138010571D01*
X100907142Y-138155714D01*
X100907142Y-138373428D01*
X100834571Y-138518571D01*
X100762000Y-138591142D01*
X100616857Y-138663714D01*
X100036285Y-138663714D01*
X101560285Y-138808857D02*
X102721428Y-138808857D01*
X103302000Y-137865428D02*
X104245428Y-137865428D01*
X103737428Y-138446000D01*
X103955142Y-138446000D01*
X104100285Y-138518571D01*
X104172857Y-138591142D01*
X104245428Y-138736285D01*
X104245428Y-139099142D01*
X104172857Y-139244285D01*
X104100285Y-139316857D01*
X103955142Y-139389428D01*
X103519714Y-139389428D01*
X103374571Y-139316857D01*
X103302000Y-139244285D01*
D16*
X88845771Y-125166638D02*
X88294228Y-125166638D01*
X88570000Y-125166638D02*
X88570000Y-124201438D01*
X88478076Y-124339323D01*
X88386152Y-124431247D01*
X88294228Y-124477209D01*
X90834228Y-124293361D02*
X90880190Y-124247400D01*
X90972114Y-124201438D01*
X91201923Y-124201438D01*
X91293847Y-124247400D01*
X91339809Y-124293361D01*
X91385771Y-124385285D01*
X91385771Y-124477209D01*
X91339809Y-124615095D01*
X90788266Y-125166638D01*
X91385771Y-125166638D01*
X93328266Y-124201438D02*
X93925771Y-124201438D01*
X93604038Y-124569133D01*
X93741923Y-124569133D01*
X93833847Y-124615095D01*
X93879809Y-124661057D01*
X93925771Y-124752980D01*
X93925771Y-124982790D01*
X93879809Y-125074714D01*
X93833847Y-125120676D01*
X93741923Y-125166638D01*
X93466152Y-125166638D01*
X93374228Y-125120676D01*
X93328266Y-125074714D01*
X96373847Y-124523171D02*
X96373847Y-125166638D01*
X96144038Y-124155476D02*
X95914228Y-124844904D01*
X96511733Y-124844904D01*
X98959809Y-124201438D02*
X98500190Y-124201438D01*
X98454228Y-124661057D01*
X98500190Y-124615095D01*
X98592114Y-124569133D01*
X98821923Y-124569133D01*
X98913847Y-124615095D01*
X98959809Y-124661057D01*
X99005771Y-124752980D01*
X99005771Y-124982790D01*
X98959809Y-125074714D01*
X98913847Y-125120676D01*
X98821923Y-125166638D01*
X98592114Y-125166638D01*
X98500190Y-125120676D01*
X98454228Y-125074714D01*
X101453847Y-124201438D02*
X101270000Y-124201438D01*
X101178076Y-124247400D01*
X101132114Y-124293361D01*
X101040190Y-124431247D01*
X100994228Y-124615095D01*
X100994228Y-124982790D01*
X101040190Y-125074714D01*
X101086152Y-125120676D01*
X101178076Y-125166638D01*
X101361923Y-125166638D01*
X101453847Y-125120676D01*
X101499809Y-125074714D01*
X101545771Y-124982790D01*
X101545771Y-124752980D01*
X101499809Y-124661057D01*
X101453847Y-124615095D01*
X101361923Y-124569133D01*
X101178076Y-124569133D01*
X101086152Y-124615095D01*
X101040190Y-124661057D01*
X100994228Y-124752980D01*
X103488266Y-124201438D02*
X104131733Y-124201438D01*
X103718076Y-125166638D01*
X106258076Y-124615095D02*
X106166152Y-124569133D01*
X106120190Y-124523171D01*
X106074228Y-124431247D01*
X106074228Y-124385285D01*
X106120190Y-124293361D01*
X106166152Y-124247400D01*
X106258076Y-124201438D01*
X106441923Y-124201438D01*
X106533847Y-124247400D01*
X106579809Y-124293361D01*
X106625771Y-124385285D01*
X106625771Y-124431247D01*
X106579809Y-124523171D01*
X106533847Y-124569133D01*
X106441923Y-124615095D01*
X106258076Y-124615095D01*
X106166152Y-124661057D01*
X106120190Y-124707019D01*
X106074228Y-124798942D01*
X106074228Y-124982790D01*
X106120190Y-125074714D01*
X106166152Y-125120676D01*
X106258076Y-125166638D01*
X106441923Y-125166638D01*
X106533847Y-125120676D01*
X106579809Y-125074714D01*
X106625771Y-124982790D01*
X106625771Y-124798942D01*
X106579809Y-124707019D01*
X106533847Y-124661057D01*
X106441923Y-124615095D01*
X108706152Y-125166638D02*
X108890000Y-125166638D01*
X108981923Y-125120676D01*
X109027885Y-125074714D01*
X109119809Y-124936828D01*
X109165771Y-124752980D01*
X109165771Y-124385285D01*
X109119809Y-124293361D01*
X109073847Y-124247400D01*
X108981923Y-124201438D01*
X108798076Y-124201438D01*
X108706152Y-124247400D01*
X108660190Y-124293361D01*
X108614228Y-124385285D01*
X108614228Y-124615095D01*
X108660190Y-124707019D01*
X108706152Y-124752980D01*
X108798076Y-124798942D01*
X108981923Y-124798942D01*
X109073847Y-124752980D01*
X109119809Y-124707019D01*
X109165771Y-124615095D01*
X111246152Y-125166638D02*
X110694609Y-125166638D01*
X110970380Y-125166638D02*
X110970380Y-124201438D01*
X110878457Y-124339323D01*
X110786533Y-124431247D01*
X110694609Y-124477209D01*
X111843657Y-124201438D02*
X111935580Y-124201438D01*
X112027504Y-124247400D01*
X112073466Y-124293361D01*
X112119428Y-124385285D01*
X112165390Y-124569133D01*
X112165390Y-124798942D01*
X112119428Y-124982790D01*
X112073466Y-125074714D01*
X112027504Y-125120676D01*
X111935580Y-125166638D01*
X111843657Y-125166638D01*
X111751733Y-125120676D01*
X111705771Y-125074714D01*
X111659809Y-124982790D01*
X111613847Y-124798942D01*
X111613847Y-124569133D01*
X111659809Y-124385285D01*
X111705771Y-124293361D01*
X111751733Y-124247400D01*
X111843657Y-124201438D01*
D10*
X65861904Y-112652380D02*
X65861904Y-111652380D01*
X66100000Y-111652380D01*
X66242857Y-111700000D01*
X66338095Y-111795238D01*
X66385714Y-111890476D01*
X66433333Y-112080952D01*
X66433333Y-112223809D01*
X66385714Y-112414285D01*
X66338095Y-112509523D01*
X66242857Y-112604761D01*
X66100000Y-112652380D01*
X65861904Y-112652380D01*
X66814285Y-111747619D02*
X66861904Y-111700000D01*
X66957142Y-111652380D01*
X67195238Y-111652380D01*
X67290476Y-111700000D01*
X67338095Y-111747619D01*
X67385714Y-111842857D01*
X67385714Y-111938095D01*
X67338095Y-112080952D01*
X66766666Y-112652380D01*
X67385714Y-112652380D01*
X60938095Y-110552380D02*
X60938095Y-109552380D01*
X61509523Y-110552380D02*
X61080952Y-109980952D01*
X61509523Y-109552380D02*
X60938095Y-110123809D01*
X73761904Y-127952380D02*
X73761904Y-126952380D01*
X74000000Y-126952380D01*
X74142857Y-127000000D01*
X74238095Y-127095238D01*
X74285714Y-127190476D01*
X74333333Y-127380952D01*
X74333333Y-127523809D01*
X74285714Y-127714285D01*
X74238095Y-127809523D01*
X74142857Y-127904761D01*
X74000000Y-127952380D01*
X73761904Y-127952380D01*
X74666666Y-126952380D02*
X75285714Y-126952380D01*
X74952380Y-127333333D01*
X75095238Y-127333333D01*
X75190476Y-127380952D01*
X75238095Y-127428571D01*
X75285714Y-127523809D01*
X75285714Y-127761904D01*
X75238095Y-127857142D01*
X75190476Y-127904761D01*
X75095238Y-127952380D01*
X74809523Y-127952380D01*
X74714285Y-127904761D01*
X74666666Y-127857142D01*
X65861904Y-116052380D02*
X65861904Y-115052380D01*
X66100000Y-115052380D01*
X66242857Y-115100000D01*
X66338095Y-115195238D01*
X66385714Y-115290476D01*
X66433333Y-115480952D01*
X66433333Y-115623809D01*
X66385714Y-115814285D01*
X66338095Y-115909523D01*
X66242857Y-116004761D01*
X66100000Y-116052380D01*
X65861904Y-116052380D01*
X67385714Y-116052380D02*
X66814285Y-116052380D01*
X67100000Y-116052380D02*
X67100000Y-115052380D01*
X67004761Y-115195238D01*
X66909523Y-115290476D01*
X66814285Y-115338095D01*
X60938095Y-113852380D02*
X60938095Y-112852380D01*
X61509523Y-113852380D02*
X61080952Y-113280952D01*
X61509523Y-112852380D02*
X60938095Y-113423809D01*
X124991904Y-133612380D02*
X124991904Y-132612380D01*
X125230000Y-132612380D01*
X125372857Y-132660000D01*
X125468095Y-132755238D01*
X125515714Y-132850476D01*
X125563333Y-133040952D01*
X125563333Y-133183809D01*
X125515714Y-133374285D01*
X125468095Y-133469523D01*
X125372857Y-133564761D01*
X125230000Y-133612380D01*
X124991904Y-133612380D01*
X126468095Y-132612380D02*
X125991904Y-132612380D01*
X125944285Y-133088571D01*
X125991904Y-133040952D01*
X126087142Y-132993333D01*
X126325238Y-132993333D01*
X126420476Y-133040952D01*
X126468095Y-133088571D01*
X126515714Y-133183809D01*
X126515714Y-133421904D01*
X126468095Y-133517142D01*
X126420476Y-133564761D01*
X126325238Y-133612380D01*
X126087142Y-133612380D01*
X125991904Y-133564761D01*
X125944285Y-133517142D01*
X132561904Y-115752380D02*
X132561904Y-114752380D01*
X132800000Y-114752380D01*
X132942857Y-114800000D01*
X133038095Y-114895238D01*
X133085714Y-114990476D01*
X133133333Y-115180952D01*
X133133333Y-115323809D01*
X133085714Y-115514285D01*
X133038095Y-115609523D01*
X132942857Y-115704761D01*
X132800000Y-115752380D01*
X132561904Y-115752380D01*
X133990476Y-115085714D02*
X133990476Y-115752380D01*
X133752380Y-114704761D02*
X133514285Y-115419047D01*
X134133333Y-115419047D01*
X138438095Y-117852380D02*
X138438095Y-116852380D01*
X139009523Y-117852380D02*
X138580952Y-117280952D01*
X139009523Y-116852380D02*
X138438095Y-117423809D01*
X132461904Y-112352380D02*
X132461904Y-111352380D01*
X132700000Y-111352380D01*
X132842857Y-111400000D01*
X132938095Y-111495238D01*
X132985714Y-111590476D01*
X133033333Y-111780952D01*
X133033333Y-111923809D01*
X132985714Y-112114285D01*
X132938095Y-112209523D01*
X132842857Y-112304761D01*
X132700000Y-112352380D01*
X132461904Y-112352380D01*
X133890476Y-111352380D02*
X133700000Y-111352380D01*
X133604761Y-111400000D01*
X133557142Y-111447619D01*
X133461904Y-111590476D01*
X133414285Y-111780952D01*
X133414285Y-112161904D01*
X133461904Y-112257142D01*
X133509523Y-112304761D01*
X133604761Y-112352380D01*
X133795238Y-112352380D01*
X133890476Y-112304761D01*
X133938095Y-112257142D01*
X133985714Y-112161904D01*
X133985714Y-111923809D01*
X133938095Y-111828571D01*
X133890476Y-111780952D01*
X133795238Y-111733333D01*
X133604761Y-111733333D01*
X133509523Y-111780952D01*
X133461904Y-111828571D01*
X133414285Y-111923809D01*
X138438095Y-114552380D02*
X138438095Y-113552380D01*
X139009523Y-114552380D02*
X138580952Y-113980952D01*
X139009523Y-113552380D02*
X138438095Y-114123809D01*
X75757142Y-83157142D02*
X75709523Y-83204761D01*
X75566666Y-83252380D01*
X75471428Y-83252380D01*
X75328571Y-83204761D01*
X75233333Y-83109523D01*
X75185714Y-83014285D01*
X75138095Y-82823809D01*
X75138095Y-82680952D01*
X75185714Y-82490476D01*
X75233333Y-82395238D01*
X75328571Y-82300000D01*
X75471428Y-82252380D01*
X75566666Y-82252380D01*
X75709523Y-82300000D01*
X75757142Y-82347619D01*
X76138095Y-82347619D02*
X76185714Y-82300000D01*
X76280952Y-82252380D01*
X76519047Y-82252380D01*
X76614285Y-82300000D01*
X76661904Y-82347619D01*
X76709523Y-82442857D01*
X76709523Y-82538095D01*
X76661904Y-82680952D01*
X76090476Y-83252380D01*
X76709523Y-83252380D01*
X77614285Y-82252380D02*
X77138095Y-82252380D01*
X77090476Y-82728571D01*
X77138095Y-82680952D01*
X77233333Y-82633333D01*
X77471428Y-82633333D01*
X77566666Y-82680952D01*
X77614285Y-82728571D01*
X77661904Y-82823809D01*
X77661904Y-83061904D01*
X77614285Y-83157142D01*
X77566666Y-83204761D01*
X77471428Y-83252380D01*
X77233333Y-83252380D01*
X77138095Y-83204761D01*
X77090476Y-83157142D01*
X66357142Y-102542857D02*
X66404761Y-102590476D01*
X66452380Y-102733333D01*
X66452380Y-102828571D01*
X66404761Y-102971428D01*
X66309523Y-103066666D01*
X66214285Y-103114285D01*
X66023809Y-103161904D01*
X65880952Y-103161904D01*
X65690476Y-103114285D01*
X65595238Y-103066666D01*
X65500000Y-102971428D01*
X65452380Y-102828571D01*
X65452380Y-102733333D01*
X65500000Y-102590476D01*
X65547619Y-102542857D01*
X65547619Y-102161904D02*
X65500000Y-102114285D01*
X65452380Y-102019047D01*
X65452380Y-101780952D01*
X65500000Y-101685714D01*
X65547619Y-101638095D01*
X65642857Y-101590476D01*
X65738095Y-101590476D01*
X65880952Y-101638095D01*
X66452380Y-102209523D01*
X66452380Y-101590476D01*
X65785714Y-100733333D02*
X66452380Y-100733333D01*
X65404761Y-100971428D02*
X66119047Y-101209523D01*
X66119047Y-100590476D01*
X73957142Y-99857142D02*
X73909523Y-99904761D01*
X73766666Y-99952380D01*
X73671428Y-99952380D01*
X73528571Y-99904761D01*
X73433333Y-99809523D01*
X73385714Y-99714285D01*
X73338095Y-99523809D01*
X73338095Y-99380952D01*
X73385714Y-99190476D01*
X73433333Y-99095238D01*
X73528571Y-99000000D01*
X73671428Y-98952380D01*
X73766666Y-98952380D01*
X73909523Y-99000000D01*
X73957142Y-99047619D01*
X74338095Y-99047619D02*
X74385714Y-99000000D01*
X74480952Y-98952380D01*
X74719047Y-98952380D01*
X74814285Y-99000000D01*
X74861904Y-99047619D01*
X74909523Y-99142857D01*
X74909523Y-99238095D01*
X74861904Y-99380952D01*
X74290476Y-99952380D01*
X74909523Y-99952380D01*
X75242857Y-98952380D02*
X75861904Y-98952380D01*
X75528571Y-99333333D01*
X75671428Y-99333333D01*
X75766666Y-99380952D01*
X75814285Y-99428571D01*
X75861904Y-99523809D01*
X75861904Y-99761904D01*
X75814285Y-99857142D01*
X75766666Y-99904761D01*
X75671428Y-99952380D01*
X75385714Y-99952380D01*
X75290476Y-99904761D01*
X75242857Y-99857142D01*
X66457142Y-89742857D02*
X66504761Y-89790476D01*
X66552380Y-89933333D01*
X66552380Y-90028571D01*
X66504761Y-90171428D01*
X66409523Y-90266666D01*
X66314285Y-90314285D01*
X66123809Y-90361904D01*
X65980952Y-90361904D01*
X65790476Y-90314285D01*
X65695238Y-90266666D01*
X65600000Y-90171428D01*
X65552380Y-90028571D01*
X65552380Y-89933333D01*
X65600000Y-89790476D01*
X65647619Y-89742857D01*
X65647619Y-89361904D02*
X65600000Y-89314285D01*
X65552380Y-89219047D01*
X65552380Y-88980952D01*
X65600000Y-88885714D01*
X65647619Y-88838095D01*
X65742857Y-88790476D01*
X65838095Y-88790476D01*
X65980952Y-88838095D01*
X66552380Y-89409523D01*
X66552380Y-88790476D01*
X65647619Y-88409523D02*
X65600000Y-88361904D01*
X65552380Y-88266666D01*
X65552380Y-88028571D01*
X65600000Y-87933333D01*
X65647619Y-87885714D01*
X65742857Y-87838095D01*
X65838095Y-87838095D01*
X65980952Y-87885714D01*
X66552380Y-88457142D01*
X66552380Y-87838095D01*
X69957142Y-83057142D02*
X69909523Y-83104761D01*
X69766666Y-83152380D01*
X69671428Y-83152380D01*
X69528571Y-83104761D01*
X69433333Y-83009523D01*
X69385714Y-82914285D01*
X69338095Y-82723809D01*
X69338095Y-82580952D01*
X69385714Y-82390476D01*
X69433333Y-82295238D01*
X69528571Y-82200000D01*
X69671428Y-82152380D01*
X69766666Y-82152380D01*
X69909523Y-82200000D01*
X69957142Y-82247619D01*
X70338095Y-82247619D02*
X70385714Y-82200000D01*
X70480952Y-82152380D01*
X70719047Y-82152380D01*
X70814285Y-82200000D01*
X70861904Y-82247619D01*
X70909523Y-82342857D01*
X70909523Y-82438095D01*
X70861904Y-82580952D01*
X70290476Y-83152380D01*
X70909523Y-83152380D01*
X71861904Y-83152380D02*
X71290476Y-83152380D01*
X71576190Y-83152380D02*
X71576190Y-82152380D01*
X71480952Y-82295238D01*
X71385714Y-82390476D01*
X71290476Y-82438095D01*
X90457142Y-120257142D02*
X90409523Y-120304761D01*
X90266666Y-120352380D01*
X90171428Y-120352380D01*
X90028571Y-120304761D01*
X89933333Y-120209523D01*
X89885714Y-120114285D01*
X89838095Y-119923809D01*
X89838095Y-119780952D01*
X89885714Y-119590476D01*
X89933333Y-119495238D01*
X90028571Y-119400000D01*
X90171428Y-119352380D01*
X90266666Y-119352380D01*
X90409523Y-119400000D01*
X90457142Y-119447619D01*
X91409523Y-120352380D02*
X90838095Y-120352380D01*
X91123809Y-120352380D02*
X91123809Y-119352380D01*
X91028571Y-119495238D01*
X90933333Y-119590476D01*
X90838095Y-119638095D01*
X91742857Y-119352380D02*
X92409523Y-119352380D01*
X91980952Y-120352380D01*
X88657142Y-88866666D02*
X88704761Y-88914285D01*
X88752380Y-89057142D01*
X88752380Y-89152380D01*
X88704761Y-89295238D01*
X88609523Y-89390476D01*
X88514285Y-89438095D01*
X88323809Y-89485714D01*
X88180952Y-89485714D01*
X87990476Y-89438095D01*
X87895238Y-89390476D01*
X87800000Y-89295238D01*
X87752380Y-89152380D01*
X87752380Y-89057142D01*
X87800000Y-88914285D01*
X87847619Y-88866666D01*
X87752380Y-88533333D02*
X87752380Y-87866666D01*
X88752380Y-88295238D01*
X108533333Y-119257142D02*
X108485714Y-119304761D01*
X108342857Y-119352380D01*
X108247619Y-119352380D01*
X108104761Y-119304761D01*
X108009523Y-119209523D01*
X107961904Y-119114285D01*
X107914285Y-118923809D01*
X107914285Y-118780952D01*
X107961904Y-118590476D01*
X108009523Y-118495238D01*
X108104761Y-118400000D01*
X108247619Y-118352380D01*
X108342857Y-118352380D01*
X108485714Y-118400000D01*
X108533333Y-118447619D01*
X109438095Y-118352380D02*
X108961904Y-118352380D01*
X108914285Y-118828571D01*
X108961904Y-118780952D01*
X109057142Y-118733333D01*
X109295238Y-118733333D01*
X109390476Y-118780952D01*
X109438095Y-118828571D01*
X109485714Y-118923809D01*
X109485714Y-119161904D01*
X109438095Y-119257142D01*
X109390476Y-119304761D01*
X109295238Y-119352380D01*
X109057142Y-119352380D01*
X108961904Y-119304761D01*
X108914285Y-119257142D01*
X98533333Y-119257142D02*
X98485714Y-119304761D01*
X98342857Y-119352380D01*
X98247619Y-119352380D01*
X98104761Y-119304761D01*
X98009523Y-119209523D01*
X97961904Y-119114285D01*
X97914285Y-118923809D01*
X97914285Y-118780952D01*
X97961904Y-118590476D01*
X98009523Y-118495238D01*
X98104761Y-118400000D01*
X98247619Y-118352380D01*
X98342857Y-118352380D01*
X98485714Y-118400000D01*
X98533333Y-118447619D01*
X99485714Y-119352380D02*
X98914285Y-119352380D01*
X99200000Y-119352380D02*
X99200000Y-118352380D01*
X99104761Y-118495238D01*
X99009523Y-118590476D01*
X98914285Y-118638095D01*
X68202000Y-144929428D02*
X67694000Y-144203714D01*
X67331142Y-144929428D02*
X67331142Y-143405428D01*
X67911714Y-143405428D01*
X68056857Y-143478000D01*
X68129428Y-143550571D01*
X68202000Y-143695714D01*
X68202000Y-143913428D01*
X68129428Y-144058571D01*
X68056857Y-144131142D01*
X67911714Y-144203714D01*
X67331142Y-144203714D01*
X69435714Y-144856857D02*
X69290571Y-144929428D01*
X69000285Y-144929428D01*
X68855142Y-144856857D01*
X68782571Y-144711714D01*
X68782571Y-144131142D01*
X68855142Y-143986000D01*
X69000285Y-143913428D01*
X69290571Y-143913428D01*
X69435714Y-143986000D01*
X69508285Y-144131142D01*
X69508285Y-144276285D01*
X68782571Y-144421428D01*
X69943714Y-143913428D02*
X70524285Y-143913428D01*
X70161428Y-144929428D02*
X70161428Y-143623142D01*
X70234000Y-143478000D01*
X70379142Y-143405428D01*
X70524285Y-143405428D01*
X71250000Y-143405428D02*
X71250000Y-143768285D01*
X70887142Y-143623142D02*
X71250000Y-143768285D01*
X71612857Y-143623142D01*
X71032285Y-144058571D02*
X71250000Y-143768285D01*
X71467714Y-144058571D01*
X72411142Y-143405428D02*
X72411142Y-143768285D01*
X72048285Y-143623142D02*
X72411142Y-143768285D01*
X72774000Y-143623142D01*
X72193428Y-144058571D02*
X72411142Y-143768285D01*
X72628857Y-144058571D01*
X67222285Y-143405428D02*
X67730285Y-144929428D01*
X68238285Y-143405428D01*
X69399428Y-144929428D02*
X69399428Y-144131142D01*
X69326857Y-143986000D01*
X69181714Y-143913428D01*
X68891428Y-143913428D01*
X68746285Y-143986000D01*
X69399428Y-144856857D02*
X69254285Y-144929428D01*
X68891428Y-144929428D01*
X68746285Y-144856857D01*
X68673714Y-144711714D01*
X68673714Y-144566571D01*
X68746285Y-144421428D01*
X68891428Y-144348857D01*
X69254285Y-144348857D01*
X69399428Y-144276285D01*
X70342857Y-144929428D02*
X70197714Y-144856857D01*
X70125142Y-144711714D01*
X70125142Y-143405428D01*
X71141142Y-143405428D02*
X71141142Y-143768285D01*
X70778285Y-143623142D02*
X71141142Y-143768285D01*
X71504000Y-143623142D01*
X70923428Y-144058571D02*
X71141142Y-143768285D01*
X71358857Y-144058571D01*
X72302285Y-143405428D02*
X72302285Y-143768285D01*
X71939428Y-143623142D02*
X72302285Y-143768285D01*
X72665142Y-143623142D01*
X72084571Y-144058571D02*
X72302285Y-143768285D01*
X72520000Y-144058571D01*
X128242000Y-144929428D02*
X127734000Y-144203714D01*
X127371142Y-144929428D02*
X127371142Y-143405428D01*
X127951714Y-143405428D01*
X128096857Y-143478000D01*
X128169428Y-143550571D01*
X128242000Y-143695714D01*
X128242000Y-143913428D01*
X128169428Y-144058571D01*
X128096857Y-144131142D01*
X127951714Y-144203714D01*
X127371142Y-144203714D01*
X129475714Y-144856857D02*
X129330571Y-144929428D01*
X129040285Y-144929428D01*
X128895142Y-144856857D01*
X128822571Y-144711714D01*
X128822571Y-144131142D01*
X128895142Y-143986000D01*
X129040285Y-143913428D01*
X129330571Y-143913428D01*
X129475714Y-143986000D01*
X129548285Y-144131142D01*
X129548285Y-144276285D01*
X128822571Y-144421428D01*
X129983714Y-143913428D02*
X130564285Y-143913428D01*
X130201428Y-144929428D02*
X130201428Y-143623142D01*
X130274000Y-143478000D01*
X130419142Y-143405428D01*
X130564285Y-143405428D01*
X131290000Y-143405428D02*
X131290000Y-143768285D01*
X130927142Y-143623142D02*
X131290000Y-143768285D01*
X131652857Y-143623142D01*
X131072285Y-144058571D02*
X131290000Y-143768285D01*
X131507714Y-144058571D01*
X132451142Y-143405428D02*
X132451142Y-143768285D01*
X132088285Y-143623142D02*
X132451142Y-143768285D01*
X132814000Y-143623142D01*
X132233428Y-144058571D02*
X132451142Y-143768285D01*
X132668857Y-144058571D01*
X127262285Y-143405428D02*
X127770285Y-144929428D01*
X128278285Y-143405428D01*
X129439428Y-144929428D02*
X129439428Y-144131142D01*
X129366857Y-143986000D01*
X129221714Y-143913428D01*
X128931428Y-143913428D01*
X128786285Y-143986000D01*
X129439428Y-144856857D02*
X129294285Y-144929428D01*
X128931428Y-144929428D01*
X128786285Y-144856857D01*
X128713714Y-144711714D01*
X128713714Y-144566571D01*
X128786285Y-144421428D01*
X128931428Y-144348857D01*
X129294285Y-144348857D01*
X129439428Y-144276285D01*
X130382857Y-144929428D02*
X130237714Y-144856857D01*
X130165142Y-144711714D01*
X130165142Y-143405428D01*
X131181142Y-143405428D02*
X131181142Y-143768285D01*
X130818285Y-143623142D02*
X131181142Y-143768285D01*
X131544000Y-143623142D01*
X130963428Y-144058571D02*
X131181142Y-143768285D01*
X131398857Y-144058571D01*
X132342285Y-143405428D02*
X132342285Y-143768285D01*
X131979428Y-143623142D02*
X132342285Y-143768285D01*
X132705142Y-143623142D01*
X132124571Y-144058571D02*
X132342285Y-143768285D01*
X132560000Y-144058571D01*
M02*
